%TF.GenerationSoftware,KiCad,Pcbnew,7.0.2-0*%
%TF.CreationDate,2023-10-25T22:44:16+02:00*%
%TF.ProjectId,3340_vco,33333430-5f76-4636-9f2e-6b696361645f,rev?*%
%TF.SameCoordinates,Original*%
%TF.FileFunction,Drillmap*%
%TF.FilePolarity,Positive*%
%FSLAX45Y45*%
G04 Gerber Fmt 4.5, Leading zero omitted, Abs format (unit mm)*
G04 Created by KiCad (PCBNEW 7.0.2-0) date 2023-10-25 22:44:16*
%MOMM*%
%LPD*%
G01*
G04 APERTURE LIST*
%ADD10C,0.100000*%
%ADD11C,0.200000*%
G04 APERTURE END LIST*
D10*
X20320000Y-2540000D02*
X20320000Y-12420600D01*
X24320000Y-2540000D02*
X24320000Y-12420600D01*
X20320000Y-12420600D02*
X24320000Y-12420600D01*
X20320000Y-2540000D02*
X24320000Y-2540000D01*
D11*
X20562619Y-12738124D02*
X20562619Y-12538124D01*
X20562619Y-12538124D02*
X20610238Y-12538124D01*
X20610238Y-12538124D02*
X20638810Y-12547648D01*
X20638810Y-12547648D02*
X20657857Y-12566695D01*
X20657857Y-12566695D02*
X20667381Y-12585743D01*
X20667381Y-12585743D02*
X20676905Y-12623838D01*
X20676905Y-12623838D02*
X20676905Y-12652409D01*
X20676905Y-12652409D02*
X20667381Y-12690505D01*
X20667381Y-12690505D02*
X20657857Y-12709552D01*
X20657857Y-12709552D02*
X20638810Y-12728600D01*
X20638810Y-12728600D02*
X20610238Y-12738124D01*
X20610238Y-12738124D02*
X20562619Y-12738124D01*
X20762619Y-12738124D02*
X20762619Y-12604790D01*
X20762619Y-12642886D02*
X20772143Y-12623838D01*
X20772143Y-12623838D02*
X20781667Y-12614314D01*
X20781667Y-12614314D02*
X20800714Y-12604790D01*
X20800714Y-12604790D02*
X20819762Y-12604790D01*
X20886429Y-12738124D02*
X20886429Y-12604790D01*
X20886429Y-12538124D02*
X20876905Y-12547648D01*
X20876905Y-12547648D02*
X20886429Y-12557171D01*
X20886429Y-12557171D02*
X20895952Y-12547648D01*
X20895952Y-12547648D02*
X20886429Y-12538124D01*
X20886429Y-12538124D02*
X20886429Y-12557171D01*
X21010238Y-12738124D02*
X20991190Y-12728600D01*
X20991190Y-12728600D02*
X20981667Y-12709552D01*
X20981667Y-12709552D02*
X20981667Y-12538124D01*
X21115000Y-12738124D02*
X21095952Y-12728600D01*
X21095952Y-12728600D02*
X21086429Y-12709552D01*
X21086429Y-12709552D02*
X21086429Y-12538124D01*
X21343571Y-12738124D02*
X21343571Y-12538124D01*
X21343571Y-12538124D02*
X21410238Y-12680981D01*
X21410238Y-12680981D02*
X21476905Y-12538124D01*
X21476905Y-12538124D02*
X21476905Y-12738124D01*
X21657857Y-12738124D02*
X21657857Y-12633362D01*
X21657857Y-12633362D02*
X21648333Y-12614314D01*
X21648333Y-12614314D02*
X21629286Y-12604790D01*
X21629286Y-12604790D02*
X21591190Y-12604790D01*
X21591190Y-12604790D02*
X21572143Y-12614314D01*
X21657857Y-12728600D02*
X21638810Y-12738124D01*
X21638810Y-12738124D02*
X21591190Y-12738124D01*
X21591190Y-12738124D02*
X21572143Y-12728600D01*
X21572143Y-12728600D02*
X21562619Y-12709552D01*
X21562619Y-12709552D02*
X21562619Y-12690505D01*
X21562619Y-12690505D02*
X21572143Y-12671457D01*
X21572143Y-12671457D02*
X21591190Y-12661933D01*
X21591190Y-12661933D02*
X21638810Y-12661933D01*
X21638810Y-12661933D02*
X21657857Y-12652409D01*
X21753095Y-12604790D02*
X21753095Y-12804790D01*
X21753095Y-12614314D02*
X21772143Y-12604790D01*
X21772143Y-12604790D02*
X21810238Y-12604790D01*
X21810238Y-12604790D02*
X21829286Y-12614314D01*
X21829286Y-12614314D02*
X21838810Y-12623838D01*
X21838810Y-12623838D02*
X21848333Y-12642886D01*
X21848333Y-12642886D02*
X21848333Y-12700028D01*
X21848333Y-12700028D02*
X21838810Y-12719076D01*
X21838810Y-12719076D02*
X21829286Y-12728600D01*
X21829286Y-12728600D02*
X21810238Y-12738124D01*
X21810238Y-12738124D02*
X21772143Y-12738124D01*
X21772143Y-12738124D02*
X21753095Y-12728600D01*
X21934048Y-12719076D02*
X21943571Y-12728600D01*
X21943571Y-12728600D02*
X21934048Y-12738124D01*
X21934048Y-12738124D02*
X21924524Y-12728600D01*
X21924524Y-12728600D02*
X21934048Y-12719076D01*
X21934048Y-12719076D02*
X21934048Y-12738124D01*
X21934048Y-12614314D02*
X21943571Y-12623838D01*
X21943571Y-12623838D02*
X21934048Y-12633362D01*
X21934048Y-12633362D02*
X21924524Y-12623838D01*
X21924524Y-12623838D02*
X21934048Y-12614314D01*
X21934048Y-12614314D02*
X21934048Y-12633362D01*
M02*
