G04 #@! TF.GenerationSoftware,KiCad,Pcbnew,7.0.2-0*
G04 #@! TF.CreationDate,2023-10-25T22:44:13+02:00*
G04 #@! TF.ProjectId,3340_vco,33333430-5f76-4636-9f2e-6b696361645f,rev?*
G04 #@! TF.SameCoordinates,Original*
G04 #@! TF.FileFunction,Copper,L2,Bot*
G04 #@! TF.FilePolarity,Positive*
%FSLAX46Y46*%
G04 Gerber Fmt 4.6, Leading zero omitted, Abs format (unit mm)*
G04 Created by KiCad (PCBNEW 7.0.2-0) date 2023-10-25 22:44:13*
%MOMM*%
%LPD*%
G01*
G04 APERTURE LIST*
G04 #@! TA.AperFunction,ComponentPad*
%ADD10R,1.600000X1.600000*%
G04 #@! TD*
G04 #@! TA.AperFunction,ComponentPad*
%ADD11O,1.600000X1.600000*%
G04 #@! TD*
G04 #@! TA.AperFunction,ComponentPad*
%ADD12C,1.600000*%
G04 #@! TD*
G04 #@! TA.AperFunction,ComponentPad*
%ADD13R,2.200000X2.200000*%
G04 #@! TD*
G04 #@! TA.AperFunction,ComponentPad*
%ADD14O,2.200000X2.200000*%
G04 #@! TD*
G04 #@! TA.AperFunction,ComponentPad*
%ADD15C,1.440000*%
G04 #@! TD*
G04 #@! TA.AperFunction,ComponentPad*
%ADD16R,1.200000X1.200000*%
G04 #@! TD*
G04 #@! TA.AperFunction,ComponentPad*
%ADD17C,1.200000*%
G04 #@! TD*
G04 #@! TA.AperFunction,ComponentPad*
%ADD18R,1.700000X1.700000*%
G04 #@! TD*
G04 #@! TA.AperFunction,ComponentPad*
%ADD19O,1.700000X1.700000*%
G04 #@! TD*
G04 #@! TA.AperFunction,ComponentPad*
%ADD20O,2.720000X3.240000*%
G04 #@! TD*
G04 #@! TA.AperFunction,ComponentPad*
%ADD21R,1.800000X1.800000*%
G04 #@! TD*
G04 #@! TA.AperFunction,ComponentPad*
%ADD22C,1.800000*%
G04 #@! TD*
G04 #@! TA.AperFunction,ComponentPad*
%ADD23O,1.500000X3.000000*%
G04 #@! TD*
G04 #@! TA.AperFunction,ComponentPad*
%ADD24O,3.000000X1.500000*%
G04 #@! TD*
G04 #@! TA.AperFunction,ComponentPad*
%ADD25R,1.930000X1.830000*%
G04 #@! TD*
G04 #@! TA.AperFunction,ComponentPad*
%ADD26C,2.130000*%
G04 #@! TD*
G04 #@! TA.AperFunction,ViaPad*
%ADD27C,0.800000*%
G04 #@! TD*
G04 #@! TA.AperFunction,Conductor*
%ADD28C,0.400000*%
G04 #@! TD*
G04 #@! TA.AperFunction,Conductor*
%ADD29C,0.250000*%
G04 #@! TD*
G04 APERTURE END LIST*
D10*
X230936800Y-43249000D03*
D11*
X230936800Y-45789000D03*
X230936800Y-48329000D03*
X230936800Y-50869000D03*
X230936800Y-53409000D03*
X230936800Y-55949000D03*
X230936800Y-58489000D03*
X238556800Y-58489000D03*
X238556800Y-55949000D03*
X238556800Y-53409000D03*
X238556800Y-50869000D03*
X238556800Y-48329000D03*
X238556800Y-45789000D03*
X238556800Y-43249000D03*
D12*
X235966000Y-61798200D03*
D11*
X238506000Y-61798200D03*
D12*
X218668600Y-79222600D03*
D11*
X221208600Y-79222600D03*
D12*
X224459800Y-42011600D03*
D11*
X224459800Y-44551600D03*
D12*
X227660200Y-45037801D03*
D11*
X227660200Y-42497801D03*
D13*
X215315800Y-82727800D03*
D14*
X222935800Y-82727800D03*
D12*
X221132400Y-61649400D03*
D11*
X221132400Y-59109400D03*
D12*
X221284800Y-55372000D03*
D11*
X221284800Y-52832000D03*
D12*
X224307400Y-62926600D03*
X224307400Y-57926600D03*
X204872799Y-53771799D03*
D11*
X207412799Y-53771799D03*
D10*
X210312000Y-42189400D03*
D11*
X210312000Y-44729400D03*
X210312000Y-47269400D03*
X210312000Y-49809400D03*
X210312000Y-52349400D03*
X210312000Y-54889400D03*
X210312000Y-57429400D03*
X210312000Y-59969400D03*
X217932000Y-59969400D03*
X217932000Y-57429400D03*
X217932000Y-54889400D03*
X217932000Y-52349400D03*
X217932000Y-49809400D03*
X217932000Y-47269400D03*
X217932000Y-44729400D03*
X217932000Y-42189400D03*
D12*
X233364400Y-79095600D03*
X238364400Y-79095600D03*
X238250000Y-82454999D03*
D11*
X238250000Y-84994999D03*
D12*
X227634800Y-58877200D03*
D11*
X227634800Y-61417200D03*
D15*
X232250000Y-89000000D03*
X234790000Y-89000000D03*
X237330000Y-89000000D03*
D12*
X230730000Y-61849000D03*
D11*
X233270000Y-61849000D03*
D12*
X241500000Y-83500000D03*
X241500000Y-78500000D03*
D16*
X225196400Y-80518000D03*
D17*
X225196400Y-78518000D03*
D12*
X204851000Y-40767000D03*
D11*
X207391000Y-40767000D03*
D10*
X241500000Y-85750000D03*
D11*
X241500000Y-88290000D03*
D16*
X229844600Y-80467200D03*
D17*
X229844600Y-78467200D03*
D12*
X221335600Y-42033400D03*
D11*
X221335600Y-44573400D03*
D12*
X216469600Y-62636400D03*
X211469600Y-62636400D03*
X234545000Y-108000000D03*
D11*
X232005000Y-108000000D03*
D12*
X241681000Y-54639001D03*
D11*
X241681000Y-52099001D03*
D12*
X215344800Y-79146400D03*
D11*
X212804800Y-79146400D03*
D12*
X235250000Y-82500000D03*
D11*
X235250000Y-85040000D03*
D12*
X241731800Y-44225000D03*
D11*
X241731800Y-41685000D03*
D15*
X205867000Y-44653200D03*
X205867000Y-47193200D03*
X205867000Y-49733200D03*
D10*
X241500000Y-91074314D03*
D11*
X241500000Y-93614314D03*
D10*
X241750000Y-57710000D03*
D11*
X241750000Y-60250000D03*
D12*
X227634800Y-53612200D03*
D11*
X227634800Y-56152200D03*
D12*
X205145000Y-79171800D03*
X210145000Y-79171800D03*
D18*
X208762600Y-90728800D03*
D19*
X208762600Y-88188800D03*
X211302600Y-90728800D03*
X211302600Y-88188800D03*
X213842600Y-90728800D03*
X213842600Y-88188800D03*
X216382600Y-90728800D03*
X216382600Y-88188800D03*
X218922600Y-90728800D03*
X218922600Y-88188800D03*
D12*
X227609400Y-48227400D03*
D11*
X227609400Y-50767400D03*
D12*
X236750000Y-93500000D03*
X231750000Y-93500000D03*
D13*
X204876400Y-82727800D03*
D14*
X212496400Y-82727800D03*
D12*
X224561400Y-50041601D03*
D11*
X224561400Y-47501601D03*
D12*
X206883000Y-58902600D03*
D11*
X204343000Y-58902600D03*
D12*
X221310200Y-50067000D03*
D11*
X221310200Y-47527000D03*
D12*
X228926600Y-39903400D03*
D11*
X231466600Y-39903400D03*
D12*
X204393800Y-76236200D03*
X204393800Y-71236200D03*
X241681000Y-49403000D03*
D11*
X241681000Y-46863000D03*
D15*
X219801600Y-37668200D03*
X222341600Y-37668200D03*
X224881600Y-37668200D03*
D12*
X206912000Y-62001400D03*
D11*
X204372000Y-62001400D03*
D12*
X224434400Y-55372000D03*
D11*
X224434400Y-52832000D03*
D12*
X218919000Y-33172400D03*
D11*
X221459000Y-33172400D03*
D20*
X206020000Y-68700000D03*
X215620000Y-68700000D03*
D21*
X213320000Y-76200000D03*
D22*
X210820000Y-76200000D03*
X208320000Y-76200000D03*
D23*
X227591700Y-29433700D03*
X223527700Y-29433700D03*
X219514500Y-29433700D03*
D12*
X214198200Y-58804601D03*
D11*
X214198200Y-56264601D03*
D20*
X206020000Y-30607000D03*
X215620000Y-30607000D03*
D21*
X213320000Y-38107000D03*
D22*
X210820000Y-38107000D03*
X208320000Y-38107000D03*
D24*
X226877700Y-91854100D03*
X226877700Y-87790100D03*
X226877700Y-83776900D03*
D25*
X218236800Y-108123200D03*
D26*
X218236800Y-96723200D03*
X218236800Y-105023200D03*
D20*
X218720000Y-68700000D03*
X228320000Y-68700000D03*
D21*
X226020000Y-76200000D03*
D22*
X223520000Y-76200000D03*
X221020000Y-76200000D03*
D25*
X238150400Y-108123200D03*
D26*
X238150400Y-96723200D03*
X238150400Y-105023200D03*
D12*
X234238800Y-40792400D03*
D11*
X236778800Y-40792400D03*
D12*
X234797600Y-57763200D03*
X234797600Y-52763200D03*
D25*
X208229200Y-122525000D03*
D26*
X208229200Y-111125000D03*
X208229200Y-119425000D03*
D20*
X231420000Y-68700000D03*
X241020000Y-68700000D03*
D21*
X238720000Y-76200000D03*
D22*
X236220000Y-76200000D03*
X233720000Y-76200000D03*
D12*
X214198200Y-52628800D03*
D11*
X214198200Y-50088800D03*
D20*
X231420000Y-30607000D03*
X241020000Y-30607000D03*
D21*
X238720000Y-38107000D03*
D22*
X236220000Y-38107000D03*
X233720000Y-38107000D03*
D25*
X238150400Y-122525000D03*
D26*
X238150400Y-111125000D03*
X238150400Y-119425000D03*
D25*
X228142800Y-108123200D03*
D26*
X228142800Y-96723200D03*
X228142800Y-105023200D03*
D12*
X234746800Y-49032800D03*
X234746800Y-44032800D03*
D25*
X228142800Y-122525000D03*
D26*
X228142800Y-111125000D03*
X228142800Y-119425000D03*
D25*
X208229200Y-108123200D03*
D26*
X208229200Y-96723200D03*
X208229200Y-105023200D03*
D25*
X218236800Y-122525000D03*
D26*
X218236800Y-111125000D03*
X218236800Y-119425000D03*
D27*
X238000000Y-71250000D03*
X224987701Y-71512299D03*
X225500000Y-68500000D03*
X219931500Y-46250000D03*
X227000000Y-81750000D03*
X228750000Y-71250000D03*
X229250000Y-54750000D03*
X227750000Y-37750000D03*
X215000000Y-47250000D03*
X235750000Y-74500000D03*
X226000000Y-72500000D03*
X223250000Y-73750000D03*
X222750000Y-86000000D03*
X225500000Y-60250000D03*
X238500000Y-64750000D03*
X230000000Y-87250000D03*
X239000000Y-90750000D03*
X223750000Y-89500000D03*
X239000000Y-87250000D03*
X239250000Y-80750000D03*
X239750000Y-113250000D03*
X234000000Y-98500000D03*
X229250000Y-57000000D03*
X228500000Y-85250000D03*
D28*
X232420000Y-75661522D02*
X232420000Y-78151200D01*
X219132000Y-53219200D02*
X221284800Y-55372000D01*
X232420000Y-78151200D02*
X233364400Y-79095600D01*
X233630000Y-74451522D02*
X232420000Y-75661522D01*
X232470001Y-61049001D02*
X232470001Y-52402201D01*
X232773000Y-49032800D02*
X230936800Y-50869000D01*
X219801600Y-37668200D02*
X219801600Y-40319800D01*
X234746800Y-49032800D02*
X232773000Y-49032800D01*
X232470001Y-52402201D02*
X230936800Y-50869000D01*
X219132000Y-43389400D02*
X219132000Y-53219200D01*
X213063922Y-42189400D02*
X208981522Y-38107000D01*
X233270000Y-61849000D02*
X232470001Y-61049001D01*
X233630000Y-62209000D02*
X233630000Y-74451522D01*
X219801600Y-40319800D02*
X217932000Y-42189400D01*
X217932000Y-42189400D02*
X213063922Y-42189400D01*
X217932000Y-42189400D02*
X219132000Y-43389400D01*
X218236800Y-108123200D02*
X216382600Y-106269000D01*
X226020000Y-76200000D02*
X227000000Y-77180000D01*
X206524508Y-120820308D02*
X208229200Y-122525000D01*
X235966000Y-61798200D02*
X235966000Y-58931600D01*
X229037000Y-54750000D02*
X227634800Y-56152200D01*
X215000000Y-47250000D02*
X215000000Y-49287000D01*
X208229200Y-108123200D02*
X206524508Y-109827892D01*
X215000000Y-49287000D02*
X214198200Y-50088800D01*
X227591700Y-37591700D02*
X227591700Y-29433700D01*
X229844600Y-78467200D02*
X229844600Y-72344600D01*
X229250000Y-54750000D02*
X229037000Y-54750000D01*
X225500000Y-68500000D02*
X224307400Y-67307400D01*
X224307400Y-67307400D02*
X224307400Y-62926600D01*
X216382600Y-106269000D02*
X216382600Y-90728800D01*
X238150400Y-122525000D02*
X238150400Y-119425000D01*
X224987701Y-75167701D02*
X224987701Y-71512299D01*
X216469600Y-53811800D02*
X216469600Y-62636400D01*
X238720000Y-76200000D02*
X238000000Y-75480000D01*
X217932000Y-52349400D02*
X216469600Y-53811800D01*
X238720000Y-76200000D02*
X238720000Y-78740000D01*
X238000000Y-75480000D02*
X238000000Y-71250000D01*
X235966000Y-58931600D02*
X234797600Y-57763200D01*
X227000000Y-77180000D02*
X227000000Y-81750000D01*
X221310200Y-50067000D02*
X219931500Y-48688300D01*
X206524508Y-109827892D02*
X206524508Y-120820308D01*
X229844600Y-72344600D02*
X228750000Y-71250000D01*
X219931500Y-48688300D02*
X219931500Y-46250000D01*
X226020000Y-76200000D02*
X224987701Y-75167701D01*
X227750000Y-37750000D02*
X227591700Y-37591700D01*
X238720000Y-41030000D02*
X238720000Y-38107000D01*
X237356800Y-49669000D02*
X237356800Y-42393200D01*
X238556800Y-50869000D02*
X237356800Y-49669000D01*
X236500000Y-62961257D02*
X236500000Y-73750000D01*
X238556800Y-50869000D02*
X236691800Y-50869000D01*
X234797600Y-52763200D02*
X237166000Y-55131600D01*
X237166000Y-55131600D02*
X237166000Y-62295257D01*
X237166000Y-62295257D02*
X236500000Y-62961257D01*
X237356800Y-42393200D02*
X238720000Y-41030000D01*
X236691800Y-50869000D02*
X234797600Y-52763200D01*
X236500000Y-73750000D02*
X235750000Y-74500000D01*
D29*
X224434400Y-55372000D02*
X224434400Y-57799600D01*
X210616800Y-62636400D02*
X211469600Y-62636400D01*
X206883000Y-58902600D02*
X210616800Y-62636400D01*
X226000000Y-71500000D02*
X226000000Y-72500000D01*
X220007400Y-65507400D02*
X226000000Y-71500000D01*
X217932000Y-54889400D02*
X220007400Y-56964800D01*
X220007400Y-56964800D02*
X220007400Y-65507400D01*
X203593801Y-70436201D02*
X203593801Y-65319599D01*
X204393800Y-71236200D02*
X203593801Y-70436201D01*
X203593801Y-65319599D02*
X206912000Y-62001400D01*
X216003609Y-63761400D02*
X216511400Y-63761400D01*
X213073200Y-59270592D02*
X215250000Y-61447392D01*
X210312000Y-55838409D02*
X213073200Y-58599609D01*
X210312000Y-54889400D02*
X210312000Y-55838409D01*
X241500000Y-91074314D02*
X241500000Y-88290000D01*
X213073200Y-58599609D02*
X213073200Y-59270592D01*
X216511400Y-63761400D02*
X223250000Y-70500000D01*
X215250000Y-61447392D02*
X215250000Y-63007791D01*
X215250000Y-63007791D02*
X216003609Y-63761400D01*
X223250000Y-70500000D02*
X223250000Y-73750000D01*
X204851000Y-43637200D02*
X205867000Y-44653200D01*
X204851000Y-40767000D02*
X204851000Y-43637200D01*
X209945400Y-58844400D02*
X204872799Y-53771799D01*
X210777991Y-58844400D02*
X209945400Y-58844400D01*
X217543600Y-77438591D02*
X213485000Y-73379991D01*
X222750000Y-86000000D02*
X222750000Y-85000000D01*
X205867000Y-49733200D02*
X205867000Y-52777598D01*
X222750000Y-85000000D02*
X217543600Y-79793600D01*
X213485000Y-73379991D02*
X213485000Y-61551409D01*
X217543600Y-79793600D02*
X217543600Y-77438591D01*
X213485000Y-61551409D02*
X210777991Y-58844400D01*
X205867000Y-52777598D02*
X204872799Y-53771799D01*
X205867000Y-47193200D02*
X205867000Y-49733200D01*
X210312000Y-44729400D02*
X207412799Y-47628601D01*
X207412799Y-47628601D02*
X207412799Y-53771799D01*
X222341600Y-41027400D02*
X221335600Y-42033400D01*
X222341600Y-37668200D02*
X222341600Y-41027400D01*
X232005000Y-108000000D02*
X229532800Y-105527800D01*
X221459000Y-33172400D02*
X223386600Y-35100000D01*
X229772940Y-96387583D02*
X229250000Y-95864643D01*
X223250000Y-54016400D02*
X224434400Y-52832000D01*
X229250000Y-95864643D02*
X229250000Y-82750000D01*
X224561400Y-47501601D02*
X221633199Y-44573400D01*
X227550000Y-72413604D02*
X223182400Y-68046004D01*
X229772940Y-105287660D02*
X229772940Y-96387583D01*
X223436400Y-51834000D02*
X223436400Y-48626601D01*
X229250000Y-82750000D02*
X227550000Y-81050000D01*
X224434400Y-52832000D02*
X223436400Y-51834000D01*
X229532800Y-105527800D02*
X229772940Y-105287660D01*
X223386600Y-35100000D02*
X223386600Y-40938400D01*
X223182400Y-68046004D02*
X223182400Y-57460609D01*
X223250000Y-57393009D02*
X223250000Y-54016400D01*
X223436400Y-48626601D02*
X224561400Y-47501601D01*
X223386600Y-40938400D02*
X224459800Y-42011600D01*
X223182400Y-57460609D02*
X223250000Y-57393009D01*
X227550000Y-81050000D02*
X227550000Y-72413604D01*
X217932000Y-64068396D02*
X224000000Y-70136396D01*
X224745000Y-75692588D02*
X224745000Y-77425000D01*
X224745000Y-77425000D02*
X225425000Y-77425000D01*
X224000000Y-74947588D02*
X224745000Y-75692588D01*
X225425000Y-77425000D02*
X226250000Y-78250000D01*
X224000000Y-70136396D02*
X224000000Y-74947588D01*
X217932000Y-59969400D02*
X217932000Y-64068396D01*
X226250000Y-78250000D02*
X226250000Y-83149200D01*
X237025000Y-75395000D02*
X237025000Y-66225000D01*
X224561400Y-50041601D02*
X225559400Y-51039601D01*
X237025000Y-66225000D02*
X238500000Y-64750000D01*
X236220000Y-76200000D02*
X237025000Y-75395000D01*
X225559400Y-51039601D02*
X225559400Y-60190600D01*
X225559400Y-60190600D02*
X225500000Y-60250000D01*
X222657700Y-29433700D02*
X223527700Y-29433700D01*
X218919000Y-33172400D02*
X222657700Y-29433700D01*
X229536399Y-46914000D02*
X227660200Y-45037801D01*
X231402791Y-46914000D02*
X229536399Y-46914000D01*
X232061800Y-46254991D02*
X231402791Y-46914000D01*
X234659600Y-39667400D02*
X233772809Y-39667400D01*
X233772809Y-39667400D02*
X232061800Y-41378409D01*
X232061800Y-41378409D02*
X232061800Y-46254991D01*
X236220000Y-38107000D02*
X234659600Y-39667400D01*
X226450000Y-46541800D02*
X224459800Y-44551600D01*
X228000000Y-71250000D02*
X226450000Y-69700000D01*
X226450000Y-69700000D02*
X226450000Y-46541800D01*
X228000000Y-80472600D02*
X228000000Y-71250000D01*
X230000000Y-87250000D02*
X230000000Y-82472600D01*
X230000000Y-82472600D02*
X228000000Y-80472600D01*
X204343000Y-58902600D02*
X204343000Y-61972400D01*
X241731800Y-44225000D02*
X241731800Y-46812200D01*
X239681800Y-47403800D02*
X241681000Y-49403000D01*
X241681000Y-52099001D02*
X241681000Y-49403000D01*
X238556800Y-43249000D02*
X239681800Y-44374000D01*
X239681800Y-44374000D02*
X239681800Y-47403800D01*
X237125000Y-87317146D02*
X239000000Y-89192146D01*
X235250000Y-82500000D02*
X237125000Y-84375000D01*
X237125000Y-84375000D02*
X237125000Y-87317146D01*
X239000000Y-89192146D02*
X239000000Y-90750000D01*
X228926600Y-43778800D02*
X228926600Y-39903400D01*
X230936800Y-45789000D02*
X228926600Y-43778800D01*
X238556800Y-58489000D02*
X238556800Y-55949000D01*
X214198200Y-52628800D02*
X214198200Y-56264601D01*
X227609400Y-50767400D02*
X227609400Y-53586800D01*
X230936800Y-58489000D02*
X230936800Y-55949000D01*
X219493300Y-29433700D02*
X210820000Y-38107000D01*
X223750000Y-87775305D02*
X224250000Y-87275305D01*
X224360800Y-83318055D02*
X224360800Y-82137545D01*
X224250000Y-87275305D02*
X224250000Y-83428855D01*
X213935000Y-61052400D02*
X210312000Y-57429400D01*
X223052800Y-81302800D02*
X222097600Y-80347600D01*
X223750000Y-89500000D02*
X223750000Y-87775305D01*
X220742609Y-80347600D02*
X220083600Y-79688591D01*
X223526055Y-81302800D02*
X223052800Y-81302800D01*
X222097600Y-80347600D02*
X220742609Y-80347600D01*
X224250000Y-83428855D02*
X224360800Y-83318055D01*
X220083600Y-77083600D02*
X213935000Y-70935000D01*
X224360800Y-82137545D02*
X223526055Y-81302800D01*
X213935000Y-70935000D02*
X213935000Y-61052400D01*
X220083600Y-79688591D02*
X220083600Y-77083600D01*
X205250000Y-86000000D02*
X205250000Y-93744000D01*
X208320000Y-76200000D02*
X208320000Y-82930000D01*
X208320000Y-82930000D02*
X205250000Y-86000000D01*
X205250000Y-93744000D02*
X208229200Y-96723200D01*
X239550000Y-86700000D02*
X239000000Y-87250000D01*
X239250000Y-80750000D02*
X239550000Y-81050000D01*
X239550000Y-81050000D02*
X239550000Y-86700000D01*
X230470991Y-111125000D02*
X228142800Y-111125000D01*
X231075000Y-91234009D02*
X229750000Y-92559009D01*
X231000000Y-96978247D02*
X231000000Y-105404009D01*
X233130000Y-108465991D02*
X230470991Y-111125000D01*
X233130000Y-107534009D02*
X233130000Y-108465991D01*
X229750000Y-95728247D02*
X231000000Y-96978247D01*
X227634800Y-61417200D02*
X233105000Y-66887400D01*
X231075000Y-75928652D02*
X231075000Y-91234009D01*
X233105000Y-73898652D02*
X231075000Y-75928652D01*
X233105000Y-66887400D02*
X233105000Y-73898652D01*
X231000000Y-105404009D02*
X233130000Y-107534009D01*
X229750000Y-92559009D02*
X229750000Y-95728247D01*
X239335000Y-73698604D02*
X242750000Y-77113604D01*
X240500000Y-66577050D02*
X239335000Y-67742050D01*
X241681000Y-54639001D02*
X240500000Y-55820001D01*
X240500000Y-55820001D02*
X240500000Y-66577050D01*
X239335000Y-67742050D02*
X239335000Y-73698604D01*
X242750000Y-110250000D02*
X239750000Y-113250000D01*
X242750000Y-77113604D02*
X242750000Y-110250000D01*
X235500000Y-73724695D02*
X234995000Y-74229695D01*
X209854200Y-112750000D02*
X208229200Y-111125000D01*
X233295000Y-94946851D02*
X231450000Y-96791851D01*
X234995000Y-74229695D02*
X234995000Y-76707412D01*
X233672600Y-52297209D02*
X233672600Y-58229191D01*
X234995000Y-76707412D02*
X236787588Y-78500000D01*
X235500000Y-68250000D02*
X235500000Y-73724695D01*
X236778800Y-40792400D02*
X236778800Y-49191009D01*
X233672600Y-58229191D02*
X234500000Y-59056591D01*
X234500000Y-59056591D02*
X234500000Y-67250000D01*
X235670000Y-107534009D02*
X235670000Y-108465991D01*
X236787588Y-78500000D02*
X236787588Y-78712412D01*
X231450000Y-103314009D02*
X235670000Y-107534009D01*
X235670000Y-108465991D02*
X231385991Y-112750000D01*
X233295000Y-82205000D02*
X233295000Y-94946851D01*
X231450000Y-96791851D02*
X231450000Y-103314009D01*
X234500000Y-67250000D02*
X235500000Y-68250000D01*
X231385991Y-112750000D02*
X209854200Y-112750000D01*
X236778800Y-49191009D02*
X233672600Y-52297209D01*
X236787588Y-78712412D02*
X233295000Y-82205000D01*
X240000000Y-75000000D02*
X240000000Y-92500000D01*
X240000000Y-92500000D02*
X234000000Y-98500000D01*
X238556800Y-53409000D02*
X240250000Y-55102200D01*
X238885000Y-73885000D02*
X240000000Y-75000000D01*
X240250000Y-55102200D02*
X240250000Y-55433605D01*
X238885000Y-67555654D02*
X238885000Y-73885000D01*
X240050000Y-55633605D02*
X240050000Y-66390654D01*
X240250000Y-55433605D02*
X240050000Y-55633605D01*
X240050000Y-66390654D02*
X238885000Y-67555654D01*
X225052700Y-101933100D02*
X228142800Y-105023200D01*
X223520000Y-76200000D02*
X223520000Y-80660349D01*
X223520000Y-80660349D02*
X225052700Y-82193049D01*
X225052700Y-82193049D02*
X225052700Y-101933100D01*
X230936800Y-40433200D02*
X231466600Y-39903400D01*
X230936800Y-43249000D02*
X230936800Y-40433200D01*
X230000000Y-55294809D02*
X229250000Y-56044809D01*
X230000000Y-54063191D02*
X230000000Y-55294809D01*
X229811800Y-49454000D02*
X229811800Y-53874991D01*
X230936800Y-48329000D02*
X229811800Y-49454000D01*
X229250000Y-56044809D02*
X229250000Y-57000000D01*
X229811800Y-53874991D02*
X230000000Y-54063191D01*
X228702700Y-90029100D02*
X226877700Y-91854100D01*
X228500000Y-85250000D02*
X228702700Y-85452700D01*
X228702700Y-85452700D02*
X228702700Y-90029100D01*
G04 #@! TA.AperFunction,Conductor*
G36*
X208095802Y-61001072D02*
G01*
X208106060Y-61010250D01*
X210115997Y-63020187D01*
X210128898Y-63036289D01*
X210131012Y-63038274D01*
X210131014Y-63038277D01*
X210170907Y-63075739D01*
X210180040Y-63084316D01*
X210182836Y-63087026D01*
X210202330Y-63106520D01*
X210205415Y-63108913D01*
X210205501Y-63108980D01*
X210214373Y-63116558D01*
X210257636Y-63157184D01*
X210257230Y-63157615D01*
X210295309Y-63195910D01*
X210298684Y-63202609D01*
X210316916Y-63241707D01*
X210339033Y-63289136D01*
X210469553Y-63475540D01*
X210630459Y-63636446D01*
X210816864Y-63766967D01*
X210816865Y-63766967D01*
X210816866Y-63766968D01*
X211023104Y-63863139D01*
X211242908Y-63922035D01*
X211394036Y-63935256D01*
X211469599Y-63941868D01*
X211469599Y-63941867D01*
X211469600Y-63941868D01*
X211696292Y-63922035D01*
X211916096Y-63863139D01*
X212122334Y-63766968D01*
X212308739Y-63636447D01*
X212469647Y-63475539D01*
X212600168Y-63289134D01*
X212623118Y-63239915D01*
X212669290Y-63187478D01*
X212736484Y-63168326D01*
X212803365Y-63188542D01*
X212848699Y-63241707D01*
X212859500Y-63292322D01*
X212859500Y-73297247D01*
X212857235Y-73317757D01*
X212859439Y-73387863D01*
X212859500Y-73391758D01*
X212859500Y-73419341D01*
X212859988Y-73423210D01*
X212859989Y-73423216D01*
X212860004Y-73423334D01*
X212860918Y-73434958D01*
X212862290Y-73478617D01*
X212867879Y-73497851D01*
X212871825Y-73516907D01*
X212874335Y-73536783D01*
X212890414Y-73577395D01*
X212894197Y-73588442D01*
X212906382Y-73630382D01*
X212916580Y-73647626D01*
X212925136Y-73665091D01*
X212932514Y-73683723D01*
X212932515Y-73683724D01*
X212958180Y-73719050D01*
X212964593Y-73728813D01*
X212986826Y-73766407D01*
X212986829Y-73766410D01*
X212986830Y-73766411D01*
X213000995Y-73780576D01*
X213013627Y-73795366D01*
X213025406Y-73811578D01*
X213059058Y-73839417D01*
X213067699Y-73847280D01*
X213808738Y-74588319D01*
X213842223Y-74649642D01*
X213837239Y-74719334D01*
X213795367Y-74775267D01*
X213729903Y-74799684D01*
X213721057Y-74800000D01*
X213570000Y-74800000D01*
X213570000Y-75764498D01*
X213462315Y-75715320D01*
X213355763Y-75700000D01*
X213284237Y-75700000D01*
X213177685Y-75715320D01*
X213070000Y-75764498D01*
X213070000Y-74800000D01*
X212375482Y-74800000D01*
X212368867Y-74800354D01*
X212312628Y-74806400D01*
X212177910Y-74856647D01*
X212062811Y-74942811D01*
X211976646Y-75057913D01*
X211958319Y-75107048D01*
X211916447Y-75162981D01*
X211850982Y-75187397D01*
X211782710Y-75172544D01*
X211765980Y-75161569D01*
X211588626Y-75023530D01*
X211384503Y-74913064D01*
X211384499Y-74913062D01*
X211384498Y-74913062D01*
X211164984Y-74837702D01*
X210977398Y-74806400D01*
X210936049Y-74799500D01*
X210703951Y-74799500D01*
X210674503Y-74804414D01*
X210475015Y-74837702D01*
X210255501Y-74913062D01*
X210255497Y-74913063D01*
X210255497Y-74913064D01*
X210186203Y-74950564D01*
X210051372Y-75023531D01*
X209868215Y-75166087D01*
X209753272Y-75290950D01*
X209711021Y-75336847D01*
X209711021Y-75336848D01*
X209673809Y-75393805D01*
X209620662Y-75439161D01*
X209551431Y-75448585D01*
X209488095Y-75419083D01*
X209466191Y-75393805D01*
X209447703Y-75365507D01*
X209428979Y-75336847D01*
X209271784Y-75166087D01*
X209088626Y-75023530D01*
X208884503Y-74913064D01*
X208884499Y-74913062D01*
X208884498Y-74913062D01*
X208664984Y-74837702D01*
X208477398Y-74806400D01*
X208436049Y-74799500D01*
X208203951Y-74799500D01*
X208174503Y-74804414D01*
X207975015Y-74837702D01*
X207755501Y-74913062D01*
X207755497Y-74913063D01*
X207755497Y-74913064D01*
X207686203Y-74950564D01*
X207551372Y-75023531D01*
X207368215Y-75166087D01*
X207211020Y-75336848D01*
X207084076Y-75531150D01*
X206990844Y-75743696D01*
X206990842Y-75743700D01*
X206990843Y-75743700D01*
X206935763Y-75961206D01*
X206933865Y-75968700D01*
X206914699Y-76200000D01*
X206933865Y-76431299D01*
X206933865Y-76431301D01*
X206933866Y-76431305D01*
X206982905Y-76624952D01*
X206990844Y-76656303D01*
X207058206Y-76809872D01*
X207084076Y-76868849D01*
X207211021Y-77063153D01*
X207368216Y-77233913D01*
X207551374Y-77376470D01*
X207583861Y-77394051D01*
X207629518Y-77418760D01*
X207679108Y-77467979D01*
X207694500Y-77527814D01*
X207694500Y-82619546D01*
X207674815Y-82686585D01*
X207658181Y-82707227D01*
X206688580Y-83676827D01*
X206627257Y-83710312D01*
X206557565Y-83705328D01*
X206501632Y-83663456D01*
X206477215Y-83597992D01*
X206476899Y-83589170D01*
X206476899Y-81579928D01*
X206470491Y-81520317D01*
X206420196Y-81385469D01*
X206333946Y-81270254D01*
X206218731Y-81184004D01*
X206083883Y-81133709D01*
X206083883Y-81133708D01*
X206027566Y-81127654D01*
X206027565Y-81127653D01*
X206024273Y-81127300D01*
X206020950Y-81127300D01*
X203731839Y-81127300D01*
X203731820Y-81127300D01*
X203728528Y-81127301D01*
X203725248Y-81127653D01*
X203725240Y-81127654D01*
X203668915Y-81133709D01*
X203534069Y-81184004D01*
X203404582Y-81280938D01*
X203403197Y-81279088D01*
X203367832Y-81305562D01*
X203298141Y-81310546D01*
X203236818Y-81277060D01*
X203203334Y-81215737D01*
X203200500Y-81189380D01*
X203200500Y-79171800D01*
X203840033Y-79171800D01*
X203859858Y-79398402D01*
X203918733Y-79618126D01*
X204014866Y-79824284D01*
X204065972Y-79897271D01*
X204065974Y-79897272D01*
X204747046Y-79216199D01*
X204759835Y-79296948D01*
X204817359Y-79409845D01*
X204906955Y-79499441D01*
X205019852Y-79556965D01*
X205100599Y-79569753D01*
X204419526Y-80250825D01*
X204419526Y-80250826D01*
X204492515Y-80301933D01*
X204698673Y-80398066D01*
X204918397Y-80456941D01*
X205145000Y-80476766D01*
X205371602Y-80456941D01*
X205591326Y-80398066D01*
X205797480Y-80301934D01*
X205870472Y-80250825D01*
X205189401Y-79569753D01*
X205270148Y-79556965D01*
X205383045Y-79499441D01*
X205472641Y-79409845D01*
X205530165Y-79296948D01*
X205542953Y-79216200D01*
X206224025Y-79897272D01*
X206275134Y-79824280D01*
X206371266Y-79618126D01*
X206430141Y-79398402D01*
X206449966Y-79171799D01*
X206430141Y-78945197D01*
X206371266Y-78725473D01*
X206275133Y-78519315D01*
X206224025Y-78446326D01*
X205542953Y-79127398D01*
X205530165Y-79046652D01*
X205472641Y-78933755D01*
X205383045Y-78844159D01*
X205270148Y-78786635D01*
X205189400Y-78773846D01*
X205870472Y-78092774D01*
X205870471Y-78092772D01*
X205797484Y-78041666D01*
X205591326Y-77945533D01*
X205371602Y-77886658D01*
X205145000Y-77866833D01*
X204918397Y-77886658D01*
X204698672Y-77945533D01*
X204492516Y-78041665D01*
X204419527Y-78092773D01*
X204419526Y-78092773D01*
X205100600Y-78773846D01*
X205019852Y-78786635D01*
X204906955Y-78844159D01*
X204817359Y-78933755D01*
X204759835Y-79046652D01*
X204747046Y-79127399D01*
X204065973Y-78446326D01*
X204065973Y-78446327D01*
X204014865Y-78519316D01*
X203918733Y-78725472D01*
X203859858Y-78945197D01*
X203840033Y-79171800D01*
X203200500Y-79171800D01*
X203200500Y-77181448D01*
X203220185Y-77114409D01*
X203272989Y-77068654D01*
X203342147Y-77058710D01*
X203405703Y-77087735D01*
X203412167Y-77093753D01*
X203489371Y-77170957D01*
X203554663Y-77236249D01*
X203741064Y-77366767D01*
X203741065Y-77366767D01*
X203741066Y-77366768D01*
X203947304Y-77462939D01*
X204167108Y-77521835D01*
X204393800Y-77541668D01*
X204620492Y-77521835D01*
X204840296Y-77462939D01*
X205046534Y-77366768D01*
X205232939Y-77236247D01*
X205393847Y-77075339D01*
X205524368Y-76888934D01*
X205620539Y-76682696D01*
X205679435Y-76462892D01*
X205699268Y-76236200D01*
X205679435Y-76009508D01*
X205620539Y-75789704D01*
X205524368Y-75583466D01*
X205518879Y-75575626D01*
X205393846Y-75397059D01*
X205232940Y-75236153D01*
X205046535Y-75105632D01*
X204840297Y-75009461D01*
X204620489Y-74950564D01*
X204393800Y-74930731D01*
X204167110Y-74950564D01*
X203947302Y-75009461D01*
X203741064Y-75105632D01*
X203554663Y-75236150D01*
X203412181Y-75378632D01*
X203350858Y-75412116D01*
X203281166Y-75407132D01*
X203225233Y-75365260D01*
X203200816Y-75299796D01*
X203200500Y-75290950D01*
X203200500Y-72181448D01*
X203220185Y-72114409D01*
X203272989Y-72068654D01*
X203342147Y-72058710D01*
X203405703Y-72087735D01*
X203412167Y-72093753D01*
X203490127Y-72171713D01*
X203554663Y-72236249D01*
X203741064Y-72366767D01*
X203741065Y-72366767D01*
X203741066Y-72366768D01*
X203947304Y-72462939D01*
X204167108Y-72521835D01*
X204393800Y-72541668D01*
X204620492Y-72521835D01*
X204840296Y-72462939D01*
X205046534Y-72366768D01*
X205232939Y-72236247D01*
X205393847Y-72075339D01*
X205524368Y-71888934D01*
X205620539Y-71682696D01*
X205679435Y-71462892D01*
X205699268Y-71236200D01*
X205679435Y-71009508D01*
X205668123Y-70967290D01*
X205669786Y-70897443D01*
X205708948Y-70839580D01*
X205773176Y-70812075D01*
X205810421Y-70813260D01*
X205815971Y-70814286D01*
X206033698Y-70822242D01*
X206088130Y-70824232D01*
X206088130Y-70824231D01*
X206088131Y-70824232D01*
X206358839Y-70794446D01*
X206622326Y-70725562D01*
X206872975Y-70619047D01*
X207105444Y-70477173D01*
X207314779Y-70302963D01*
X207496518Y-70100131D01*
X207646788Y-69872998D01*
X207762386Y-69626406D01*
X207840847Y-69365611D01*
X207880500Y-69096171D01*
X207880500Y-68372000D01*
X207865597Y-68168384D01*
X207820830Y-67967419D01*
X207806383Y-67902561D01*
X207776042Y-67823232D01*
X207709093Y-67648186D01*
X207575804Y-67410690D01*
X207468023Y-67271110D01*
X207409354Y-67195130D01*
X207213295Y-67006105D01*
X206991800Y-66847640D01*
X206749602Y-66723117D01*
X206749598Y-66723115D01*
X206749597Y-66723115D01*
X206606913Y-66674438D01*
X206491836Y-66635179D01*
X206224029Y-66585713D01*
X205951869Y-66575767D01*
X205681162Y-66605553D01*
X205417674Y-66674438D01*
X205167024Y-66780953D01*
X204934556Y-66922826D01*
X204725223Y-67097035D01*
X204725221Y-67097037D01*
X204704387Y-67120289D01*
X204543480Y-67299871D01*
X204500030Y-67365547D01*
X204446715Y-67446130D01*
X204393310Y-67491180D01*
X204324025Y-67500204D01*
X204260861Y-67470337D01*
X204223870Y-67411062D01*
X204219301Y-67377711D01*
X204219301Y-65630051D01*
X204238986Y-65563012D01*
X204255620Y-65542370D01*
X205375966Y-64422024D01*
X206497178Y-63300811D01*
X206558499Y-63267328D01*
X206616951Y-63268719D01*
X206685308Y-63287035D01*
X206912000Y-63306868D01*
X207138692Y-63287035D01*
X207358496Y-63228139D01*
X207564734Y-63131968D01*
X207751139Y-63001447D01*
X207912047Y-62840539D01*
X208042568Y-62654134D01*
X208138739Y-62447896D01*
X208197635Y-62228092D01*
X208217468Y-62001400D01*
X208215916Y-61983666D01*
X208199608Y-61797259D01*
X208197635Y-61774708D01*
X208138739Y-61554904D01*
X208042568Y-61348666D01*
X208040515Y-61345734D01*
X207916804Y-61169054D01*
X207894477Y-61102848D01*
X207911487Y-61035080D01*
X207962436Y-60987268D01*
X208031146Y-60974590D01*
X208095802Y-61001072D01*
G37*
G04 #@! TD.AperFunction*
G04 #@! TA.AperFunction,Conductor*
G36*
X213383107Y-90518956D02*
G01*
X213342600Y-90656911D01*
X213342600Y-90800689D01*
X213383107Y-90938644D01*
X213408914Y-90978800D01*
X211736286Y-90978800D01*
X211762093Y-90938644D01*
X211802600Y-90800689D01*
X211802600Y-90656911D01*
X211762093Y-90518956D01*
X211736286Y-90478800D01*
X213408914Y-90478800D01*
X213383107Y-90518956D01*
G37*
G04 #@! TD.AperFunction*
G04 #@! TA.AperFunction,Conductor*
G36*
X215923107Y-90518956D02*
G01*
X215882600Y-90656911D01*
X215882600Y-90800689D01*
X215923107Y-90938644D01*
X215948914Y-90978800D01*
X214276286Y-90978800D01*
X214302093Y-90938644D01*
X214342600Y-90800689D01*
X214342600Y-90656911D01*
X214302093Y-90518956D01*
X214276286Y-90478800D01*
X215948914Y-90478800D01*
X215923107Y-90518956D01*
G37*
G04 #@! TD.AperFunction*
G04 #@! TA.AperFunction,Conductor*
G36*
X211552600Y-90293298D02*
G01*
X211444915Y-90244120D01*
X211338363Y-90228800D01*
X211266837Y-90228800D01*
X211160285Y-90244120D01*
X211052600Y-90293298D01*
X211052600Y-88624301D01*
X211160285Y-88673480D01*
X211266837Y-88688800D01*
X211338363Y-88688800D01*
X211444915Y-88673480D01*
X211552600Y-88624301D01*
X211552600Y-90293298D01*
G37*
G04 #@! TD.AperFunction*
G04 #@! TA.AperFunction,Conductor*
G36*
X214092600Y-90293298D02*
G01*
X213984915Y-90244120D01*
X213878363Y-90228800D01*
X213806837Y-90228800D01*
X213700285Y-90244120D01*
X213592600Y-90293298D01*
X213592600Y-88624301D01*
X213700285Y-88673480D01*
X213806837Y-88688800D01*
X213878363Y-88688800D01*
X213984915Y-88673480D01*
X214092600Y-88624301D01*
X214092600Y-90293298D01*
G37*
G04 #@! TD.AperFunction*
G04 #@! TA.AperFunction,Conductor*
G36*
X216632600Y-90293298D02*
G01*
X216524915Y-90244120D01*
X216418363Y-90228800D01*
X216346837Y-90228800D01*
X216240285Y-90244120D01*
X216132600Y-90293298D01*
X216132600Y-88624301D01*
X216240285Y-88673480D01*
X216346837Y-88688800D01*
X216418363Y-88688800D01*
X216524915Y-88673480D01*
X216632600Y-88624301D01*
X216632600Y-90293298D01*
G37*
G04 #@! TD.AperFunction*
G04 #@! TA.AperFunction,Conductor*
G36*
X213383107Y-87978956D02*
G01*
X213342600Y-88116911D01*
X213342600Y-88260689D01*
X213383107Y-88398644D01*
X213408914Y-88438800D01*
X211736286Y-88438800D01*
X211762093Y-88398644D01*
X211802600Y-88260689D01*
X211802600Y-88116911D01*
X211762093Y-87978956D01*
X211736286Y-87938800D01*
X213408914Y-87938800D01*
X213383107Y-87978956D01*
G37*
G04 #@! TD.AperFunction*
G04 #@! TA.AperFunction,Conductor*
G36*
X215923107Y-87978956D02*
G01*
X215882600Y-88116911D01*
X215882600Y-88260689D01*
X215923107Y-88398644D01*
X215948914Y-88438800D01*
X214276286Y-88438800D01*
X214302093Y-88398644D01*
X214342600Y-88260689D01*
X214342600Y-88116911D01*
X214302093Y-87978956D01*
X214276286Y-87938800D01*
X215948914Y-87938800D01*
X215923107Y-87978956D01*
G37*
G04 #@! TD.AperFunction*
G04 #@! TA.AperFunction,Conductor*
G36*
X214925203Y-75705229D02*
G01*
X214931666Y-75711247D01*
X215920419Y-76700000D01*
X216881781Y-77661362D01*
X216915266Y-77722685D01*
X216918100Y-77749043D01*
X216918100Y-79710856D01*
X216915835Y-79731366D01*
X216918039Y-79801472D01*
X216918100Y-79805367D01*
X216918100Y-79832950D01*
X216918588Y-79836819D01*
X216918589Y-79836825D01*
X216918604Y-79836943D01*
X216919518Y-79848567D01*
X216920890Y-79892226D01*
X216925398Y-79907740D01*
X216925621Y-79908509D01*
X216926479Y-79911460D01*
X216930425Y-79930516D01*
X216932935Y-79950392D01*
X216949014Y-79991004D01*
X216952797Y-80002051D01*
X216964982Y-80043991D01*
X216975180Y-80061235D01*
X216983736Y-80078700D01*
X216991114Y-80097332D01*
X216991115Y-80097333D01*
X217016780Y-80132659D01*
X217023193Y-80142422D01*
X217045426Y-80180016D01*
X217045429Y-80180019D01*
X217045430Y-80180020D01*
X217059595Y-80194185D01*
X217072227Y-80208975D01*
X217084006Y-80225187D01*
X217117658Y-80253026D01*
X217126299Y-80260889D01*
X222083850Y-85218440D01*
X222117335Y-85279763D01*
X222112351Y-85349455D01*
X222088320Y-85389093D01*
X222017464Y-85467786D01*
X221922820Y-85631715D01*
X221864326Y-85811742D01*
X221844540Y-86000000D01*
X221864326Y-86188257D01*
X221922820Y-86368284D01*
X222017466Y-86532216D01*
X222144129Y-86672889D01*
X222297269Y-86784151D01*
X222470197Y-86861144D01*
X222655352Y-86900500D01*
X222655354Y-86900500D01*
X222844648Y-86900500D01*
X222968083Y-86874262D01*
X223029803Y-86861144D01*
X223202730Y-86784151D01*
X223355871Y-86672888D01*
X223408350Y-86614603D01*
X223467836Y-86577955D01*
X223537693Y-86579285D01*
X223595742Y-86618172D01*
X223623552Y-86682268D01*
X223624500Y-86697576D01*
X223624500Y-86964852D01*
X223604815Y-87031891D01*
X223588181Y-87052533D01*
X223366211Y-87274502D01*
X223350112Y-87287400D01*
X223302097Y-87338529D01*
X223299393Y-87341320D01*
X223282628Y-87358085D01*
X223282621Y-87358092D01*
X223279880Y-87360834D01*
X223277499Y-87363902D01*
X223277490Y-87363913D01*
X223277411Y-87364016D01*
X223269842Y-87372877D01*
X223239935Y-87404725D01*
X223230285Y-87422279D01*
X223219609Y-87438533D01*
X223207326Y-87454368D01*
X223189975Y-87494463D01*
X223184838Y-87504949D01*
X223163802Y-87543212D01*
X223158821Y-87562614D01*
X223152520Y-87581016D01*
X223144561Y-87599407D01*
X223137728Y-87642547D01*
X223135360Y-87653979D01*
X223124500Y-87696282D01*
X223124500Y-87716321D01*
X223122973Y-87735719D01*
X223119839Y-87755501D01*
X223123949Y-87798981D01*
X223124499Y-87810648D01*
X223124499Y-88801312D01*
X223104814Y-88868351D01*
X223092650Y-88884284D01*
X223017464Y-88967786D01*
X222922820Y-89131715D01*
X222864326Y-89311742D01*
X222844540Y-89500000D01*
X222864326Y-89688257D01*
X222922820Y-89868284D01*
X223017466Y-90032216D01*
X223144129Y-90172889D01*
X223297269Y-90284151D01*
X223470197Y-90361144D01*
X223655352Y-90400500D01*
X223655354Y-90400500D01*
X223844648Y-90400500D01*
X223968083Y-90374262D01*
X224029803Y-90361144D01*
X224138499Y-90312749D01*
X224202727Y-90284153D01*
X224228901Y-90265137D01*
X224230314Y-90264109D01*
X224296120Y-90240630D01*
X224364174Y-90256455D01*
X224412869Y-90306561D01*
X224427200Y-90364428D01*
X224427200Y-101850356D01*
X224424935Y-101870866D01*
X224427139Y-101940972D01*
X224427200Y-101944867D01*
X224427200Y-101972450D01*
X224427688Y-101976319D01*
X224427689Y-101976325D01*
X224427704Y-101976443D01*
X224428618Y-101988067D01*
X224429990Y-102031726D01*
X224435579Y-102050960D01*
X224439525Y-102070016D01*
X224442035Y-102089892D01*
X224458114Y-102130504D01*
X224461897Y-102141551D01*
X224474082Y-102183491D01*
X224484280Y-102200735D01*
X224492836Y-102218200D01*
X224500214Y-102236832D01*
X224500215Y-102236833D01*
X224525880Y-102272159D01*
X224532293Y-102281922D01*
X224554526Y-102319516D01*
X224554529Y-102319519D01*
X224554530Y-102319520D01*
X224568695Y-102333685D01*
X224581327Y-102348475D01*
X224593106Y-102364687D01*
X224626758Y-102392526D01*
X224635399Y-102400389D01*
X226626940Y-104391931D01*
X226660425Y-104453254D01*
X226655441Y-104522946D01*
X226653822Y-104527061D01*
X226649316Y-104537938D01*
X226591793Y-104777543D01*
X226572459Y-105023200D01*
X226591793Y-105268856D01*
X226649316Y-105508461D01*
X226670062Y-105558546D01*
X226743616Y-105736120D01*
X226872367Y-105946223D01*
X227032401Y-106133599D01*
X227219777Y-106293633D01*
X227429880Y-106422384D01*
X227543964Y-106469639D01*
X227598367Y-106513480D01*
X227620432Y-106579774D01*
X227603153Y-106647474D01*
X227552015Y-106695084D01*
X227496511Y-106708200D01*
X227133282Y-106708200D01*
X227126667Y-106708554D01*
X227070428Y-106714600D01*
X226935710Y-106764847D01*
X226820611Y-106851011D01*
X226734447Y-106966110D01*
X226684200Y-107100828D01*
X226678154Y-107157067D01*
X226677800Y-107163681D01*
X226677800Y-107873200D01*
X227586280Y-107873200D01*
X227558045Y-107933202D01*
X227529165Y-108084593D01*
X227538843Y-108238411D01*
X227582638Y-108373200D01*
X226677800Y-108373200D01*
X226677800Y-109082718D01*
X226678154Y-109089332D01*
X226684200Y-109145571D01*
X226734447Y-109280289D01*
X226820611Y-109395388D01*
X226935710Y-109481552D01*
X227070428Y-109531799D01*
X227126667Y-109537845D01*
X227133282Y-109538200D01*
X227296371Y-109538200D01*
X227363410Y-109557885D01*
X227409165Y-109610689D01*
X227419109Y-109679847D01*
X227390084Y-109743403D01*
X227361161Y-109767927D01*
X227219778Y-109854566D01*
X227032401Y-110014601D01*
X226872366Y-110201978D01*
X226743617Y-110412078D01*
X226649316Y-110639738D01*
X226591793Y-110879343D01*
X226572459Y-111124999D01*
X226591793Y-111370656D01*
X226649316Y-111610261D01*
X226687986Y-111703617D01*
X226743616Y-111837920D01*
X226743617Y-111837921D01*
X226803542Y-111935710D01*
X226821787Y-112003156D01*
X226800671Y-112069758D01*
X226746899Y-112114372D01*
X226697815Y-112124500D01*
X219681785Y-112124500D01*
X219614746Y-112104815D01*
X219568991Y-112052011D01*
X219559047Y-111982853D01*
X219576058Y-111935710D01*
X219635984Y-111837920D01*
X219730283Y-111610262D01*
X219787807Y-111370655D01*
X219807141Y-111125000D01*
X219787807Y-110879345D01*
X219730283Y-110639738D01*
X219635984Y-110412080D01*
X219507233Y-110201977D01*
X219347199Y-110014601D01*
X219159823Y-109854567D01*
X219018438Y-109767926D01*
X218971564Y-109716116D01*
X218960141Y-109647186D01*
X218987798Y-109583023D01*
X219045754Y-109543998D01*
X219083229Y-109538200D01*
X219246318Y-109538200D01*
X219252932Y-109537845D01*
X219309171Y-109531799D01*
X219443889Y-109481552D01*
X219558988Y-109395388D01*
X219645152Y-109280289D01*
X219695399Y-109145571D01*
X219701445Y-109089332D01*
X219701800Y-109082718D01*
X219701800Y-108373200D01*
X218793320Y-108373200D01*
X218821555Y-108313198D01*
X218850435Y-108161807D01*
X218840757Y-108007989D01*
X218796962Y-107873200D01*
X219701800Y-107873200D01*
X219701800Y-107163681D01*
X219701445Y-107157067D01*
X219695399Y-107100828D01*
X219645152Y-106966110D01*
X219558988Y-106851011D01*
X219443889Y-106764847D01*
X219309171Y-106714600D01*
X219252932Y-106708554D01*
X219246318Y-106708200D01*
X218881782Y-106708200D01*
X218814743Y-106688515D01*
X218768988Y-106635711D01*
X218759044Y-106566553D01*
X218788069Y-106502997D01*
X218834329Y-106469639D01*
X218949493Y-106421936D01*
X219155648Y-106295602D01*
X219155649Y-106295601D01*
X218531012Y-105670965D01*
X218569177Y-105656491D01*
X218711075Y-105558546D01*
X218825410Y-105429488D01*
X218884346Y-105317195D01*
X219509201Y-105942049D01*
X219509202Y-105942048D01*
X219635536Y-105735893D01*
X219729806Y-105508307D01*
X219787311Y-105268778D01*
X219806638Y-105023199D01*
X219787311Y-104777621D01*
X219729806Y-104538092D01*
X219635536Y-104310506D01*
X219509201Y-104104349D01*
X218884346Y-104729203D01*
X218825410Y-104616912D01*
X218711075Y-104487854D01*
X218569177Y-104389909D01*
X218531012Y-104375435D01*
X219155649Y-103750797D01*
X218949493Y-103624463D01*
X218721907Y-103530193D01*
X218482378Y-103472688D01*
X218236800Y-103453361D01*
X217991221Y-103472688D01*
X217751692Y-103530193D01*
X217524106Y-103624464D01*
X217317949Y-103750797D01*
X217942587Y-104375434D01*
X217904423Y-104389909D01*
X217762525Y-104487854D01*
X217648190Y-104616912D01*
X217589253Y-104729205D01*
X216964397Y-104104349D01*
X216838064Y-104310506D01*
X216743793Y-104538092D01*
X216686288Y-104777621D01*
X216666961Y-105023199D01*
X216686288Y-105268778D01*
X216743793Y-105508307D01*
X216838063Y-105735893D01*
X216964397Y-105942049D01*
X217589252Y-105317193D01*
X217648190Y-105429488D01*
X217762525Y-105558546D01*
X217904423Y-105656491D01*
X217942587Y-105670964D01*
X217317949Y-106295601D01*
X217524106Y-106421936D01*
X217639271Y-106469639D01*
X217693674Y-106513480D01*
X217715739Y-106579774D01*
X217698460Y-106647474D01*
X217647322Y-106695084D01*
X217591818Y-106708200D01*
X217227282Y-106708200D01*
X217220667Y-106708554D01*
X217164428Y-106714600D01*
X217029710Y-106764847D01*
X216914611Y-106851011D01*
X216828447Y-106966110D01*
X216778200Y-107100828D01*
X216772154Y-107157067D01*
X216771800Y-107163681D01*
X216771800Y-107873200D01*
X217680280Y-107873200D01*
X217652045Y-107933202D01*
X217623165Y-108084593D01*
X217632843Y-108238411D01*
X217676638Y-108373200D01*
X216771800Y-108373200D01*
X216771800Y-109082718D01*
X216772154Y-109089332D01*
X216778200Y-109145571D01*
X216828447Y-109280289D01*
X216914611Y-109395388D01*
X217029710Y-109481552D01*
X217164428Y-109531799D01*
X217220667Y-109537845D01*
X217227282Y-109538200D01*
X217390371Y-109538200D01*
X217457410Y-109557885D01*
X217503165Y-109610689D01*
X217513109Y-109679847D01*
X217484084Y-109743403D01*
X217455161Y-109767927D01*
X217313778Y-109854566D01*
X217126401Y-110014601D01*
X216966366Y-110201978D01*
X216837617Y-110412078D01*
X216743316Y-110639738D01*
X216685793Y-110879343D01*
X216666459Y-111125000D01*
X216685793Y-111370656D01*
X216743316Y-111610261D01*
X216781986Y-111703617D01*
X216837616Y-111837920D01*
X216837617Y-111837921D01*
X216897542Y-111935710D01*
X216915787Y-112003156D01*
X216894671Y-112069758D01*
X216840899Y-112114372D01*
X216791815Y-112124500D01*
X210164652Y-112124500D01*
X210097613Y-112104815D01*
X210076971Y-112088181D01*
X209745059Y-111756269D01*
X209711574Y-111694946D01*
X209716558Y-111625254D01*
X209718180Y-111621132D01*
X209722683Y-111610262D01*
X209780207Y-111370655D01*
X209799541Y-111125000D01*
X209780207Y-110879345D01*
X209722683Y-110639738D01*
X209628384Y-110412080D01*
X209499633Y-110201977D01*
X209339599Y-110014601D01*
X209152223Y-109854567D01*
X209010838Y-109767926D01*
X208963964Y-109716116D01*
X208952541Y-109647186D01*
X208980198Y-109583023D01*
X209038154Y-109543998D01*
X209075629Y-109538200D01*
X209238718Y-109538200D01*
X209245332Y-109537845D01*
X209301571Y-109531799D01*
X209436289Y-109481552D01*
X209551388Y-109395388D01*
X209637552Y-109280289D01*
X209687799Y-109145571D01*
X209693845Y-109089332D01*
X209694200Y-109082718D01*
X209694200Y-108373200D01*
X208785720Y-108373200D01*
X208813955Y-108313198D01*
X208842835Y-108161807D01*
X208833157Y-108007989D01*
X208789362Y-107873200D01*
X209694200Y-107873200D01*
X209694200Y-107163681D01*
X209693845Y-107157067D01*
X209687799Y-107100828D01*
X209637552Y-106966110D01*
X209551388Y-106851011D01*
X209436289Y-106764847D01*
X209301571Y-106714600D01*
X209245332Y-106708554D01*
X209238718Y-106708200D01*
X208874182Y-106708200D01*
X208807143Y-106688515D01*
X208761388Y-106635711D01*
X208751444Y-106566553D01*
X208780469Y-106502997D01*
X208826729Y-106469639D01*
X208941893Y-106421936D01*
X209148048Y-106295602D01*
X209148049Y-106295601D01*
X208523412Y-105670965D01*
X208561577Y-105656491D01*
X208703475Y-105558546D01*
X208817810Y-105429488D01*
X208876747Y-105317193D01*
X209501601Y-105942049D01*
X209501602Y-105942048D01*
X209627936Y-105735893D01*
X209722206Y-105508307D01*
X209779711Y-105268778D01*
X209799038Y-105023200D01*
X209779711Y-104777621D01*
X209722206Y-104538092D01*
X209627936Y-104310506D01*
X209501601Y-104104349D01*
X208876746Y-104729204D01*
X208817810Y-104616912D01*
X208703475Y-104487854D01*
X208561577Y-104389909D01*
X208523411Y-104375434D01*
X209148049Y-103750797D01*
X208941893Y-103624463D01*
X208714307Y-103530193D01*
X208474778Y-103472688D01*
X208229200Y-103453361D01*
X207983621Y-103472688D01*
X207744092Y-103530193D01*
X207516506Y-103624464D01*
X207310349Y-103750797D01*
X207934986Y-104375435D01*
X207896823Y-104389909D01*
X207754925Y-104487854D01*
X207640590Y-104616912D01*
X207581653Y-104729204D01*
X206956797Y-104104349D01*
X206830464Y-104310506D01*
X206736193Y-104538092D01*
X206678688Y-104777621D01*
X206659361Y-105023200D01*
X206678688Y-105268778D01*
X206736193Y-105508307D01*
X206830463Y-105735893D01*
X206956797Y-105942049D01*
X207581652Y-105317193D01*
X207640590Y-105429488D01*
X207754925Y-105558546D01*
X207896823Y-105656491D01*
X207934987Y-105670964D01*
X207310349Y-106295601D01*
X207516506Y-106421936D01*
X207631671Y-106469639D01*
X207686074Y-106513480D01*
X207708139Y-106579774D01*
X207690860Y-106647474D01*
X207639722Y-106695084D01*
X207584218Y-106708200D01*
X207219682Y-106708200D01*
X207213067Y-106708554D01*
X207156828Y-106714600D01*
X207022110Y-106764847D01*
X206907011Y-106851011D01*
X206820847Y-106966110D01*
X206770600Y-107100828D01*
X206764554Y-107157067D01*
X206764200Y-107163681D01*
X206764200Y-107873200D01*
X207672680Y-107873200D01*
X207644445Y-107933202D01*
X207615565Y-108084593D01*
X207625243Y-108238411D01*
X207669038Y-108373200D01*
X206764200Y-108373200D01*
X206764200Y-109082718D01*
X206764554Y-109089332D01*
X206770600Y-109145571D01*
X206820847Y-109280289D01*
X206907011Y-109395388D01*
X207022110Y-109481552D01*
X207156828Y-109531799D01*
X207213067Y-109537845D01*
X207219682Y-109538200D01*
X207382771Y-109538200D01*
X207449810Y-109557885D01*
X207495565Y-109610689D01*
X207505509Y-109679847D01*
X207476484Y-109743403D01*
X207447561Y-109767927D01*
X207306178Y-109854566D01*
X207118801Y-110014601D01*
X206958766Y-110201978D01*
X206830017Y-110412078D01*
X206735716Y-110639738D01*
X206678193Y-110879343D01*
X206658859Y-111125000D01*
X206678193Y-111370656D01*
X206735716Y-111610261D01*
X206774386Y-111703617D01*
X206830016Y-111837920D01*
X206958767Y-112048023D01*
X207118801Y-112235399D01*
X207306177Y-112395433D01*
X207516280Y-112524184D01*
X207743938Y-112618483D01*
X207983545Y-112676007D01*
X208229200Y-112695341D01*
X208474855Y-112676007D01*
X208714462Y-112618483D01*
X208725331Y-112613980D01*
X208794798Y-112606509D01*
X208857278Y-112637781D01*
X208860468Y-112640859D01*
X209353396Y-113133787D01*
X209366296Y-113149888D01*
X209368413Y-113151876D01*
X209368414Y-113151877D01*
X209417423Y-113197900D01*
X209420220Y-113200611D01*
X209439729Y-113220120D01*
X209442909Y-113222587D01*
X209451771Y-113230155D01*
X209483618Y-113260062D01*
X209501172Y-113269712D01*
X209517436Y-113280396D01*
X209529172Y-113289499D01*
X209533264Y-113292673D01*
X209558109Y-113303424D01*
X209573352Y-113310021D01*
X209583831Y-113315154D01*
X209622108Y-113336197D01*
X209641506Y-113341177D01*
X209659908Y-113347477D01*
X209678304Y-113355438D01*
X209721461Y-113362273D01*
X209732864Y-113364634D01*
X209775181Y-113375500D01*
X209795216Y-113375500D01*
X209814613Y-113377026D01*
X209834396Y-113380160D01*
X209877874Y-113376050D01*
X209889544Y-113375500D01*
X231303247Y-113375500D01*
X231323753Y-113377764D01*
X231326656Y-113377672D01*
X231326658Y-113377673D01*
X231393863Y-113375561D01*
X231397759Y-113375500D01*
X231421439Y-113375500D01*
X231425341Y-113375500D01*
X231429304Y-113374999D01*
X231440953Y-113374080D01*
X231484618Y-113372709D01*
X231503850Y-113367120D01*
X231522909Y-113363174D01*
X231530082Y-113362268D01*
X231542783Y-113360664D01*
X231583398Y-113344582D01*
X231594435Y-113340803D01*
X231636381Y-113328618D01*
X231653620Y-113318422D01*
X231671093Y-113309862D01*
X231689723Y-113302486D01*
X231725055Y-113276814D01*
X231734821Y-113270400D01*
X231752304Y-113260061D01*
X231772411Y-113248170D01*
X231786576Y-113234004D01*
X231801364Y-113221373D01*
X231817578Y-113209594D01*
X231845429Y-113175926D01*
X231853270Y-113167309D01*
X236053786Y-108966793D01*
X236069886Y-108953896D01*
X236071874Y-108951778D01*
X236071877Y-108951777D01*
X236117964Y-108902698D01*
X236120549Y-108900030D01*
X236140120Y-108880461D01*
X236142565Y-108877307D01*
X236150154Y-108868420D01*
X236180062Y-108836573D01*
X236189713Y-108819017D01*
X236200393Y-108802758D01*
X236212674Y-108786927D01*
X236230018Y-108746842D01*
X236235160Y-108736347D01*
X236244845Y-108718731D01*
X236256197Y-108698083D01*
X236261178Y-108678679D01*
X236267480Y-108660274D01*
X236275438Y-108641886D01*
X236282270Y-108598739D01*
X236284639Y-108587307D01*
X236295500Y-108545011D01*
X236295500Y-108524974D01*
X236297027Y-108505575D01*
X236300160Y-108485795D01*
X236296050Y-108442315D01*
X236295500Y-108430646D01*
X236295500Y-107616747D01*
X236297763Y-107596248D01*
X236295560Y-107526154D01*
X236295499Y-107522254D01*
X236295499Y-107513200D01*
X236295500Y-107494659D01*
X236294998Y-107490690D01*
X236294080Y-107479033D01*
X236292709Y-107435382D01*
X236287120Y-107416149D01*
X236283174Y-107397091D01*
X236280664Y-107377217D01*
X236264588Y-107336615D01*
X236260804Y-107325561D01*
X236248619Y-107283622D01*
X236248618Y-107283621D01*
X236248618Y-107283619D01*
X236238417Y-107266370D01*
X236229860Y-107248904D01*
X236222486Y-107230277D01*
X236196813Y-107194941D01*
X236190402Y-107185181D01*
X236177687Y-107163681D01*
X236168170Y-107147588D01*
X236154006Y-107133424D01*
X236141369Y-107118629D01*
X236129595Y-107102423D01*
X236127667Y-107100828D01*
X236095935Y-107074577D01*
X236087305Y-107066723D01*
X232111819Y-103091236D01*
X232078334Y-103029913D01*
X232075500Y-103003555D01*
X232075500Y-101679971D01*
X236645708Y-101679971D01*
X236671919Y-101925238D01*
X236737834Y-102162921D01*
X236841688Y-102386652D01*
X236980685Y-102590416D01*
X237151096Y-102768741D01*
X237310525Y-102888443D01*
X237348346Y-102916840D01*
X237567134Y-103030734D01*
X237801587Y-103107365D01*
X238045407Y-103144675D01*
X238292046Y-103141661D01*
X238367018Y-103128306D01*
X238534880Y-103098407D01*
X238574590Y-103084344D01*
X238767392Y-103016069D01*
X238983331Y-102896864D01*
X238993994Y-102888443D01*
X239176901Y-102743993D01*
X239176904Y-102743990D01*
X239342908Y-102561556D01*
X239476886Y-102354456D01*
X239551224Y-102183490D01*
X239575241Y-102128256D01*
X239635330Y-101889028D01*
X239650021Y-101710327D01*
X239655540Y-101643200D01*
X239653744Y-101569674D01*
X239634822Y-101425952D01*
X239621550Y-101325129D01*
X239616156Y-101307378D01*
X239549845Y-101089121D01*
X239440558Y-100867995D01*
X239296623Y-100667688D01*
X239121905Y-100493579D01*
X238921097Y-100350344D01*
X238699591Y-100241830D01*
X238463336Y-100170950D01*
X238341007Y-100155278D01*
X238218679Y-100139608D01*
X238218678Y-100139608D01*
X237972183Y-100148646D01*
X237972184Y-100148647D01*
X237730473Y-100197824D01*
X237500054Y-100285812D01*
X237287087Y-100410260D01*
X237097308Y-100567817D01*
X236935809Y-100754257D01*
X236806933Y-100964564D01*
X236714134Y-101193102D01*
X236659906Y-101433727D01*
X236645708Y-101679971D01*
X232075500Y-101679971D01*
X232075500Y-97102303D01*
X232095185Y-97035264D01*
X232111819Y-97014622D01*
X232888503Y-96237938D01*
X233678789Y-95447651D01*
X233694885Y-95434757D01*
X233696873Y-95432638D01*
X233696877Y-95432637D01*
X233742949Y-95383574D01*
X233745534Y-95380906D01*
X233765120Y-95361322D01*
X233767585Y-95358143D01*
X233775167Y-95349267D01*
X233805062Y-95317433D01*
X233814712Y-95299878D01*
X233825400Y-95283608D01*
X233837671Y-95267789D01*
X233837673Y-95267787D01*
X233855026Y-95227683D01*
X233860157Y-95217213D01*
X233881197Y-95178943D01*
X233886175Y-95159550D01*
X233892481Y-95141133D01*
X233894018Y-95137579D01*
X233900438Y-95122747D01*
X233907272Y-95079596D01*
X233909634Y-95068186D01*
X233920500Y-95025870D01*
X233920499Y-95005838D01*
X233922025Y-94986442D01*
X233925160Y-94966655D01*
X233921047Y-94923154D01*
X233920500Y-94911527D01*
X233920500Y-90119325D01*
X233940185Y-90052287D01*
X233992989Y-90006532D01*
X234062147Y-89996588D01*
X234115622Y-90017750D01*
X234177419Y-90061021D01*
X234370970Y-90151276D01*
X234577253Y-90206549D01*
X234790000Y-90225162D01*
X235002747Y-90206549D01*
X235209030Y-90151276D01*
X235402581Y-90061021D01*
X235577519Y-89938529D01*
X235728529Y-89787519D01*
X235851021Y-89612581D01*
X235941276Y-89419030D01*
X235941275Y-89419030D01*
X235945861Y-89409198D01*
X235947743Y-89410075D01*
X235976845Y-89362327D01*
X236039691Y-89331796D01*
X236109067Y-89340088D01*
X236162947Y-89384571D01*
X236174202Y-89409216D01*
X236174611Y-89409026D01*
X236269410Y-89612326D01*
X236308415Y-89668030D01*
X236308415Y-89668031D01*
X236932046Y-89044399D01*
X236944835Y-89125148D01*
X237002359Y-89238045D01*
X237091955Y-89327641D01*
X237204852Y-89385165D01*
X237285599Y-89397953D01*
X236661967Y-90021583D01*
X236717670Y-90060587D01*
X236911138Y-90150802D01*
X237117342Y-90206055D01*
X237329999Y-90224660D01*
X237542657Y-90206055D01*
X237748861Y-90150802D01*
X237942325Y-90060589D01*
X237998030Y-90021583D01*
X237374401Y-89397953D01*
X237455148Y-89385165D01*
X237568045Y-89327641D01*
X237657641Y-89238045D01*
X237715165Y-89125148D01*
X237727953Y-89044401D01*
X238338180Y-89654628D01*
X238371665Y-89715951D01*
X238374499Y-89742309D01*
X238374500Y-90051312D01*
X238354816Y-90118351D01*
X238342650Y-90134284D01*
X238267466Y-90217783D01*
X238172820Y-90381715D01*
X238114326Y-90561742D01*
X238094540Y-90750000D01*
X238114326Y-90938257D01*
X238172820Y-91118284D01*
X238267466Y-91282216D01*
X238394129Y-91422889D01*
X238547269Y-91534151D01*
X238720197Y-91611144D01*
X238905352Y-91650500D01*
X238905354Y-91650500D01*
X239094648Y-91650500D01*
X239224719Y-91622853D01*
X239294387Y-91628169D01*
X239350120Y-91670306D01*
X239374225Y-91735886D01*
X239374500Y-91744143D01*
X239374500Y-92189545D01*
X239354815Y-92256584D01*
X239338181Y-92277226D01*
X238248323Y-93367084D01*
X238187000Y-93400569D01*
X238117308Y-93395585D01*
X238061375Y-93353713D01*
X238037114Y-93290209D01*
X238035635Y-93273310D01*
X238035635Y-93273308D01*
X237976739Y-93053504D01*
X237880568Y-92847266D01*
X237860146Y-92818099D01*
X237750046Y-92660859D01*
X237589140Y-92499953D01*
X237402735Y-92369432D01*
X237196497Y-92273261D01*
X236976689Y-92214364D01*
X236750000Y-92194531D01*
X236523310Y-92214364D01*
X236303502Y-92273261D01*
X236097264Y-92369432D01*
X235910859Y-92499953D01*
X235749953Y-92660859D01*
X235619432Y-92847264D01*
X235523261Y-93053502D01*
X235464364Y-93273310D01*
X235444531Y-93500000D01*
X235464364Y-93726689D01*
X235523261Y-93946497D01*
X235619432Y-94152735D01*
X235749953Y-94339140D01*
X235910859Y-94500046D01*
X236097264Y-94630567D01*
X236097265Y-94630567D01*
X236097266Y-94630568D01*
X236303504Y-94726739D01*
X236523308Y-94785635D01*
X236528914Y-94786125D01*
X236540209Y-94787114D01*
X236605278Y-94812566D01*
X236646257Y-94869156D01*
X236650136Y-94938918D01*
X236617084Y-94998323D01*
X234052228Y-97563181D01*
X233990905Y-97596666D01*
X233964547Y-97599500D01*
X233905352Y-97599500D01*
X233720197Y-97638855D01*
X233547269Y-97715848D01*
X233394129Y-97827110D01*
X233267466Y-97967783D01*
X233172820Y-98131715D01*
X233114326Y-98311742D01*
X233094540Y-98499999D01*
X233114326Y-98688257D01*
X233172820Y-98868284D01*
X233267466Y-99032216D01*
X233394129Y-99172889D01*
X233547269Y-99284151D01*
X233720197Y-99361144D01*
X233905352Y-99400500D01*
X233905354Y-99400500D01*
X234094648Y-99400500D01*
X234218083Y-99374262D01*
X234279803Y-99361144D01*
X234452730Y-99284151D01*
X234605871Y-99172888D01*
X234732533Y-99032216D01*
X234827179Y-98868284D01*
X234885674Y-98688256D01*
X234903321Y-98520345D01*
X234929905Y-98455732D01*
X234938952Y-98445636D01*
X236407271Y-96977317D01*
X236468593Y-96943834D01*
X236538285Y-96948818D01*
X236594218Y-96990690D01*
X236615525Y-97036053D01*
X236656916Y-97208461D01*
X236704066Y-97322291D01*
X236751216Y-97436120D01*
X236879967Y-97646223D01*
X237040001Y-97833599D01*
X237227377Y-97993633D01*
X237437480Y-98122384D01*
X237665138Y-98216683D01*
X237904745Y-98274207D01*
X238150400Y-98293541D01*
X238396055Y-98274207D01*
X238635662Y-98216683D01*
X238863320Y-98122384D01*
X239073423Y-97993633D01*
X239260799Y-97833599D01*
X239420833Y-97646223D01*
X239549584Y-97436120D01*
X239643883Y-97208462D01*
X239701407Y-96968855D01*
X239720741Y-96723200D01*
X239701407Y-96477545D01*
X239643883Y-96237938D01*
X239549584Y-96010280D01*
X239420833Y-95800177D01*
X239260799Y-95612801D01*
X239073423Y-95452767D01*
X238863320Y-95324016D01*
X238723081Y-95265927D01*
X238635661Y-95229716D01*
X238463253Y-95188325D01*
X238402661Y-95153534D01*
X238370497Y-95091508D01*
X238376973Y-95021939D01*
X238404517Y-94980072D01*
X239994307Y-93390282D01*
X240055628Y-93356799D01*
X240125320Y-93361783D01*
X240181253Y-93403655D01*
X240205670Y-93469119D01*
X240205514Y-93488771D01*
X240194531Y-93614313D01*
X240214364Y-93841003D01*
X240273261Y-94060811D01*
X240369432Y-94267049D01*
X240499953Y-94453454D01*
X240660859Y-94614360D01*
X240847264Y-94744881D01*
X240847265Y-94744881D01*
X240847266Y-94744882D01*
X241053504Y-94841053D01*
X241273308Y-94899949D01*
X241405405Y-94911506D01*
X241499999Y-94919782D01*
X241499999Y-94919781D01*
X241500000Y-94919782D01*
X241726692Y-94899949D01*
X241946496Y-94841053D01*
X241948092Y-94840308D01*
X241950820Y-94839894D01*
X241956975Y-94838245D01*
X241957158Y-94838931D01*
X242017167Y-94829814D01*
X242080952Y-94858331D01*
X242119195Y-94916806D01*
X242124500Y-94952689D01*
X242124500Y-109939547D01*
X242104815Y-110006586D01*
X242088181Y-110027228D01*
X239802228Y-112313181D01*
X239740905Y-112346666D01*
X239714547Y-112349500D01*
X239655352Y-112349500D01*
X239470196Y-112388855D01*
X239421453Y-112410557D01*
X239352203Y-112419841D01*
X239288927Y-112390212D01*
X239251714Y-112331077D01*
X239252380Y-112261210D01*
X239276725Y-112216751D01*
X239420833Y-112048023D01*
X239549584Y-111837920D01*
X239643883Y-111610262D01*
X239701407Y-111370655D01*
X239720741Y-111125000D01*
X239701407Y-110879345D01*
X239643883Y-110639738D01*
X239549584Y-110412080D01*
X239420833Y-110201977D01*
X239260799Y-110014601D01*
X239073423Y-109854567D01*
X238932038Y-109767926D01*
X238885164Y-109716116D01*
X238873741Y-109647186D01*
X238901398Y-109583023D01*
X238959354Y-109543998D01*
X238996829Y-109538200D01*
X239159918Y-109538200D01*
X239166532Y-109537845D01*
X239222771Y-109531799D01*
X239357489Y-109481552D01*
X239472588Y-109395388D01*
X239558752Y-109280289D01*
X239608999Y-109145571D01*
X239615045Y-109089332D01*
X239615400Y-109082718D01*
X239615400Y-108373200D01*
X238706920Y-108373200D01*
X238735155Y-108313198D01*
X238764035Y-108161807D01*
X238754357Y-108007989D01*
X238710562Y-107873200D01*
X239615400Y-107873200D01*
X239615400Y-107163681D01*
X239615045Y-107157067D01*
X239608999Y-107100828D01*
X239558752Y-106966110D01*
X239472588Y-106851011D01*
X239357489Y-106764847D01*
X239222771Y-106714600D01*
X239166532Y-106708554D01*
X239159918Y-106708200D01*
X238795382Y-106708200D01*
X238728343Y-106688515D01*
X238682588Y-106635711D01*
X238672644Y-106566553D01*
X238701669Y-106502997D01*
X238747929Y-106469639D01*
X238863093Y-106421936D01*
X239069248Y-106295602D01*
X239069249Y-106295601D01*
X238444612Y-105670965D01*
X238482777Y-105656491D01*
X238624675Y-105558546D01*
X238739010Y-105429488D01*
X238797947Y-105317194D01*
X239422801Y-105942049D01*
X239422802Y-105942048D01*
X239549136Y-105735893D01*
X239643406Y-105508307D01*
X239700911Y-105268778D01*
X239720238Y-105023199D01*
X239700911Y-104777621D01*
X239643406Y-104538092D01*
X239549136Y-104310506D01*
X239422801Y-104104349D01*
X238797946Y-104729204D01*
X238739010Y-104616912D01*
X238624675Y-104487854D01*
X238482777Y-104389909D01*
X238444611Y-104375434D01*
X239069249Y-103750797D01*
X238863093Y-103624463D01*
X238635507Y-103530193D01*
X238395978Y-103472688D01*
X238150400Y-103453361D01*
X237904821Y-103472688D01*
X237665292Y-103530193D01*
X237437706Y-103624464D01*
X237231549Y-103750797D01*
X237856186Y-104375435D01*
X237818023Y-104389909D01*
X237676125Y-104487854D01*
X237561790Y-104616912D01*
X237502853Y-104729204D01*
X236877997Y-104104349D01*
X236751664Y-104310506D01*
X236657393Y-104538092D01*
X236599888Y-104777621D01*
X236580561Y-105023200D01*
X236599888Y-105268778D01*
X236657393Y-105508307D01*
X236751663Y-105735893D01*
X236877997Y-105942049D01*
X237502852Y-105317193D01*
X237561790Y-105429488D01*
X237676125Y-105558546D01*
X237818023Y-105656491D01*
X237856187Y-105670964D01*
X237231549Y-106295601D01*
X237437706Y-106421936D01*
X237552871Y-106469639D01*
X237607274Y-106513480D01*
X237629339Y-106579774D01*
X237612060Y-106647474D01*
X237560922Y-106695084D01*
X237505418Y-106708200D01*
X237140882Y-106708200D01*
X237134267Y-106708554D01*
X237078028Y-106714600D01*
X236943310Y-106764847D01*
X236828211Y-106851011D01*
X236742047Y-106966110D01*
X236691800Y-107100828D01*
X236685754Y-107157067D01*
X236685400Y-107163681D01*
X236685400Y-107873200D01*
X237593880Y-107873200D01*
X237565645Y-107933202D01*
X237536765Y-108084593D01*
X237546443Y-108238411D01*
X237590238Y-108373200D01*
X236685400Y-108373200D01*
X236685400Y-109082718D01*
X236685754Y-109089332D01*
X236691800Y-109145571D01*
X236742047Y-109280289D01*
X236828211Y-109395388D01*
X236943310Y-109481552D01*
X237078028Y-109531799D01*
X237134267Y-109537845D01*
X237140882Y-109538200D01*
X237303971Y-109538200D01*
X237371010Y-109557885D01*
X237416765Y-109610689D01*
X237426709Y-109679847D01*
X237397684Y-109743403D01*
X237368761Y-109767927D01*
X237227378Y-109854566D01*
X237040001Y-110014601D01*
X236879966Y-110201978D01*
X236751217Y-110412078D01*
X236656916Y-110639738D01*
X236599393Y-110879343D01*
X236580059Y-111124999D01*
X236599393Y-111370656D01*
X236656916Y-111610261D01*
X236695586Y-111703617D01*
X236751216Y-111837920D01*
X236879967Y-112048023D01*
X237040001Y-112235399D01*
X237227377Y-112395433D01*
X237437480Y-112524184D01*
X237665138Y-112618483D01*
X237904745Y-112676007D01*
X238150400Y-112695341D01*
X238396055Y-112676007D01*
X238635662Y-112618483D01*
X238863320Y-112524184D01*
X238866929Y-112521972D01*
X238871916Y-112520622D01*
X238872336Y-112520449D01*
X238872358Y-112520503D01*
X238934367Y-112503724D01*
X239000971Y-112524834D01*
X239045589Y-112578602D01*
X239054056Y-112647957D01*
X239023877Y-112710663D01*
X239017467Y-112717782D01*
X238922820Y-112881715D01*
X238864326Y-113061742D01*
X238844540Y-113250000D01*
X238864326Y-113438257D01*
X238922820Y-113618284D01*
X239017466Y-113782216D01*
X239144129Y-113922889D01*
X239297269Y-114034151D01*
X239470197Y-114111144D01*
X239655352Y-114150500D01*
X239655354Y-114150500D01*
X239844648Y-114150500D01*
X239968083Y-114124262D01*
X240029803Y-114111144D01*
X240202730Y-114034151D01*
X240355871Y-113922888D01*
X240482533Y-113782216D01*
X240577179Y-113618284D01*
X240635674Y-113438256D01*
X240653321Y-113270345D01*
X240679905Y-113205732D01*
X240688952Y-113195636D01*
X242987821Y-110896767D01*
X243049142Y-110863284D01*
X243118834Y-110868268D01*
X243174767Y-110910140D01*
X243199184Y-110975604D01*
X243199500Y-110984450D01*
X243199500Y-124081500D01*
X243179815Y-124148539D01*
X243127011Y-124194294D01*
X243075500Y-124205500D01*
X203324500Y-124205500D01*
X203257461Y-124185815D01*
X203211706Y-124133011D01*
X203200500Y-124081500D01*
X203200500Y-119424999D01*
X206658859Y-119424999D01*
X206678193Y-119670656D01*
X206735716Y-119910261D01*
X206756462Y-119960346D01*
X206830016Y-120137920D01*
X206958767Y-120348023D01*
X207118801Y-120535399D01*
X207306177Y-120695433D01*
X207516280Y-120824184D01*
X207630364Y-120871439D01*
X207684767Y-120915280D01*
X207706832Y-120981574D01*
X207689553Y-121049274D01*
X207638415Y-121096884D01*
X207582911Y-121110000D01*
X207219682Y-121110000D01*
X207213067Y-121110354D01*
X207156828Y-121116400D01*
X207022110Y-121166647D01*
X206907011Y-121252811D01*
X206820847Y-121367910D01*
X206770600Y-121502628D01*
X206764554Y-121558867D01*
X206764200Y-121565481D01*
X206764200Y-122275000D01*
X207672680Y-122275000D01*
X207644445Y-122335002D01*
X207615565Y-122486393D01*
X207625243Y-122640211D01*
X207669038Y-122775000D01*
X206764200Y-122775000D01*
X206764200Y-123484518D01*
X206764554Y-123491132D01*
X206770600Y-123547371D01*
X206820847Y-123682089D01*
X206907011Y-123797188D01*
X207022110Y-123883352D01*
X207156828Y-123933599D01*
X207213067Y-123939645D01*
X207219682Y-123940000D01*
X207979200Y-123940000D01*
X207979200Y-123083664D01*
X208002859Y-123096671D01*
X208152139Y-123135000D01*
X208267575Y-123135000D01*
X208382106Y-123120531D01*
X208479200Y-123082088D01*
X208479200Y-123940000D01*
X209238718Y-123940000D01*
X209245332Y-123939645D01*
X209301571Y-123933599D01*
X209436289Y-123883352D01*
X209551388Y-123797188D01*
X209637552Y-123682089D01*
X209687799Y-123547371D01*
X209693845Y-123491132D01*
X209694200Y-123484518D01*
X209694200Y-122775000D01*
X208785720Y-122775000D01*
X208813955Y-122714998D01*
X208842835Y-122563607D01*
X208833157Y-122409789D01*
X208789362Y-122275000D01*
X209694200Y-122275000D01*
X209694200Y-121565481D01*
X209693845Y-121558867D01*
X209687799Y-121502628D01*
X209637552Y-121367910D01*
X209551388Y-121252811D01*
X209436289Y-121166647D01*
X209301571Y-121116400D01*
X209245332Y-121110354D01*
X209238718Y-121110000D01*
X208875489Y-121110000D01*
X208808450Y-121090315D01*
X208762695Y-121037511D01*
X208752751Y-120968353D01*
X208781776Y-120904797D01*
X208828036Y-120871439D01*
X208942120Y-120824184D01*
X209152223Y-120695433D01*
X209339599Y-120535399D01*
X209499633Y-120348023D01*
X209628384Y-120137920D01*
X209722683Y-119910262D01*
X209780207Y-119670655D01*
X209799541Y-119425000D01*
X209799541Y-119424999D01*
X216666459Y-119424999D01*
X216685793Y-119670656D01*
X216743316Y-119910261D01*
X216764062Y-119960346D01*
X216837616Y-120137920D01*
X216966367Y-120348023D01*
X217126401Y-120535399D01*
X217313777Y-120695433D01*
X217523880Y-120824184D01*
X217637964Y-120871439D01*
X217692367Y-120915280D01*
X217714432Y-120981574D01*
X217697153Y-121049274D01*
X217646015Y-121096884D01*
X217590511Y-121110000D01*
X217227282Y-121110000D01*
X217220667Y-121110354D01*
X217164428Y-121116400D01*
X217029710Y-121166647D01*
X216914611Y-121252811D01*
X216828447Y-121367910D01*
X216778200Y-121502628D01*
X216772154Y-121558867D01*
X216771800Y-121565481D01*
X216771800Y-122275000D01*
X217680280Y-122275000D01*
X217652045Y-122335002D01*
X217623165Y-122486393D01*
X217632843Y-122640211D01*
X217676638Y-122775000D01*
X216771800Y-122775000D01*
X216771800Y-123484518D01*
X216772154Y-123491132D01*
X216778200Y-123547371D01*
X216828447Y-123682089D01*
X216914611Y-123797188D01*
X217029710Y-123883352D01*
X217164428Y-123933599D01*
X217220667Y-123939645D01*
X217227282Y-123940000D01*
X217986800Y-123940000D01*
X217986800Y-123083664D01*
X218010459Y-123096671D01*
X218159739Y-123135000D01*
X218275175Y-123135000D01*
X218389706Y-123120531D01*
X218486800Y-123082088D01*
X218486800Y-123940000D01*
X219246318Y-123940000D01*
X219252932Y-123939645D01*
X219309171Y-123933599D01*
X219443889Y-123883352D01*
X219558988Y-123797188D01*
X219645152Y-123682089D01*
X219695399Y-123547371D01*
X219701445Y-123491132D01*
X219701800Y-123484518D01*
X219701800Y-122775000D01*
X218793320Y-122775000D01*
X218821555Y-122714998D01*
X218850435Y-122563607D01*
X218840757Y-122409789D01*
X218796962Y-122275000D01*
X219701800Y-122275000D01*
X219701800Y-121565481D01*
X219701445Y-121558867D01*
X219695399Y-121502628D01*
X219645152Y-121367910D01*
X219558988Y-121252811D01*
X219443889Y-121166647D01*
X219309171Y-121116400D01*
X219252932Y-121110354D01*
X219246318Y-121110000D01*
X218883089Y-121110000D01*
X218816050Y-121090315D01*
X218770295Y-121037511D01*
X218760351Y-120968353D01*
X218789376Y-120904797D01*
X218835636Y-120871439D01*
X218949720Y-120824184D01*
X219159823Y-120695433D01*
X219347199Y-120535399D01*
X219507233Y-120348023D01*
X219635984Y-120137920D01*
X219730283Y-119910262D01*
X219787807Y-119670655D01*
X219807141Y-119425000D01*
X226572459Y-119425000D01*
X226591793Y-119670656D01*
X226649316Y-119910261D01*
X226670062Y-119960346D01*
X226743616Y-120137920D01*
X226872367Y-120348023D01*
X227032401Y-120535399D01*
X227219777Y-120695433D01*
X227429880Y-120824184D01*
X227543964Y-120871439D01*
X227598367Y-120915280D01*
X227620432Y-120981574D01*
X227603153Y-121049274D01*
X227552015Y-121096884D01*
X227496511Y-121110000D01*
X227133282Y-121110000D01*
X227126667Y-121110354D01*
X227070428Y-121116400D01*
X226935710Y-121166647D01*
X226820611Y-121252811D01*
X226734447Y-121367910D01*
X226684200Y-121502628D01*
X226678154Y-121558867D01*
X226677800Y-121565481D01*
X226677800Y-122275000D01*
X227586280Y-122275000D01*
X227558045Y-122335002D01*
X227529165Y-122486393D01*
X227538843Y-122640211D01*
X227582638Y-122775000D01*
X226677800Y-122775000D01*
X226677800Y-123484518D01*
X226678154Y-123491132D01*
X226684200Y-123547371D01*
X226734447Y-123682089D01*
X226820611Y-123797188D01*
X226935710Y-123883352D01*
X227070428Y-123933599D01*
X227126667Y-123939645D01*
X227133282Y-123940000D01*
X227892800Y-123940000D01*
X227892800Y-123083664D01*
X227916459Y-123096671D01*
X228065739Y-123135000D01*
X228181175Y-123135000D01*
X228295706Y-123120531D01*
X228392800Y-123082088D01*
X228392800Y-123940000D01*
X229152318Y-123940000D01*
X229158932Y-123939645D01*
X229215171Y-123933599D01*
X229349889Y-123883352D01*
X229464988Y-123797188D01*
X229551152Y-123682089D01*
X229601399Y-123547371D01*
X229607445Y-123491132D01*
X229607800Y-123484518D01*
X229607800Y-122775000D01*
X228699320Y-122775000D01*
X228727555Y-122714998D01*
X228756435Y-122563607D01*
X228746757Y-122409789D01*
X228702962Y-122275000D01*
X229607799Y-122275000D01*
X229607800Y-121565481D01*
X229607445Y-121558867D01*
X229601399Y-121502628D01*
X229551152Y-121367910D01*
X229464988Y-121252811D01*
X229349889Y-121166647D01*
X229215171Y-121116400D01*
X229158932Y-121110354D01*
X229152318Y-121110000D01*
X228789089Y-121110000D01*
X228722050Y-121090315D01*
X228676295Y-121037511D01*
X228666351Y-120968353D01*
X228695376Y-120904797D01*
X228741636Y-120871439D01*
X228855720Y-120824184D01*
X229065823Y-120695433D01*
X229253199Y-120535399D01*
X229413233Y-120348023D01*
X229541984Y-120137920D01*
X229636283Y-119910262D01*
X229693807Y-119670655D01*
X229713141Y-119425000D01*
X236580561Y-119425000D01*
X236599888Y-119670578D01*
X236657393Y-119910107D01*
X236751663Y-120137693D01*
X236877997Y-120343849D01*
X237502852Y-119718993D01*
X237561790Y-119831288D01*
X237676125Y-119960346D01*
X237818023Y-120058291D01*
X237856187Y-120072764D01*
X237231549Y-120697401D01*
X237437706Y-120823736D01*
X237552871Y-120871439D01*
X237607274Y-120915280D01*
X237629339Y-120981574D01*
X237612060Y-121049274D01*
X237560922Y-121096884D01*
X237505418Y-121110000D01*
X237140882Y-121110000D01*
X237134267Y-121110354D01*
X237078028Y-121116400D01*
X236943310Y-121166647D01*
X236828211Y-121252811D01*
X236742047Y-121367910D01*
X236691800Y-121502628D01*
X236685754Y-121558867D01*
X236685400Y-121565481D01*
X236685400Y-122275000D01*
X237593880Y-122275000D01*
X237565645Y-122335002D01*
X237536765Y-122486393D01*
X237546443Y-122640211D01*
X237590238Y-122775000D01*
X236685400Y-122775000D01*
X236685400Y-123484518D01*
X236685754Y-123491132D01*
X236691800Y-123547371D01*
X236742047Y-123682089D01*
X236828211Y-123797188D01*
X236943310Y-123883352D01*
X237078028Y-123933599D01*
X237134267Y-123939645D01*
X237140882Y-123940000D01*
X237900399Y-123940000D01*
X237900399Y-123083664D01*
X237924059Y-123096671D01*
X238073339Y-123135000D01*
X238188775Y-123135000D01*
X238303306Y-123120531D01*
X238400400Y-123082088D01*
X238400400Y-123940000D01*
X239159918Y-123940000D01*
X239166532Y-123939645D01*
X239222771Y-123933599D01*
X239357489Y-123883352D01*
X239472588Y-123797188D01*
X239558752Y-123682089D01*
X239608999Y-123547371D01*
X239615045Y-123491132D01*
X239615400Y-123484518D01*
X239615400Y-122775000D01*
X238706920Y-122775000D01*
X238735155Y-122714998D01*
X238764035Y-122563607D01*
X238754357Y-122409789D01*
X238710562Y-122275000D01*
X239615400Y-122275000D01*
X239615400Y-121565481D01*
X239615045Y-121558867D01*
X239608999Y-121502628D01*
X239558752Y-121367910D01*
X239472588Y-121252811D01*
X239357489Y-121166647D01*
X239222771Y-121116400D01*
X239166532Y-121110354D01*
X239159918Y-121110000D01*
X238795382Y-121110000D01*
X238728343Y-121090315D01*
X238682588Y-121037511D01*
X238672644Y-120968353D01*
X238701669Y-120904797D01*
X238747929Y-120871439D01*
X238863093Y-120823736D01*
X239069248Y-120697402D01*
X239069249Y-120697401D01*
X238444612Y-120072765D01*
X238482777Y-120058291D01*
X238624675Y-119960346D01*
X238739010Y-119831288D01*
X238797947Y-119718994D01*
X239422801Y-120343849D01*
X239422802Y-120343848D01*
X239549136Y-120137693D01*
X239643406Y-119910107D01*
X239700911Y-119670578D01*
X239720238Y-119425000D01*
X239700911Y-119179421D01*
X239643406Y-118939892D01*
X239549136Y-118712306D01*
X239422801Y-118506149D01*
X238797946Y-119131004D01*
X238739010Y-119018712D01*
X238624675Y-118889654D01*
X238482777Y-118791709D01*
X238444611Y-118777234D01*
X239069249Y-118152597D01*
X238863093Y-118026263D01*
X238635507Y-117931993D01*
X238395978Y-117874488D01*
X238150400Y-117855161D01*
X237904821Y-117874488D01*
X237665292Y-117931993D01*
X237437706Y-118026264D01*
X237231549Y-118152597D01*
X237856186Y-118777235D01*
X237818023Y-118791709D01*
X237676125Y-118889654D01*
X237561790Y-119018712D01*
X237502853Y-119131005D01*
X236877997Y-118506149D01*
X236751664Y-118712306D01*
X236657393Y-118939892D01*
X236599888Y-119179421D01*
X236580561Y-119425000D01*
X229713141Y-119425000D01*
X229693807Y-119179345D01*
X229636283Y-118939738D01*
X229541984Y-118712080D01*
X229413233Y-118501977D01*
X229253199Y-118314601D01*
X229065823Y-118154567D01*
X228855720Y-118025816D01*
X228741891Y-117978666D01*
X228628061Y-117931516D01*
X228388456Y-117873993D01*
X228142800Y-117854659D01*
X227897143Y-117873993D01*
X227657538Y-117931516D01*
X227429878Y-118025817D01*
X227219778Y-118154566D01*
X227219776Y-118154567D01*
X227219777Y-118154567D01*
X227032401Y-118314601D01*
X226872367Y-118501977D01*
X226743616Y-118712080D01*
X226735958Y-118730568D01*
X226649316Y-118939738D01*
X226591793Y-119179343D01*
X226572459Y-119425000D01*
X219807141Y-119425000D01*
X219787807Y-119179345D01*
X219730283Y-118939738D01*
X219635984Y-118712080D01*
X219507233Y-118501977D01*
X219347199Y-118314601D01*
X219159823Y-118154567D01*
X218949720Y-118025816D01*
X218835890Y-117978666D01*
X218722061Y-117931516D01*
X218482456Y-117873993D01*
X218236800Y-117854659D01*
X217991143Y-117873993D01*
X217751538Y-117931516D01*
X217523878Y-118025817D01*
X217313778Y-118154566D01*
X217313776Y-118154567D01*
X217313777Y-118154567D01*
X217126401Y-118314601D01*
X216966367Y-118501977D01*
X216837616Y-118712080D01*
X216829958Y-118730568D01*
X216743316Y-118939738D01*
X216685793Y-119179343D01*
X216666459Y-119424999D01*
X209799541Y-119424999D01*
X209780207Y-119179345D01*
X209722683Y-118939738D01*
X209628384Y-118712080D01*
X209499633Y-118501977D01*
X209339599Y-118314601D01*
X209152223Y-118154567D01*
X208942120Y-118025816D01*
X208828291Y-117978666D01*
X208714461Y-117931516D01*
X208474856Y-117873993D01*
X208229200Y-117854659D01*
X207983543Y-117873993D01*
X207743938Y-117931516D01*
X207516278Y-118025817D01*
X207306178Y-118154566D01*
X207306176Y-118154567D01*
X207306177Y-118154567D01*
X207118801Y-118314601D01*
X206958767Y-118501977D01*
X206830016Y-118712080D01*
X206822358Y-118730568D01*
X206735716Y-118939738D01*
X206678193Y-119179343D01*
X206658859Y-119424999D01*
X203200500Y-119424999D01*
X203200500Y-116081771D01*
X206724508Y-116081771D01*
X206750719Y-116327038D01*
X206816634Y-116564721D01*
X206920488Y-116788452D01*
X207059485Y-116992216D01*
X207229896Y-117170541D01*
X207400536Y-117298661D01*
X207427146Y-117318640D01*
X207645934Y-117432534D01*
X207880387Y-117509165D01*
X208124207Y-117546475D01*
X208370846Y-117543461D01*
X208445818Y-117530106D01*
X208613680Y-117500207D01*
X208653390Y-117486144D01*
X208846192Y-117417869D01*
X209062131Y-117298664D01*
X209062135Y-117298661D01*
X209255701Y-117145793D01*
X209255704Y-117145790D01*
X209421708Y-116963356D01*
X209555686Y-116756256D01*
X209604863Y-116643155D01*
X209654041Y-116530056D01*
X209714130Y-116290828D01*
X209731317Y-116081771D01*
X216732108Y-116081771D01*
X216758319Y-116327038D01*
X216824234Y-116564721D01*
X216928088Y-116788452D01*
X217067085Y-116992216D01*
X217237496Y-117170541D01*
X217408136Y-117298661D01*
X217434746Y-117318640D01*
X217653534Y-117432534D01*
X217887987Y-117509165D01*
X218131807Y-117546475D01*
X218378446Y-117543461D01*
X218453418Y-117530106D01*
X218621280Y-117500207D01*
X218660990Y-117486144D01*
X218853792Y-117417869D01*
X219069731Y-117298664D01*
X219069735Y-117298661D01*
X219263301Y-117145793D01*
X219263304Y-117145790D01*
X219429308Y-116963356D01*
X219563286Y-116756256D01*
X219612463Y-116643155D01*
X219661641Y-116530056D01*
X219721730Y-116290828D01*
X219721729Y-116290827D01*
X219738917Y-116081771D01*
X226638108Y-116081771D01*
X226664319Y-116327038D01*
X226730234Y-116564721D01*
X226834088Y-116788452D01*
X226973085Y-116992216D01*
X227143496Y-117170541D01*
X227314136Y-117298661D01*
X227340746Y-117318640D01*
X227559534Y-117432534D01*
X227793987Y-117509165D01*
X228037807Y-117546475D01*
X228284446Y-117543461D01*
X228359418Y-117530106D01*
X228527280Y-117500207D01*
X228566990Y-117486144D01*
X228759792Y-117417869D01*
X228975731Y-117298664D01*
X228975735Y-117298661D01*
X229169301Y-117145793D01*
X229169304Y-117145790D01*
X229335308Y-116963356D01*
X229469286Y-116756256D01*
X229518463Y-116643155D01*
X229567641Y-116530056D01*
X229627730Y-116290828D01*
X229627730Y-116290827D01*
X229644917Y-116081771D01*
X236645708Y-116081771D01*
X236671919Y-116327038D01*
X236737834Y-116564721D01*
X236841688Y-116788452D01*
X236980685Y-116992216D01*
X237151096Y-117170541D01*
X237321736Y-117298661D01*
X237348346Y-117318640D01*
X237567134Y-117432534D01*
X237801587Y-117509165D01*
X238045407Y-117546475D01*
X238292046Y-117543461D01*
X238367018Y-117530106D01*
X238534880Y-117500207D01*
X238574590Y-117486144D01*
X238767392Y-117417869D01*
X238983331Y-117298664D01*
X238983335Y-117298661D01*
X239176901Y-117145793D01*
X239176904Y-117145790D01*
X239342908Y-116963356D01*
X239476886Y-116756256D01*
X239526063Y-116643155D01*
X239575241Y-116530056D01*
X239635330Y-116290828D01*
X239635329Y-116290827D01*
X239655540Y-116045000D01*
X239653744Y-115971474D01*
X239634822Y-115827752D01*
X239621550Y-115726929D01*
X239616156Y-115709178D01*
X239549845Y-115490921D01*
X239440558Y-115269795D01*
X239296623Y-115069488D01*
X239121905Y-114895379D01*
X238921097Y-114752144D01*
X238699591Y-114643630D01*
X238463336Y-114572750D01*
X238341007Y-114557078D01*
X238218679Y-114541408D01*
X238218678Y-114541408D01*
X237972184Y-114550446D01*
X237972184Y-114550447D01*
X237730473Y-114599624D01*
X237500054Y-114687612D01*
X237287087Y-114812060D01*
X237097308Y-114969617D01*
X236935809Y-115156057D01*
X236806933Y-115366364D01*
X236714134Y-115594902D01*
X236659906Y-115835527D01*
X236645708Y-116081771D01*
X229644917Y-116081771D01*
X229647940Y-116045000D01*
X229646144Y-115971474D01*
X229627222Y-115827752D01*
X229613950Y-115726929D01*
X229608556Y-115709178D01*
X229542245Y-115490921D01*
X229432958Y-115269795D01*
X229289023Y-115069488D01*
X229114305Y-114895379D01*
X228913497Y-114752144D01*
X228691991Y-114643630D01*
X228455736Y-114572750D01*
X228333407Y-114557079D01*
X228211079Y-114541408D01*
X228211078Y-114541408D01*
X227964584Y-114550446D01*
X227964584Y-114550447D01*
X227722873Y-114599624D01*
X227492454Y-114687612D01*
X227279487Y-114812060D01*
X227089708Y-114969617D01*
X226928209Y-115156057D01*
X226799333Y-115366364D01*
X226706534Y-115594902D01*
X226652306Y-115835527D01*
X226638108Y-116081771D01*
X219738917Y-116081771D01*
X219741940Y-116045000D01*
X219740144Y-115971474D01*
X219721222Y-115827752D01*
X219707950Y-115726929D01*
X219702556Y-115709178D01*
X219636245Y-115490921D01*
X219526958Y-115269795D01*
X219383023Y-115069488D01*
X219208305Y-114895379D01*
X219007497Y-114752144D01*
X218785991Y-114643630D01*
X218549736Y-114572750D01*
X218427406Y-114557078D01*
X218305079Y-114541408D01*
X218305078Y-114541408D01*
X218058583Y-114550446D01*
X218058584Y-114550447D01*
X217816873Y-114599624D01*
X217586454Y-114687612D01*
X217373487Y-114812060D01*
X217183708Y-114969617D01*
X217022209Y-115156057D01*
X216893333Y-115366364D01*
X216800534Y-115594902D01*
X216746306Y-115835527D01*
X216732108Y-116081771D01*
X209731317Y-116081771D01*
X209734340Y-116045000D01*
X209732544Y-115971474D01*
X209713622Y-115827752D01*
X209700350Y-115726929D01*
X209694956Y-115709178D01*
X209628645Y-115490921D01*
X209519358Y-115269795D01*
X209375423Y-115069488D01*
X209200705Y-114895379D01*
X208999897Y-114752144D01*
X208778391Y-114643630D01*
X208542136Y-114572750D01*
X208419807Y-114557079D01*
X208297479Y-114541408D01*
X208297478Y-114541408D01*
X208050983Y-114550446D01*
X208050984Y-114550447D01*
X207809273Y-114599624D01*
X207578854Y-114687612D01*
X207365887Y-114812060D01*
X207176108Y-114969617D01*
X207014609Y-115156057D01*
X206885733Y-115366364D01*
X206792934Y-115594902D01*
X206738706Y-115835527D01*
X206724508Y-116081771D01*
X203200500Y-116081771D01*
X203200500Y-101679971D01*
X206724508Y-101679971D01*
X206750719Y-101925238D01*
X206816634Y-102162921D01*
X206920488Y-102386652D01*
X207059485Y-102590416D01*
X207229896Y-102768741D01*
X207389325Y-102888443D01*
X207427146Y-102916840D01*
X207645934Y-103030734D01*
X207880387Y-103107365D01*
X208124207Y-103144675D01*
X208370846Y-103141661D01*
X208445818Y-103128306D01*
X208613680Y-103098407D01*
X208653390Y-103084344D01*
X208846192Y-103016069D01*
X209062131Y-102896864D01*
X209072794Y-102888443D01*
X209255701Y-102743993D01*
X209255704Y-102743990D01*
X209421708Y-102561556D01*
X209555686Y-102354456D01*
X209630024Y-102183490D01*
X209654041Y-102128256D01*
X209714130Y-101889028D01*
X209728821Y-101710327D01*
X209731317Y-101679971D01*
X216732108Y-101679971D01*
X216758319Y-101925238D01*
X216824234Y-102162921D01*
X216928088Y-102386652D01*
X217067085Y-102590416D01*
X217237496Y-102768741D01*
X217396925Y-102888443D01*
X217434746Y-102916840D01*
X217653534Y-103030734D01*
X217887987Y-103107365D01*
X218131807Y-103144675D01*
X218378446Y-103141661D01*
X218453418Y-103128306D01*
X218621280Y-103098407D01*
X218660990Y-103084344D01*
X218853792Y-103016069D01*
X219069731Y-102896864D01*
X219080394Y-102888443D01*
X219263301Y-102743993D01*
X219263304Y-102743990D01*
X219429308Y-102561556D01*
X219563286Y-102354456D01*
X219637624Y-102183490D01*
X219661641Y-102128256D01*
X219721730Y-101889028D01*
X219736421Y-101710327D01*
X219741940Y-101643200D01*
X219740144Y-101569674D01*
X219721222Y-101425952D01*
X219707950Y-101325129D01*
X219702556Y-101307378D01*
X219636245Y-101089121D01*
X219526958Y-100867995D01*
X219383023Y-100667688D01*
X219208305Y-100493579D01*
X219007497Y-100350344D01*
X218785991Y-100241830D01*
X218549736Y-100170950D01*
X218427407Y-100155278D01*
X218305079Y-100139608D01*
X218305078Y-100139608D01*
X218058583Y-100148646D01*
X218058584Y-100148647D01*
X217816873Y-100197824D01*
X217586454Y-100285812D01*
X217373487Y-100410260D01*
X217183708Y-100567817D01*
X217022209Y-100754257D01*
X216893333Y-100964564D01*
X216800534Y-101193102D01*
X216746306Y-101433727D01*
X216732108Y-101679971D01*
X209731317Y-101679971D01*
X209734340Y-101643200D01*
X209732544Y-101569674D01*
X209713622Y-101425952D01*
X209700350Y-101325129D01*
X209694956Y-101307378D01*
X209628645Y-101089121D01*
X209519358Y-100867995D01*
X209375423Y-100667688D01*
X209200705Y-100493579D01*
X208999897Y-100350344D01*
X208778391Y-100241830D01*
X208542136Y-100170950D01*
X208419807Y-100155278D01*
X208297479Y-100139608D01*
X208297478Y-100139608D01*
X208050984Y-100148646D01*
X208050984Y-100148647D01*
X207809273Y-100197824D01*
X207578854Y-100285812D01*
X207365887Y-100410260D01*
X207176108Y-100567817D01*
X207014609Y-100754257D01*
X206885733Y-100964564D01*
X206792934Y-101193102D01*
X206738706Y-101433727D01*
X206724508Y-101679971D01*
X203200500Y-101679971D01*
X203200500Y-84266219D01*
X203220185Y-84199180D01*
X203272989Y-84153425D01*
X203342147Y-84143481D01*
X203405703Y-84172506D01*
X203414902Y-84182388D01*
X203439579Y-84200861D01*
X203534069Y-84271596D01*
X203668917Y-84321891D01*
X203728527Y-84328300D01*
X205737746Y-84328299D01*
X205804785Y-84347984D01*
X205850540Y-84400787D01*
X205860484Y-84469946D01*
X205831459Y-84533502D01*
X205825427Y-84539980D01*
X204866208Y-85499199D01*
X204850110Y-85512096D01*
X204802096Y-85563225D01*
X204799392Y-85566016D01*
X204782628Y-85582780D01*
X204782621Y-85582787D01*
X204779880Y-85585529D01*
X204777499Y-85588597D01*
X204777490Y-85588608D01*
X204777411Y-85588711D01*
X204769842Y-85597572D01*
X204739935Y-85629420D01*
X204730285Y-85646974D01*
X204719609Y-85663228D01*
X204707326Y-85679063D01*
X204689975Y-85719158D01*
X204684838Y-85729644D01*
X204663802Y-85767907D01*
X204658821Y-85787309D01*
X204652520Y-85805711D01*
X204644561Y-85824102D01*
X204637728Y-85867242D01*
X204635360Y-85878674D01*
X204624500Y-85920977D01*
X204624500Y-85941016D01*
X204622973Y-85960414D01*
X204619840Y-85980194D01*
X204623950Y-86023673D01*
X204624500Y-86035343D01*
X204624500Y-93661256D01*
X204622235Y-93681766D01*
X204624439Y-93751872D01*
X204624500Y-93755767D01*
X204624500Y-93783350D01*
X204624988Y-93787219D01*
X204624989Y-93787225D01*
X204625004Y-93787343D01*
X204625918Y-93798967D01*
X204627290Y-93842626D01*
X204632879Y-93861860D01*
X204636825Y-93880916D01*
X204639335Y-93900792D01*
X204655414Y-93941404D01*
X204659197Y-93952451D01*
X204671382Y-93994391D01*
X204681580Y-94011635D01*
X204690136Y-94029100D01*
X204697514Y-94047732D01*
X204697515Y-94047733D01*
X204723180Y-94083059D01*
X204729593Y-94092822D01*
X204751826Y-94130416D01*
X204751829Y-94130419D01*
X204751830Y-94130420D01*
X204765995Y-94144585D01*
X204778627Y-94159375D01*
X204790406Y-94175587D01*
X204824058Y-94203426D01*
X204832699Y-94211289D01*
X206713340Y-96091931D01*
X206746825Y-96153254D01*
X206741841Y-96222946D01*
X206740222Y-96227061D01*
X206735716Y-96237938D01*
X206678193Y-96477543D01*
X206658859Y-96723200D01*
X206678193Y-96968856D01*
X206735716Y-97208461D01*
X206782866Y-97322291D01*
X206830016Y-97436120D01*
X206958767Y-97646223D01*
X207118801Y-97833599D01*
X207306177Y-97993633D01*
X207516280Y-98122384D01*
X207743938Y-98216683D01*
X207983545Y-98274207D01*
X208229200Y-98293541D01*
X208474855Y-98274207D01*
X208714462Y-98216683D01*
X208942120Y-98122384D01*
X209152223Y-97993633D01*
X209339599Y-97833599D01*
X209499633Y-97646223D01*
X209628384Y-97436120D01*
X209722683Y-97208462D01*
X209780207Y-96968855D01*
X209799541Y-96723200D01*
X216666459Y-96723200D01*
X216685793Y-96968856D01*
X216743316Y-97208461D01*
X216790466Y-97322290D01*
X216837616Y-97436120D01*
X216966367Y-97646223D01*
X217126401Y-97833599D01*
X217313777Y-97993633D01*
X217523880Y-98122384D01*
X217751538Y-98216683D01*
X217991145Y-98274207D01*
X218236800Y-98293541D01*
X218482455Y-98274207D01*
X218722062Y-98216683D01*
X218949720Y-98122384D01*
X219159823Y-97993633D01*
X219347199Y-97833599D01*
X219507233Y-97646223D01*
X219635984Y-97436120D01*
X219730283Y-97208462D01*
X219787807Y-96968855D01*
X219807141Y-96723200D01*
X219787807Y-96477545D01*
X219730283Y-96237938D01*
X219635984Y-96010280D01*
X219507233Y-95800177D01*
X219347199Y-95612801D01*
X219159823Y-95452767D01*
X218949720Y-95324016D01*
X218809481Y-95265927D01*
X218722061Y-95229716D01*
X218482456Y-95172193D01*
X218321840Y-95159552D01*
X218236800Y-95152859D01*
X218236799Y-95152859D01*
X217991143Y-95172193D01*
X217751538Y-95229716D01*
X217523878Y-95324017D01*
X217313778Y-95452766D01*
X217126401Y-95612801D01*
X216966366Y-95800178D01*
X216837617Y-96010278D01*
X216743316Y-96237938D01*
X216685793Y-96477543D01*
X216666459Y-96723200D01*
X209799541Y-96723200D01*
X209780207Y-96477545D01*
X209722683Y-96237938D01*
X209628384Y-96010280D01*
X209499633Y-95800177D01*
X209339599Y-95612801D01*
X209152223Y-95452767D01*
X208942120Y-95324016D01*
X208801881Y-95265927D01*
X208714461Y-95229716D01*
X208474856Y-95172193D01*
X208314240Y-95159552D01*
X208229200Y-95152859D01*
X208229199Y-95152859D01*
X207983543Y-95172193D01*
X207743932Y-95229718D01*
X207733058Y-95234222D01*
X207663589Y-95241688D01*
X207601111Y-95210410D01*
X207597930Y-95207340D01*
X205911819Y-93521228D01*
X205878334Y-93459905D01*
X205875500Y-93433547D01*
X205875500Y-88188800D01*
X207406940Y-88188800D01*
X207427536Y-88424207D01*
X207449300Y-88505430D01*
X207488697Y-88652463D01*
X207588565Y-88866630D01*
X207724105Y-89060201D01*
X207724107Y-89060203D01*
X207724108Y-89060204D01*
X207846030Y-89182126D01*
X207879515Y-89243449D01*
X207874531Y-89313141D01*
X207832659Y-89369074D01*
X207801683Y-89385989D01*
X207670269Y-89435004D01*
X207555054Y-89521254D01*
X207468804Y-89636468D01*
X207418509Y-89771316D01*
X207414055Y-89812747D01*
X207412100Y-89830927D01*
X207412100Y-89834248D01*
X207412100Y-89834249D01*
X207412100Y-91623360D01*
X207412100Y-91623378D01*
X207412101Y-91626672D01*
X207412453Y-91629952D01*
X207412454Y-91629959D01*
X207416845Y-91670802D01*
X207418509Y-91686283D01*
X207468804Y-91821131D01*
X207555054Y-91936346D01*
X207670269Y-92022596D01*
X207805117Y-92072891D01*
X207864727Y-92079300D01*
X209660472Y-92079299D01*
X209720083Y-92072891D01*
X209854931Y-92022596D01*
X209970146Y-91936346D01*
X210056396Y-91821131D01*
X210105603Y-91689199D01*
X210147473Y-91633267D01*
X210212937Y-91608850D01*
X210281210Y-91623701D01*
X210309465Y-91644853D01*
X210431518Y-91766906D01*
X210625023Y-91902400D01*
X210839109Y-92002230D01*
X211052600Y-92059434D01*
X211052600Y-91164301D01*
X211160285Y-91213480D01*
X211266837Y-91228800D01*
X211338363Y-91228800D01*
X211444915Y-91213480D01*
X211552600Y-91164301D01*
X211552600Y-92059433D01*
X211766090Y-92002230D01*
X211980176Y-91902400D01*
X212173681Y-91766906D01*
X212340706Y-91599881D01*
X212471025Y-91413768D01*
X212525602Y-91370144D01*
X212595101Y-91362951D01*
X212657455Y-91394473D01*
X212674175Y-91413768D01*
X212804493Y-91599881D01*
X212971518Y-91766906D01*
X213165023Y-91902400D01*
X213379107Y-92002230D01*
X213592598Y-92059434D01*
X213592599Y-92059434D01*
X213592599Y-91164301D01*
X213700285Y-91213480D01*
X213806837Y-91228800D01*
X213878363Y-91228800D01*
X213984915Y-91213480D01*
X214092600Y-91164301D01*
X214092600Y-92059433D01*
X214306090Y-92002230D01*
X214520176Y-91902400D01*
X214713681Y-91766906D01*
X214880706Y-91599881D01*
X215011025Y-91413768D01*
X215065602Y-91370144D01*
X215135101Y-91362951D01*
X215197455Y-91394473D01*
X215214175Y-91413768D01*
X215344493Y-91599881D01*
X215511518Y-91766906D01*
X215705023Y-91902400D01*
X215919109Y-92002230D01*
X216132600Y-92059434D01*
X216132600Y-91164301D01*
X216240285Y-91213480D01*
X216346837Y-91228800D01*
X216418363Y-91228800D01*
X216524915Y-91213480D01*
X216632599Y-91164301D01*
X216632599Y-92059433D01*
X216846091Y-92002230D01*
X217060176Y-91902400D01*
X217253681Y-91766906D01*
X217420709Y-91599878D01*
X217550719Y-91414205D01*
X217605296Y-91370580D01*
X217674794Y-91363386D01*
X217737149Y-91394909D01*
X217753865Y-91414200D01*
X217884105Y-91600201D01*
X218051199Y-91767295D01*
X218244770Y-91902835D01*
X218458937Y-92002703D01*
X218670659Y-92059433D01*
X218687192Y-92063863D01*
X218922599Y-92084459D01*
X218922599Y-92084458D01*
X218922600Y-92084459D01*
X219158008Y-92063863D01*
X219386263Y-92002703D01*
X219600430Y-91902835D01*
X219794001Y-91767295D01*
X219961095Y-91600201D01*
X220096635Y-91406630D01*
X220196503Y-91192463D01*
X220257663Y-90964208D01*
X220278259Y-90728800D01*
X220257663Y-90493392D01*
X220196503Y-90265137D01*
X220096635Y-90050971D01*
X219961095Y-89857399D01*
X219794001Y-89690305D01*
X219608439Y-89560373D01*
X219564817Y-89505798D01*
X219557624Y-89436299D01*
X219589146Y-89373945D01*
X219608437Y-89357228D01*
X219794001Y-89227295D01*
X219961095Y-89060201D01*
X220096635Y-88866630D01*
X220196503Y-88652463D01*
X220257663Y-88424208D01*
X220278259Y-88188800D01*
X220257663Y-87953392D01*
X220196503Y-87725137D01*
X220096635Y-87510971D01*
X219961095Y-87317399D01*
X219794001Y-87150305D01*
X219600430Y-87014765D01*
X219386263Y-86914897D01*
X219325101Y-86898509D01*
X219158007Y-86853736D01*
X218922599Y-86833140D01*
X218687192Y-86853736D01*
X218458936Y-86914897D01*
X218244770Y-87014765D01*
X218051198Y-87150305D01*
X217884108Y-87317395D01*
X217884105Y-87317398D01*
X217884105Y-87317399D01*
X217854016Y-87360371D01*
X217753869Y-87503396D01*
X217699292Y-87547020D01*
X217629793Y-87554213D01*
X217567439Y-87522691D01*
X217550719Y-87503395D01*
X217420709Y-87317721D01*
X217253681Y-87150693D01*
X217060176Y-87015199D01*
X216846092Y-86915369D01*
X216632599Y-86858164D01*
X216632599Y-87753298D01*
X216524915Y-87704120D01*
X216418363Y-87688800D01*
X216346837Y-87688800D01*
X216240285Y-87704120D01*
X216132600Y-87753298D01*
X216132600Y-86858164D01*
X216132599Y-86858164D01*
X215919107Y-86915369D01*
X215705021Y-87015200D01*
X215511521Y-87150690D01*
X215344493Y-87317718D01*
X215214175Y-87503832D01*
X215159598Y-87547456D01*
X215090099Y-87554649D01*
X215027745Y-87523127D01*
X215011025Y-87503832D01*
X214880706Y-87317718D01*
X214713681Y-87150693D01*
X214520176Y-87015199D01*
X214306092Y-86915369D01*
X214092600Y-86858164D01*
X214092599Y-86858164D01*
X214092599Y-87753298D01*
X213984915Y-87704120D01*
X213878363Y-87688800D01*
X213806837Y-87688800D01*
X213700285Y-87704120D01*
X213592599Y-87753298D01*
X213592599Y-86858164D01*
X213592598Y-86858164D01*
X213379107Y-86915369D01*
X213165021Y-87015200D01*
X212971521Y-87150690D01*
X212804492Y-87317719D01*
X212674174Y-87503832D01*
X212619596Y-87547457D01*
X212550098Y-87554649D01*
X212487743Y-87523127D01*
X212471024Y-87503831D01*
X212340709Y-87317721D01*
X212173681Y-87150693D01*
X211980176Y-87015199D01*
X211766092Y-86915369D01*
X211552600Y-86858164D01*
X211552600Y-87753298D01*
X211444915Y-87704120D01*
X211338363Y-87688800D01*
X211266837Y-87688800D01*
X211160285Y-87704120D01*
X211052600Y-87753298D01*
X211052600Y-86858164D01*
X211052599Y-86858164D01*
X210839107Y-86915369D01*
X210625021Y-87015200D01*
X210431521Y-87150690D01*
X210264493Y-87317718D01*
X210134480Y-87503396D01*
X210079903Y-87547020D01*
X210010404Y-87554213D01*
X209948050Y-87522691D01*
X209931330Y-87503395D01*
X209890007Y-87444379D01*
X209801095Y-87317399D01*
X209634001Y-87150305D01*
X209440430Y-87014765D01*
X209226263Y-86914897D01*
X209165102Y-86898509D01*
X208998007Y-86853736D01*
X208762600Y-86833140D01*
X208527192Y-86853736D01*
X208298936Y-86914897D01*
X208084770Y-87014765D01*
X207891198Y-87150305D01*
X207724105Y-87317398D01*
X207588565Y-87510970D01*
X207488697Y-87725136D01*
X207427536Y-87953392D01*
X207406940Y-88188800D01*
X205875500Y-88188800D01*
X205875500Y-86310451D01*
X205895185Y-86243412D01*
X205911819Y-86222770D01*
X207291381Y-84843208D01*
X208703786Y-83430802D01*
X208719886Y-83417905D01*
X208721874Y-83415787D01*
X208721877Y-83415786D01*
X208767964Y-83366707D01*
X208770549Y-83364039D01*
X208790120Y-83344470D01*
X208792565Y-83341316D01*
X208800154Y-83332429D01*
X208830062Y-83300582D01*
X208839713Y-83283026D01*
X208850393Y-83266767D01*
X208862674Y-83250936D01*
X208880018Y-83210851D01*
X208885160Y-83200356D01*
X208888177Y-83194868D01*
X208906197Y-83162092D01*
X208911178Y-83142688D01*
X208917480Y-83124283D01*
X208925438Y-83105895D01*
X208932270Y-83062748D01*
X208934639Y-83051316D01*
X208945500Y-83009020D01*
X208945500Y-82988983D01*
X208947027Y-82969584D01*
X208948323Y-82961400D01*
X208950160Y-82949804D01*
X208946050Y-82906324D01*
X208945500Y-82894655D01*
X208945500Y-82727799D01*
X210890951Y-82727799D01*
X210910717Y-82978949D01*
X210969526Y-83223910D01*
X211001285Y-83300582D01*
X211065934Y-83456659D01*
X211197564Y-83671459D01*
X211361176Y-83863024D01*
X211552741Y-84026636D01*
X211767541Y-84158266D01*
X212000289Y-84254673D01*
X212245252Y-84313483D01*
X212496400Y-84333249D01*
X212747548Y-84313483D01*
X212992511Y-84254673D01*
X213225259Y-84158266D01*
X213440059Y-84026636D01*
X213544731Y-83937237D01*
X213608492Y-83908667D01*
X213677577Y-83919104D01*
X213730053Y-83965235D01*
X213741443Y-83988194D01*
X213772004Y-84070131D01*
X213858254Y-84185346D01*
X213973469Y-84271596D01*
X214108317Y-84321891D01*
X214167927Y-84328300D01*
X216463672Y-84328299D01*
X216523283Y-84321891D01*
X216658131Y-84271596D01*
X216773346Y-84185346D01*
X216859596Y-84070131D01*
X216909891Y-83935283D01*
X216916300Y-83875673D01*
X216916299Y-81579928D01*
X216909891Y-81520317D01*
X216859596Y-81385469D01*
X216773346Y-81270254D01*
X216658131Y-81184004D01*
X216523283Y-81133709D01*
X216523282Y-81133708D01*
X216466966Y-81127654D01*
X216466965Y-81127653D01*
X216463673Y-81127300D01*
X216460350Y-81127300D01*
X214171239Y-81127300D01*
X214171220Y-81127300D01*
X214167928Y-81127301D01*
X214164648Y-81127653D01*
X214164640Y-81127654D01*
X214108315Y-81133709D01*
X213991623Y-81177233D01*
X213973469Y-81184004D01*
X213858254Y-81270254D01*
X213784010Y-81369432D01*
X213772003Y-81385471D01*
X213741442Y-81467406D01*
X213699570Y-81523339D01*
X213634106Y-81547755D01*
X213565833Y-81532903D01*
X213544729Y-81518361D01*
X213523176Y-81499953D01*
X213440059Y-81428964D01*
X213225259Y-81297334D01*
X213108885Y-81249130D01*
X212992510Y-81200926D01*
X212747549Y-81142117D01*
X212496400Y-81122351D01*
X212245250Y-81142117D01*
X212000289Y-81200926D01*
X211767539Y-81297335D01*
X211552742Y-81428963D01*
X211361176Y-81592576D01*
X211197563Y-81784142D01*
X211065935Y-81998939D01*
X210969526Y-82231689D01*
X210910717Y-82476650D01*
X210890951Y-82727799D01*
X208945500Y-82727799D01*
X208945500Y-80110849D01*
X208965185Y-80043810D01*
X209017989Y-79998055D01*
X209087147Y-79988111D01*
X209150703Y-80017136D01*
X209157181Y-80023168D01*
X209305859Y-80171846D01*
X209492264Y-80302367D01*
X209492265Y-80302367D01*
X209492266Y-80302368D01*
X209698504Y-80398539D01*
X209918308Y-80457435D01*
X210145000Y-80477268D01*
X210371692Y-80457435D01*
X210591496Y-80398539D01*
X210797734Y-80302368D01*
X210984139Y-80171847D01*
X211145047Y-80010939D01*
X211275568Y-79824534D01*
X211368440Y-79625369D01*
X211414612Y-79572931D01*
X211481806Y-79553779D01*
X211548687Y-79573995D01*
X211593204Y-79625370D01*
X211674232Y-79799135D01*
X211804753Y-79985540D01*
X211965659Y-80146446D01*
X212152064Y-80276967D01*
X212152065Y-80276967D01*
X212152066Y-80276968D01*
X212358304Y-80373139D01*
X212578108Y-80432035D01*
X212729236Y-80445257D01*
X212804799Y-80451868D01*
X212804799Y-80451867D01*
X212804800Y-80451868D01*
X213031492Y-80432035D01*
X213251296Y-80373139D01*
X213457534Y-80276968D01*
X213643939Y-80146447D01*
X213804847Y-79985539D01*
X213935368Y-79799134D01*
X213962419Y-79741121D01*
X214008588Y-79688686D01*
X214075781Y-79669533D01*
X214142662Y-79689748D01*
X214187180Y-79741122D01*
X214207937Y-79785635D01*
X214214233Y-79799136D01*
X214344753Y-79985540D01*
X214505659Y-80146446D01*
X214692064Y-80276967D01*
X214692065Y-80276967D01*
X214692066Y-80276968D01*
X214898304Y-80373139D01*
X215118108Y-80432035D01*
X215344800Y-80451868D01*
X215571492Y-80432035D01*
X215791296Y-80373139D01*
X215997534Y-80276968D01*
X216183939Y-80146447D01*
X216344847Y-79985539D01*
X216475368Y-79799134D01*
X216571539Y-79592896D01*
X216630435Y-79373092D01*
X216650268Y-79146400D01*
X216648560Y-79126883D01*
X216636401Y-78987900D01*
X216630435Y-78919708D01*
X216571539Y-78699904D01*
X216475368Y-78493666D01*
X216472944Y-78490203D01*
X216344846Y-78307259D01*
X216183940Y-78146353D01*
X215997535Y-78015832D01*
X215791297Y-77919661D01*
X215571489Y-77860764D01*
X215344800Y-77840931D01*
X215118110Y-77860764D01*
X214898302Y-77919661D01*
X214692064Y-78015832D01*
X214505659Y-78146353D01*
X214344753Y-78307259D01*
X214214233Y-78493663D01*
X214187182Y-78551675D01*
X214141009Y-78604114D01*
X214073815Y-78623265D01*
X214006934Y-78603049D01*
X213962418Y-78551675D01*
X213953807Y-78533209D01*
X213935368Y-78493666D01*
X213920118Y-78471886D01*
X213804846Y-78307259D01*
X213643940Y-78146353D01*
X213457535Y-78015832D01*
X213251297Y-77919661D01*
X213031489Y-77860764D01*
X212880199Y-77847528D01*
X212815130Y-77822076D01*
X212805895Y-77809323D01*
X212753529Y-77842977D01*
X212729401Y-77847528D01*
X212578110Y-77860764D01*
X212358302Y-77919661D01*
X212152064Y-78015832D01*
X211965659Y-78146353D01*
X211804753Y-78307259D01*
X211674233Y-78493663D01*
X211581359Y-78692830D01*
X211535186Y-78745269D01*
X211467992Y-78764420D01*
X211401111Y-78744204D01*
X211356596Y-78692830D01*
X211275568Y-78519066D01*
X211275189Y-78518524D01*
X211145046Y-78332659D01*
X210984140Y-78171753D01*
X210797735Y-78041232D01*
X210591497Y-77945061D01*
X210371689Y-77886164D01*
X210145000Y-77866331D01*
X209918310Y-77886164D01*
X209698502Y-77945061D01*
X209492264Y-78041232D01*
X209305863Y-78171750D01*
X209157181Y-78320432D01*
X209095858Y-78353916D01*
X209026166Y-78348932D01*
X208970233Y-78307060D01*
X208945816Y-78241596D01*
X208945500Y-78232750D01*
X208945500Y-77527814D01*
X208965185Y-77460775D01*
X209010482Y-77418760D01*
X209039353Y-77403135D01*
X209088626Y-77376470D01*
X209271784Y-77233913D01*
X209428979Y-77063153D01*
X209466192Y-77006194D01*
X209519337Y-76960838D01*
X209588568Y-76951414D01*
X209651904Y-76980916D01*
X209673807Y-77006192D01*
X209711021Y-77063153D01*
X209868216Y-77233913D01*
X210051374Y-77376470D01*
X210255497Y-77486936D01*
X210315806Y-77507640D01*
X210475015Y-77562297D01*
X210475017Y-77562297D01*
X210475019Y-77562298D01*
X210703951Y-77600500D01*
X210703952Y-77600500D01*
X210936048Y-77600500D01*
X210936049Y-77600500D01*
X211164981Y-77562298D01*
X211384503Y-77486936D01*
X211588626Y-77376470D01*
X211765977Y-77238432D01*
X211830970Y-77212790D01*
X211899510Y-77226356D01*
X211949834Y-77274825D01*
X211958319Y-77292952D01*
X211976645Y-77342086D01*
X212062811Y-77457188D01*
X212177910Y-77543352D01*
X212312628Y-77593599D01*
X212368867Y-77599645D01*
X212375482Y-77600000D01*
X212718594Y-77600000D01*
X212785633Y-77619685D01*
X212802403Y-77639038D01*
X212804727Y-77634939D01*
X212866574Y-77602431D01*
X212891006Y-77600000D01*
X213070000Y-77600000D01*
X213070000Y-76635501D01*
X213177685Y-76684680D01*
X213284237Y-76700000D01*
X213355763Y-76700000D01*
X213462315Y-76684680D01*
X213570000Y-76635501D01*
X213570000Y-77600000D01*
X214264518Y-77600000D01*
X214271132Y-77599645D01*
X214327371Y-77593599D01*
X214462089Y-77543352D01*
X214577188Y-77457188D01*
X214663352Y-77342089D01*
X214713599Y-77207371D01*
X214719645Y-77151132D01*
X214720000Y-77144518D01*
X214720000Y-76450000D01*
X213753686Y-76450000D01*
X213779493Y-76409844D01*
X213820000Y-76271889D01*
X213820000Y-76128111D01*
X213779493Y-75990156D01*
X213753686Y-75950000D01*
X214720000Y-75950000D01*
X214720000Y-75798942D01*
X214739685Y-75731903D01*
X214792489Y-75686148D01*
X214861647Y-75676204D01*
X214925203Y-75705229D01*
G37*
G04 #@! TD.AperFunction*
G04 #@! TA.AperFunction,Conductor*
G36*
X229299321Y-106189534D02*
G01*
X229334687Y-106214277D01*
X230705586Y-107585176D01*
X230739071Y-107646499D01*
X230737680Y-107704949D01*
X230719364Y-107773307D01*
X230699531Y-108000000D01*
X230719364Y-108226689D01*
X230778261Y-108446497D01*
X230874432Y-108652735D01*
X231004953Y-108839140D01*
X231165859Y-109000046D01*
X231361152Y-109136790D01*
X231359628Y-109138965D01*
X231400081Y-109174579D01*
X231419237Y-109241771D01*
X231399026Y-109308653D01*
X231382922Y-109328476D01*
X230248219Y-110463181D01*
X230186896Y-110496666D01*
X230160538Y-110499500D01*
X229661048Y-110499500D01*
X229594009Y-110479815D01*
X229548254Y-110427011D01*
X229546505Y-110422996D01*
X229541984Y-110412080D01*
X229413233Y-110201977D01*
X229253199Y-110014601D01*
X229065823Y-109854567D01*
X228924438Y-109767926D01*
X228877564Y-109716116D01*
X228866141Y-109647186D01*
X228893798Y-109583023D01*
X228951754Y-109543998D01*
X228989229Y-109538200D01*
X229152318Y-109538200D01*
X229158932Y-109537845D01*
X229215171Y-109531799D01*
X229349889Y-109481552D01*
X229464988Y-109395388D01*
X229551152Y-109280289D01*
X229601399Y-109145571D01*
X229607445Y-109089332D01*
X229607800Y-109082718D01*
X229607800Y-108373200D01*
X228699320Y-108373200D01*
X228727555Y-108313198D01*
X228756435Y-108161807D01*
X228746757Y-108007989D01*
X228702962Y-107873200D01*
X229607799Y-107873200D01*
X229607800Y-107163681D01*
X229607445Y-107157067D01*
X229601399Y-107100828D01*
X229551152Y-106966110D01*
X229464988Y-106851011D01*
X229349889Y-106764847D01*
X229215171Y-106714600D01*
X229158932Y-106708554D01*
X229152318Y-106708200D01*
X228789089Y-106708200D01*
X228722050Y-106688515D01*
X228676295Y-106635711D01*
X228666351Y-106566553D01*
X228695376Y-106502997D01*
X228741636Y-106469639D01*
X228855720Y-106422384D01*
X229065823Y-106293633D01*
X229166476Y-106207666D01*
X229230235Y-106179097D01*
X229299321Y-106189534D01*
G37*
G04 #@! TD.AperFunction*
G04 #@! TA.AperFunction,Conductor*
G36*
X229908656Y-70083602D02*
G01*
X229966799Y-70122347D01*
X229969896Y-70126197D01*
X230030644Y-70204868D01*
X230226704Y-70393894D01*
X230448199Y-70552359D01*
X230681956Y-70672542D01*
X230690403Y-70676885D01*
X230948159Y-70764819D01*
X230948161Y-70764819D01*
X230948163Y-70764820D01*
X231215970Y-70814286D01*
X231488130Y-70824232D01*
X231488130Y-70824231D01*
X231488131Y-70824232D01*
X231758839Y-70794446D01*
X232022326Y-70725562D01*
X232272975Y-70619047D01*
X232290903Y-70608105D01*
X232358380Y-70589984D01*
X232424944Y-70611221D01*
X232469460Y-70665074D01*
X232479499Y-70713951D01*
X232479499Y-73588198D01*
X232459814Y-73655237D01*
X232443180Y-73675879D01*
X230691208Y-75427851D01*
X230675110Y-75440748D01*
X230627096Y-75491877D01*
X230624392Y-75494668D01*
X230607628Y-75511432D01*
X230607621Y-75511439D01*
X230604880Y-75514181D01*
X230602499Y-75517249D01*
X230602490Y-75517260D01*
X230602411Y-75517363D01*
X230594842Y-75526224D01*
X230564935Y-75558072D01*
X230555285Y-75575626D01*
X230544609Y-75591880D01*
X230532326Y-75607715D01*
X230514975Y-75647810D01*
X230509838Y-75658296D01*
X230488802Y-75696559D01*
X230483821Y-75715961D01*
X230477520Y-75734363D01*
X230469561Y-75752754D01*
X230462728Y-75795894D01*
X230460360Y-75807326D01*
X230449500Y-75849629D01*
X230449500Y-75869668D01*
X230447973Y-75889066D01*
X230444840Y-75908846D01*
X230448950Y-75952325D01*
X230449500Y-75963995D01*
X230449500Y-77340861D01*
X230429815Y-77407900D01*
X230377011Y-77453655D01*
X230307853Y-77463599D01*
X230280707Y-77456488D01*
X230146920Y-77404660D01*
X229946528Y-77367200D01*
X229742672Y-77367200D01*
X229542279Y-77404659D01*
X229352189Y-77478300D01*
X229263910Y-77532958D01*
X229844600Y-78113647D01*
X229898153Y-78167200D01*
X229816798Y-78167200D01*
X229734350Y-78182612D01*
X229638990Y-78241657D01*
X229571399Y-78331162D01*
X229540705Y-78439040D01*
X229551054Y-78550721D01*
X229601048Y-78651122D01*
X229683934Y-78726684D01*
X229788520Y-78767200D01*
X229872402Y-78767200D01*
X229904070Y-78761280D01*
X229334970Y-79330381D01*
X229273647Y-79363866D01*
X229247291Y-79366700D01*
X229200039Y-79366700D01*
X229200020Y-79366700D01*
X229196728Y-79366701D01*
X229193448Y-79367053D01*
X229193440Y-79367054D01*
X229137115Y-79373109D01*
X229002269Y-79423404D01*
X228887053Y-79509654D01*
X228848767Y-79560799D01*
X228792833Y-79602670D01*
X228723141Y-79607654D01*
X228661818Y-79574169D01*
X228628334Y-79512846D01*
X228625500Y-79486488D01*
X228625500Y-79262579D01*
X228625500Y-79013945D01*
X228645183Y-78946910D01*
X228697987Y-78901155D01*
X228767146Y-78891211D01*
X228830702Y-78920236D01*
X228860499Y-78958677D01*
X228905352Y-79048754D01*
X228907132Y-79051112D01*
X228907133Y-79051113D01*
X229491046Y-78467200D01*
X229491046Y-78467199D01*
X228907133Y-77883285D01*
X228905353Y-77885644D01*
X228860500Y-77975723D01*
X228812997Y-78026960D01*
X228745334Y-78044381D01*
X228678994Y-78022455D01*
X228635039Y-77968144D01*
X228625500Y-77920451D01*
X228625500Y-71332743D01*
X228627764Y-71312239D01*
X228625561Y-71242126D01*
X228625500Y-71238231D01*
X228625500Y-71214540D01*
X228625500Y-71210650D01*
X228624998Y-71206677D01*
X228624080Y-71195018D01*
X228623819Y-71186714D01*
X228622709Y-71151373D01*
X228617120Y-71132140D01*
X228613174Y-71113082D01*
X228610664Y-71093206D01*
X228594588Y-71052604D01*
X228590804Y-71041553D01*
X228584881Y-71021168D01*
X228578618Y-70999610D01*
X228568414Y-70982355D01*
X228559848Y-70964863D01*
X228559147Y-70963091D01*
X228552790Y-70893511D01*
X228585060Y-70831540D01*
X228645711Y-70796853D01*
X228657360Y-70794832D01*
X228658834Y-70794446D01*
X228658839Y-70794446D01*
X228922326Y-70725562D01*
X229172975Y-70619047D01*
X229405444Y-70477173D01*
X229614779Y-70302963D01*
X229779402Y-70119232D01*
X229838796Y-70082442D01*
X229908656Y-70083602D01*
G37*
G04 #@! TD.AperFunction*
G04 #@! TA.AperFunction,Conductor*
G36*
X234125703Y-85708194D02*
G01*
X234146073Y-85730782D01*
X234172068Y-85767907D01*
X234249953Y-85879140D01*
X234410859Y-86040046D01*
X234597264Y-86170567D01*
X234597265Y-86170567D01*
X234597266Y-86170568D01*
X234803504Y-86266739D01*
X235023308Y-86325635D01*
X235174436Y-86338856D01*
X235249999Y-86345468D01*
X235249999Y-86345467D01*
X235250000Y-86345468D01*
X235476692Y-86325635D01*
X235696496Y-86266739D01*
X235902734Y-86170568D01*
X236089139Y-86040047D01*
X236250047Y-85879139D01*
X236273924Y-85845038D01*
X236328501Y-85801413D01*
X236397999Y-85794219D01*
X236460354Y-85825741D01*
X236495769Y-85885971D01*
X236499500Y-85916161D01*
X236499499Y-87234402D01*
X236497235Y-87254909D01*
X236499439Y-87325018D01*
X236499500Y-87328913D01*
X236499500Y-87356496D01*
X236499988Y-87360365D01*
X236499989Y-87360371D01*
X236500004Y-87360489D01*
X236500918Y-87372113D01*
X236502290Y-87415772D01*
X236507879Y-87435006D01*
X236511825Y-87454062D01*
X236514335Y-87473938D01*
X236530414Y-87514550D01*
X236534197Y-87525597D01*
X236546382Y-87567537D01*
X236556580Y-87584781D01*
X236565136Y-87602246D01*
X236572514Y-87620878D01*
X236572515Y-87620879D01*
X236598180Y-87656205D01*
X236604593Y-87665968D01*
X236626826Y-87703562D01*
X236626829Y-87703565D01*
X236626830Y-87703566D01*
X236640995Y-87717731D01*
X236653627Y-87732521D01*
X236665406Y-87748733D01*
X236688777Y-87768067D01*
X236727885Y-87825966D01*
X236729481Y-87895818D01*
X236693060Y-87955444D01*
X236680860Y-87965186D01*
X236661968Y-87978414D01*
X236661967Y-87978414D01*
X237285599Y-88602046D01*
X237204852Y-88614835D01*
X237091955Y-88672359D01*
X237002359Y-88761955D01*
X236944835Y-88874852D01*
X236932046Y-88955599D01*
X236308415Y-88331967D01*
X236308414Y-88331968D01*
X236269411Y-88387672D01*
X236174611Y-88590974D01*
X236172683Y-88590075D01*
X236143665Y-88637678D01*
X236080817Y-88668205D01*
X236011442Y-88659907D01*
X235957566Y-88615420D01*
X235946242Y-88590624D01*
X235945861Y-88590802D01*
X235851020Y-88387417D01*
X235728528Y-88212479D01*
X235577520Y-88061471D01*
X235402582Y-87938979D01*
X235209031Y-87848724D01*
X235002744Y-87793450D01*
X234789999Y-87774837D01*
X234577255Y-87793450D01*
X234370968Y-87848724D01*
X234177419Y-87938979D01*
X234115622Y-87982249D01*
X234049416Y-88004576D01*
X233981649Y-87987564D01*
X233933837Y-87936616D01*
X233920500Y-87880673D01*
X233920500Y-85801907D01*
X233940185Y-85734868D01*
X233992989Y-85689113D01*
X234062147Y-85679169D01*
X234125703Y-85708194D01*
G37*
G04 #@! TD.AperFunction*
G04 #@! TA.AperFunction,Conductor*
G36*
X237979235Y-79220748D02*
G01*
X238036759Y-79333645D01*
X238126355Y-79423241D01*
X238239252Y-79480765D01*
X238319997Y-79493553D01*
X237638926Y-80174625D01*
X237638926Y-80174626D01*
X237711915Y-80225733D01*
X237918073Y-80321866D01*
X238137797Y-80380741D01*
X238259953Y-80391428D01*
X238325022Y-80416880D01*
X238366001Y-80473470D01*
X238369880Y-80543232D01*
X238367080Y-80553266D01*
X238364326Y-80561744D01*
X238344540Y-80750000D01*
X238364326Y-80938256D01*
X238380435Y-80987834D01*
X238382430Y-81057672D01*
X238346350Y-81117505D01*
X238283649Y-81148334D01*
X238251706Y-81149679D01*
X238250003Y-81149530D01*
X238023310Y-81169363D01*
X237803502Y-81228260D01*
X237597264Y-81324431D01*
X237410859Y-81454952D01*
X237249953Y-81615858D01*
X237119432Y-81802263D01*
X237023261Y-82008501D01*
X236964364Y-82228309D01*
X236944531Y-82454998D01*
X236964364Y-82681688D01*
X237023261Y-82901496D01*
X237119432Y-83107734D01*
X237187274Y-83204623D01*
X237209601Y-83270830D01*
X237192590Y-83338597D01*
X237141642Y-83386409D01*
X237072932Y-83399087D01*
X237008276Y-83372605D01*
X236998018Y-83363427D01*
X236549413Y-82914822D01*
X236515928Y-82853499D01*
X236517319Y-82795047D01*
X236535635Y-82726692D01*
X236555468Y-82500000D01*
X236535635Y-82273308D01*
X236476739Y-82053504D01*
X236380568Y-81847266D01*
X236371574Y-81834420D01*
X236250046Y-81660859D01*
X236089140Y-81499953D01*
X235902735Y-81369432D01*
X235696497Y-81273261D01*
X235476689Y-81214364D01*
X235459785Y-81212885D01*
X235394716Y-81187431D01*
X235353739Y-81130840D01*
X235349862Y-81061078D01*
X235382911Y-81001678D01*
X236923828Y-79460761D01*
X236985147Y-79427279D01*
X237054839Y-79432263D01*
X237110772Y-79474135D01*
X237131279Y-79516349D01*
X237138132Y-79541923D01*
X237234266Y-79748084D01*
X237285372Y-79821071D01*
X237285374Y-79821072D01*
X237966446Y-79139999D01*
X237979235Y-79220748D01*
G37*
G04 #@! TD.AperFunction*
G04 #@! TA.AperFunction,Conductor*
G36*
X227078541Y-81471771D02*
G01*
X227124059Y-81509427D01*
X227132699Y-81517289D01*
X227950313Y-82334904D01*
X227983798Y-82396227D01*
X227978814Y-82465919D01*
X227936942Y-82521852D01*
X227871478Y-82546269D01*
X227840491Y-82544592D01*
X227740247Y-82526400D01*
X226999500Y-82526400D01*
X226932461Y-82506715D01*
X226886706Y-82453911D01*
X226875500Y-82402400D01*
X226875500Y-81567314D01*
X226895185Y-81500275D01*
X226947989Y-81454520D01*
X227017147Y-81444576D01*
X227078541Y-81471771D01*
G37*
G04 #@! TD.AperFunction*
G04 #@! TA.AperFunction,Conductor*
G36*
X237299510Y-77226356D02*
G01*
X237349834Y-77274825D01*
X237358319Y-77292952D01*
X237376645Y-77342086D01*
X237462811Y-77457188D01*
X237577910Y-77543352D01*
X237712628Y-77593599D01*
X237768867Y-77599645D01*
X237775482Y-77600000D01*
X237981364Y-77600000D01*
X238048403Y-77619685D01*
X238094158Y-77672489D01*
X238104102Y-77741647D01*
X238075077Y-77805203D01*
X238016299Y-77842977D01*
X238013458Y-77843775D01*
X237918073Y-77869333D01*
X237711916Y-77965465D01*
X237638926Y-78016573D01*
X238319999Y-78697646D01*
X238239252Y-78710435D01*
X238126355Y-78767959D01*
X238036759Y-78857555D01*
X237979235Y-78970452D01*
X237966446Y-79051200D01*
X237448455Y-78533209D01*
X237414970Y-78471886D01*
X237412415Y-78453509D01*
X237413090Y-78460664D01*
X237412587Y-78456686D01*
X237411668Y-78445024D01*
X237410297Y-78401373D01*
X237404708Y-78382140D01*
X237400762Y-78363082D01*
X237398252Y-78343208D01*
X237394075Y-78332659D01*
X237382173Y-78302597D01*
X237378392Y-78291552D01*
X237366207Y-78249613D01*
X237366206Y-78249612D01*
X237366206Y-78249610D01*
X237356005Y-78232361D01*
X237347448Y-78214895D01*
X237340074Y-78196268D01*
X237314401Y-78160932D01*
X237307990Y-78151172D01*
X237285757Y-78113578D01*
X237271594Y-78099415D01*
X237258957Y-78084620D01*
X237247183Y-78068414D01*
X237247182Y-78068413D01*
X237213523Y-78040568D01*
X237204893Y-78032714D01*
X236820732Y-77648553D01*
X236787247Y-77587230D01*
X236792231Y-77517538D01*
X236834103Y-77461605D01*
X236849389Y-77451820D01*
X236988626Y-77376470D01*
X237165977Y-77238432D01*
X237230970Y-77212790D01*
X237299510Y-77226356D01*
G37*
G04 #@! TD.AperFunction*
G04 #@! TA.AperFunction,Conductor*
G36*
X230143956Y-78440841D02*
G01*
X230143732Y-78443965D01*
X230143338Y-78439709D01*
X230143956Y-78440841D01*
G37*
G04 #@! TD.AperFunction*
G04 #@! TA.AperFunction,Conductor*
G36*
X238970000Y-77600000D02*
G01*
X239250500Y-77600000D01*
X239317539Y-77619685D01*
X239363294Y-77672489D01*
X239374500Y-77724000D01*
X239374499Y-77977670D01*
X239354814Y-78044710D01*
X239302010Y-78090465D01*
X239232851Y-78100408D01*
X239179375Y-78079245D01*
X239016880Y-77965465D01*
X238810726Y-77869333D01*
X238591002Y-77810458D01*
X238551113Y-77806968D01*
X238486044Y-77781515D01*
X238445066Y-77724924D01*
X238441188Y-77655162D01*
X238470000Y-77603379D01*
X238470000Y-76635501D01*
X238577685Y-76684680D01*
X238684237Y-76700000D01*
X238755763Y-76700000D01*
X238862315Y-76684680D01*
X238970000Y-76635501D01*
X238970000Y-77600000D01*
G37*
G04 #@! TD.AperFunction*
G04 #@! TA.AperFunction,Conductor*
G36*
X243142539Y-25420185D02*
G01*
X243188294Y-25472989D01*
X243199500Y-25524500D01*
X243199500Y-41197841D01*
X243179815Y-41264880D01*
X243127011Y-41310635D01*
X243057853Y-41320579D01*
X242994297Y-41291554D01*
X242965714Y-41247078D01*
X242962652Y-41248507D01*
X242861934Y-41032519D01*
X242731458Y-40846180D01*
X242570619Y-40685341D01*
X242384280Y-40554865D01*
X242178126Y-40458733D01*
X241981800Y-40406126D01*
X241981800Y-41369313D01*
X241969845Y-41357359D01*
X241856948Y-41299835D01*
X241763281Y-41285000D01*
X241700319Y-41285000D01*
X241606652Y-41299835D01*
X241493755Y-41357359D01*
X241481799Y-41369314D01*
X241481800Y-40406127D01*
X241481799Y-40406126D01*
X241285473Y-40458733D01*
X241079319Y-40554865D01*
X240892980Y-40685341D01*
X240732141Y-40846180D01*
X240601665Y-41032519D01*
X240505533Y-41238673D01*
X240452928Y-41434999D01*
X240452928Y-41435000D01*
X241416114Y-41435000D01*
X241404159Y-41446955D01*
X241346635Y-41559852D01*
X241326814Y-41685000D01*
X241346635Y-41810148D01*
X241404159Y-41923045D01*
X241416114Y-41935000D01*
X240452928Y-41935000D01*
X240505533Y-42131326D01*
X240601665Y-42337480D01*
X240732141Y-42523819D01*
X240892980Y-42684658D01*
X241079319Y-42815134D01*
X241137665Y-42842342D01*
X241190104Y-42888514D01*
X241209256Y-42955708D01*
X241189040Y-43022589D01*
X241137666Y-43067105D01*
X241079067Y-43094430D01*
X240892659Y-43224953D01*
X240731753Y-43385859D01*
X240601232Y-43572264D01*
X240505061Y-43778502D01*
X240443357Y-44008787D01*
X240440571Y-44008040D01*
X240421225Y-44057496D01*
X240364633Y-44098474D01*
X240294871Y-44102350D01*
X240234088Y-44067895D01*
X240222835Y-44054506D01*
X240208618Y-44034939D01*
X240202202Y-44025172D01*
X240179969Y-43987578D01*
X240165806Y-43973415D01*
X240153169Y-43958620D01*
X240141395Y-43942414D01*
X240139604Y-43940932D01*
X240107735Y-43914568D01*
X240099105Y-43906714D01*
X239856213Y-43663822D01*
X239822728Y-43602499D01*
X239824119Y-43544047D01*
X239826169Y-43536396D01*
X239842435Y-43475692D01*
X239862268Y-43249000D01*
X239842435Y-43022308D01*
X239783539Y-42802504D01*
X239687368Y-42596266D01*
X239633807Y-42519771D01*
X239556846Y-42409859D01*
X239395940Y-42248953D01*
X239209535Y-42118432D01*
X239003295Y-42022260D01*
X238986058Y-42017642D01*
X238926397Y-41981278D01*
X238895867Y-41918431D01*
X238904161Y-41849055D01*
X238930466Y-41810189D01*
X239197731Y-41542924D01*
X239203150Y-41537823D01*
X239248183Y-41497929D01*
X239282355Y-41448420D01*
X239286775Y-41442413D01*
X239323878Y-41395057D01*
X239328035Y-41385819D01*
X239339060Y-41366270D01*
X239344818Y-41357930D01*
X239366150Y-41301678D01*
X239368999Y-41294800D01*
X239393695Y-41239931D01*
X239395522Y-41229956D01*
X239401549Y-41208339D01*
X239405140Y-41198872D01*
X239412387Y-41139179D01*
X239413514Y-41131777D01*
X239416114Y-41117588D01*
X239424358Y-41072606D01*
X239420726Y-41012566D01*
X239420500Y-41005079D01*
X239420500Y-39631499D01*
X239440185Y-39564460D01*
X239492989Y-39518705D01*
X239544500Y-39507499D01*
X239664561Y-39507499D01*
X239667872Y-39507499D01*
X239727483Y-39501091D01*
X239862331Y-39450796D01*
X239977546Y-39364546D01*
X240063796Y-39249331D01*
X240114091Y-39114483D01*
X240120500Y-39054873D01*
X240120499Y-37159128D01*
X240114091Y-37099517D01*
X240063796Y-36964669D01*
X239977546Y-36849454D01*
X239862331Y-36763204D01*
X239727483Y-36712909D01*
X239667873Y-36706500D01*
X239664550Y-36706500D01*
X237775439Y-36706500D01*
X237775420Y-36706500D01*
X237772128Y-36706501D01*
X237768848Y-36706853D01*
X237768840Y-36706854D01*
X237712515Y-36712909D01*
X237627275Y-36744702D01*
X237577669Y-36763204D01*
X237462454Y-36849454D01*
X237401761Y-36930530D01*
X237376203Y-36964671D01*
X237357906Y-37013726D01*
X237316034Y-37069659D01*
X237250570Y-37094075D01*
X237182297Y-37079223D01*
X237165563Y-37068245D01*
X237095517Y-37013726D01*
X236988626Y-36930530D01*
X236784503Y-36820064D01*
X236784499Y-36820062D01*
X236784498Y-36820062D01*
X236564984Y-36744702D01*
X236374456Y-36712909D01*
X236336049Y-36706500D01*
X236103951Y-36706500D01*
X236065544Y-36712909D01*
X235875015Y-36744702D01*
X235655501Y-36820062D01*
X235655497Y-36820063D01*
X235655497Y-36820064D01*
X235543487Y-36880681D01*
X235451372Y-36930531D01*
X235268215Y-37073087D01*
X235189010Y-37159128D01*
X235111021Y-37243847D01*
X235101283Y-37258753D01*
X235073809Y-37300805D01*
X235020662Y-37346161D01*
X234951431Y-37355585D01*
X234888095Y-37326083D01*
X234866191Y-37300805D01*
X234854324Y-37282641D01*
X234828979Y-37243847D01*
X234671784Y-37073087D01*
X234488626Y-36930530D01*
X234284503Y-36820064D01*
X234284499Y-36820062D01*
X234284498Y-36820062D01*
X234064984Y-36744702D01*
X233874456Y-36712909D01*
X233836049Y-36706500D01*
X233603951Y-36706500D01*
X233565544Y-36712909D01*
X233375015Y-36744702D01*
X233155501Y-36820062D01*
X233155497Y-36820063D01*
X233155497Y-36820064D01*
X233043487Y-36880681D01*
X232951372Y-36930531D01*
X232768215Y-37073087D01*
X232611020Y-37243848D01*
X232484076Y-37438150D01*
X232390844Y-37650696D01*
X232333865Y-37875700D01*
X232314699Y-38107000D01*
X232333865Y-38338299D01*
X232333865Y-38338301D01*
X232333866Y-38338305D01*
X232390843Y-38563300D01*
X232466146Y-38734973D01*
X232475049Y-38804272D01*
X232445072Y-38867384D01*
X232385733Y-38904271D01*
X232315871Y-38903221D01*
X232281467Y-38886357D01*
X232119335Y-38772832D01*
X231913097Y-38676661D01*
X231693289Y-38617764D01*
X231466600Y-38597931D01*
X231239910Y-38617764D01*
X231020102Y-38676661D01*
X230813864Y-38772832D01*
X230627459Y-38903353D01*
X230466553Y-39064259D01*
X230336033Y-39250663D01*
X230308982Y-39308675D01*
X230262809Y-39361114D01*
X230195615Y-39380265D01*
X230128734Y-39360049D01*
X230084218Y-39308675D01*
X230074547Y-39287935D01*
X230057168Y-39250666D01*
X230023626Y-39202762D01*
X229926646Y-39064259D01*
X229765740Y-38903353D01*
X229579335Y-38772832D01*
X229373097Y-38676661D01*
X229153289Y-38617764D01*
X228926600Y-38597931D01*
X228699910Y-38617764D01*
X228480102Y-38676661D01*
X228273864Y-38772832D01*
X228087459Y-38903353D01*
X227926553Y-39064259D01*
X227796032Y-39250664D01*
X227699861Y-39456902D01*
X227640964Y-39676710D01*
X227621131Y-39903400D01*
X227640964Y-40130089D01*
X227699861Y-40349897D01*
X227796032Y-40556135D01*
X227926553Y-40742540D01*
X228087459Y-40903446D01*
X228248223Y-41016013D01*
X228291848Y-41070589D01*
X228301100Y-41117588D01*
X228301100Y-41167073D01*
X228281415Y-41234112D01*
X228228611Y-41279867D01*
X228159453Y-41289811D01*
X228124698Y-41279456D01*
X228106696Y-41271062D01*
X227945786Y-41227946D01*
X227886889Y-41212165D01*
X227660200Y-41192332D01*
X227433510Y-41212165D01*
X227213702Y-41271062D01*
X227007464Y-41367233D01*
X226821059Y-41497754D01*
X226660153Y-41658660D01*
X226529632Y-41845065D01*
X226433461Y-42051303D01*
X226374564Y-42271111D01*
X226354731Y-42497800D01*
X226374564Y-42724490D01*
X226433461Y-42944298D01*
X226529632Y-43150536D01*
X226660153Y-43336941D01*
X226821059Y-43497847D01*
X226927339Y-43572264D01*
X227007466Y-43628369D01*
X227065473Y-43655418D01*
X227117913Y-43701590D01*
X227137065Y-43768783D01*
X227116850Y-43835665D01*
X227065476Y-43880181D01*
X227007466Y-43907232D01*
X226821059Y-44037754D01*
X226660153Y-44198660D01*
X226529632Y-44385065D01*
X226433461Y-44591303D01*
X226374564Y-44811111D01*
X226354731Y-45037801D01*
X226375291Y-45272804D01*
X226361524Y-45341304D01*
X226312909Y-45391487D01*
X226244880Y-45407420D01*
X226179037Y-45384044D01*
X226164085Y-45371294D01*
X225759213Y-44966422D01*
X225725728Y-44905099D01*
X225727119Y-44846647D01*
X225736641Y-44811111D01*
X225745435Y-44778292D01*
X225765268Y-44551600D01*
X225763198Y-44527945D01*
X225745435Y-44324910D01*
X225745435Y-44324908D01*
X225686539Y-44105104D01*
X225590368Y-43898866D01*
X225584342Y-43890259D01*
X225459846Y-43712459D01*
X225298940Y-43551553D01*
X225112533Y-43421031D01*
X225054525Y-43393982D01*
X225002085Y-43347810D01*
X224982933Y-43280617D01*
X225003148Y-43213735D01*
X225054525Y-43169218D01*
X225112534Y-43142168D01*
X225298939Y-43011647D01*
X225459847Y-42850739D01*
X225590368Y-42664334D01*
X225686539Y-42458096D01*
X225745435Y-42238292D01*
X225765268Y-42011600D01*
X225764708Y-42005204D01*
X225756742Y-41914149D01*
X225745435Y-41784908D01*
X225686539Y-41565104D01*
X225590368Y-41358866D01*
X225589712Y-41357928D01*
X225459846Y-41172459D01*
X225298940Y-41011553D01*
X225112535Y-40881032D01*
X224906297Y-40784861D01*
X224686489Y-40725964D01*
X224459800Y-40706131D01*
X224233107Y-40725964D01*
X224168192Y-40743358D01*
X224098343Y-40741695D01*
X224040480Y-40702532D01*
X224012977Y-40638303D01*
X224012100Y-40623583D01*
X224012100Y-38787526D01*
X224031785Y-38720487D01*
X224084589Y-38674732D01*
X224153747Y-38664788D01*
X224207222Y-38685950D01*
X224269019Y-38729221D01*
X224462570Y-38819476D01*
X224668853Y-38874749D01*
X224881600Y-38893362D01*
X225094347Y-38874749D01*
X225300630Y-38819476D01*
X225494181Y-38729221D01*
X225669119Y-38606729D01*
X225820129Y-38455719D01*
X225942621Y-38280781D01*
X226032876Y-38087230D01*
X226088149Y-37880947D01*
X226106762Y-37668200D01*
X226088149Y-37455453D01*
X226032876Y-37249170D01*
X225942621Y-37055619D01*
X225913288Y-37013726D01*
X225820128Y-36880679D01*
X225669120Y-36729671D01*
X225494182Y-36607179D01*
X225300631Y-36516924D01*
X225094344Y-36461650D01*
X224881600Y-36443037D01*
X224668855Y-36461650D01*
X224462568Y-36516924D01*
X224269019Y-36607179D01*
X224207222Y-36650449D01*
X224141016Y-36672776D01*
X224073249Y-36655764D01*
X224025437Y-36604816D01*
X224012100Y-36548873D01*
X224012100Y-35182740D01*
X224014363Y-35162239D01*
X224012161Y-35092144D01*
X224012100Y-35088250D01*
X224012100Y-35064544D01*
X224012100Y-35060650D01*
X224011598Y-35056681D01*
X224010680Y-35045024D01*
X224009309Y-35001373D01*
X224003720Y-34982140D01*
X223999774Y-34963082D01*
X223997264Y-34943206D01*
X223981188Y-34902604D01*
X223977404Y-34891553D01*
X223971481Y-34871168D01*
X223965218Y-34849610D01*
X223955014Y-34832355D01*
X223946461Y-34814895D01*
X223939086Y-34796269D01*
X223939086Y-34796268D01*
X223913408Y-34760925D01*
X223907001Y-34751171D01*
X223884769Y-34713579D01*
X223870606Y-34699416D01*
X223857967Y-34684617D01*
X223846195Y-34668413D01*
X223812541Y-34640573D01*
X223803899Y-34632709D01*
X222758413Y-33587222D01*
X222724928Y-33525899D01*
X222726319Y-33467447D01*
X222729000Y-33457442D01*
X222744635Y-33399092D01*
X222764468Y-33172400D01*
X222744635Y-32945708D01*
X222685739Y-32725904D01*
X222589568Y-32519666D01*
X222547341Y-32459358D01*
X222459046Y-32333259D01*
X222298140Y-32172353D01*
X222111735Y-32041832D01*
X221905497Y-31945661D01*
X221685689Y-31886764D01*
X221458999Y-31866931D01*
X221414896Y-31870790D01*
X221346396Y-31857023D01*
X221296213Y-31808408D01*
X221280280Y-31740379D01*
X221303655Y-31674536D01*
X221316408Y-31659581D01*
X221687096Y-31288893D01*
X222228279Y-30747709D01*
X222289601Y-30714226D01*
X222359293Y-30719210D01*
X222415226Y-30761082D01*
X222427679Y-30781591D01*
X222449870Y-30827672D01*
X222577378Y-31003171D01*
X222582178Y-31009778D01*
X222744875Y-31165332D01*
X222932732Y-31289335D01*
X223139712Y-31377803D01*
X223359163Y-31427891D01*
X223564698Y-31437121D01*
X223584028Y-31437990D01*
X223584028Y-31437989D01*
X223584030Y-31437990D01*
X223807087Y-31407775D01*
X224021164Y-31338217D01*
X224219381Y-31231552D01*
X224395366Y-31091208D01*
X224543465Y-30921696D01*
X224658915Y-30728464D01*
X224738007Y-30517724D01*
X224778200Y-30296247D01*
X224778200Y-30237056D01*
X226341700Y-30237056D01*
X226341948Y-30242594D01*
X226356817Y-30407801D01*
X226416677Y-30624695D01*
X226514300Y-30827412D01*
X226646555Y-31009445D01*
X226809191Y-31164941D01*
X226996971Y-31288893D01*
X227203866Y-31377325D01*
X227341699Y-31408784D01*
X227341700Y-31408783D01*
X227341700Y-30467386D01*
X227381856Y-30493193D01*
X227519811Y-30533700D01*
X227663589Y-30533700D01*
X227801544Y-30493193D01*
X227841700Y-30467386D01*
X227841700Y-31411249D01*
X227870974Y-31407285D01*
X228084965Y-31337755D01*
X228283107Y-31231130D01*
X228459018Y-31090846D01*
X228595177Y-30935000D01*
X229559500Y-30935000D01*
X229559664Y-30937249D01*
X229559665Y-30937259D01*
X229574402Y-31138617D01*
X229633616Y-31404438D01*
X229682944Y-31533410D01*
X229730907Y-31658814D01*
X229864196Y-31896310D01*
X229902304Y-31945661D01*
X230030645Y-32111869D01*
X230226704Y-32300894D01*
X230448199Y-32459359D01*
X230577906Y-32526046D01*
X230690403Y-32583885D01*
X230948159Y-32671819D01*
X230948161Y-32671819D01*
X230948163Y-32671820D01*
X231215970Y-32721286D01*
X231488130Y-32731232D01*
X231488130Y-32731231D01*
X231488131Y-32731232D01*
X231758839Y-32701446D01*
X232022326Y-32632562D01*
X232272975Y-32526047D01*
X232505444Y-32384173D01*
X232714779Y-32209963D01*
X232896518Y-32007131D01*
X233046788Y-31779998D01*
X233162386Y-31533406D01*
X233240847Y-31272611D01*
X233280500Y-31003171D01*
X233280500Y-30935000D01*
X239159500Y-30935000D01*
X239159664Y-30937249D01*
X239159665Y-30937259D01*
X239174402Y-31138617D01*
X239233616Y-31404438D01*
X239282944Y-31533410D01*
X239330907Y-31658814D01*
X239464196Y-31896310D01*
X239502304Y-31945661D01*
X239630645Y-32111869D01*
X239826704Y-32300894D01*
X240048199Y-32459359D01*
X240177906Y-32526046D01*
X240290403Y-32583885D01*
X240548159Y-32671819D01*
X240548161Y-32671819D01*
X240548163Y-32671820D01*
X240815970Y-32721286D01*
X241088130Y-32731232D01*
X241088130Y-32731231D01*
X241088131Y-32731232D01*
X241358839Y-32701446D01*
X241622326Y-32632562D01*
X241872975Y-32526047D01*
X242105444Y-32384173D01*
X242314779Y-32209963D01*
X242496518Y-32007131D01*
X242646788Y-31779998D01*
X242762386Y-31533406D01*
X242840847Y-31272611D01*
X242880500Y-31003171D01*
X242880500Y-30279000D01*
X242865597Y-30075384D01*
X242865596Y-30075381D01*
X242806383Y-29809561D01*
X242800464Y-29794086D01*
X242709093Y-29555186D01*
X242575804Y-29317690D01*
X242468024Y-29178110D01*
X242409354Y-29102130D01*
X242213295Y-28913105D01*
X241991800Y-28754640D01*
X241749602Y-28630117D01*
X241749598Y-28630115D01*
X241749597Y-28630115D01*
X241545832Y-28560600D01*
X241491836Y-28542179D01*
X241224029Y-28492713D01*
X240951869Y-28482767D01*
X240681162Y-28512553D01*
X240417674Y-28581438D01*
X240167024Y-28687953D01*
X239934556Y-28829826D01*
X239725223Y-29004035D01*
X239543480Y-29206871D01*
X239393210Y-29434005D01*
X239277615Y-29680589D01*
X239199153Y-29941388D01*
X239199153Y-29941389D01*
X239159500Y-30210829D01*
X239159500Y-30935000D01*
X233280500Y-30935000D01*
X233280500Y-30279000D01*
X233265597Y-30075384D01*
X233265596Y-30075381D01*
X233206383Y-29809561D01*
X233200464Y-29794086D01*
X233109093Y-29555186D01*
X232975804Y-29317690D01*
X232868024Y-29178110D01*
X232809354Y-29102130D01*
X232613295Y-28913105D01*
X232391800Y-28754640D01*
X232149602Y-28630117D01*
X232149598Y-28630115D01*
X232149597Y-28630115D01*
X231945832Y-28560600D01*
X231891836Y-28542179D01*
X231624029Y-28492713D01*
X231351869Y-28482767D01*
X231081162Y-28512553D01*
X230817674Y-28581438D01*
X230567024Y-28687953D01*
X230334556Y-28829826D01*
X230125223Y-29004035D01*
X229943480Y-29206871D01*
X229793210Y-29434005D01*
X229677615Y-29680589D01*
X229599153Y-29941388D01*
X229599153Y-29941389D01*
X229559500Y-30210829D01*
X229559500Y-30935000D01*
X228595177Y-30935000D01*
X228607059Y-30921400D01*
X228722462Y-30728248D01*
X228801525Y-30517588D01*
X228841700Y-30296203D01*
X228841700Y-29683700D01*
X228091700Y-29683700D01*
X228091700Y-29183700D01*
X228841700Y-29183700D01*
X228841700Y-28630343D01*
X228841451Y-28624805D01*
X228826582Y-28459598D01*
X228766722Y-28242704D01*
X228669099Y-28039987D01*
X228536844Y-27857954D01*
X228374208Y-27702458D01*
X228186428Y-27578506D01*
X227979534Y-27490075D01*
X227841700Y-27458615D01*
X227841700Y-28400013D01*
X227801544Y-28374207D01*
X227663589Y-28333700D01*
X227519811Y-28333700D01*
X227381856Y-28374207D01*
X227341700Y-28400013D01*
X227341700Y-27456149D01*
X227341698Y-27456148D01*
X227312427Y-27460114D01*
X227098434Y-27529644D01*
X226900292Y-27636269D01*
X226724381Y-27776553D01*
X226576340Y-27945999D01*
X226460937Y-28139151D01*
X226381874Y-28349811D01*
X226341700Y-28571196D01*
X226341700Y-29183700D01*
X227091700Y-29183700D01*
X227091700Y-29683700D01*
X226341700Y-29683700D01*
X226341700Y-30237056D01*
X224778200Y-30237056D01*
X224778200Y-28627545D01*
X224763077Y-28459512D01*
X224703193Y-28242530D01*
X224605529Y-28039727D01*
X224473222Y-27857622D01*
X224310525Y-27702068D01*
X224310522Y-27702066D01*
X224310521Y-27702065D01*
X224122668Y-27578065D01*
X223915687Y-27489596D01*
X223696237Y-27439509D01*
X223471371Y-27429409D01*
X223248311Y-27459625D01*
X223034237Y-27529182D01*
X222943398Y-27578065D01*
X222836019Y-27635848D01*
X222836017Y-27635849D01*
X222836018Y-27635849D01*
X222660035Y-27776190D01*
X222511933Y-27945706D01*
X222396483Y-28138937D01*
X222317393Y-28349674D01*
X222277200Y-28571152D01*
X222277200Y-28873807D01*
X222257515Y-28940846D01*
X222226166Y-28974040D01*
X222198272Y-29007758D01*
X222190411Y-29016396D01*
X220976681Y-30230126D01*
X220915358Y-30263611D01*
X220845666Y-30258627D01*
X220789733Y-30216755D01*
X220765316Y-30151291D01*
X220765000Y-30142445D01*
X220765000Y-28630321D01*
X220765000Y-28630320D01*
X220765000Y-28627545D01*
X220749877Y-28459512D01*
X220689993Y-28242530D01*
X220592329Y-28039727D01*
X220460022Y-27857622D01*
X220297325Y-27702068D01*
X220297322Y-27702066D01*
X220297321Y-27702065D01*
X220109468Y-27578065D01*
X219902487Y-27489596D01*
X219683037Y-27439509D01*
X219458171Y-27429409D01*
X219235111Y-27459625D01*
X219021037Y-27529182D01*
X218930198Y-27578065D01*
X218822819Y-27635848D01*
X218822817Y-27635849D01*
X218822818Y-27635849D01*
X218646835Y-27776190D01*
X218498733Y-27945706D01*
X218383283Y-28138937D01*
X218304193Y-28349674D01*
X218263999Y-28571153D01*
X218263999Y-29727046D01*
X218244314Y-29794086D01*
X218227680Y-29814727D01*
X217691367Y-30351040D01*
X217630044Y-30384525D01*
X217560352Y-30379541D01*
X217504419Y-30337669D01*
X217480017Y-30272412D01*
X217465597Y-30075384D01*
X217465597Y-30075382D01*
X217465597Y-30075381D01*
X217406383Y-29809561D01*
X217400464Y-29794086D01*
X217309093Y-29555186D01*
X217175804Y-29317690D01*
X217068023Y-29178110D01*
X217009354Y-29102130D01*
X216813295Y-28913105D01*
X216591800Y-28754640D01*
X216349602Y-28630117D01*
X216349598Y-28630115D01*
X216349597Y-28630115D01*
X216145832Y-28560600D01*
X216091836Y-28542179D01*
X215824029Y-28492713D01*
X215551869Y-28482767D01*
X215281162Y-28512553D01*
X215017674Y-28581438D01*
X214767024Y-28687953D01*
X214534556Y-28829826D01*
X214325223Y-29004035D01*
X214143480Y-29206871D01*
X213993210Y-29434005D01*
X213877615Y-29680589D01*
X213799153Y-29941388D01*
X213799153Y-29941389D01*
X213759500Y-30210829D01*
X213759500Y-30935000D01*
X213759664Y-30937249D01*
X213759665Y-30937259D01*
X213774402Y-31138617D01*
X213833616Y-31404438D01*
X213882944Y-31533410D01*
X213930907Y-31658814D01*
X214064196Y-31896310D01*
X214102304Y-31945661D01*
X214230645Y-32111869D01*
X214426704Y-32300894D01*
X214648199Y-32459359D01*
X214777906Y-32526046D01*
X214890403Y-32583885D01*
X215125604Y-32664124D01*
X215182694Y-32704398D01*
X215208949Y-32769147D01*
X215196030Y-32837812D01*
X215173245Y-32869162D01*
X211318519Y-36723888D01*
X211257196Y-36757373D01*
X211190574Y-36753488D01*
X211164981Y-36744701D01*
X210968786Y-36711963D01*
X210936049Y-36706500D01*
X210703951Y-36706500D01*
X210665544Y-36712909D01*
X210475015Y-36744702D01*
X210255501Y-36820062D01*
X210255497Y-36820063D01*
X210255497Y-36820064D01*
X210143487Y-36880681D01*
X210051372Y-36930531D01*
X209868215Y-37073087D01*
X209789010Y-37159128D01*
X209711021Y-37243847D01*
X209701283Y-37258753D01*
X209673809Y-37300805D01*
X209620662Y-37346161D01*
X209551431Y-37355585D01*
X209488095Y-37326083D01*
X209466191Y-37300805D01*
X209454324Y-37282641D01*
X209428979Y-37243847D01*
X209271784Y-37073087D01*
X209088626Y-36930530D01*
X208884503Y-36820064D01*
X208884499Y-36820062D01*
X208884498Y-36820062D01*
X208664984Y-36744702D01*
X208474456Y-36712909D01*
X208436049Y-36706500D01*
X208203951Y-36706500D01*
X208165544Y-36712909D01*
X207975015Y-36744702D01*
X207755501Y-36820062D01*
X207755497Y-36820063D01*
X207755497Y-36820064D01*
X207643487Y-36880681D01*
X207551372Y-36930531D01*
X207368215Y-37073087D01*
X207211020Y-37243848D01*
X207084076Y-37438150D01*
X206990844Y-37650696D01*
X206933865Y-37875700D01*
X206914699Y-38107000D01*
X206933865Y-38338299D01*
X206933865Y-38338301D01*
X206933866Y-38338305D01*
X206990843Y-38563300D01*
X206990844Y-38563303D01*
X207063623Y-38729221D01*
X207084076Y-38775849D01*
X207211021Y-38970153D01*
X207368216Y-39140913D01*
X207497964Y-39241899D01*
X207538776Y-39298609D01*
X207542451Y-39368382D01*
X207507820Y-39429065D01*
X207445878Y-39461392D01*
X207410997Y-39463280D01*
X207391002Y-39461531D01*
X207164310Y-39481364D01*
X206944502Y-39540261D01*
X206738264Y-39636432D01*
X206551859Y-39766953D01*
X206390953Y-39927859D01*
X206260433Y-40114263D01*
X206233382Y-40172275D01*
X206187209Y-40224714D01*
X206120015Y-40243865D01*
X206053134Y-40223649D01*
X206008618Y-40172275D01*
X205993412Y-40139666D01*
X205981568Y-40114266D01*
X205913087Y-40016464D01*
X205851046Y-39927859D01*
X205690140Y-39766953D01*
X205503735Y-39636432D01*
X205297497Y-39540261D01*
X205077689Y-39481364D01*
X204850999Y-39461531D01*
X204624310Y-39481364D01*
X204404502Y-39540261D01*
X204198264Y-39636432D01*
X204011859Y-39766953D01*
X203850953Y-39927859D01*
X203720432Y-40114264D01*
X203624261Y-40320502D01*
X203565364Y-40540310D01*
X203545531Y-40767000D01*
X203565364Y-40993689D01*
X203624261Y-41213497D01*
X203720432Y-41419735D01*
X203850953Y-41606140D01*
X204011859Y-41767046D01*
X204172623Y-41879613D01*
X204216248Y-41934189D01*
X204225500Y-41981188D01*
X204225500Y-43554456D01*
X204223235Y-43574966D01*
X204225439Y-43645072D01*
X204225500Y-43648967D01*
X204225500Y-43676550D01*
X204225988Y-43680419D01*
X204225989Y-43680425D01*
X204226004Y-43680543D01*
X204226918Y-43692167D01*
X204228290Y-43735826D01*
X204233879Y-43755060D01*
X204237825Y-43774116D01*
X204240335Y-43793992D01*
X204256414Y-43834604D01*
X204260197Y-43845651D01*
X204272382Y-43887591D01*
X204282580Y-43904835D01*
X204291136Y-43922300D01*
X204298514Y-43940932D01*
X204298515Y-43940933D01*
X204324180Y-43976259D01*
X204330593Y-43986022D01*
X204352826Y-44023616D01*
X204352829Y-44023619D01*
X204352830Y-44023620D01*
X204366995Y-44037785D01*
X204379627Y-44052575D01*
X204391406Y-44068787D01*
X204425058Y-44096626D01*
X204433699Y-44104489D01*
X204632907Y-44303697D01*
X204666392Y-44365020D01*
X204665001Y-44423471D01*
X204660450Y-44440454D01*
X204641837Y-44653200D01*
X204660450Y-44865944D01*
X204715724Y-45072231D01*
X204805979Y-45265782D01*
X204928471Y-45440720D01*
X205079479Y-45591728D01*
X205254417Y-45714220D01*
X205457802Y-45809061D01*
X205456804Y-45811200D01*
X205503709Y-45839791D01*
X205534237Y-45902638D01*
X205525942Y-45972014D01*
X205481456Y-46025891D01*
X205457554Y-46036807D01*
X205457802Y-46037339D01*
X205254417Y-46132179D01*
X205079479Y-46254671D01*
X204928471Y-46405679D01*
X204805979Y-46580617D01*
X204715724Y-46774168D01*
X204660450Y-46980455D01*
X204641837Y-47193199D01*
X204660450Y-47405944D01*
X204715724Y-47612231D01*
X204805979Y-47805782D01*
X204928471Y-47980720D01*
X205079478Y-48131727D01*
X205079481Y-48131729D01*
X205188623Y-48208150D01*
X205232248Y-48262726D01*
X205241500Y-48309725D01*
X205241500Y-48616673D01*
X205221815Y-48683712D01*
X205188624Y-48718247D01*
X205079484Y-48794668D01*
X204928468Y-48945683D01*
X204805979Y-49120617D01*
X204715724Y-49314168D01*
X204660450Y-49520455D01*
X204641837Y-49733200D01*
X204660450Y-49945944D01*
X204715724Y-50152231D01*
X204805979Y-50345782D01*
X204928471Y-50520720D01*
X205079478Y-50671727D01*
X205079481Y-50671729D01*
X205188623Y-50748150D01*
X205232248Y-50802726D01*
X205241500Y-50849725D01*
X205241500Y-52363265D01*
X205221815Y-52430304D01*
X205169011Y-52476059D01*
X205106693Y-52486793D01*
X204872799Y-52466330D01*
X204646109Y-52486163D01*
X204426301Y-52545060D01*
X204220063Y-52641231D01*
X204033658Y-52771752D01*
X203872752Y-52932658D01*
X203742231Y-53119063D01*
X203646060Y-53325301D01*
X203587163Y-53545109D01*
X203567330Y-53771799D01*
X203587163Y-53998488D01*
X203646060Y-54218296D01*
X203742231Y-54424534D01*
X203872752Y-54610939D01*
X204033658Y-54771845D01*
X204220063Y-54902366D01*
X204220064Y-54902366D01*
X204220065Y-54902367D01*
X204426303Y-54998538D01*
X204646107Y-55057434D01*
X204872799Y-55077267D01*
X205099491Y-55057434D01*
X205167846Y-55039118D01*
X205237696Y-55040781D01*
X205287621Y-55071212D01*
X209252677Y-59036268D01*
X209286162Y-59097591D01*
X209281178Y-59167283D01*
X209266572Y-59195071D01*
X209181432Y-59316665D01*
X209085261Y-59522902D01*
X209026364Y-59742710D01*
X209015859Y-59862785D01*
X208990407Y-59927854D01*
X208933816Y-59968833D01*
X208864054Y-59972711D01*
X208804650Y-59939659D01*
X208182413Y-59317422D01*
X208148928Y-59256099D01*
X208150319Y-59197647D01*
X208168635Y-59129292D01*
X208188468Y-58902600D01*
X208168635Y-58675908D01*
X208109739Y-58456104D01*
X208013568Y-58249866D01*
X207995782Y-58224464D01*
X207883046Y-58063459D01*
X207722140Y-57902553D01*
X207535735Y-57772032D01*
X207329497Y-57675861D01*
X207109689Y-57616964D01*
X206882999Y-57597131D01*
X206656310Y-57616964D01*
X206436502Y-57675861D01*
X206230264Y-57772032D01*
X206043859Y-57902553D01*
X205882953Y-58063459D01*
X205752433Y-58249863D01*
X205725382Y-58307875D01*
X205679209Y-58360314D01*
X205612015Y-58379465D01*
X205545134Y-58359249D01*
X205500618Y-58307875D01*
X205473568Y-58249866D01*
X205455783Y-58224466D01*
X205343046Y-58063459D01*
X205182140Y-57902553D01*
X204995735Y-57772032D01*
X204789497Y-57675861D01*
X204569689Y-57616964D01*
X204343000Y-57597131D01*
X204116310Y-57616964D01*
X203896502Y-57675861D01*
X203690264Y-57772032D01*
X203503862Y-57902550D01*
X203412181Y-57994232D01*
X203350857Y-58027716D01*
X203281166Y-58022732D01*
X203225233Y-57980860D01*
X203200816Y-57915395D01*
X203200500Y-57906550D01*
X203200500Y-30935000D01*
X204159500Y-30935000D01*
X204159664Y-30937249D01*
X204159665Y-30937259D01*
X204174402Y-31138617D01*
X204233616Y-31404438D01*
X204282944Y-31533410D01*
X204330907Y-31658814D01*
X204464196Y-31896310D01*
X204502304Y-31945661D01*
X204630645Y-32111869D01*
X204826704Y-32300894D01*
X205048199Y-32459359D01*
X205177906Y-32526046D01*
X205290403Y-32583885D01*
X205548159Y-32671819D01*
X205548161Y-32671819D01*
X205548163Y-32671820D01*
X205815970Y-32721286D01*
X206088130Y-32731232D01*
X206088130Y-32731231D01*
X206088131Y-32731232D01*
X206358839Y-32701446D01*
X206622326Y-32632562D01*
X206872975Y-32526047D01*
X207105444Y-32384173D01*
X207314779Y-32209963D01*
X207496518Y-32007131D01*
X207646788Y-31779998D01*
X207762386Y-31533406D01*
X207840847Y-31272611D01*
X207880500Y-31003171D01*
X207880500Y-30279000D01*
X207865597Y-30075384D01*
X207865596Y-30075381D01*
X207806383Y-29809561D01*
X207800464Y-29794086D01*
X207709093Y-29555186D01*
X207575804Y-29317690D01*
X207468023Y-29178110D01*
X207409354Y-29102130D01*
X207213295Y-28913105D01*
X206991800Y-28754640D01*
X206749602Y-28630117D01*
X206749598Y-28630115D01*
X206749597Y-28630115D01*
X206545832Y-28560600D01*
X206491836Y-28542179D01*
X206224029Y-28492713D01*
X205951869Y-28482767D01*
X205681162Y-28512553D01*
X205417674Y-28581438D01*
X205167024Y-28687953D01*
X204934556Y-28829826D01*
X204725223Y-29004035D01*
X204543480Y-29206871D01*
X204393210Y-29434005D01*
X204277615Y-29680589D01*
X204199153Y-29941388D01*
X204199153Y-29941389D01*
X204159500Y-30210829D01*
X204159500Y-30935000D01*
X203200500Y-30935000D01*
X203200500Y-25524500D01*
X203220185Y-25457461D01*
X203272989Y-25411706D01*
X203324500Y-25400500D01*
X243075500Y-25400500D01*
X243142539Y-25420185D01*
G37*
G04 #@! TD.AperFunction*
G04 #@! TA.AperFunction,Conductor*
G36*
X211817702Y-41934283D02*
G01*
X211824180Y-41940315D01*
X212550980Y-42667115D01*
X212556100Y-42672553D01*
X212568132Y-42686134D01*
X212595994Y-42717584D01*
X212645491Y-42751749D01*
X212651524Y-42756188D01*
X212698865Y-42793277D01*
X212708096Y-42797431D01*
X212727648Y-42808458D01*
X212735992Y-42814218D01*
X212792244Y-42835551D01*
X212799150Y-42838412D01*
X212853990Y-42863094D01*
X212863952Y-42864919D01*
X212885572Y-42870946D01*
X212895047Y-42874539D01*
X212895050Y-42874540D01*
X212954778Y-42881792D01*
X212962123Y-42882909D01*
X213021316Y-42893757D01*
X213081343Y-42890126D01*
X213088831Y-42889900D01*
X216770327Y-42889900D01*
X216837366Y-42909585D01*
X216871902Y-42942777D01*
X216931953Y-43028540D01*
X217092859Y-43189446D01*
X217279263Y-43319966D01*
X217279266Y-43319968D01*
X217337275Y-43347018D01*
X217389714Y-43393191D01*
X217408865Y-43460385D01*
X217388649Y-43527266D01*
X217337275Y-43571781D01*
X217324225Y-43577867D01*
X217279263Y-43598833D01*
X217092859Y-43729353D01*
X216931953Y-43890259D01*
X216801432Y-44076664D01*
X216705261Y-44282902D01*
X216646364Y-44502710D01*
X216626531Y-44729399D01*
X216646364Y-44956089D01*
X216705261Y-45175897D01*
X216801432Y-45382135D01*
X216931953Y-45568540D01*
X217092859Y-45729446D01*
X217278953Y-45859749D01*
X217279266Y-45859968D01*
X217337275Y-45887018D01*
X217389714Y-45933191D01*
X217408865Y-46000385D01*
X217388649Y-46067266D01*
X217337275Y-46111781D01*
X217316576Y-46121433D01*
X217279263Y-46138833D01*
X217092859Y-46269353D01*
X216931953Y-46430259D01*
X216801432Y-46616664D01*
X216705261Y-46822902D01*
X216646364Y-47042710D01*
X216626531Y-47269400D01*
X216646364Y-47496089D01*
X216705261Y-47715897D01*
X216801432Y-47922135D01*
X216931953Y-48108540D01*
X217092859Y-48269446D01*
X217230954Y-48366140D01*
X217279266Y-48399968D01*
X217333464Y-48425241D01*
X217337275Y-48427018D01*
X217389714Y-48473191D01*
X217408865Y-48540385D01*
X217388649Y-48607266D01*
X217337275Y-48651781D01*
X217321330Y-48659217D01*
X217279263Y-48678833D01*
X217092859Y-48809353D01*
X216931953Y-48970259D01*
X216801432Y-49156664D01*
X216705261Y-49362902D01*
X216646364Y-49582710D01*
X216626531Y-49809400D01*
X216646364Y-50036089D01*
X216705261Y-50255897D01*
X216801432Y-50462135D01*
X216931953Y-50648540D01*
X217092859Y-50809446D01*
X217279264Y-50939967D01*
X217279265Y-50939967D01*
X217279266Y-50939968D01*
X217337865Y-50967293D01*
X217390304Y-51013465D01*
X217409456Y-51080659D01*
X217389240Y-51147540D01*
X217337866Y-51192056D01*
X217279522Y-51219263D01*
X217093180Y-51349741D01*
X216932341Y-51510580D01*
X216801865Y-51696919D01*
X216705733Y-51903073D01*
X216653128Y-52099399D01*
X216653128Y-52099400D01*
X217616314Y-52099400D01*
X217604359Y-52111355D01*
X217546835Y-52224252D01*
X217527014Y-52349400D01*
X217546835Y-52474548D01*
X217604359Y-52587445D01*
X217616314Y-52599400D01*
X216653128Y-52599400D01*
X216705733Y-52795726D01*
X216801865Y-53001880D01*
X216932341Y-53188219D01*
X217093180Y-53349058D01*
X217279519Y-53479534D01*
X217337865Y-53506742D01*
X217390304Y-53552914D01*
X217409456Y-53620108D01*
X217389240Y-53686989D01*
X217337866Y-53731505D01*
X217279267Y-53758830D01*
X217092859Y-53889353D01*
X216931953Y-54050259D01*
X216801432Y-54236664D01*
X216705261Y-54442902D01*
X216646364Y-54662710D01*
X216626531Y-54889399D01*
X216646364Y-55116089D01*
X216705261Y-55335897D01*
X216801432Y-55542135D01*
X216931953Y-55728540D01*
X217092859Y-55889446D01*
X217279262Y-56019965D01*
X217279266Y-56019968D01*
X217337275Y-56047018D01*
X217389714Y-56093191D01*
X217408865Y-56160385D01*
X217388649Y-56227266D01*
X217337275Y-56271782D01*
X217279263Y-56298833D01*
X217092859Y-56429353D01*
X216931953Y-56590259D01*
X216801432Y-56776664D01*
X216705261Y-56982902D01*
X216646364Y-57202710D01*
X216626531Y-57429400D01*
X216646364Y-57656089D01*
X216705261Y-57875897D01*
X216801432Y-58082135D01*
X216931953Y-58268540D01*
X217092859Y-58429446D01*
X217177912Y-58489000D01*
X217279266Y-58559968D01*
X217337275Y-58587018D01*
X217389714Y-58633191D01*
X217408865Y-58700385D01*
X217388649Y-58767266D01*
X217337275Y-58811782D01*
X217279263Y-58838833D01*
X217092859Y-58969353D01*
X216931953Y-59130259D01*
X216801432Y-59316664D01*
X216705261Y-59522902D01*
X216646364Y-59742710D01*
X216626531Y-59969399D01*
X216646364Y-60196089D01*
X216705261Y-60415897D01*
X216801432Y-60622135D01*
X216931953Y-60808540D01*
X217092860Y-60969447D01*
X217253622Y-61082013D01*
X217297247Y-61136590D01*
X217306499Y-61183588D01*
X217306499Y-61397620D01*
X217286814Y-61464659D01*
X217234010Y-61510414D01*
X217164852Y-61520358D01*
X217130094Y-61510002D01*
X216915926Y-61410133D01*
X216696202Y-61351258D01*
X216469600Y-61331433D01*
X216242997Y-61351258D01*
X216017894Y-61411575D01*
X215948044Y-61409912D01*
X215890181Y-61370750D01*
X215862777Y-61307334D01*
X215860664Y-61290600D01*
X215850742Y-61265540D01*
X215844588Y-61249996D01*
X215840804Y-61238945D01*
X215834881Y-61218560D01*
X215828618Y-61197002D01*
X215818414Y-61179747D01*
X215809861Y-61162287D01*
X215809850Y-61162259D01*
X215802486Y-61143660D01*
X215776808Y-61108317D01*
X215770401Y-61098563D01*
X215766072Y-61091243D01*
X215748170Y-61060972D01*
X215734006Y-61046808D01*
X215721367Y-61032009D01*
X215709595Y-61015805D01*
X215675941Y-60987965D01*
X215667299Y-60980101D01*
X214820277Y-60133078D01*
X214786792Y-60071755D01*
X214791776Y-60002063D01*
X214833648Y-59946130D01*
X214844905Y-59939390D01*
X214850931Y-59935170D01*
X214850934Y-59935169D01*
X215037339Y-59804648D01*
X215198247Y-59643740D01*
X215328768Y-59457335D01*
X215424939Y-59251097D01*
X215483835Y-59031293D01*
X215503668Y-58804601D01*
X215501147Y-58775791D01*
X215490178Y-58650414D01*
X215483835Y-58577909D01*
X215424939Y-58358105D01*
X215328768Y-58151867D01*
X215241838Y-58027716D01*
X215198246Y-57965460D01*
X215037340Y-57804554D01*
X214850933Y-57674032D01*
X214792925Y-57646983D01*
X214740485Y-57600811D01*
X214721333Y-57533618D01*
X214741548Y-57466736D01*
X214792925Y-57422219D01*
X214850934Y-57395169D01*
X215037339Y-57264648D01*
X215198247Y-57103740D01*
X215328768Y-56917335D01*
X215424939Y-56711097D01*
X215483835Y-56491293D01*
X215503668Y-56264601D01*
X215483835Y-56037909D01*
X215424939Y-55818105D01*
X215328768Y-55611867D01*
X215327072Y-55609444D01*
X215198246Y-55425460D01*
X215037340Y-55264554D01*
X214876577Y-55151988D01*
X214832952Y-55097412D01*
X214823700Y-55050413D01*
X214823700Y-53842988D01*
X214843385Y-53775949D01*
X214876577Y-53741413D01*
X214956272Y-53685610D01*
X215037339Y-53628847D01*
X215198247Y-53467939D01*
X215328768Y-53281534D01*
X215424939Y-53075296D01*
X215483835Y-52855492D01*
X215503668Y-52628800D01*
X215503644Y-52628531D01*
X215486615Y-52433889D01*
X215483835Y-52402108D01*
X215424939Y-52182304D01*
X215328768Y-51976066D01*
X215310097Y-51949400D01*
X215198246Y-51789659D01*
X215037340Y-51628753D01*
X214850936Y-51498233D01*
X214850930Y-51498230D01*
X214792332Y-51470905D01*
X214739895Y-51424733D01*
X214720743Y-51357539D01*
X214740959Y-51290658D01*
X214792335Y-51246142D01*
X214850679Y-51218935D01*
X215037019Y-51088458D01*
X215197858Y-50927619D01*
X215328334Y-50741280D01*
X215424466Y-50535126D01*
X215477072Y-50338800D01*
X214513886Y-50338800D01*
X214525841Y-50326845D01*
X214583365Y-50213948D01*
X214603186Y-50088800D01*
X214583365Y-49963652D01*
X214525841Y-49850755D01*
X214513886Y-49838800D01*
X215477072Y-49838800D01*
X215477071Y-49838799D01*
X215424466Y-49642473D01*
X215328334Y-49436319D01*
X215197858Y-49249980D01*
X215037019Y-49089141D01*
X214850680Y-48958665D01*
X214644526Y-48862533D01*
X214448200Y-48809926D01*
X214448200Y-49773113D01*
X214436245Y-49761159D01*
X214323348Y-49703635D01*
X214229681Y-49688800D01*
X214166719Y-49688800D01*
X214073052Y-49703635D01*
X213960155Y-49761159D01*
X213948200Y-49773113D01*
X213948200Y-48809927D01*
X213948199Y-48809926D01*
X213751873Y-48862533D01*
X213545719Y-48958665D01*
X213359380Y-49089141D01*
X213198541Y-49249980D01*
X213068065Y-49436319D01*
X212971933Y-49642473D01*
X212919328Y-49838799D01*
X212919328Y-49838800D01*
X213882514Y-49838800D01*
X213870559Y-49850755D01*
X213813035Y-49963652D01*
X213793214Y-50088800D01*
X213813035Y-50213948D01*
X213870559Y-50326845D01*
X213882514Y-50338800D01*
X212919328Y-50338800D01*
X212971933Y-50535126D01*
X213068065Y-50741280D01*
X213198541Y-50927619D01*
X213359380Y-51088458D01*
X213545719Y-51218934D01*
X213604065Y-51246142D01*
X213656504Y-51292314D01*
X213675656Y-51359508D01*
X213655440Y-51426389D01*
X213604066Y-51470905D01*
X213545467Y-51498230D01*
X213359059Y-51628753D01*
X213198153Y-51789659D01*
X213067632Y-51976064D01*
X212971461Y-52182302D01*
X212912564Y-52402110D01*
X212892731Y-52628799D01*
X212912564Y-52855489D01*
X212971461Y-53075297D01*
X213067632Y-53281535D01*
X213198153Y-53467940D01*
X213359059Y-53628846D01*
X213519823Y-53741413D01*
X213563448Y-53795989D01*
X213572700Y-53842988D01*
X213572700Y-55050413D01*
X213553015Y-55117452D01*
X213519823Y-55151988D01*
X213359059Y-55264554D01*
X213198153Y-55425460D01*
X213067632Y-55611865D01*
X212971461Y-55818103D01*
X212912564Y-56037911D01*
X212892731Y-56264600D01*
X212912564Y-56491290D01*
X212971461Y-56711098D01*
X213067632Y-56917336D01*
X213198153Y-57103741D01*
X213359059Y-57264647D01*
X213499809Y-57363200D01*
X213545466Y-57395169D01*
X213603473Y-57422218D01*
X213655913Y-57468390D01*
X213675065Y-57535583D01*
X213654850Y-57602465D01*
X213603476Y-57646981D01*
X213545466Y-57674032D01*
X213359057Y-57804556D01*
X213348573Y-57815039D01*
X213287248Y-57848521D01*
X213217557Y-57843532D01*
X213173216Y-57815034D01*
X211287065Y-55928883D01*
X211253580Y-55867560D01*
X211258564Y-55797868D01*
X211287064Y-55753521D01*
X211312047Y-55728539D01*
X211442568Y-55542134D01*
X211538739Y-55335896D01*
X211597635Y-55116092D01*
X211617468Y-54889400D01*
X211597635Y-54662708D01*
X211538739Y-54442904D01*
X211442568Y-54236666D01*
X211438957Y-54231508D01*
X211312046Y-54050259D01*
X211151140Y-53889353D01*
X210964733Y-53758831D01*
X210906725Y-53731782D01*
X210854285Y-53685610D01*
X210835133Y-53618417D01*
X210855348Y-53551535D01*
X210906725Y-53507018D01*
X210907317Y-53506742D01*
X210964734Y-53479968D01*
X211151139Y-53349447D01*
X211312047Y-53188539D01*
X211442568Y-53002134D01*
X211538739Y-52795896D01*
X211597635Y-52576092D01*
X211617468Y-52349400D01*
X211597635Y-52122708D01*
X211538739Y-51902904D01*
X211442568Y-51696666D01*
X211411647Y-51652505D01*
X211312046Y-51510259D01*
X211151140Y-51349353D01*
X210964733Y-51218831D01*
X210906725Y-51191782D01*
X210854285Y-51145610D01*
X210835133Y-51078417D01*
X210855348Y-51011535D01*
X210906725Y-50967018D01*
X210964734Y-50939968D01*
X211151139Y-50809447D01*
X211312047Y-50648539D01*
X211442568Y-50462134D01*
X211538739Y-50255896D01*
X211597635Y-50036092D01*
X211617468Y-49809400D01*
X211597635Y-49582708D01*
X211538739Y-49362904D01*
X211442568Y-49156666D01*
X211426042Y-49133063D01*
X211312046Y-48970259D01*
X211151140Y-48809353D01*
X210964733Y-48678831D01*
X210922670Y-48659217D01*
X210906724Y-48651781D01*
X210854285Y-48605610D01*
X210835133Y-48538417D01*
X210855348Y-48471535D01*
X210906725Y-48427018D01*
X210910536Y-48425241D01*
X210964734Y-48399968D01*
X211151139Y-48269447D01*
X211312047Y-48108539D01*
X211442568Y-47922134D01*
X211538739Y-47715896D01*
X211597635Y-47496092D01*
X211617468Y-47269400D01*
X211597635Y-47042708D01*
X211538739Y-46822904D01*
X211442568Y-46616666D01*
X211438499Y-46610854D01*
X211312046Y-46430259D01*
X211151140Y-46269353D01*
X210964733Y-46138831D01*
X210923727Y-46119710D01*
X210906724Y-46111781D01*
X210854285Y-46065610D01*
X210835133Y-45998417D01*
X210855348Y-45931535D01*
X210906725Y-45887018D01*
X210964734Y-45859968D01*
X211151139Y-45729447D01*
X211312047Y-45568539D01*
X211442568Y-45382134D01*
X211538739Y-45175896D01*
X211597635Y-44956092D01*
X211617468Y-44729400D01*
X211613737Y-44686760D01*
X211606263Y-44601325D01*
X211597635Y-44502708D01*
X211538739Y-44282904D01*
X211442568Y-44076666D01*
X211438089Y-44070268D01*
X211312046Y-43890259D01*
X211151140Y-43729353D01*
X211126537Y-43712126D01*
X211082912Y-43657550D01*
X211075718Y-43588051D01*
X211107241Y-43525696D01*
X211167470Y-43490282D01*
X211184401Y-43487262D01*
X211219483Y-43483491D01*
X211354331Y-43433196D01*
X211469546Y-43346946D01*
X211555796Y-43231731D01*
X211606091Y-43096883D01*
X211612500Y-43037273D01*
X211612499Y-42027995D01*
X211632183Y-41960957D01*
X211684987Y-41915202D01*
X211754146Y-41905258D01*
X211817702Y-41934283D01*
G37*
G04 #@! TD.AperFunction*
G04 #@! TA.AperFunction,Conductor*
G36*
X220037703Y-44836663D02*
G01*
X220075477Y-44895441D01*
X220076275Y-44898283D01*
X220108861Y-45019896D01*
X220205032Y-45226135D01*
X220335553Y-45412540D01*
X220496459Y-45573446D01*
X220682864Y-45703967D01*
X220682865Y-45703967D01*
X220682866Y-45703968D01*
X220889104Y-45800139D01*
X221108908Y-45859035D01*
X221335600Y-45878868D01*
X221562292Y-45859035D01*
X221782096Y-45800139D01*
X221835200Y-45775375D01*
X221904274Y-45764883D01*
X221968058Y-45793401D01*
X221975285Y-45800076D01*
X223261986Y-47086777D01*
X223295471Y-47148100D01*
X223294080Y-47206550D01*
X223275764Y-47274908D01*
X223255931Y-47501600D01*
X223275764Y-47728291D01*
X223294080Y-47796648D01*
X223292417Y-47866498D01*
X223261986Y-47916422D01*
X223052608Y-48125800D01*
X223036510Y-48138697D01*
X222988496Y-48189826D01*
X222985792Y-48192617D01*
X222969028Y-48209381D01*
X222969021Y-48209388D01*
X222966280Y-48212130D01*
X222963899Y-48215198D01*
X222963890Y-48215209D01*
X222963811Y-48215312D01*
X222956242Y-48224173D01*
X222926335Y-48256021D01*
X222916685Y-48273575D01*
X222906009Y-48289829D01*
X222893726Y-48305664D01*
X222876375Y-48345759D01*
X222871238Y-48356245D01*
X222850202Y-48394508D01*
X222845221Y-48413910D01*
X222838920Y-48432312D01*
X222830961Y-48450703D01*
X222824128Y-48493843D01*
X222821760Y-48505275D01*
X222810900Y-48547578D01*
X222810900Y-48567617D01*
X222809373Y-48587015D01*
X222806326Y-48606256D01*
X222806240Y-48606797D01*
X222810271Y-48649442D01*
X222810350Y-48650274D01*
X222810900Y-48661944D01*
X222810900Y-49702997D01*
X222791215Y-49770036D01*
X222738411Y-49815791D01*
X222669253Y-49825735D01*
X222605697Y-49796710D01*
X222567923Y-49737932D01*
X222567125Y-49735091D01*
X222536466Y-49620673D01*
X222440333Y-49414515D01*
X222389225Y-49341526D01*
X221708153Y-50022598D01*
X221695365Y-49941852D01*
X221637841Y-49828955D01*
X221548245Y-49739359D01*
X221435348Y-49681835D01*
X221354599Y-49669045D01*
X222035672Y-48987973D01*
X222035671Y-48987972D01*
X221962685Y-48936867D01*
X221904333Y-48909657D01*
X221851894Y-48863484D01*
X221832743Y-48796290D01*
X221852959Y-48729409D01*
X221904334Y-48684893D01*
X221962934Y-48657568D01*
X222149339Y-48527047D01*
X222310247Y-48366139D01*
X222440768Y-48179734D01*
X222536939Y-47973496D01*
X222595835Y-47753692D01*
X222615668Y-47527000D01*
X222614682Y-47515735D01*
X222598908Y-47335437D01*
X222595835Y-47300308D01*
X222536939Y-47080504D01*
X222440768Y-46874266D01*
X222432516Y-46862480D01*
X222310246Y-46687859D01*
X222149340Y-46526953D01*
X221962935Y-46396432D01*
X221756697Y-46300261D01*
X221536889Y-46241364D01*
X221310200Y-46221531D01*
X221083510Y-46241364D01*
X220863702Y-46300261D01*
X220657464Y-46396432D01*
X220471059Y-46526953D01*
X220310153Y-46687859D01*
X220179632Y-46874264D01*
X220083461Y-47080502D01*
X220076275Y-47107323D01*
X220039910Y-47166983D01*
X219977063Y-47197512D01*
X219907687Y-47189217D01*
X219853809Y-47144732D01*
X219832535Y-47078180D01*
X219832500Y-47075229D01*
X219832500Y-44930376D01*
X219852185Y-44863337D01*
X219904989Y-44817582D01*
X219974147Y-44807638D01*
X220037703Y-44836663D01*
G37*
G04 #@! TD.AperFunction*
G04 #@! TA.AperFunction,Conductor*
G36*
X227217786Y-46265634D02*
G01*
X227433508Y-46323436D01*
X227584636Y-46336658D01*
X227660199Y-46343269D01*
X227660199Y-46343268D01*
X227660200Y-46343269D01*
X227886892Y-46323436D01*
X227955247Y-46305120D01*
X228025097Y-46306783D01*
X228075022Y-46337214D01*
X229035595Y-47297787D01*
X229048495Y-47313888D01*
X229099622Y-47361900D01*
X229102419Y-47364611D01*
X229121928Y-47384120D01*
X229125108Y-47386587D01*
X229133970Y-47394155D01*
X229165817Y-47424062D01*
X229183371Y-47433712D01*
X229199635Y-47444396D01*
X229211371Y-47453499D01*
X229215463Y-47456673D01*
X229240308Y-47467424D01*
X229255551Y-47474021D01*
X229266030Y-47479154D01*
X229304307Y-47500197D01*
X229323705Y-47505177D01*
X229342107Y-47511477D01*
X229360503Y-47519438D01*
X229403660Y-47526273D01*
X229415063Y-47528634D01*
X229457380Y-47539500D01*
X229477415Y-47539500D01*
X229496812Y-47541026D01*
X229516595Y-47544160D01*
X229560073Y-47540050D01*
X229571743Y-47539500D01*
X229675366Y-47539500D01*
X229742405Y-47559185D01*
X229788160Y-47611989D01*
X229798104Y-47681147D01*
X229787748Y-47715905D01*
X229710061Y-47882502D01*
X229651164Y-48102310D01*
X229631331Y-48328999D01*
X229651164Y-48555690D01*
X229669480Y-48624047D01*
X229667817Y-48693897D01*
X229637386Y-48743821D01*
X229428008Y-48953199D01*
X229411910Y-48966096D01*
X229363896Y-49017225D01*
X229361192Y-49020016D01*
X229344428Y-49036780D01*
X229344421Y-49036787D01*
X229341680Y-49039529D01*
X229339299Y-49042597D01*
X229339290Y-49042608D01*
X229339211Y-49042711D01*
X229331642Y-49051572D01*
X229301735Y-49083420D01*
X229292085Y-49100974D01*
X229281409Y-49117228D01*
X229269126Y-49133063D01*
X229251775Y-49173158D01*
X229246638Y-49183644D01*
X229225602Y-49221907D01*
X229220621Y-49241309D01*
X229214320Y-49259711D01*
X229206361Y-49278102D01*
X229199528Y-49321242D01*
X229197160Y-49332674D01*
X229186300Y-49374977D01*
X229186300Y-49395016D01*
X229184772Y-49414414D01*
X229181640Y-49434196D01*
X229185750Y-49477673D01*
X229186300Y-49489343D01*
X229186300Y-53584287D01*
X229179514Y-53607395D01*
X229183869Y-53615680D01*
X229186300Y-53640112D01*
X229186300Y-53792246D01*
X229184035Y-53812757D01*
X229186238Y-53882865D01*
X229186299Y-53886754D01*
X229186299Y-53910452D01*
X229186299Y-53910465D01*
X229186300Y-53914341D01*
X229186786Y-53918193D01*
X229186787Y-53918202D01*
X229186804Y-53918334D01*
X229187718Y-53929958D01*
X229189090Y-53973617D01*
X229194679Y-53992851D01*
X229198625Y-54011907D01*
X229201135Y-54031783D01*
X229217214Y-54072395D01*
X229220997Y-54083442D01*
X229233182Y-54125382D01*
X229243380Y-54142626D01*
X229251936Y-54160091D01*
X229259314Y-54178723D01*
X229259315Y-54178724D01*
X229284980Y-54214050D01*
X229291393Y-54223813D01*
X229313626Y-54261407D01*
X229313629Y-54261410D01*
X229313630Y-54261411D01*
X229327795Y-54275576D01*
X229340427Y-54290366D01*
X229350817Y-54304666D01*
X229374298Y-54370471D01*
X229374500Y-54377553D01*
X229374500Y-54984355D01*
X229354815Y-55051394D01*
X229338181Y-55072036D01*
X228929377Y-55480839D01*
X228868054Y-55514324D01*
X228798362Y-55509340D01*
X228742429Y-55467468D01*
X228740121Y-55464281D01*
X228634461Y-55313383D01*
X228473619Y-55152541D01*
X228287282Y-55022066D01*
X228228933Y-54994857D01*
X228176494Y-54948684D01*
X228157343Y-54881490D01*
X228177559Y-54814609D01*
X228228934Y-54770093D01*
X228287534Y-54742768D01*
X228473939Y-54612247D01*
X228634847Y-54451339D01*
X228765368Y-54264934D01*
X228861539Y-54058696D01*
X228920435Y-53838892D01*
X228930006Y-53729491D01*
X228938772Y-53629305D01*
X228943125Y-53618175D01*
X228938772Y-53595094D01*
X228920435Y-53385510D01*
X228920435Y-53385508D01*
X228861539Y-53165704D01*
X228765368Y-52959466D01*
X228750437Y-52938141D01*
X228634846Y-52773059D01*
X228473940Y-52612153D01*
X228287777Y-52481802D01*
X228244152Y-52427226D01*
X228234900Y-52380227D01*
X228234900Y-51981588D01*
X228254585Y-51914549D01*
X228287777Y-51880013D01*
X228416814Y-51789661D01*
X228448539Y-51767447D01*
X228609447Y-51606539D01*
X228739968Y-51420134D01*
X228836139Y-51213896D01*
X228895035Y-50994092D01*
X228914868Y-50767400D01*
X228895035Y-50540708D01*
X228836139Y-50320904D01*
X228739968Y-50114666D01*
X228709996Y-50071860D01*
X228609446Y-49928259D01*
X228448540Y-49767353D01*
X228262133Y-49636831D01*
X228204125Y-49609782D01*
X228151685Y-49563610D01*
X228132533Y-49496417D01*
X228152748Y-49429535D01*
X228204125Y-49385018D01*
X228262134Y-49357968D01*
X228448539Y-49227447D01*
X228609447Y-49066539D01*
X228739968Y-48880134D01*
X228836139Y-48673896D01*
X228895035Y-48454092D01*
X228914868Y-48227400D01*
X228913810Y-48215312D01*
X228900672Y-48065135D01*
X228895035Y-48000708D01*
X228836139Y-47780904D01*
X228739968Y-47574666D01*
X228729129Y-47559185D01*
X228609446Y-47388259D01*
X228448540Y-47227353D01*
X228262135Y-47096832D01*
X228055897Y-47000661D01*
X227836089Y-46941764D01*
X227609399Y-46921931D01*
X227382708Y-46941764D01*
X227231593Y-46982255D01*
X227161743Y-46980592D01*
X227103881Y-46941429D01*
X227076377Y-46877201D01*
X227075500Y-46862480D01*
X227075500Y-46624543D01*
X227077764Y-46604037D01*
X227077620Y-46599465D01*
X227075559Y-46533924D01*
X227075499Y-46530026D01*
X227075499Y-46525347D01*
X227075500Y-46502450D01*
X227074998Y-46498477D01*
X227074080Y-46486818D01*
X227072709Y-46443173D01*
X227067120Y-46423940D01*
X227063174Y-46404880D01*
X227062677Y-46400944D01*
X227073808Y-46331967D01*
X227120464Y-46279957D01*
X227187832Y-46261428D01*
X227217786Y-46265634D01*
G37*
G04 #@! TD.AperFunction*
G04 #@! TA.AperFunction,Conductor*
G36*
X234454185Y-54017559D02*
G01*
X234570908Y-54048835D01*
X234718344Y-54061734D01*
X234797599Y-54068668D01*
X234797599Y-54068667D01*
X234797600Y-54068668D01*
X234932783Y-54056841D01*
X235029482Y-54048381D01*
X235097982Y-54062148D01*
X235127971Y-54084228D01*
X236429181Y-55385437D01*
X236462666Y-55446760D01*
X236465500Y-55473118D01*
X236465500Y-60424580D01*
X236445815Y-60491619D01*
X236393011Y-60537374D01*
X236323853Y-60547318D01*
X236309407Y-60544355D01*
X236192604Y-60513058D01*
X235966000Y-60493233D01*
X235739397Y-60513058D01*
X235519673Y-60571933D01*
X235303685Y-60672651D01*
X235302136Y-60669330D01*
X235254366Y-60685419D01*
X235186606Y-60668382D01*
X235138814Y-60617414D01*
X235125500Y-60561519D01*
X235125500Y-59139320D01*
X235128489Y-59112266D01*
X235131093Y-59100623D01*
X235132641Y-59100969D01*
X235145353Y-59052028D01*
X235196690Y-59004633D01*
X235219635Y-58995975D01*
X235243924Y-58989467D01*
X235450080Y-58893334D01*
X235523072Y-58842225D01*
X234842000Y-58161153D01*
X234922748Y-58148365D01*
X235035645Y-58090841D01*
X235125241Y-58001245D01*
X235182765Y-57888348D01*
X235195553Y-57807600D01*
X235876625Y-58488672D01*
X235927734Y-58415680D01*
X236023866Y-58209526D01*
X236082741Y-57989802D01*
X236102566Y-57763200D01*
X236082741Y-57536597D01*
X236023866Y-57316873D01*
X235927733Y-57110715D01*
X235876625Y-57037726D01*
X235195553Y-57718798D01*
X235182765Y-57638052D01*
X235125241Y-57525155D01*
X235035645Y-57435559D01*
X234922748Y-57378035D01*
X234842000Y-57365246D01*
X235523072Y-56684174D01*
X235523071Y-56684172D01*
X235450084Y-56633066D01*
X235243926Y-56536933D01*
X235024202Y-56478058D01*
X234797600Y-56458233D01*
X234570997Y-56478058D01*
X234454193Y-56509356D01*
X234384343Y-56507693D01*
X234326480Y-56468531D01*
X234298976Y-56404302D01*
X234298099Y-56389581D01*
X234298099Y-55995582D01*
X234298099Y-54137332D01*
X234317784Y-54070297D01*
X234370588Y-54024542D01*
X234439746Y-54014598D01*
X234454185Y-54017559D01*
G37*
G04 #@! TD.AperFunction*
G04 #@! TA.AperFunction,Conductor*
G36*
X242000000Y-61528871D02*
G01*
X242196326Y-61476266D01*
X242402480Y-61380134D01*
X242588819Y-61249658D01*
X242749658Y-61088819D01*
X242880134Y-60902480D01*
X242963118Y-60724523D01*
X243009290Y-60672084D01*
X243076484Y-60652932D01*
X243143365Y-60673148D01*
X243188700Y-60726313D01*
X243199500Y-60776928D01*
X243199500Y-76379151D01*
X243179815Y-76446190D01*
X243127011Y-76491945D01*
X243057853Y-76501889D01*
X242994297Y-76472864D01*
X242987819Y-76466832D01*
X239996818Y-73475831D01*
X239963333Y-73414508D01*
X239960499Y-73388150D01*
X239960499Y-71967784D01*
X239960499Y-70710447D01*
X239980184Y-70643412D01*
X240032988Y-70597657D01*
X240102146Y-70587713D01*
X240141197Y-70600173D01*
X240281956Y-70672542D01*
X240290403Y-70676885D01*
X240548159Y-70764819D01*
X240548161Y-70764819D01*
X240548163Y-70764820D01*
X240815970Y-70814286D01*
X241088130Y-70824232D01*
X241088130Y-70824231D01*
X241088131Y-70824232D01*
X241358839Y-70794446D01*
X241622326Y-70725562D01*
X241872975Y-70619047D01*
X242105444Y-70477173D01*
X242314779Y-70302963D01*
X242496518Y-70100131D01*
X242646788Y-69872998D01*
X242762386Y-69626406D01*
X242840847Y-69365611D01*
X242880500Y-69096171D01*
X242880500Y-68372000D01*
X242865597Y-68168384D01*
X242820830Y-67967419D01*
X242806383Y-67902561D01*
X242776042Y-67823232D01*
X242709093Y-67648186D01*
X242575804Y-67410690D01*
X242468024Y-67271110D01*
X242409354Y-67195130D01*
X242213295Y-67006105D01*
X241991800Y-66847640D01*
X241749602Y-66723117D01*
X241749598Y-66723115D01*
X241749597Y-66723115D01*
X241606913Y-66674438D01*
X241491836Y-66635179D01*
X241226977Y-66586258D01*
X241164628Y-66554725D01*
X241129226Y-66494488D01*
X241125500Y-66464321D01*
X241125500Y-61587823D01*
X241145185Y-61520784D01*
X241197989Y-61475029D01*
X241267147Y-61465085D01*
X241301912Y-61475444D01*
X241303678Y-61476267D01*
X241499999Y-61528871D01*
X241500000Y-61528871D01*
X241500000Y-60565686D01*
X241511955Y-60577641D01*
X241624852Y-60635165D01*
X241718519Y-60650000D01*
X241781481Y-60650000D01*
X241875148Y-60635165D01*
X241988045Y-60577641D01*
X242000000Y-60565686D01*
X242000000Y-61528871D01*
G37*
G04 #@! TD.AperFunction*
G04 #@! TA.AperFunction,Conductor*
G36*
X224830703Y-71215739D02*
G01*
X224837181Y-71221771D01*
X225333850Y-71718440D01*
X225367335Y-71779763D01*
X225362351Y-71849455D01*
X225338320Y-71889093D01*
X225267464Y-71967786D01*
X225172820Y-72131715D01*
X225114326Y-72311742D01*
X225094540Y-72499999D01*
X225114326Y-72688257D01*
X225172820Y-72868284D01*
X225267466Y-73032216D01*
X225394129Y-73172889D01*
X225547269Y-73284151D01*
X225720197Y-73361144D01*
X225905352Y-73400500D01*
X225905354Y-73400500D01*
X226094648Y-73400500D01*
X226218083Y-73374262D01*
X226279803Y-73361144D01*
X226452730Y-73284151D01*
X226605871Y-73172888D01*
X226654976Y-73118351D01*
X226708350Y-73059074D01*
X226767837Y-73022425D01*
X226837694Y-73023756D01*
X226895742Y-73062642D01*
X226923552Y-73126739D01*
X226924500Y-73142046D01*
X226924500Y-74676000D01*
X226904815Y-74743039D01*
X226852011Y-74788794D01*
X226800500Y-74800000D01*
X226270000Y-74800000D01*
X226270000Y-75764498D01*
X226162315Y-75715320D01*
X226055763Y-75700000D01*
X225984237Y-75700000D01*
X225877685Y-75715320D01*
X225769999Y-75764498D01*
X225770000Y-74800000D01*
X225075482Y-74800000D01*
X225068867Y-74800354D01*
X225012626Y-74806400D01*
X224891204Y-74851688D01*
X224821512Y-74856672D01*
X224760190Y-74823187D01*
X224661819Y-74724816D01*
X224628334Y-74663493D01*
X224625500Y-74637135D01*
X224625500Y-71309452D01*
X224645185Y-71242413D01*
X224697989Y-71196658D01*
X224767147Y-71186714D01*
X224830703Y-71215739D01*
G37*
G04 #@! TD.AperFunction*
G04 #@! TA.AperFunction,Conductor*
G36*
X224890353Y-59169686D02*
G01*
X224928594Y-59228162D01*
X224933899Y-59264043D01*
X224933899Y-59485343D01*
X224914214Y-59552382D01*
X224902049Y-59568315D01*
X224767466Y-59717783D01*
X224672820Y-59881715D01*
X224614326Y-60061742D01*
X224594540Y-60249999D01*
X224614326Y-60438257D01*
X224672820Y-60618284D01*
X224767466Y-60782216D01*
X224894129Y-60922889D01*
X225047269Y-61034151D01*
X225220197Y-61111144D01*
X225405352Y-61150500D01*
X225405354Y-61150500D01*
X225594646Y-61150500D01*
X225674718Y-61133480D01*
X225744384Y-61138796D01*
X225800118Y-61180932D01*
X225824224Y-61246512D01*
X225824499Y-61254770D01*
X225824499Y-62623802D01*
X225804814Y-62690841D01*
X225752010Y-62736596D01*
X225682852Y-62746540D01*
X225619296Y-62717515D01*
X225581522Y-62658737D01*
X225580724Y-62655895D01*
X225533666Y-62480274D01*
X225437533Y-62274115D01*
X225386425Y-62201126D01*
X224705353Y-62882198D01*
X224692565Y-62801452D01*
X224635041Y-62688555D01*
X224545445Y-62598959D01*
X224432548Y-62541435D01*
X224351800Y-62528646D01*
X225032872Y-61847574D01*
X225032871Y-61847572D01*
X224959884Y-61796466D01*
X224753726Y-61700333D01*
X224534002Y-61641458D01*
X224307400Y-61621633D01*
X224080795Y-61641458D01*
X223963993Y-61672755D01*
X223894143Y-61671092D01*
X223836281Y-61631929D01*
X223808777Y-61567701D01*
X223807900Y-61552980D01*
X223807900Y-59300736D01*
X223827585Y-59233697D01*
X223880389Y-59187942D01*
X223949547Y-59177998D01*
X223963982Y-59180958D01*
X224080708Y-59212235D01*
X224231836Y-59225457D01*
X224307399Y-59232068D01*
X224307399Y-59232067D01*
X224307400Y-59232068D01*
X224534092Y-59212235D01*
X224753896Y-59153339D01*
X224757492Y-59151661D01*
X224763639Y-59150727D01*
X224764375Y-59150531D01*
X224764396Y-59150612D01*
X224826568Y-59141169D01*
X224890353Y-59169686D01*
G37*
G04 #@! TD.AperFunction*
G04 #@! TA.AperFunction,Conductor*
G36*
X239337694Y-65273756D02*
G01*
X239395742Y-65312642D01*
X239423552Y-65376739D01*
X239424500Y-65392046D01*
X239424500Y-66080200D01*
X239404815Y-66147239D01*
X239388181Y-66167881D01*
X238501208Y-67054853D01*
X238485110Y-67067750D01*
X238437096Y-67118879D01*
X238434392Y-67121670D01*
X238417628Y-67138434D01*
X238417621Y-67138441D01*
X238414880Y-67141183D01*
X238412499Y-67144251D01*
X238412490Y-67144262D01*
X238412411Y-67144365D01*
X238404842Y-67153226D01*
X238374935Y-67185074D01*
X238365285Y-67202628D01*
X238354609Y-67218882D01*
X238342326Y-67234717D01*
X238324975Y-67274812D01*
X238319838Y-67285298D01*
X238298802Y-67323561D01*
X238293821Y-67342963D01*
X238287520Y-67361365D01*
X238279561Y-67379756D01*
X238272728Y-67422896D01*
X238270360Y-67434328D01*
X238259500Y-67476631D01*
X238259500Y-67496670D01*
X238257973Y-67516068D01*
X238254840Y-67535848D01*
X238258950Y-67579327D01*
X238259500Y-67590997D01*
X238259500Y-73802256D01*
X238257235Y-73822766D01*
X238259439Y-73892872D01*
X238259500Y-73896767D01*
X238259500Y-73924350D01*
X238259988Y-73928219D01*
X238259989Y-73928225D01*
X238260004Y-73928343D01*
X238260918Y-73939967D01*
X238262290Y-73983626D01*
X238267879Y-74002860D01*
X238271825Y-74021916D01*
X238274335Y-74041792D01*
X238290414Y-74082404D01*
X238294197Y-74093451D01*
X238306382Y-74135391D01*
X238316580Y-74152635D01*
X238325136Y-74170100D01*
X238332514Y-74188732D01*
X238332515Y-74188733D01*
X238358180Y-74224059D01*
X238364593Y-74233822D01*
X238386826Y-74271416D01*
X238386829Y-74271419D01*
X238386830Y-74271420D01*
X238400995Y-74285585D01*
X238413627Y-74300375D01*
X238425406Y-74316587D01*
X238459058Y-74344426D01*
X238467699Y-74352289D01*
X238703729Y-74588319D01*
X238737214Y-74649642D01*
X238732230Y-74719334D01*
X238690358Y-74775267D01*
X238624894Y-74799684D01*
X238616048Y-74800000D01*
X237774500Y-74800000D01*
X237707461Y-74780315D01*
X237661706Y-74727511D01*
X237650500Y-74676000D01*
X237650500Y-66535452D01*
X237670185Y-66468413D01*
X237686819Y-66447771D01*
X238447772Y-65686819D01*
X238509095Y-65653334D01*
X238535453Y-65650500D01*
X238594648Y-65650500D01*
X238730333Y-65621659D01*
X238779803Y-65611144D01*
X238952730Y-65534151D01*
X239105870Y-65422889D01*
X239208350Y-65309074D01*
X239267837Y-65272425D01*
X239337694Y-65273756D01*
G37*
G04 #@! TD.AperFunction*
G04 #@! TA.AperFunction,Conductor*
G36*
X225386425Y-63652072D02*
G01*
X225437534Y-63579080D01*
X225533666Y-63372925D01*
X225580724Y-63197305D01*
X225617089Y-63137644D01*
X225679936Y-63107115D01*
X225749311Y-63115410D01*
X225803189Y-63159895D01*
X225824464Y-63226447D01*
X225824499Y-63229398D01*
X225824499Y-69504150D01*
X225804814Y-69571189D01*
X225752010Y-69616944D01*
X225682852Y-69626888D01*
X225619296Y-69597863D01*
X225612818Y-69591831D01*
X223844219Y-67823232D01*
X223810734Y-67761909D01*
X223807900Y-67735551D01*
X223807900Y-64300219D01*
X223827585Y-64233180D01*
X223880389Y-64187425D01*
X223949547Y-64177481D01*
X223963994Y-64180444D01*
X224080797Y-64211741D01*
X224307399Y-64231566D01*
X224534002Y-64211741D01*
X224753726Y-64152866D01*
X224959880Y-64056734D01*
X225032872Y-64005625D01*
X224351800Y-63324553D01*
X224432548Y-63311765D01*
X224545445Y-63254241D01*
X224635041Y-63164645D01*
X224692565Y-63051748D01*
X224705353Y-62971000D01*
X225386425Y-63652072D01*
G37*
G04 #@! TD.AperFunction*
G04 #@! TA.AperFunction,Conductor*
G36*
X220925035Y-50192148D02*
G01*
X220982559Y-50305045D01*
X221072155Y-50394641D01*
X221185052Y-50452165D01*
X221265799Y-50464953D01*
X220584726Y-51146025D01*
X220584726Y-51146026D01*
X220657715Y-51197133D01*
X220863873Y-51293266D01*
X220986271Y-51326063D01*
X221045931Y-51362428D01*
X221076460Y-51425275D01*
X221068165Y-51494651D01*
X221023680Y-51548529D01*
X220986271Y-51565613D01*
X220838302Y-51605261D01*
X220632064Y-51701432D01*
X220445659Y-51831953D01*
X220284753Y-51992859D01*
X220154232Y-52179264D01*
X220068882Y-52362298D01*
X220022709Y-52414737D01*
X219955516Y-52433889D01*
X219888635Y-52413673D01*
X219843300Y-52360508D01*
X219832500Y-52309893D01*
X219832500Y-50516838D01*
X219852185Y-50449799D01*
X219904989Y-50404044D01*
X219974147Y-50394100D01*
X220037703Y-50423125D01*
X220075477Y-50481903D01*
X220076275Y-50484745D01*
X220083933Y-50513325D01*
X220180066Y-50719484D01*
X220231172Y-50792471D01*
X220231173Y-50792472D01*
X220912246Y-50111399D01*
X220925035Y-50192148D01*
G37*
G04 #@! TD.AperFunction*
G04 #@! TA.AperFunction,Conductor*
G36*
X222389225Y-50792472D02*
G01*
X222440334Y-50719480D01*
X222536466Y-50513326D01*
X222567125Y-50398908D01*
X222603490Y-50339248D01*
X222666337Y-50308719D01*
X222735713Y-50317014D01*
X222789591Y-50361499D01*
X222810865Y-50428051D01*
X222810900Y-50431002D01*
X222810900Y-51751256D01*
X222808635Y-51771766D01*
X222810839Y-51841872D01*
X222810900Y-51845767D01*
X222810900Y-51873350D01*
X222811388Y-51877219D01*
X222811389Y-51877225D01*
X222811404Y-51877343D01*
X222812318Y-51888967D01*
X222813690Y-51932626D01*
X222819279Y-51951860D01*
X222823225Y-51970916D01*
X222825735Y-51990792D01*
X222841814Y-52031404D01*
X222845597Y-52042451D01*
X222857782Y-52084391D01*
X222867980Y-52101635D01*
X222876536Y-52119100D01*
X222883914Y-52137732D01*
X222883915Y-52137733D01*
X222909580Y-52173059D01*
X222915993Y-52182822D01*
X222938226Y-52220416D01*
X222938229Y-52220419D01*
X222938230Y-52220420D01*
X222952395Y-52234585D01*
X222965027Y-52249375D01*
X222976806Y-52265587D01*
X222999688Y-52284516D01*
X223010457Y-52293425D01*
X223019087Y-52301277D01*
X223134987Y-52417178D01*
X223168471Y-52478500D01*
X223167080Y-52536950D01*
X223148764Y-52605307D01*
X223128931Y-52832000D01*
X223148764Y-53058690D01*
X223167080Y-53127047D01*
X223165417Y-53196897D01*
X223134986Y-53246821D01*
X222866208Y-53515599D01*
X222850110Y-53528496D01*
X222802096Y-53579625D01*
X222799392Y-53582416D01*
X222782628Y-53599180D01*
X222782621Y-53599187D01*
X222779880Y-53601929D01*
X222777499Y-53604997D01*
X222777490Y-53605008D01*
X222777411Y-53605111D01*
X222769842Y-53613972D01*
X222739935Y-53645820D01*
X222730285Y-53663374D01*
X222719609Y-53679628D01*
X222707326Y-53695463D01*
X222689975Y-53735558D01*
X222684838Y-53746044D01*
X222663802Y-53784307D01*
X222658821Y-53803709D01*
X222652520Y-53822111D01*
X222644561Y-53840502D01*
X222637728Y-53883642D01*
X222635360Y-53895074D01*
X222624500Y-53937377D01*
X222624500Y-53957416D01*
X222622972Y-53976814D01*
X222619840Y-53996596D01*
X222621542Y-54014598D01*
X222623950Y-54040073D01*
X222624500Y-54051743D01*
X222624500Y-54624659D01*
X222604815Y-54691698D01*
X222552011Y-54737453D01*
X222482853Y-54747397D01*
X222419297Y-54718372D01*
X222398925Y-54695782D01*
X222284846Y-54532859D01*
X222123940Y-54371953D01*
X221937533Y-54241431D01*
X221879525Y-54214382D01*
X221827085Y-54168210D01*
X221807933Y-54101017D01*
X221828148Y-54034135D01*
X221879525Y-53989618D01*
X221937534Y-53962568D01*
X222123939Y-53832047D01*
X222284847Y-53671139D01*
X222415368Y-53484734D01*
X222511539Y-53278496D01*
X222570435Y-53058692D01*
X222590268Y-52832000D01*
X222570435Y-52605308D01*
X222511539Y-52385504D01*
X222415368Y-52179266D01*
X222387864Y-52139985D01*
X222284846Y-51992859D01*
X222123940Y-51831953D01*
X221937535Y-51701432D01*
X221731297Y-51605261D01*
X221608728Y-51572419D01*
X221549068Y-51536054D01*
X221518539Y-51473207D01*
X221526834Y-51403831D01*
X221571319Y-51349953D01*
X221608728Y-51332869D01*
X221756527Y-51293266D01*
X221962680Y-51197134D01*
X222035672Y-51146025D01*
X221354601Y-50464953D01*
X221435348Y-50452165D01*
X221548245Y-50394641D01*
X221637841Y-50305045D01*
X221695365Y-50192148D01*
X221708153Y-50111400D01*
X222389225Y-50792472D01*
G37*
G04 #@! TD.AperFunction*
G04 #@! TA.AperFunction,Conductor*
G36*
X220037703Y-47885057D02*
G01*
X220075477Y-47943835D01*
X220076275Y-47946677D01*
X220083461Y-47973496D01*
X220179632Y-48179735D01*
X220310153Y-48366140D01*
X220471059Y-48527046D01*
X220657464Y-48657567D01*
X220657465Y-48657567D01*
X220657466Y-48657568D01*
X220716065Y-48684893D01*
X220768504Y-48731065D01*
X220787656Y-48798259D01*
X220767440Y-48865140D01*
X220716065Y-48909657D01*
X220657717Y-48936865D01*
X220584726Y-48987973D01*
X221265798Y-49669046D01*
X221185052Y-49681835D01*
X221072155Y-49739359D01*
X220982559Y-49828955D01*
X220925035Y-49941852D01*
X220912246Y-50022598D01*
X220231173Y-49341527D01*
X220180065Y-49414516D01*
X220083933Y-49620673D01*
X220076275Y-49649255D01*
X220039910Y-49708915D01*
X219977062Y-49739444D01*
X219907687Y-49731149D01*
X219853809Y-49686664D01*
X219832535Y-49620111D01*
X219832500Y-49617161D01*
X219832500Y-47978770D01*
X219852185Y-47911731D01*
X219904989Y-47865976D01*
X219974147Y-47856032D01*
X220037703Y-47885057D01*
G37*
G04 #@! TD.AperFunction*
G04 #@! TA.AperFunction,Conductor*
G36*
X235576665Y-41335748D02*
G01*
X235621182Y-41387125D01*
X235648231Y-41445133D01*
X235778753Y-41631540D01*
X235939659Y-41792446D01*
X236100423Y-41905013D01*
X236144048Y-41959589D01*
X236153300Y-42006588D01*
X236153299Y-43413658D01*
X236133614Y-43480698D01*
X236080810Y-43526452D01*
X236011652Y-43536396D01*
X235948096Y-43507371D01*
X235916916Y-43466062D01*
X235876931Y-43380313D01*
X235825825Y-43307326D01*
X235144753Y-43988397D01*
X235131965Y-43907652D01*
X235074441Y-43794755D01*
X234984845Y-43705159D01*
X234871948Y-43647635D01*
X234791200Y-43634846D01*
X235472272Y-42953774D01*
X235472271Y-42953772D01*
X235399284Y-42902666D01*
X235193126Y-42806533D01*
X234973402Y-42747658D01*
X234746799Y-42727833D01*
X234520197Y-42747658D01*
X234300472Y-42806533D01*
X234094316Y-42902665D01*
X234021327Y-42953773D01*
X234021326Y-42953773D01*
X234702400Y-43634846D01*
X234621652Y-43647635D01*
X234508755Y-43705159D01*
X234419159Y-43794755D01*
X234361635Y-43907652D01*
X234348846Y-43988399D01*
X233667773Y-43307326D01*
X233667773Y-43307327D01*
X233616665Y-43380316D01*
X233520533Y-43586472D01*
X233461658Y-43806197D01*
X233441833Y-44032799D01*
X233461658Y-44259402D01*
X233520533Y-44479126D01*
X233616666Y-44685284D01*
X233667772Y-44758271D01*
X233667774Y-44758272D01*
X234348846Y-44077199D01*
X234361635Y-44157948D01*
X234419159Y-44270845D01*
X234508755Y-44360441D01*
X234621652Y-44417965D01*
X234702399Y-44430753D01*
X234021326Y-45111825D01*
X234021326Y-45111826D01*
X234094315Y-45162933D01*
X234300473Y-45259066D01*
X234520197Y-45317941D01*
X234746800Y-45337766D01*
X234973402Y-45317941D01*
X235193126Y-45259066D01*
X235399280Y-45162934D01*
X235472272Y-45111825D01*
X234791201Y-44430753D01*
X234871948Y-44417965D01*
X234984845Y-44360441D01*
X235074441Y-44270845D01*
X235131965Y-44157948D01*
X235144753Y-44077199D01*
X235825825Y-44758272D01*
X235876934Y-44685281D01*
X235916916Y-44599538D01*
X235963088Y-44547098D01*
X236030281Y-44527945D01*
X236097163Y-44548160D01*
X236142498Y-44601325D01*
X236153299Y-44651941D01*
X236153300Y-48412475D01*
X236133615Y-48479514D01*
X236080811Y-48525269D01*
X236011653Y-48535213D01*
X235948097Y-48506188D01*
X235916918Y-48464880D01*
X235893071Y-48413741D01*
X235877368Y-48380066D01*
X235802002Y-48272431D01*
X235746846Y-48193659D01*
X235585940Y-48032753D01*
X235399535Y-47902232D01*
X235193297Y-47806061D01*
X234973489Y-47747164D01*
X234746800Y-47727331D01*
X234520110Y-47747164D01*
X234300302Y-47806061D01*
X234094064Y-47902232D01*
X233907659Y-48032753D01*
X233746753Y-48193659D01*
X233686702Y-48279423D01*
X233632126Y-48323048D01*
X233585127Y-48332300D01*
X232797921Y-48332300D01*
X232790434Y-48332074D01*
X232730391Y-48328441D01*
X232671227Y-48339283D01*
X232663828Y-48340410D01*
X232604124Y-48347660D01*
X232594651Y-48351253D01*
X232573047Y-48357276D01*
X232563069Y-48359105D01*
X232508212Y-48383793D01*
X232501296Y-48386657D01*
X232445070Y-48407981D01*
X232436726Y-48413741D01*
X232417143Y-48424781D01*
X232416120Y-48425241D01*
X232346905Y-48434781D01*
X232283519Y-48405386D01*
X232246088Y-48346389D01*
X232241739Y-48322955D01*
X232238167Y-48282126D01*
X232222435Y-48102308D01*
X232163539Y-47882504D01*
X232067368Y-47676266D01*
X232022362Y-47611989D01*
X231936846Y-47489859D01*
X231911864Y-47464877D01*
X231878379Y-47403554D01*
X231883363Y-47333862D01*
X231911862Y-47289518D01*
X232445588Y-46755792D01*
X232461685Y-46742897D01*
X232463673Y-46740778D01*
X232463677Y-46740777D01*
X232509749Y-46691714D01*
X232512334Y-46689046D01*
X232531920Y-46669462D01*
X232534385Y-46666283D01*
X232541967Y-46657407D01*
X232542153Y-46657209D01*
X232571862Y-46625573D01*
X232581517Y-46608009D01*
X232592194Y-46591755D01*
X232604473Y-46575927D01*
X232621818Y-46535843D01*
X232626960Y-46525347D01*
X232647997Y-46487083D01*
X232652979Y-46467675D01*
X232659281Y-46449271D01*
X232667237Y-46430887D01*
X232674069Y-46387743D01*
X232676433Y-46376329D01*
X232687300Y-46334010D01*
X232687300Y-46313973D01*
X232688827Y-46294575D01*
X232689328Y-46291410D01*
X232691960Y-46274795D01*
X232687850Y-46231315D01*
X232687300Y-46219646D01*
X232687300Y-41688861D01*
X232706985Y-41621822D01*
X232723619Y-41601180D01*
X232811613Y-41513186D01*
X232910324Y-41414474D01*
X232971645Y-41380991D01*
X233041336Y-41385975D01*
X233097270Y-41427846D01*
X233104019Y-41439118D01*
X233238753Y-41631540D01*
X233399659Y-41792446D01*
X233586064Y-41922967D01*
X233586065Y-41922967D01*
X233586066Y-41922968D01*
X233792304Y-42019139D01*
X234012108Y-42078035D01*
X234238800Y-42097868D01*
X234465492Y-42078035D01*
X234685296Y-42019139D01*
X234891534Y-41922968D01*
X235077939Y-41792447D01*
X235238847Y-41631539D01*
X235369368Y-41445134D01*
X235396418Y-41387124D01*
X235442590Y-41334685D01*
X235509783Y-41315533D01*
X235576665Y-41335748D01*
G37*
G04 #@! TD.AperFunction*
M02*
