M48
; DRILL file {KiCad 7.0.2-0} date 2023 October 25, Wednesday 22:44:15
; FORMAT={-:-/ absolute / metric / decimal}
; #@! TF.CreationDate,2023-10-25T22:44:15+02:00
; #@! TF.GenerationSoftware,Kicad,Pcbnew,7.0.2-0
; #@! TF.FileFunction,Plated,1,2,PTH
FMAT,2
METRIC
; #@! TA.AperFunction,Plated,PTH,ViaDrill
T1C0.400
; #@! TA.AperFunction,Plated,PTH,ComponentDrill
T2C0.600
; #@! TA.AperFunction,Plated,PTH,ComponentDrill
T3C0.800
; #@! TA.AperFunction,Plated,PTH,ComponentDrill
T4C1.000
; #@! TA.AperFunction,Plated,PTH,ComponentDrill
T5C1.100
; #@! TA.AperFunction,Plated,PTH,ComponentDrill
T6C1.220
; #@! TA.AperFunction,Plated,PTH,ComponentDrill
T7C1.300
; #@! TA.AperFunction,Plated,PTH,ComponentDrill
T8C1.420
; #@! TA.AperFunction,Plated,PTH,ComponentDrill
T9C1.430
%
G90
G05
T1
X215.0Y-47.25
X219.931Y-46.25
X222.75Y-86.0
X223.25Y-73.75
X223.75Y-89.5
X224.988Y-71.512
X225.5Y-60.25
X225.5Y-68.5
X226.0Y-72.5
X227.0Y-81.75
X227.75Y-37.75
X228.5Y-85.25
X228.75Y-71.25
X229.25Y-54.75
X229.25Y-57.0
X230.0Y-87.25
X234.0Y-98.5
X235.75Y-74.5
X238.0Y-71.25
X238.5Y-64.75
X239.0Y-87.25
X239.0Y-90.75
X239.25Y-80.75
X239.75Y-113.25
T2
X225.196Y-78.518
X225.196Y-80.518
X229.845Y-78.467
X229.845Y-80.467
T3
X204.343Y-58.903
X204.372Y-62.001
X204.394Y-71.236
X204.394Y-76.236
X204.851Y-40.767
X204.873Y-53.772
X205.145Y-79.172
X205.867Y-44.653
X205.867Y-47.193
X205.867Y-49.733
X206.883Y-58.903
X206.912Y-62.001
X207.391Y-40.767
X207.413Y-53.772
X210.145Y-79.172
X210.312Y-42.189
X210.312Y-44.729
X210.312Y-47.269
X210.312Y-49.809
X210.312Y-52.349
X210.312Y-54.889
X210.312Y-57.429
X210.312Y-59.969
X211.47Y-62.636
X212.805Y-79.146
X214.198Y-50.089
X214.198Y-52.629
X214.198Y-56.265
X214.198Y-58.805
X215.345Y-79.146
X216.47Y-62.636
X217.932Y-42.189
X217.932Y-44.729
X217.932Y-47.269
X217.932Y-49.809
X217.932Y-52.349
X217.932Y-54.889
X217.932Y-57.429
X217.932Y-59.969
X218.669Y-79.223
X218.919Y-33.172
X219.802Y-37.668
X221.132Y-59.109
X221.132Y-61.649
X221.209Y-79.223
X221.285Y-52.832
X221.285Y-55.372
X221.31Y-47.527
X221.31Y-50.067
X221.336Y-42.033
X221.336Y-44.573
X221.459Y-33.172
X222.342Y-37.668
X224.307Y-57.927
X224.307Y-62.927
X224.434Y-52.832
X224.434Y-55.372
X224.46Y-42.012
X224.46Y-44.552
X224.561Y-47.502
X224.561Y-50.042
X224.882Y-37.668
X227.609Y-48.227
X227.609Y-50.767
X227.635Y-53.612
X227.635Y-56.152
X227.635Y-58.877
X227.635Y-61.417
X227.66Y-42.498
X227.66Y-45.038
X228.927Y-39.903
X230.73Y-61.849
X230.937Y-43.249
X230.937Y-45.789
X230.937Y-48.329
X230.937Y-50.869
X230.937Y-53.409
X230.937Y-55.949
X230.937Y-58.489
X231.467Y-39.903
X231.75Y-93.5
X232.005Y-108.0
X232.25Y-89.0
X233.27Y-61.849
X233.364Y-79.096
X234.239Y-40.792
X234.545Y-108.0
X234.747Y-44.033
X234.747Y-49.033
X234.79Y-89.0
X234.798Y-52.763
X234.798Y-57.763
X235.25Y-82.5
X235.25Y-85.04
X235.966Y-61.798
X236.75Y-93.5
X236.779Y-40.792
X237.33Y-89.0
X238.25Y-82.455
X238.25Y-84.995
X238.364Y-79.096
X238.506Y-61.798
X238.557Y-43.249
X238.557Y-45.789
X238.557Y-48.329
X238.557Y-50.869
X238.557Y-53.409
X238.557Y-55.949
X238.557Y-58.489
X241.5Y-78.5
X241.5Y-83.5
X241.5Y-85.75
X241.5Y-88.29
X241.5Y-91.074
X241.5Y-93.614
X241.681Y-46.863
X241.681Y-49.403
X241.681Y-52.099
X241.681Y-54.639
X241.732Y-41.685
X241.732Y-44.225
X241.75Y-57.71
X241.75Y-60.25
T4
X208.32Y-38.107
X208.32Y-76.2
X208.763Y-88.189
X208.763Y-90.729
X210.82Y-38.107
X210.82Y-76.2
X211.303Y-88.189
X211.303Y-90.729
X213.32Y-38.107
X213.32Y-76.2
X213.843Y-88.189
X213.843Y-90.729
X216.383Y-88.189
X216.383Y-90.729
X218.923Y-88.189
X218.923Y-90.729
X221.02Y-76.2
X223.52Y-76.2
X226.02Y-76.2
X233.72Y-38.107
X233.72Y-76.2
X236.22Y-38.107
X236.22Y-76.2
X238.72Y-38.107
X238.72Y-76.2
T5
X204.876Y-82.728
X212.496Y-82.728
X215.316Y-82.728
X222.936Y-82.728
T6
X208.229Y-108.123
X208.229Y-122.525
X218.237Y-108.123
X218.237Y-122.525
X228.143Y-108.123
X228.143Y-122.525
X238.15Y-108.123
X238.15Y-122.525
T8
X208.229Y-105.023
X208.229Y-119.425
X218.237Y-105.023
X218.237Y-119.425
X228.143Y-105.023
X228.143Y-119.425
X238.15Y-105.023
X238.15Y-119.425
T9
X208.229Y-96.723
X208.229Y-111.125
X218.237Y-96.723
X218.237Y-111.125
X228.143Y-96.723
X228.143Y-111.125
X238.15Y-96.723
X238.15Y-111.125
T4
X219.514Y-30.034G85X219.514Y-28.834
G05
X223.528Y-30.034G85X223.528Y-28.834
G05
X226.278Y-83.777G85X227.478Y-83.777
G05
X226.278Y-87.79G85X227.478Y-87.79
G05
X226.278Y-91.854G85X227.478Y-91.854
G05
X227.592Y-30.034G85X227.592Y-28.834
G05
T7
X206.02Y-30.157G85X206.02Y-31.057
G05
X206.02Y-68.25G85X206.02Y-69.15
G05
X215.62Y-30.157G85X215.62Y-31.057
G05
X215.62Y-68.25G85X215.62Y-69.15
G05
X218.72Y-68.25G85X218.72Y-69.15
G05
X228.32Y-68.25G85X228.32Y-69.15
G05
X231.42Y-30.157G85X231.42Y-31.057
G05
X231.42Y-68.25G85X231.42Y-69.15
G05
X241.02Y-30.157G85X241.02Y-31.057
G05
X241.02Y-68.25G85X241.02Y-69.15
G05
T0
M30
