%TF.GenerationSoftware,KiCad,Pcbnew,7.0.2-0*%
%TF.CreationDate,2023-10-25T22:44:16+02:00*%
%TF.ProjectId,3340_vco,33333430-5f76-4636-9f2e-6b696361645f,rev?*%
%TF.SameCoordinates,Original*%
%TF.FileFunction,Drillmap*%
%TF.FilePolarity,Positive*%
%FSLAX45Y45*%
G04 Gerber Fmt 4.5, Leading zero omitted, Abs format (unit mm)*
G04 Created by KiCad (PCBNEW 7.0.2-0) date 2023-10-25 22:44:16*
%MOMM*%
%LPD*%
G01*
G04 APERTURE LIST*
%ADD10C,0.100000*%
%ADD11C,0.200000*%
%ADD12C,0.040000*%
%ADD13C,0.060000*%
%ADD14C,0.080000*%
%ADD15C,0.110000*%
%ADD16C,0.122000*%
%ADD17C,0.130000*%
%ADD18C,0.142000*%
%ADD19C,0.143000*%
G04 APERTURE END LIST*
D10*
X20320000Y-2540000D02*
X20320000Y-12420600D01*
X24320000Y-2540000D02*
X24320000Y-12420600D01*
X20320000Y-12420600D02*
X24320000Y-12420600D01*
X20320000Y-2540000D02*
X24320000Y-2540000D01*
D11*
D12*
X21480000Y-4705000D02*
X21520000Y-4745000D01*
X21520000Y-4705000D02*
X21480000Y-4745000D01*
X21973150Y-4605000D02*
X22013150Y-4645000D01*
X22013150Y-4605000D02*
X21973150Y-4645000D01*
X22255000Y-8580000D02*
X22295000Y-8620000D01*
X22295000Y-8580000D02*
X22255000Y-8620000D01*
X22305000Y-7355000D02*
X22345000Y-7395000D01*
X22345000Y-7355000D02*
X22305000Y-7395000D01*
X22355000Y-8930000D02*
X22395000Y-8970000D01*
X22395000Y-8930000D02*
X22355000Y-8970000D01*
X22478770Y-7131230D02*
X22518770Y-7171230D01*
X22518770Y-7131230D02*
X22478770Y-7171230D01*
X22530000Y-6005000D02*
X22570000Y-6045000D01*
X22570000Y-6005000D02*
X22530000Y-6045000D01*
X22530000Y-6830000D02*
X22570000Y-6870000D01*
X22570000Y-6830000D02*
X22530000Y-6870000D01*
X22580000Y-7230000D02*
X22620000Y-7270000D01*
X22620000Y-7230000D02*
X22580000Y-7270000D01*
X22680000Y-8155000D02*
X22720000Y-8195000D01*
X22720000Y-8155000D02*
X22680000Y-8195000D01*
X22755000Y-3755000D02*
X22795000Y-3795000D01*
X22795000Y-3755000D02*
X22755000Y-3795000D01*
X22830000Y-8505000D02*
X22870000Y-8545000D01*
X22870000Y-8505000D02*
X22830000Y-8545000D01*
X22855000Y-7105000D02*
X22895000Y-7145000D01*
X22895000Y-7105000D02*
X22855000Y-7145000D01*
X22905000Y-5455000D02*
X22945000Y-5495000D01*
X22945000Y-5455000D02*
X22905000Y-5495000D01*
X22905000Y-5680000D02*
X22945000Y-5720000D01*
X22945000Y-5680000D02*
X22905000Y-5720000D01*
X22980000Y-8705000D02*
X23020000Y-8745000D01*
X23020000Y-8705000D02*
X22980000Y-8745000D01*
X23380000Y-9830000D02*
X23420000Y-9870000D01*
X23420000Y-9830000D02*
X23380000Y-9870000D01*
X23555000Y-7430000D02*
X23595000Y-7470000D01*
X23595000Y-7430000D02*
X23555000Y-7470000D01*
X23780000Y-7105000D02*
X23820000Y-7145000D01*
X23820000Y-7105000D02*
X23780000Y-7145000D01*
X23830000Y-6455000D02*
X23870000Y-6495000D01*
X23870000Y-6455000D02*
X23830000Y-6495000D01*
X23880000Y-8705000D02*
X23920000Y-8745000D01*
X23920000Y-8705000D02*
X23880000Y-8745000D01*
X23880000Y-9055000D02*
X23920000Y-9095000D01*
X23920000Y-9055000D02*
X23880000Y-9095000D01*
X23905000Y-8055000D02*
X23945000Y-8095000D01*
X23945000Y-8055000D02*
X23905000Y-8095000D01*
X23955000Y-11305000D02*
X23995000Y-11345000D01*
X23995000Y-11305000D02*
X23955000Y-11345000D01*
D13*
X22549640Y-7851800D02*
G75*
G03*
X22549640Y-7851800I-30000J0D01*
G01*
X22549640Y-8051800D02*
G75*
G03*
X22549640Y-8051800I-30000J0D01*
G01*
X23014460Y-7846720D02*
G75*
G03*
X23014460Y-7846720I-30000J0D01*
G01*
X23014460Y-8046720D02*
G75*
G03*
X23014460Y-8046720I-30000J0D01*
G01*
D14*
X20434300Y-5850260D02*
X20434300Y-5930260D01*
X20394300Y-5890260D02*
X20474300Y-5890260D01*
X20437200Y-6160140D02*
X20437200Y-6240140D01*
X20397200Y-6200140D02*
X20477200Y-6200140D01*
X20439380Y-7083620D02*
X20439380Y-7163620D01*
X20399380Y-7123620D02*
X20479380Y-7123620D01*
X20439380Y-7583620D02*
X20439380Y-7663620D01*
X20399380Y-7623620D02*
X20479380Y-7623620D01*
X20485100Y-4036700D02*
X20485100Y-4116700D01*
X20445100Y-4076700D02*
X20525100Y-4076700D01*
X20487280Y-5337180D02*
X20487280Y-5417180D01*
X20447280Y-5377180D02*
X20527280Y-5377180D01*
X20514500Y-7877180D02*
X20514500Y-7957180D01*
X20474500Y-7917180D02*
X20554500Y-7917180D01*
X20586700Y-4425320D02*
X20586700Y-4505320D01*
X20546700Y-4465320D02*
X20626700Y-4465320D01*
X20586700Y-4679320D02*
X20586700Y-4759320D01*
X20546700Y-4719320D02*
X20626700Y-4719320D01*
X20586700Y-4933320D02*
X20586700Y-5013320D01*
X20546700Y-4973320D02*
X20626700Y-4973320D01*
X20688300Y-5850260D02*
X20688300Y-5930260D01*
X20648300Y-5890260D02*
X20728300Y-5890260D01*
X20691200Y-6160140D02*
X20691200Y-6240140D01*
X20651200Y-6200140D02*
X20731200Y-6200140D01*
X20739100Y-4036700D02*
X20739100Y-4116700D01*
X20699100Y-4076700D02*
X20779100Y-4076700D01*
X20741280Y-5337180D02*
X20741280Y-5417180D01*
X20701280Y-5377180D02*
X20781280Y-5377180D01*
X21014500Y-7877180D02*
X21014500Y-7957180D01*
X20974500Y-7917180D02*
X21054500Y-7917180D01*
X21031200Y-4178940D02*
X21031200Y-4258940D01*
X20991200Y-4218940D02*
X21071200Y-4218940D01*
X21031200Y-4432940D02*
X21031200Y-4512940D01*
X20991200Y-4472940D02*
X21071200Y-4472940D01*
X21031200Y-4686940D02*
X21031200Y-4766940D01*
X20991200Y-4726940D02*
X21071200Y-4726940D01*
X21031200Y-4940940D02*
X21031200Y-5020940D01*
X20991200Y-4980940D02*
X21071200Y-4980940D01*
X21031200Y-5194940D02*
X21031200Y-5274940D01*
X20991200Y-5234940D02*
X21071200Y-5234940D01*
X21031200Y-5448940D02*
X21031200Y-5528940D01*
X20991200Y-5488940D02*
X21071200Y-5488940D01*
X21031200Y-5702940D02*
X21031200Y-5782940D01*
X20991200Y-5742940D02*
X21071200Y-5742940D01*
X21031200Y-5956940D02*
X21031200Y-6036940D01*
X20991200Y-5996940D02*
X21071200Y-5996940D01*
X21146960Y-6223640D02*
X21146960Y-6303640D01*
X21106960Y-6263640D02*
X21186960Y-6263640D01*
X21280480Y-7874640D02*
X21280480Y-7954640D01*
X21240480Y-7914640D02*
X21320480Y-7914640D01*
X21419820Y-4968880D02*
X21419820Y-5048880D01*
X21379820Y-5008880D02*
X21459820Y-5008880D01*
X21419820Y-5222880D02*
X21419820Y-5302880D01*
X21379820Y-5262880D02*
X21459820Y-5262880D01*
X21419820Y-5586460D02*
X21419820Y-5666460D01*
X21379820Y-5626460D02*
X21459820Y-5626460D01*
X21419820Y-5840460D02*
X21419820Y-5920460D01*
X21379820Y-5880460D02*
X21459820Y-5880460D01*
X21534480Y-7874640D02*
X21534480Y-7954640D01*
X21494480Y-7914640D02*
X21574480Y-7914640D01*
X21646960Y-6223640D02*
X21646960Y-6303640D01*
X21606960Y-6263640D02*
X21686960Y-6263640D01*
X21793200Y-4178940D02*
X21793200Y-4258940D01*
X21753200Y-4218940D02*
X21833200Y-4218940D01*
X21793200Y-4432940D02*
X21793200Y-4512940D01*
X21753200Y-4472940D02*
X21833200Y-4472940D01*
X21793200Y-4686940D02*
X21793200Y-4766940D01*
X21753200Y-4726940D02*
X21833200Y-4726940D01*
X21793200Y-4940940D02*
X21793200Y-5020940D01*
X21753200Y-4980940D02*
X21833200Y-4980940D01*
X21793200Y-5194940D02*
X21793200Y-5274940D01*
X21753200Y-5234940D02*
X21833200Y-5234940D01*
X21793200Y-5448940D02*
X21793200Y-5528940D01*
X21753200Y-5488940D02*
X21833200Y-5488940D01*
X21793200Y-5702940D02*
X21793200Y-5782940D01*
X21753200Y-5742940D02*
X21833200Y-5742940D01*
X21793200Y-5956940D02*
X21793200Y-6036940D01*
X21753200Y-5996940D02*
X21833200Y-5996940D01*
X21866860Y-7882260D02*
X21866860Y-7962260D01*
X21826860Y-7922260D02*
X21906860Y-7922260D01*
X21891900Y-3277240D02*
X21891900Y-3357240D01*
X21851900Y-3317240D02*
X21931900Y-3317240D01*
X21980160Y-3726820D02*
X21980160Y-3806820D01*
X21940160Y-3766820D02*
X22020160Y-3766820D01*
X22113240Y-5870940D02*
X22113240Y-5950940D01*
X22073240Y-5910940D02*
X22153240Y-5910940D01*
X22113240Y-6124940D02*
X22113240Y-6204940D01*
X22073240Y-6164940D02*
X22153240Y-6164940D01*
X22120860Y-7882260D02*
X22120860Y-7962260D01*
X22080860Y-7922260D02*
X22160860Y-7922260D01*
X22128480Y-5243200D02*
X22128480Y-5323200D01*
X22088480Y-5283200D02*
X22168480Y-5283200D01*
X22128480Y-5497200D02*
X22128480Y-5577200D01*
X22088480Y-5537200D02*
X22168480Y-5537200D01*
X22131020Y-4712700D02*
X22131020Y-4792700D01*
X22091020Y-4752700D02*
X22171020Y-4752700D01*
X22131020Y-4966700D02*
X22131020Y-5046700D01*
X22091020Y-5006700D02*
X22171020Y-5006700D01*
X22133560Y-4163340D02*
X22133560Y-4243340D01*
X22093560Y-4203340D02*
X22173560Y-4203340D01*
X22133560Y-4417340D02*
X22133560Y-4497340D01*
X22093560Y-4457340D02*
X22173560Y-4457340D01*
X22145900Y-3277240D02*
X22145900Y-3357240D01*
X22105900Y-3317240D02*
X22185900Y-3317240D01*
X22234160Y-3726820D02*
X22234160Y-3806820D01*
X22194160Y-3766820D02*
X22274160Y-3766820D01*
X22430740Y-5752660D02*
X22430740Y-5832660D01*
X22390740Y-5792660D02*
X22470740Y-5792660D01*
X22430740Y-6252660D02*
X22430740Y-6332660D01*
X22390740Y-6292660D02*
X22470740Y-6292660D01*
X22443440Y-5243200D02*
X22443440Y-5323200D01*
X22403440Y-5283200D02*
X22483440Y-5283200D01*
X22443440Y-5497200D02*
X22443440Y-5577200D01*
X22403440Y-5537200D02*
X22483440Y-5537200D01*
X22445980Y-4161160D02*
X22445980Y-4241160D01*
X22405980Y-4201160D02*
X22485980Y-4201160D01*
X22445980Y-4415160D02*
X22445980Y-4495160D01*
X22405980Y-4455160D02*
X22485980Y-4455160D01*
X22456140Y-4710160D02*
X22456140Y-4790160D01*
X22416140Y-4750160D02*
X22496140Y-4750160D01*
X22456140Y-4964160D02*
X22456140Y-5044160D01*
X22416140Y-5004160D02*
X22496140Y-5004160D01*
X22488160Y-3726820D02*
X22488160Y-3806820D01*
X22448160Y-3766820D02*
X22528160Y-3766820D01*
X22760940Y-4782740D02*
X22760940Y-4862740D01*
X22720940Y-4822740D02*
X22800940Y-4822740D01*
X22760940Y-5036740D02*
X22760940Y-5116740D01*
X22720940Y-5076740D02*
X22800940Y-5076740D01*
X22763480Y-5321220D02*
X22763480Y-5401220D01*
X22723480Y-5361220D02*
X22803480Y-5361220D01*
X22763480Y-5575220D02*
X22763480Y-5655220D01*
X22723480Y-5615220D02*
X22803480Y-5615220D01*
X22763480Y-5847720D02*
X22763480Y-5927720D01*
X22723480Y-5887720D02*
X22803480Y-5887720D01*
X22763480Y-6101720D02*
X22763480Y-6181720D01*
X22723480Y-6141720D02*
X22803480Y-6141720D01*
X22766020Y-4209780D02*
X22766020Y-4289780D01*
X22726020Y-4249780D02*
X22806020Y-4249780D01*
X22766020Y-4463780D02*
X22766020Y-4543780D01*
X22726020Y-4503780D02*
X22806020Y-4503780D01*
X22892660Y-3950340D02*
X22892660Y-4030340D01*
X22852660Y-3990340D02*
X22932660Y-3990340D01*
X23073000Y-6144900D02*
X23073000Y-6224900D01*
X23033000Y-6184900D02*
X23113000Y-6184900D01*
X23093680Y-4284900D02*
X23093680Y-4364900D01*
X23053680Y-4324900D02*
X23133680Y-4324900D01*
X23093680Y-4538900D02*
X23093680Y-4618900D01*
X23053680Y-4578900D02*
X23133680Y-4578900D01*
X23093680Y-4792900D02*
X23093680Y-4872900D01*
X23053680Y-4832900D02*
X23133680Y-4832900D01*
X23093680Y-5046900D02*
X23093680Y-5126900D01*
X23053680Y-5086900D02*
X23133680Y-5086900D01*
X23093680Y-5300900D02*
X23093680Y-5380900D01*
X23053680Y-5340900D02*
X23133680Y-5340900D01*
X23093680Y-5554900D02*
X23093680Y-5634900D01*
X23053680Y-5594900D02*
X23133680Y-5594900D01*
X23093680Y-5808900D02*
X23093680Y-5888900D01*
X23053680Y-5848900D02*
X23133680Y-5848900D01*
X23146660Y-3950340D02*
X23146660Y-4030340D01*
X23106660Y-3990340D02*
X23186660Y-3990340D01*
X23175000Y-9310000D02*
X23175000Y-9390000D01*
X23135000Y-9350000D02*
X23215000Y-9350000D01*
X23200500Y-10760000D02*
X23200500Y-10840000D01*
X23160500Y-10800000D02*
X23240500Y-10800000D01*
X23225000Y-8860000D02*
X23225000Y-8940000D01*
X23185000Y-8900000D02*
X23265000Y-8900000D01*
X23327000Y-6144900D02*
X23327000Y-6224900D01*
X23287000Y-6184900D02*
X23367000Y-6184900D01*
X23336440Y-7869560D02*
X23336440Y-7949560D01*
X23296440Y-7909560D02*
X23376440Y-7909560D01*
X23423880Y-4039240D02*
X23423880Y-4119240D01*
X23383880Y-4079240D02*
X23463880Y-4079240D01*
X23454500Y-10760000D02*
X23454500Y-10840000D01*
X23414500Y-10800000D02*
X23494500Y-10800000D01*
X23474680Y-4363280D02*
X23474680Y-4443280D01*
X23434680Y-4403280D02*
X23514680Y-4403280D01*
X23474680Y-4863280D02*
X23474680Y-4943280D01*
X23434680Y-4903280D02*
X23514680Y-4903280D01*
X23479000Y-8860000D02*
X23479000Y-8940000D01*
X23439000Y-8900000D02*
X23519000Y-8900000D01*
X23479760Y-5236320D02*
X23479760Y-5316320D01*
X23439760Y-5276320D02*
X23519760Y-5276320D01*
X23479760Y-5736320D02*
X23479760Y-5816320D01*
X23439760Y-5776320D02*
X23519760Y-5776320D01*
X23525000Y-8210000D02*
X23525000Y-8290000D01*
X23485000Y-8250000D02*
X23565000Y-8250000D01*
X23525000Y-8464000D02*
X23525000Y-8544000D01*
X23485000Y-8504000D02*
X23565000Y-8504000D01*
X23596600Y-6139820D02*
X23596600Y-6219820D01*
X23556600Y-6179820D02*
X23636600Y-6179820D01*
X23675000Y-9310000D02*
X23675000Y-9390000D01*
X23635000Y-9350000D02*
X23715000Y-9350000D01*
X23677880Y-4039240D02*
X23677880Y-4119240D01*
X23637880Y-4079240D02*
X23717880Y-4079240D01*
X23733000Y-8860000D02*
X23733000Y-8940000D01*
X23693000Y-8900000D02*
X23773000Y-8900000D01*
X23825000Y-8205500D02*
X23825000Y-8285500D01*
X23785000Y-8245500D02*
X23865000Y-8245500D01*
X23825000Y-8459500D02*
X23825000Y-8539500D01*
X23785000Y-8499500D02*
X23865000Y-8499500D01*
X23836440Y-7869560D02*
X23836440Y-7949560D01*
X23796440Y-7909560D02*
X23876440Y-7909560D01*
X23850600Y-6139820D02*
X23850600Y-6219820D01*
X23810600Y-6179820D02*
X23890600Y-6179820D01*
X23855680Y-4284900D02*
X23855680Y-4364900D01*
X23815680Y-4324900D02*
X23895680Y-4324900D01*
X23855680Y-4538900D02*
X23855680Y-4618900D01*
X23815680Y-4578900D02*
X23895680Y-4578900D01*
X23855680Y-4792900D02*
X23855680Y-4872900D01*
X23815680Y-4832900D02*
X23895680Y-4832900D01*
X23855680Y-5046900D02*
X23855680Y-5126900D01*
X23815680Y-5086900D02*
X23895680Y-5086900D01*
X23855680Y-5300900D02*
X23855680Y-5380900D01*
X23815680Y-5340900D02*
X23895680Y-5340900D01*
X23855680Y-5554900D02*
X23855680Y-5634900D01*
X23815680Y-5594900D02*
X23895680Y-5594900D01*
X23855680Y-5808900D02*
X23855680Y-5888900D01*
X23815680Y-5848900D02*
X23895680Y-5848900D01*
X24150000Y-7810000D02*
X24150000Y-7890000D01*
X24110000Y-7850000D02*
X24190000Y-7850000D01*
X24150000Y-8310000D02*
X24150000Y-8390000D01*
X24110000Y-8350000D02*
X24190000Y-8350000D01*
X24150000Y-8535000D02*
X24150000Y-8615000D01*
X24110000Y-8575000D02*
X24190000Y-8575000D01*
X24150000Y-8789000D02*
X24150000Y-8869000D01*
X24110000Y-8829000D02*
X24190000Y-8829000D01*
X24150000Y-9067431D02*
X24150000Y-9147431D01*
X24110000Y-9107431D02*
X24190000Y-9107431D01*
X24150000Y-9321431D02*
X24150000Y-9401431D01*
X24110000Y-9361431D02*
X24190000Y-9361431D01*
X24168100Y-4646300D02*
X24168100Y-4726300D01*
X24128100Y-4686300D02*
X24208100Y-4686300D01*
X24168100Y-4900300D02*
X24168100Y-4980300D01*
X24128100Y-4940300D02*
X24208100Y-4940300D01*
X24168100Y-5169900D02*
X24168100Y-5249900D01*
X24128100Y-5209900D02*
X24208100Y-5209900D01*
X24168100Y-5423900D02*
X24168100Y-5503900D01*
X24128100Y-5463900D02*
X24208100Y-5463900D01*
X24173180Y-4128500D02*
X24173180Y-4208500D01*
X24133180Y-4168500D02*
X24213180Y-4168500D01*
X24173180Y-4382500D02*
X24173180Y-4462500D01*
X24133180Y-4422500D02*
X24213180Y-4422500D01*
X24175000Y-5731000D02*
X24175000Y-5811000D01*
X24135000Y-5771000D02*
X24215000Y-5771000D01*
X24175000Y-5985000D02*
X24175000Y-6065000D01*
X24135000Y-6025000D02*
X24215000Y-6025000D01*
D10*
X20867356Y-3846056D02*
X20867356Y-3775344D01*
X20796644Y-3775344D01*
X20796644Y-3846056D01*
X20867356Y-3846056D01*
X20867356Y-7655356D02*
X20867356Y-7584644D01*
X20796644Y-7584644D01*
X20796644Y-7655356D01*
X20867356Y-7655356D01*
X20911616Y-8854236D02*
X20911616Y-8783524D01*
X20840904Y-8783524D01*
X20840904Y-8854236D01*
X20911616Y-8854236D01*
X20911616Y-9108236D02*
X20911616Y-9037524D01*
X20840904Y-9037524D01*
X20840904Y-9108236D01*
X20911616Y-9108236D01*
X21117356Y-3846056D02*
X21117356Y-3775344D01*
X21046644Y-3775344D01*
X21046644Y-3846056D01*
X21117356Y-3846056D01*
X21117356Y-7655356D02*
X21117356Y-7584644D01*
X21046644Y-7584644D01*
X21046644Y-7655356D01*
X21117356Y-7655356D01*
X21165616Y-8854236D02*
X21165616Y-8783524D01*
X21094904Y-8783524D01*
X21094904Y-8854236D01*
X21165616Y-8854236D01*
X21165616Y-9108236D02*
X21165616Y-9037524D01*
X21094904Y-9037524D01*
X21094904Y-9108236D01*
X21165616Y-9108236D01*
X21367356Y-3846056D02*
X21367356Y-3775344D01*
X21296644Y-3775344D01*
X21296644Y-3846056D01*
X21367356Y-3846056D01*
X21367356Y-7655356D02*
X21367356Y-7584644D01*
X21296644Y-7584644D01*
X21296644Y-7655356D01*
X21367356Y-7655356D01*
X21419616Y-8854236D02*
X21419616Y-8783524D01*
X21348904Y-8783524D01*
X21348904Y-8854236D01*
X21419616Y-8854236D01*
X21419616Y-9108236D02*
X21419616Y-9037524D01*
X21348904Y-9037524D01*
X21348904Y-9108236D01*
X21419616Y-9108236D01*
X21673616Y-8854236D02*
X21673616Y-8783524D01*
X21602904Y-8783524D01*
X21602904Y-8854236D01*
X21673616Y-8854236D01*
X21673616Y-9108236D02*
X21673616Y-9037524D01*
X21602904Y-9037524D01*
X21602904Y-9108236D01*
X21673616Y-9108236D01*
X21927616Y-8854236D02*
X21927616Y-8783524D01*
X21856904Y-8783524D01*
X21856904Y-8854236D01*
X21927616Y-8854236D01*
X21927616Y-9108236D02*
X21927616Y-9037524D01*
X21856904Y-9037524D01*
X21856904Y-9108236D01*
X21927616Y-9108236D01*
X21986806Y-2978726D02*
X21986806Y-2908014D01*
X21916094Y-2908014D01*
X21916094Y-2978726D01*
X21986806Y-2978726D01*
D11*
X22001450Y-3003370D02*
X22001450Y-2883370D01*
X22001450Y-2883370D02*
G75*
G03*
X21901450Y-2883370I-50000J0D01*
G01*
X21901450Y-2883370D02*
X21901450Y-3003370D01*
X21901450Y-3003370D02*
G75*
G03*
X22001450Y-3003370I50000J0D01*
G01*
D10*
X22137356Y-7655356D02*
X22137356Y-7584644D01*
X22066644Y-7584644D01*
X22066644Y-7655356D01*
X22137356Y-7655356D01*
X22387356Y-7655356D02*
X22387356Y-7584644D01*
X22316644Y-7584644D01*
X22316644Y-7655356D01*
X22387356Y-7655356D01*
X22388126Y-2978726D02*
X22388126Y-2908014D01*
X22317414Y-2908014D01*
X22317414Y-2978726D01*
X22388126Y-2978726D01*
D11*
X22402770Y-3003370D02*
X22402770Y-2883370D01*
X22402770Y-2883370D02*
G75*
G03*
X22302770Y-2883370I-50000J0D01*
G01*
X22302770Y-2883370D02*
X22302770Y-3003370D01*
X22302770Y-3003370D02*
G75*
G03*
X22402770Y-3003370I50000J0D01*
G01*
D10*
X22637356Y-7655356D02*
X22637356Y-7584644D01*
X22566644Y-7584644D01*
X22566644Y-7655356D01*
X22637356Y-7655356D01*
X22723126Y-8413046D02*
X22723126Y-8342334D01*
X22652414Y-8342334D01*
X22652414Y-8413046D01*
X22723126Y-8413046D01*
D11*
X22627770Y-8427690D02*
X22747770Y-8427690D01*
X22747770Y-8427690D02*
G75*
G03*
X22747770Y-8327690I0J50000D01*
G01*
X22747770Y-8327690D02*
X22627770Y-8327690D01*
X22627770Y-8327690D02*
G75*
G03*
X22627770Y-8427690I0J-50000D01*
G01*
D10*
X22723126Y-8814366D02*
X22723126Y-8743654D01*
X22652414Y-8743654D01*
X22652414Y-8814366D01*
X22723126Y-8814366D01*
D11*
X22627770Y-8829010D02*
X22747770Y-8829010D01*
X22747770Y-8829010D02*
G75*
G03*
X22747770Y-8729010I0J50000D01*
G01*
X22747770Y-8729010D02*
X22627770Y-8729010D01*
X22627770Y-8729010D02*
G75*
G03*
X22627770Y-8829010I0J-50000D01*
G01*
D10*
X22723126Y-9220766D02*
X22723126Y-9150054D01*
X22652414Y-9150054D01*
X22652414Y-9220766D01*
X22723126Y-9220766D01*
D11*
X22627770Y-9235410D02*
X22747770Y-9235410D01*
X22747770Y-9235410D02*
G75*
G03*
X22747770Y-9135410I0J50000D01*
G01*
X22747770Y-9135410D02*
X22627770Y-9135410D01*
X22627770Y-9135410D02*
G75*
G03*
X22627770Y-9235410I0J-50000D01*
G01*
D10*
X22794526Y-2978726D02*
X22794526Y-2908014D01*
X22723814Y-2908014D01*
X22723814Y-2978726D01*
X22794526Y-2978726D01*
D11*
X22809170Y-3003370D02*
X22809170Y-2883370D01*
X22809170Y-2883370D02*
G75*
G03*
X22709170Y-2883370I-50000J0D01*
G01*
X22709170Y-2883370D02*
X22709170Y-3003370D01*
X22709170Y-3003370D02*
G75*
G03*
X22809170Y-3003370I50000J0D01*
G01*
D10*
X23407356Y-3846056D02*
X23407356Y-3775344D01*
X23336644Y-3775344D01*
X23336644Y-3846056D01*
X23407356Y-3846056D01*
X23407356Y-7655356D02*
X23407356Y-7584644D01*
X23336644Y-7584644D01*
X23336644Y-7655356D01*
X23407356Y-7655356D01*
X23657356Y-3846056D02*
X23657356Y-3775344D01*
X23586644Y-3775344D01*
X23586644Y-3846056D01*
X23657356Y-3846056D01*
X23657356Y-7655356D02*
X23657356Y-7584644D01*
X23586644Y-7584644D01*
X23586644Y-7655356D01*
X23657356Y-7655356D01*
X23907356Y-3846056D02*
X23907356Y-3775344D01*
X23836644Y-3775344D01*
X23836644Y-3846056D01*
X23907356Y-3846056D01*
X23907356Y-7655356D02*
X23907356Y-7584644D01*
X23836644Y-7584644D01*
X23836644Y-7655356D01*
X23907356Y-7655356D01*
D15*
X20487640Y-8327780D02*
X20542640Y-8272780D01*
X20487640Y-8217780D01*
X20432640Y-8272780D01*
X20487640Y-8327780D01*
X21249640Y-8327780D02*
X21304640Y-8272780D01*
X21249640Y-8217780D01*
X21194640Y-8272780D01*
X21249640Y-8327780D01*
X21531580Y-8327780D02*
X21586580Y-8272780D01*
X21531580Y-8217780D01*
X21476580Y-8272780D01*
X21531580Y-8327780D01*
X22293580Y-8327780D02*
X22348580Y-8272780D01*
X22293580Y-8217780D01*
X22238580Y-8272780D01*
X22293580Y-8327780D01*
D16*
X20761920Y-10751320D02*
X20883920Y-10873320D01*
X20883920Y-10751320D02*
X20761920Y-10873320D01*
X20883920Y-10812320D02*
G75*
G03*
X20883920Y-10812320I-61000J0D01*
G01*
X20761920Y-12191500D02*
X20883920Y-12313500D01*
X20883920Y-12191500D02*
X20761920Y-12313500D01*
X20883920Y-12252500D02*
G75*
G03*
X20883920Y-12252500I-61000J0D01*
G01*
X21762680Y-10751320D02*
X21884680Y-10873320D01*
X21884680Y-10751320D02*
X21762680Y-10873320D01*
X21884680Y-10812320D02*
G75*
G03*
X21884680Y-10812320I-61000J0D01*
G01*
X21762680Y-12191500D02*
X21884680Y-12313500D01*
X21884680Y-12191500D02*
X21762680Y-12313500D01*
X21884680Y-12252500D02*
G75*
G03*
X21884680Y-12252500I-61000J0D01*
G01*
X22753280Y-10751320D02*
X22875280Y-10873320D01*
X22875280Y-10751320D02*
X22753280Y-10873320D01*
X22875280Y-10812320D02*
G75*
G03*
X22875280Y-10812320I-61000J0D01*
G01*
X22753280Y-12191500D02*
X22875280Y-12313500D01*
X22875280Y-12191500D02*
X22753280Y-12313500D01*
X22875280Y-12252500D02*
G75*
G03*
X22875280Y-12252500I-61000J0D01*
G01*
X23754040Y-10751320D02*
X23876040Y-10873320D01*
X23876040Y-10751320D02*
X23754040Y-10873320D01*
X23876040Y-10812320D02*
G75*
G03*
X23876040Y-10812320I-61000J0D01*
G01*
X23754040Y-12191500D02*
X23876040Y-12313500D01*
X23876040Y-12191500D02*
X23754040Y-12313500D01*
X23876040Y-12252500D02*
G75*
G03*
X23876040Y-12252500I-61000J0D01*
G01*
D17*
X20537000Y-2995700D02*
X20667000Y-3125700D01*
X20667000Y-2995700D02*
X20537000Y-3125700D01*
X20602000Y-2995700D02*
X20602000Y-3125700D01*
X20537000Y-3060700D02*
X20667000Y-3060700D01*
D11*
X20537000Y-3015700D02*
X20537000Y-3105700D01*
X20537000Y-3105700D02*
G75*
G03*
X20667000Y-3105700I65000J0D01*
G01*
X20667000Y-3105700D02*
X20667000Y-3015700D01*
X20667000Y-3015700D02*
G75*
G03*
X20537000Y-3015700I-65000J0D01*
G01*
D17*
X20537000Y-6805000D02*
X20667000Y-6935000D01*
X20667000Y-6805000D02*
X20537000Y-6935000D01*
X20602000Y-6805000D02*
X20602000Y-6935000D01*
X20537000Y-6870000D02*
X20667000Y-6870000D01*
D11*
X20537000Y-6825000D02*
X20537000Y-6915000D01*
X20537000Y-6915000D02*
G75*
G03*
X20667000Y-6915000I65000J0D01*
G01*
X20667000Y-6915000D02*
X20667000Y-6825000D01*
X20667000Y-6825000D02*
G75*
G03*
X20537000Y-6825000I-65000J0D01*
G01*
D17*
X21497000Y-2995700D02*
X21627000Y-3125700D01*
X21627000Y-2995700D02*
X21497000Y-3125700D01*
X21562000Y-2995700D02*
X21562000Y-3125700D01*
X21497000Y-3060700D02*
X21627000Y-3060700D01*
D11*
X21497000Y-3015700D02*
X21497000Y-3105700D01*
X21497000Y-3105700D02*
G75*
G03*
X21627000Y-3105700I65000J0D01*
G01*
X21627000Y-3105700D02*
X21627000Y-3015700D01*
X21627000Y-3015700D02*
G75*
G03*
X21497000Y-3015700I-65000J0D01*
G01*
D17*
X21497000Y-6805000D02*
X21627000Y-6935000D01*
X21627000Y-6805000D02*
X21497000Y-6935000D01*
X21562000Y-6805000D02*
X21562000Y-6935000D01*
X21497000Y-6870000D02*
X21627000Y-6870000D01*
D11*
X21497000Y-6825000D02*
X21497000Y-6915000D01*
X21497000Y-6915000D02*
G75*
G03*
X21627000Y-6915000I65000J0D01*
G01*
X21627000Y-6915000D02*
X21627000Y-6825000D01*
X21627000Y-6825000D02*
G75*
G03*
X21497000Y-6825000I-65000J0D01*
G01*
D17*
X21807000Y-6805000D02*
X21937000Y-6935000D01*
X21937000Y-6805000D02*
X21807000Y-6935000D01*
X21872000Y-6805000D02*
X21872000Y-6935000D01*
X21807000Y-6870000D02*
X21937000Y-6870000D01*
D11*
X21807000Y-6825000D02*
X21807000Y-6915000D01*
X21807000Y-6915000D02*
G75*
G03*
X21937000Y-6915000I65000J0D01*
G01*
X21937000Y-6915000D02*
X21937000Y-6825000D01*
X21937000Y-6825000D02*
G75*
G03*
X21807000Y-6825000I-65000J0D01*
G01*
D17*
X22767000Y-6805000D02*
X22897000Y-6935000D01*
X22897000Y-6805000D02*
X22767000Y-6935000D01*
X22832000Y-6805000D02*
X22832000Y-6935000D01*
X22767000Y-6870000D02*
X22897000Y-6870000D01*
D11*
X22767000Y-6825000D02*
X22767000Y-6915000D01*
X22767000Y-6915000D02*
G75*
G03*
X22897000Y-6915000I65000J0D01*
G01*
X22897000Y-6915000D02*
X22897000Y-6825000D01*
X22897000Y-6825000D02*
G75*
G03*
X22767000Y-6825000I-65000J0D01*
G01*
D17*
X23077000Y-2995700D02*
X23207000Y-3125700D01*
X23207000Y-2995700D02*
X23077000Y-3125700D01*
X23142000Y-2995700D02*
X23142000Y-3125700D01*
X23077000Y-3060700D02*
X23207000Y-3060700D01*
D11*
X23077000Y-3015700D02*
X23077000Y-3105700D01*
X23077000Y-3105700D02*
G75*
G03*
X23207000Y-3105700I65000J0D01*
G01*
X23207000Y-3105700D02*
X23207000Y-3015700D01*
X23207000Y-3015700D02*
G75*
G03*
X23077000Y-3015700I-65000J0D01*
G01*
D17*
X23077000Y-6805000D02*
X23207000Y-6935000D01*
X23207000Y-6805000D02*
X23077000Y-6935000D01*
X23142000Y-6805000D02*
X23142000Y-6935000D01*
X23077000Y-6870000D02*
X23207000Y-6870000D01*
D11*
X23077000Y-6825000D02*
X23077000Y-6915000D01*
X23077000Y-6915000D02*
G75*
G03*
X23207000Y-6915000I65000J0D01*
G01*
X23207000Y-6915000D02*
X23207000Y-6825000D01*
X23207000Y-6825000D02*
G75*
G03*
X23077000Y-6825000I-65000J0D01*
G01*
D17*
X24037000Y-2995700D02*
X24167000Y-3125700D01*
X24167000Y-2995700D02*
X24037000Y-3125700D01*
X24102000Y-2995700D02*
X24102000Y-3125700D01*
X24037000Y-3060700D02*
X24167000Y-3060700D01*
D11*
X24037000Y-3015700D02*
X24037000Y-3105700D01*
X24037000Y-3105700D02*
G75*
G03*
X24167000Y-3105700I65000J0D01*
G01*
X24167000Y-3105700D02*
X24167000Y-3015700D01*
X24167000Y-3015700D02*
G75*
G03*
X24037000Y-3015700I-65000J0D01*
G01*
D17*
X24037000Y-6805000D02*
X24167000Y-6935000D01*
X24167000Y-6805000D02*
X24037000Y-6935000D01*
X24102000Y-6805000D02*
X24102000Y-6935000D01*
X24037000Y-6870000D02*
X24167000Y-6870000D01*
D11*
X24037000Y-6825000D02*
X24037000Y-6915000D01*
X24037000Y-6915000D02*
G75*
G03*
X24167000Y-6915000I65000J0D01*
G01*
X24167000Y-6915000D02*
X24167000Y-6825000D01*
X24167000Y-6825000D02*
G75*
G03*
X24037000Y-6825000I-65000J0D01*
G01*
D18*
X20751920Y-10431320D02*
X20893920Y-10573320D01*
X20893920Y-10431320D02*
X20751920Y-10573320D01*
X20873125Y-10552525D02*
X20873125Y-10452115D01*
X20772715Y-10452115D01*
X20772715Y-10552525D01*
X20873125Y-10552525D01*
X20751920Y-11871500D02*
X20893920Y-12013500D01*
X20893920Y-11871500D02*
X20751920Y-12013500D01*
X20873125Y-11992705D02*
X20873125Y-11892295D01*
X20772715Y-11892295D01*
X20772715Y-11992705D01*
X20873125Y-11992705D01*
X21752680Y-10431320D02*
X21894680Y-10573320D01*
X21894680Y-10431320D02*
X21752680Y-10573320D01*
X21873885Y-10552525D02*
X21873885Y-10452115D01*
X21773475Y-10452115D01*
X21773475Y-10552525D01*
X21873885Y-10552525D01*
X21752680Y-11871500D02*
X21894680Y-12013500D01*
X21894680Y-11871500D02*
X21752680Y-12013500D01*
X21873885Y-11992705D02*
X21873885Y-11892295D01*
X21773475Y-11892295D01*
X21773475Y-11992705D01*
X21873885Y-11992705D01*
X22743280Y-10431320D02*
X22885280Y-10573320D01*
X22885280Y-10431320D02*
X22743280Y-10573320D01*
X22864485Y-10552525D02*
X22864485Y-10452115D01*
X22764075Y-10452115D01*
X22764075Y-10552525D01*
X22864485Y-10552525D01*
X22743280Y-11871500D02*
X22885280Y-12013500D01*
X22885280Y-11871500D02*
X22743280Y-12013500D01*
X22864485Y-11992705D02*
X22864485Y-11892295D01*
X22764075Y-11892295D01*
X22764075Y-11992705D01*
X22864485Y-11992705D01*
X23744040Y-10431320D02*
X23886040Y-10573320D01*
X23886040Y-10431320D02*
X23744040Y-10573320D01*
X23865245Y-10552525D02*
X23865245Y-10452115D01*
X23764835Y-10452115D01*
X23764835Y-10552525D01*
X23865245Y-10552525D01*
X23744040Y-11871500D02*
X23886040Y-12013500D01*
X23886040Y-11871500D02*
X23744040Y-12013500D01*
X23865245Y-11992705D02*
X23865245Y-11892295D01*
X23764835Y-11892295D01*
X23764835Y-11992705D01*
X23865245Y-11992705D01*
D19*
X20751420Y-9600820D02*
X20894420Y-9743820D01*
X20894420Y-9600820D02*
X20751420Y-9743820D01*
X20822920Y-9743820D02*
X20894420Y-9672320D01*
X20822920Y-9600820D01*
X20751420Y-9672320D01*
X20822920Y-9743820D01*
X20751420Y-11041000D02*
X20894420Y-11184000D01*
X20894420Y-11041000D02*
X20751420Y-11184000D01*
X20822920Y-11184000D02*
X20894420Y-11112500D01*
X20822920Y-11041000D01*
X20751420Y-11112500D01*
X20822920Y-11184000D01*
X21752180Y-9600820D02*
X21895180Y-9743820D01*
X21895180Y-9600820D02*
X21752180Y-9743820D01*
X21823680Y-9743820D02*
X21895180Y-9672320D01*
X21823680Y-9600820D01*
X21752180Y-9672320D01*
X21823680Y-9743820D01*
X21752180Y-11041000D02*
X21895180Y-11184000D01*
X21895180Y-11041000D02*
X21752180Y-11184000D01*
X21823680Y-11184000D02*
X21895180Y-11112500D01*
X21823680Y-11041000D01*
X21752180Y-11112500D01*
X21823680Y-11184000D01*
X22742780Y-9600820D02*
X22885780Y-9743820D01*
X22885780Y-9600820D02*
X22742780Y-9743820D01*
X22814280Y-9743820D02*
X22885780Y-9672320D01*
X22814280Y-9600820D01*
X22742780Y-9672320D01*
X22814280Y-9743820D01*
X22742780Y-11041000D02*
X22885780Y-11184000D01*
X22885780Y-11041000D02*
X22742780Y-11184000D01*
X22814280Y-11184000D02*
X22885780Y-11112500D01*
X22814280Y-11041000D01*
X22742780Y-11112500D01*
X22814280Y-11184000D01*
X23743540Y-9600820D02*
X23886540Y-9743820D01*
X23886540Y-9600820D02*
X23743540Y-9743820D01*
X23815040Y-9743820D02*
X23886540Y-9672320D01*
X23815040Y-9600820D01*
X23743540Y-9672320D01*
X23815040Y-9743820D01*
X23743540Y-11041000D02*
X23886540Y-11184000D01*
X23886540Y-11041000D02*
X23743540Y-11184000D01*
X23815040Y-11184000D02*
X23886540Y-11112500D01*
X23815040Y-11041000D01*
X23743540Y-11112500D01*
X23815040Y-11184000D01*
D11*
X20562619Y-12738124D02*
X20562619Y-12538124D01*
X20562619Y-12538124D02*
X20610238Y-12538124D01*
X20610238Y-12538124D02*
X20638810Y-12547648D01*
X20638810Y-12547648D02*
X20657857Y-12566695D01*
X20657857Y-12566695D02*
X20667381Y-12585743D01*
X20667381Y-12585743D02*
X20676905Y-12623838D01*
X20676905Y-12623838D02*
X20676905Y-12652409D01*
X20676905Y-12652409D02*
X20667381Y-12690505D01*
X20667381Y-12690505D02*
X20657857Y-12709552D01*
X20657857Y-12709552D02*
X20638810Y-12728600D01*
X20638810Y-12728600D02*
X20610238Y-12738124D01*
X20610238Y-12738124D02*
X20562619Y-12738124D01*
X20762619Y-12738124D02*
X20762619Y-12604790D01*
X20762619Y-12642886D02*
X20772143Y-12623838D01*
X20772143Y-12623838D02*
X20781667Y-12614314D01*
X20781667Y-12614314D02*
X20800714Y-12604790D01*
X20800714Y-12604790D02*
X20819762Y-12604790D01*
X20886429Y-12738124D02*
X20886429Y-12604790D01*
X20886429Y-12538124D02*
X20876905Y-12547648D01*
X20876905Y-12547648D02*
X20886429Y-12557171D01*
X20886429Y-12557171D02*
X20895952Y-12547648D01*
X20895952Y-12547648D02*
X20886429Y-12538124D01*
X20886429Y-12538124D02*
X20886429Y-12557171D01*
X21010238Y-12738124D02*
X20991190Y-12728600D01*
X20991190Y-12728600D02*
X20981667Y-12709552D01*
X20981667Y-12709552D02*
X20981667Y-12538124D01*
X21115000Y-12738124D02*
X21095952Y-12728600D01*
X21095952Y-12728600D02*
X21086429Y-12709552D01*
X21086429Y-12709552D02*
X21086429Y-12538124D01*
X21343571Y-12738124D02*
X21343571Y-12538124D01*
X21343571Y-12538124D02*
X21410238Y-12680981D01*
X21410238Y-12680981D02*
X21476905Y-12538124D01*
X21476905Y-12538124D02*
X21476905Y-12738124D01*
X21657857Y-12738124D02*
X21657857Y-12633362D01*
X21657857Y-12633362D02*
X21648333Y-12614314D01*
X21648333Y-12614314D02*
X21629286Y-12604790D01*
X21629286Y-12604790D02*
X21591190Y-12604790D01*
X21591190Y-12604790D02*
X21572143Y-12614314D01*
X21657857Y-12728600D02*
X21638810Y-12738124D01*
X21638810Y-12738124D02*
X21591190Y-12738124D01*
X21591190Y-12738124D02*
X21572143Y-12728600D01*
X21572143Y-12728600D02*
X21562619Y-12709552D01*
X21562619Y-12709552D02*
X21562619Y-12690505D01*
X21562619Y-12690505D02*
X21572143Y-12671457D01*
X21572143Y-12671457D02*
X21591190Y-12661933D01*
X21591190Y-12661933D02*
X21638810Y-12661933D01*
X21638810Y-12661933D02*
X21657857Y-12652409D01*
X21753095Y-12604790D02*
X21753095Y-12804790D01*
X21753095Y-12614314D02*
X21772143Y-12604790D01*
X21772143Y-12604790D02*
X21810238Y-12604790D01*
X21810238Y-12604790D02*
X21829286Y-12614314D01*
X21829286Y-12614314D02*
X21838810Y-12623838D01*
X21838810Y-12623838D02*
X21848333Y-12642886D01*
X21848333Y-12642886D02*
X21848333Y-12700028D01*
X21848333Y-12700028D02*
X21838810Y-12719076D01*
X21838810Y-12719076D02*
X21829286Y-12728600D01*
X21829286Y-12728600D02*
X21810238Y-12738124D01*
X21810238Y-12738124D02*
X21772143Y-12738124D01*
X21772143Y-12738124D02*
X21753095Y-12728600D01*
X21934048Y-12719076D02*
X21943571Y-12728600D01*
X21943571Y-12728600D02*
X21934048Y-12738124D01*
X21934048Y-12738124D02*
X21924524Y-12728600D01*
X21924524Y-12728600D02*
X21934048Y-12719076D01*
X21934048Y-12719076D02*
X21934048Y-12738124D01*
X21934048Y-12614314D02*
X21943571Y-12623838D01*
X21943571Y-12623838D02*
X21934048Y-12633362D01*
X21934048Y-12633362D02*
X21924524Y-12623838D01*
X21924524Y-12623838D02*
X21934048Y-12614314D01*
X21934048Y-12614314D02*
X21934048Y-12633362D01*
D12*
X20275000Y-13045600D02*
X20315000Y-13085600D01*
X20315000Y-13045600D02*
X20275000Y-13085600D01*
D11*
X20600714Y-12958124D02*
X20619762Y-12958124D01*
X20619762Y-12958124D02*
X20638810Y-12967648D01*
X20638810Y-12967648D02*
X20648333Y-12977171D01*
X20648333Y-12977171D02*
X20657857Y-12996219D01*
X20657857Y-12996219D02*
X20667381Y-13034314D01*
X20667381Y-13034314D02*
X20667381Y-13081933D01*
X20667381Y-13081933D02*
X20657857Y-13120028D01*
X20657857Y-13120028D02*
X20648333Y-13139076D01*
X20648333Y-13139076D02*
X20638810Y-13148600D01*
X20638810Y-13148600D02*
X20619762Y-13158124D01*
X20619762Y-13158124D02*
X20600714Y-13158124D01*
X20600714Y-13158124D02*
X20581667Y-13148600D01*
X20581667Y-13148600D02*
X20572143Y-13139076D01*
X20572143Y-13139076D02*
X20562619Y-13120028D01*
X20562619Y-13120028D02*
X20553095Y-13081933D01*
X20553095Y-13081933D02*
X20553095Y-13034314D01*
X20553095Y-13034314D02*
X20562619Y-12996219D01*
X20562619Y-12996219D02*
X20572143Y-12977171D01*
X20572143Y-12977171D02*
X20581667Y-12967648D01*
X20581667Y-12967648D02*
X20600714Y-12958124D01*
X20753095Y-13139076D02*
X20762619Y-13148600D01*
X20762619Y-13148600D02*
X20753095Y-13158124D01*
X20753095Y-13158124D02*
X20743571Y-13148600D01*
X20743571Y-13148600D02*
X20753095Y-13139076D01*
X20753095Y-13139076D02*
X20753095Y-13158124D01*
X20934048Y-13024790D02*
X20934048Y-13158124D01*
X20886429Y-12948600D02*
X20838810Y-13091457D01*
X20838810Y-13091457D02*
X20962619Y-13091457D01*
X21076905Y-12958124D02*
X21095952Y-12958124D01*
X21095952Y-12958124D02*
X21115000Y-12967648D01*
X21115000Y-12967648D02*
X21124524Y-12977171D01*
X21124524Y-12977171D02*
X21134048Y-12996219D01*
X21134048Y-12996219D02*
X21143571Y-13034314D01*
X21143571Y-13034314D02*
X21143571Y-13081933D01*
X21143571Y-13081933D02*
X21134048Y-13120028D01*
X21134048Y-13120028D02*
X21124524Y-13139076D01*
X21124524Y-13139076D02*
X21115000Y-13148600D01*
X21115000Y-13148600D02*
X21095952Y-13158124D01*
X21095952Y-13158124D02*
X21076905Y-13158124D01*
X21076905Y-13158124D02*
X21057857Y-13148600D01*
X21057857Y-13148600D02*
X21048333Y-13139076D01*
X21048333Y-13139076D02*
X21038810Y-13120028D01*
X21038810Y-13120028D02*
X21029286Y-13081933D01*
X21029286Y-13081933D02*
X21029286Y-13034314D01*
X21029286Y-13034314D02*
X21038810Y-12996219D01*
X21038810Y-12996219D02*
X21048333Y-12977171D01*
X21048333Y-12977171D02*
X21057857Y-12967648D01*
X21057857Y-12967648D02*
X21076905Y-12958124D01*
X21267381Y-12958124D02*
X21286429Y-12958124D01*
X21286429Y-12958124D02*
X21305476Y-12967648D01*
X21305476Y-12967648D02*
X21315000Y-12977171D01*
X21315000Y-12977171D02*
X21324524Y-12996219D01*
X21324524Y-12996219D02*
X21334048Y-13034314D01*
X21334048Y-13034314D02*
X21334048Y-13081933D01*
X21334048Y-13081933D02*
X21324524Y-13120028D01*
X21324524Y-13120028D02*
X21315000Y-13139076D01*
X21315000Y-13139076D02*
X21305476Y-13148600D01*
X21305476Y-13148600D02*
X21286429Y-13158124D01*
X21286429Y-13158124D02*
X21267381Y-13158124D01*
X21267381Y-13158124D02*
X21248333Y-13148600D01*
X21248333Y-13148600D02*
X21238810Y-13139076D01*
X21238810Y-13139076D02*
X21229286Y-13120028D01*
X21229286Y-13120028D02*
X21219762Y-13081933D01*
X21219762Y-13081933D02*
X21219762Y-13034314D01*
X21219762Y-13034314D02*
X21229286Y-12996219D01*
X21229286Y-12996219D02*
X21238810Y-12977171D01*
X21238810Y-12977171D02*
X21248333Y-12967648D01*
X21248333Y-12967648D02*
X21267381Y-12958124D01*
X21419762Y-13158124D02*
X21419762Y-13024790D01*
X21419762Y-13043838D02*
X21429286Y-13034314D01*
X21429286Y-13034314D02*
X21448333Y-13024790D01*
X21448333Y-13024790D02*
X21476905Y-13024790D01*
X21476905Y-13024790D02*
X21495952Y-13034314D01*
X21495952Y-13034314D02*
X21505476Y-13053362D01*
X21505476Y-13053362D02*
X21505476Y-13158124D01*
X21505476Y-13053362D02*
X21515000Y-13034314D01*
X21515000Y-13034314D02*
X21534048Y-13024790D01*
X21534048Y-13024790D02*
X21562619Y-13024790D01*
X21562619Y-13024790D02*
X21581667Y-13034314D01*
X21581667Y-13034314D02*
X21591191Y-13053362D01*
X21591191Y-13053362D02*
X21591191Y-13158124D01*
X21686429Y-13158124D02*
X21686429Y-13024790D01*
X21686429Y-13043838D02*
X21695952Y-13034314D01*
X21695952Y-13034314D02*
X21715000Y-13024790D01*
X21715000Y-13024790D02*
X21743572Y-13024790D01*
X21743572Y-13024790D02*
X21762619Y-13034314D01*
X21762619Y-13034314D02*
X21772143Y-13053362D01*
X21772143Y-13053362D02*
X21772143Y-13158124D01*
X21772143Y-13053362D02*
X21781667Y-13034314D01*
X21781667Y-13034314D02*
X21800714Y-13024790D01*
X21800714Y-13024790D02*
X21829286Y-13024790D01*
X21829286Y-13024790D02*
X21848333Y-13034314D01*
X21848333Y-13034314D02*
X21857857Y-13053362D01*
X21857857Y-13053362D02*
X21857857Y-13158124D01*
X22248333Y-12948600D02*
X22076905Y-13205743D01*
X22505476Y-12958124D02*
X22524524Y-12958124D01*
X22524524Y-12958124D02*
X22543572Y-12967648D01*
X22543572Y-12967648D02*
X22553095Y-12977171D01*
X22553095Y-12977171D02*
X22562619Y-12996219D01*
X22562619Y-12996219D02*
X22572143Y-13034314D01*
X22572143Y-13034314D02*
X22572143Y-13081933D01*
X22572143Y-13081933D02*
X22562619Y-13120028D01*
X22562619Y-13120028D02*
X22553095Y-13139076D01*
X22553095Y-13139076D02*
X22543572Y-13148600D01*
X22543572Y-13148600D02*
X22524524Y-13158124D01*
X22524524Y-13158124D02*
X22505476Y-13158124D01*
X22505476Y-13158124D02*
X22486429Y-13148600D01*
X22486429Y-13148600D02*
X22476905Y-13139076D01*
X22476905Y-13139076D02*
X22467381Y-13120028D01*
X22467381Y-13120028D02*
X22457857Y-13081933D01*
X22457857Y-13081933D02*
X22457857Y-13034314D01*
X22457857Y-13034314D02*
X22467381Y-12996219D01*
X22467381Y-12996219D02*
X22476905Y-12977171D01*
X22476905Y-12977171D02*
X22486429Y-12967648D01*
X22486429Y-12967648D02*
X22505476Y-12958124D01*
X22657857Y-13139076D02*
X22667381Y-13148600D01*
X22667381Y-13148600D02*
X22657857Y-13158124D01*
X22657857Y-13158124D02*
X22648333Y-13148600D01*
X22648333Y-13148600D02*
X22657857Y-13139076D01*
X22657857Y-13139076D02*
X22657857Y-13158124D01*
X22791191Y-12958124D02*
X22810238Y-12958124D01*
X22810238Y-12958124D02*
X22829286Y-12967648D01*
X22829286Y-12967648D02*
X22838810Y-12977171D01*
X22838810Y-12977171D02*
X22848333Y-12996219D01*
X22848333Y-12996219D02*
X22857857Y-13034314D01*
X22857857Y-13034314D02*
X22857857Y-13081933D01*
X22857857Y-13081933D02*
X22848333Y-13120028D01*
X22848333Y-13120028D02*
X22838810Y-13139076D01*
X22838810Y-13139076D02*
X22829286Y-13148600D01*
X22829286Y-13148600D02*
X22810238Y-13158124D01*
X22810238Y-13158124D02*
X22791191Y-13158124D01*
X22791191Y-13158124D02*
X22772143Y-13148600D01*
X22772143Y-13148600D02*
X22762619Y-13139076D01*
X22762619Y-13139076D02*
X22753095Y-13120028D01*
X22753095Y-13120028D02*
X22743572Y-13081933D01*
X22743572Y-13081933D02*
X22743572Y-13034314D01*
X22743572Y-13034314D02*
X22753095Y-12996219D01*
X22753095Y-12996219D02*
X22762619Y-12977171D01*
X22762619Y-12977171D02*
X22772143Y-12967648D01*
X22772143Y-12967648D02*
X22791191Y-12958124D01*
X23048333Y-13158124D02*
X22934048Y-13158124D01*
X22991191Y-13158124D02*
X22991191Y-12958124D01*
X22991191Y-12958124D02*
X22972143Y-12986695D01*
X22972143Y-12986695D02*
X22953095Y-13005743D01*
X22953095Y-13005743D02*
X22934048Y-13015267D01*
X23229286Y-12958124D02*
X23134048Y-12958124D01*
X23134048Y-12958124D02*
X23124524Y-13053362D01*
X23124524Y-13053362D02*
X23134048Y-13043838D01*
X23134048Y-13043838D02*
X23153095Y-13034314D01*
X23153095Y-13034314D02*
X23200714Y-13034314D01*
X23200714Y-13034314D02*
X23219762Y-13043838D01*
X23219762Y-13043838D02*
X23229286Y-13053362D01*
X23229286Y-13053362D02*
X23238810Y-13072409D01*
X23238810Y-13072409D02*
X23238810Y-13120028D01*
X23238810Y-13120028D02*
X23229286Y-13139076D01*
X23229286Y-13139076D02*
X23219762Y-13148600D01*
X23219762Y-13148600D02*
X23200714Y-13158124D01*
X23200714Y-13158124D02*
X23153095Y-13158124D01*
X23153095Y-13158124D02*
X23134048Y-13148600D01*
X23134048Y-13148600D02*
X23124524Y-13139076D01*
X23305476Y-12958124D02*
X23438810Y-12958124D01*
X23438810Y-12958124D02*
X23353095Y-13158124D01*
X23505476Y-12958124D02*
X23505476Y-12996219D01*
X23581667Y-12958124D02*
X23581667Y-12996219D01*
X23876905Y-13234314D02*
X23867381Y-13224790D01*
X23867381Y-13224790D02*
X23848334Y-13196219D01*
X23848334Y-13196219D02*
X23838810Y-13177171D01*
X23838810Y-13177171D02*
X23829286Y-13148600D01*
X23829286Y-13148600D02*
X23819762Y-13100981D01*
X23819762Y-13100981D02*
X23819762Y-13062886D01*
X23819762Y-13062886D02*
X23829286Y-13015267D01*
X23829286Y-13015267D02*
X23838810Y-12986695D01*
X23838810Y-12986695D02*
X23848334Y-12967648D01*
X23848334Y-12967648D02*
X23867381Y-12939076D01*
X23867381Y-12939076D02*
X23876905Y-12929552D01*
X23943572Y-12977171D02*
X23953095Y-12967648D01*
X23953095Y-12967648D02*
X23972143Y-12958124D01*
X23972143Y-12958124D02*
X24019762Y-12958124D01*
X24019762Y-12958124D02*
X24038810Y-12967648D01*
X24038810Y-12967648D02*
X24048334Y-12977171D01*
X24048334Y-12977171D02*
X24057857Y-12996219D01*
X24057857Y-12996219D02*
X24057857Y-13015267D01*
X24057857Y-13015267D02*
X24048334Y-13043838D01*
X24048334Y-13043838D02*
X23934048Y-13158124D01*
X23934048Y-13158124D02*
X24057857Y-13158124D01*
X24229286Y-13024790D02*
X24229286Y-13158124D01*
X24181667Y-12948600D02*
X24134048Y-13091457D01*
X24134048Y-13091457D02*
X24257857Y-13091457D01*
X24486429Y-13158124D02*
X24486429Y-12958124D01*
X24572143Y-13158124D02*
X24572143Y-13053362D01*
X24572143Y-13053362D02*
X24562619Y-13034314D01*
X24562619Y-13034314D02*
X24543572Y-13024790D01*
X24543572Y-13024790D02*
X24515000Y-13024790D01*
X24515000Y-13024790D02*
X24495953Y-13034314D01*
X24495953Y-13034314D02*
X24486429Y-13043838D01*
X24695953Y-13158124D02*
X24676905Y-13148600D01*
X24676905Y-13148600D02*
X24667381Y-13139076D01*
X24667381Y-13139076D02*
X24657857Y-13120028D01*
X24657857Y-13120028D02*
X24657857Y-13062886D01*
X24657857Y-13062886D02*
X24667381Y-13043838D01*
X24667381Y-13043838D02*
X24676905Y-13034314D01*
X24676905Y-13034314D02*
X24695953Y-13024790D01*
X24695953Y-13024790D02*
X24724524Y-13024790D01*
X24724524Y-13024790D02*
X24743572Y-13034314D01*
X24743572Y-13034314D02*
X24753096Y-13043838D01*
X24753096Y-13043838D02*
X24762619Y-13062886D01*
X24762619Y-13062886D02*
X24762619Y-13120028D01*
X24762619Y-13120028D02*
X24753096Y-13139076D01*
X24753096Y-13139076D02*
X24743572Y-13148600D01*
X24743572Y-13148600D02*
X24724524Y-13158124D01*
X24724524Y-13158124D02*
X24695953Y-13158124D01*
X24876905Y-13158124D02*
X24857857Y-13148600D01*
X24857857Y-13148600D02*
X24848334Y-13129552D01*
X24848334Y-13129552D02*
X24848334Y-12958124D01*
X25029286Y-13148600D02*
X25010238Y-13158124D01*
X25010238Y-13158124D02*
X24972143Y-13158124D01*
X24972143Y-13158124D02*
X24953096Y-13148600D01*
X24953096Y-13148600D02*
X24943572Y-13129552D01*
X24943572Y-13129552D02*
X24943572Y-13053362D01*
X24943572Y-13053362D02*
X24953096Y-13034314D01*
X24953096Y-13034314D02*
X24972143Y-13024790D01*
X24972143Y-13024790D02*
X25010238Y-13024790D01*
X25010238Y-13024790D02*
X25029286Y-13034314D01*
X25029286Y-13034314D02*
X25038810Y-13053362D01*
X25038810Y-13053362D02*
X25038810Y-13072409D01*
X25038810Y-13072409D02*
X24943572Y-13091457D01*
X25115000Y-13148600D02*
X25134048Y-13158124D01*
X25134048Y-13158124D02*
X25172143Y-13158124D01*
X25172143Y-13158124D02*
X25191191Y-13148600D01*
X25191191Y-13148600D02*
X25200715Y-13129552D01*
X25200715Y-13129552D02*
X25200715Y-13120028D01*
X25200715Y-13120028D02*
X25191191Y-13100981D01*
X25191191Y-13100981D02*
X25172143Y-13091457D01*
X25172143Y-13091457D02*
X25143572Y-13091457D01*
X25143572Y-13091457D02*
X25124524Y-13081933D01*
X25124524Y-13081933D02*
X25115000Y-13062886D01*
X25115000Y-13062886D02*
X25115000Y-13053362D01*
X25115000Y-13053362D02*
X25124524Y-13034314D01*
X25124524Y-13034314D02*
X25143572Y-13024790D01*
X25143572Y-13024790D02*
X25172143Y-13024790D01*
X25172143Y-13024790D02*
X25191191Y-13034314D01*
X25267381Y-13234314D02*
X25276905Y-13224790D01*
X25276905Y-13224790D02*
X25295953Y-13196219D01*
X25295953Y-13196219D02*
X25305477Y-13177171D01*
X25305477Y-13177171D02*
X25315000Y-13148600D01*
X25315000Y-13148600D02*
X25324524Y-13100981D01*
X25324524Y-13100981D02*
X25324524Y-13062886D01*
X25324524Y-13062886D02*
X25315000Y-13015267D01*
X25315000Y-13015267D02*
X25305477Y-12986695D01*
X25305477Y-12986695D02*
X25295953Y-12967648D01*
X25295953Y-12967648D02*
X25276905Y-12939076D01*
X25276905Y-12939076D02*
X25267381Y-12929552D01*
D13*
X20315000Y-13329600D02*
G75*
G03*
X20315000Y-13329600I-30000J0D01*
G01*
D11*
X20600714Y-13222124D02*
X20619762Y-13222124D01*
X20619762Y-13222124D02*
X20638810Y-13231648D01*
X20638810Y-13231648D02*
X20648333Y-13241171D01*
X20648333Y-13241171D02*
X20657857Y-13260219D01*
X20657857Y-13260219D02*
X20667381Y-13298314D01*
X20667381Y-13298314D02*
X20667381Y-13345933D01*
X20667381Y-13345933D02*
X20657857Y-13384028D01*
X20657857Y-13384028D02*
X20648333Y-13403076D01*
X20648333Y-13403076D02*
X20638810Y-13412600D01*
X20638810Y-13412600D02*
X20619762Y-13422124D01*
X20619762Y-13422124D02*
X20600714Y-13422124D01*
X20600714Y-13422124D02*
X20581667Y-13412600D01*
X20581667Y-13412600D02*
X20572143Y-13403076D01*
X20572143Y-13403076D02*
X20562619Y-13384028D01*
X20562619Y-13384028D02*
X20553095Y-13345933D01*
X20553095Y-13345933D02*
X20553095Y-13298314D01*
X20553095Y-13298314D02*
X20562619Y-13260219D01*
X20562619Y-13260219D02*
X20572143Y-13241171D01*
X20572143Y-13241171D02*
X20581667Y-13231648D01*
X20581667Y-13231648D02*
X20600714Y-13222124D01*
X20753095Y-13403076D02*
X20762619Y-13412600D01*
X20762619Y-13412600D02*
X20753095Y-13422124D01*
X20753095Y-13422124D02*
X20743571Y-13412600D01*
X20743571Y-13412600D02*
X20753095Y-13403076D01*
X20753095Y-13403076D02*
X20753095Y-13422124D01*
X20934048Y-13222124D02*
X20895952Y-13222124D01*
X20895952Y-13222124D02*
X20876905Y-13231648D01*
X20876905Y-13231648D02*
X20867381Y-13241171D01*
X20867381Y-13241171D02*
X20848333Y-13269743D01*
X20848333Y-13269743D02*
X20838810Y-13307838D01*
X20838810Y-13307838D02*
X20838810Y-13384028D01*
X20838810Y-13384028D02*
X20848333Y-13403076D01*
X20848333Y-13403076D02*
X20857857Y-13412600D01*
X20857857Y-13412600D02*
X20876905Y-13422124D01*
X20876905Y-13422124D02*
X20915000Y-13422124D01*
X20915000Y-13422124D02*
X20934048Y-13412600D01*
X20934048Y-13412600D02*
X20943571Y-13403076D01*
X20943571Y-13403076D02*
X20953095Y-13384028D01*
X20953095Y-13384028D02*
X20953095Y-13336409D01*
X20953095Y-13336409D02*
X20943571Y-13317362D01*
X20943571Y-13317362D02*
X20934048Y-13307838D01*
X20934048Y-13307838D02*
X20915000Y-13298314D01*
X20915000Y-13298314D02*
X20876905Y-13298314D01*
X20876905Y-13298314D02*
X20857857Y-13307838D01*
X20857857Y-13307838D02*
X20848333Y-13317362D01*
X20848333Y-13317362D02*
X20838810Y-13336409D01*
X21076905Y-13222124D02*
X21095952Y-13222124D01*
X21095952Y-13222124D02*
X21115000Y-13231648D01*
X21115000Y-13231648D02*
X21124524Y-13241171D01*
X21124524Y-13241171D02*
X21134048Y-13260219D01*
X21134048Y-13260219D02*
X21143571Y-13298314D01*
X21143571Y-13298314D02*
X21143571Y-13345933D01*
X21143571Y-13345933D02*
X21134048Y-13384028D01*
X21134048Y-13384028D02*
X21124524Y-13403076D01*
X21124524Y-13403076D02*
X21115000Y-13412600D01*
X21115000Y-13412600D02*
X21095952Y-13422124D01*
X21095952Y-13422124D02*
X21076905Y-13422124D01*
X21076905Y-13422124D02*
X21057857Y-13412600D01*
X21057857Y-13412600D02*
X21048333Y-13403076D01*
X21048333Y-13403076D02*
X21038810Y-13384028D01*
X21038810Y-13384028D02*
X21029286Y-13345933D01*
X21029286Y-13345933D02*
X21029286Y-13298314D01*
X21029286Y-13298314D02*
X21038810Y-13260219D01*
X21038810Y-13260219D02*
X21048333Y-13241171D01*
X21048333Y-13241171D02*
X21057857Y-13231648D01*
X21057857Y-13231648D02*
X21076905Y-13222124D01*
X21267381Y-13222124D02*
X21286429Y-13222124D01*
X21286429Y-13222124D02*
X21305476Y-13231648D01*
X21305476Y-13231648D02*
X21315000Y-13241171D01*
X21315000Y-13241171D02*
X21324524Y-13260219D01*
X21324524Y-13260219D02*
X21334048Y-13298314D01*
X21334048Y-13298314D02*
X21334048Y-13345933D01*
X21334048Y-13345933D02*
X21324524Y-13384028D01*
X21324524Y-13384028D02*
X21315000Y-13403076D01*
X21315000Y-13403076D02*
X21305476Y-13412600D01*
X21305476Y-13412600D02*
X21286429Y-13422124D01*
X21286429Y-13422124D02*
X21267381Y-13422124D01*
X21267381Y-13422124D02*
X21248333Y-13412600D01*
X21248333Y-13412600D02*
X21238810Y-13403076D01*
X21238810Y-13403076D02*
X21229286Y-13384028D01*
X21229286Y-13384028D02*
X21219762Y-13345933D01*
X21219762Y-13345933D02*
X21219762Y-13298314D01*
X21219762Y-13298314D02*
X21229286Y-13260219D01*
X21229286Y-13260219D02*
X21238810Y-13241171D01*
X21238810Y-13241171D02*
X21248333Y-13231648D01*
X21248333Y-13231648D02*
X21267381Y-13222124D01*
X21419762Y-13422124D02*
X21419762Y-13288790D01*
X21419762Y-13307838D02*
X21429286Y-13298314D01*
X21429286Y-13298314D02*
X21448333Y-13288790D01*
X21448333Y-13288790D02*
X21476905Y-13288790D01*
X21476905Y-13288790D02*
X21495952Y-13298314D01*
X21495952Y-13298314D02*
X21505476Y-13317362D01*
X21505476Y-13317362D02*
X21505476Y-13422124D01*
X21505476Y-13317362D02*
X21515000Y-13298314D01*
X21515000Y-13298314D02*
X21534048Y-13288790D01*
X21534048Y-13288790D02*
X21562619Y-13288790D01*
X21562619Y-13288790D02*
X21581667Y-13298314D01*
X21581667Y-13298314D02*
X21591191Y-13317362D01*
X21591191Y-13317362D02*
X21591191Y-13422124D01*
X21686429Y-13422124D02*
X21686429Y-13288790D01*
X21686429Y-13307838D02*
X21695952Y-13298314D01*
X21695952Y-13298314D02*
X21715000Y-13288790D01*
X21715000Y-13288790D02*
X21743572Y-13288790D01*
X21743572Y-13288790D02*
X21762619Y-13298314D01*
X21762619Y-13298314D02*
X21772143Y-13317362D01*
X21772143Y-13317362D02*
X21772143Y-13422124D01*
X21772143Y-13317362D02*
X21781667Y-13298314D01*
X21781667Y-13298314D02*
X21800714Y-13288790D01*
X21800714Y-13288790D02*
X21829286Y-13288790D01*
X21829286Y-13288790D02*
X21848333Y-13298314D01*
X21848333Y-13298314D02*
X21857857Y-13317362D01*
X21857857Y-13317362D02*
X21857857Y-13422124D01*
X22248333Y-13212600D02*
X22076905Y-13469743D01*
X22505476Y-13222124D02*
X22524524Y-13222124D01*
X22524524Y-13222124D02*
X22543572Y-13231648D01*
X22543572Y-13231648D02*
X22553095Y-13241171D01*
X22553095Y-13241171D02*
X22562619Y-13260219D01*
X22562619Y-13260219D02*
X22572143Y-13298314D01*
X22572143Y-13298314D02*
X22572143Y-13345933D01*
X22572143Y-13345933D02*
X22562619Y-13384028D01*
X22562619Y-13384028D02*
X22553095Y-13403076D01*
X22553095Y-13403076D02*
X22543572Y-13412600D01*
X22543572Y-13412600D02*
X22524524Y-13422124D01*
X22524524Y-13422124D02*
X22505476Y-13422124D01*
X22505476Y-13422124D02*
X22486429Y-13412600D01*
X22486429Y-13412600D02*
X22476905Y-13403076D01*
X22476905Y-13403076D02*
X22467381Y-13384028D01*
X22467381Y-13384028D02*
X22457857Y-13345933D01*
X22457857Y-13345933D02*
X22457857Y-13298314D01*
X22457857Y-13298314D02*
X22467381Y-13260219D01*
X22467381Y-13260219D02*
X22476905Y-13241171D01*
X22476905Y-13241171D02*
X22486429Y-13231648D01*
X22486429Y-13231648D02*
X22505476Y-13222124D01*
X22657857Y-13403076D02*
X22667381Y-13412600D01*
X22667381Y-13412600D02*
X22657857Y-13422124D01*
X22657857Y-13422124D02*
X22648333Y-13412600D01*
X22648333Y-13412600D02*
X22657857Y-13403076D01*
X22657857Y-13403076D02*
X22657857Y-13422124D01*
X22791191Y-13222124D02*
X22810238Y-13222124D01*
X22810238Y-13222124D02*
X22829286Y-13231648D01*
X22829286Y-13231648D02*
X22838810Y-13241171D01*
X22838810Y-13241171D02*
X22848333Y-13260219D01*
X22848333Y-13260219D02*
X22857857Y-13298314D01*
X22857857Y-13298314D02*
X22857857Y-13345933D01*
X22857857Y-13345933D02*
X22848333Y-13384028D01*
X22848333Y-13384028D02*
X22838810Y-13403076D01*
X22838810Y-13403076D02*
X22829286Y-13412600D01*
X22829286Y-13412600D02*
X22810238Y-13422124D01*
X22810238Y-13422124D02*
X22791191Y-13422124D01*
X22791191Y-13422124D02*
X22772143Y-13412600D01*
X22772143Y-13412600D02*
X22762619Y-13403076D01*
X22762619Y-13403076D02*
X22753095Y-13384028D01*
X22753095Y-13384028D02*
X22743572Y-13345933D01*
X22743572Y-13345933D02*
X22743572Y-13298314D01*
X22743572Y-13298314D02*
X22753095Y-13260219D01*
X22753095Y-13260219D02*
X22762619Y-13241171D01*
X22762619Y-13241171D02*
X22772143Y-13231648D01*
X22772143Y-13231648D02*
X22791191Y-13222124D01*
X22934048Y-13241171D02*
X22943572Y-13231648D01*
X22943572Y-13231648D02*
X22962619Y-13222124D01*
X22962619Y-13222124D02*
X23010238Y-13222124D01*
X23010238Y-13222124D02*
X23029286Y-13231648D01*
X23029286Y-13231648D02*
X23038810Y-13241171D01*
X23038810Y-13241171D02*
X23048333Y-13260219D01*
X23048333Y-13260219D02*
X23048333Y-13279267D01*
X23048333Y-13279267D02*
X23038810Y-13307838D01*
X23038810Y-13307838D02*
X22924524Y-13422124D01*
X22924524Y-13422124D02*
X23048333Y-13422124D01*
X23115000Y-13222124D02*
X23238810Y-13222124D01*
X23238810Y-13222124D02*
X23172143Y-13298314D01*
X23172143Y-13298314D02*
X23200714Y-13298314D01*
X23200714Y-13298314D02*
X23219762Y-13307838D01*
X23219762Y-13307838D02*
X23229286Y-13317362D01*
X23229286Y-13317362D02*
X23238810Y-13336409D01*
X23238810Y-13336409D02*
X23238810Y-13384028D01*
X23238810Y-13384028D02*
X23229286Y-13403076D01*
X23229286Y-13403076D02*
X23219762Y-13412600D01*
X23219762Y-13412600D02*
X23200714Y-13422124D01*
X23200714Y-13422124D02*
X23143572Y-13422124D01*
X23143572Y-13422124D02*
X23124524Y-13412600D01*
X23124524Y-13412600D02*
X23115000Y-13403076D01*
X23410238Y-13222124D02*
X23372143Y-13222124D01*
X23372143Y-13222124D02*
X23353095Y-13231648D01*
X23353095Y-13231648D02*
X23343572Y-13241171D01*
X23343572Y-13241171D02*
X23324524Y-13269743D01*
X23324524Y-13269743D02*
X23315000Y-13307838D01*
X23315000Y-13307838D02*
X23315000Y-13384028D01*
X23315000Y-13384028D02*
X23324524Y-13403076D01*
X23324524Y-13403076D02*
X23334048Y-13412600D01*
X23334048Y-13412600D02*
X23353095Y-13422124D01*
X23353095Y-13422124D02*
X23391191Y-13422124D01*
X23391191Y-13422124D02*
X23410238Y-13412600D01*
X23410238Y-13412600D02*
X23419762Y-13403076D01*
X23419762Y-13403076D02*
X23429286Y-13384028D01*
X23429286Y-13384028D02*
X23429286Y-13336409D01*
X23429286Y-13336409D02*
X23419762Y-13317362D01*
X23419762Y-13317362D02*
X23410238Y-13307838D01*
X23410238Y-13307838D02*
X23391191Y-13298314D01*
X23391191Y-13298314D02*
X23353095Y-13298314D01*
X23353095Y-13298314D02*
X23334048Y-13307838D01*
X23334048Y-13307838D02*
X23324524Y-13317362D01*
X23324524Y-13317362D02*
X23315000Y-13336409D01*
X23505476Y-13222124D02*
X23505476Y-13260219D01*
X23581667Y-13222124D02*
X23581667Y-13260219D01*
X23876905Y-13498314D02*
X23867381Y-13488790D01*
X23867381Y-13488790D02*
X23848334Y-13460219D01*
X23848334Y-13460219D02*
X23838810Y-13441171D01*
X23838810Y-13441171D02*
X23829286Y-13412600D01*
X23829286Y-13412600D02*
X23819762Y-13364981D01*
X23819762Y-13364981D02*
X23819762Y-13326886D01*
X23819762Y-13326886D02*
X23829286Y-13279267D01*
X23829286Y-13279267D02*
X23838810Y-13250695D01*
X23838810Y-13250695D02*
X23848334Y-13231648D01*
X23848334Y-13231648D02*
X23867381Y-13203076D01*
X23867381Y-13203076D02*
X23876905Y-13193552D01*
X24038810Y-13288790D02*
X24038810Y-13422124D01*
X23991191Y-13212600D02*
X23943572Y-13355457D01*
X23943572Y-13355457D02*
X24067381Y-13355457D01*
X24295953Y-13422124D02*
X24295953Y-13222124D01*
X24381667Y-13422124D02*
X24381667Y-13317362D01*
X24381667Y-13317362D02*
X24372143Y-13298314D01*
X24372143Y-13298314D02*
X24353096Y-13288790D01*
X24353096Y-13288790D02*
X24324524Y-13288790D01*
X24324524Y-13288790D02*
X24305476Y-13298314D01*
X24305476Y-13298314D02*
X24295953Y-13307838D01*
X24505476Y-13422124D02*
X24486429Y-13412600D01*
X24486429Y-13412600D02*
X24476905Y-13403076D01*
X24476905Y-13403076D02*
X24467381Y-13384028D01*
X24467381Y-13384028D02*
X24467381Y-13326886D01*
X24467381Y-13326886D02*
X24476905Y-13307838D01*
X24476905Y-13307838D02*
X24486429Y-13298314D01*
X24486429Y-13298314D02*
X24505476Y-13288790D01*
X24505476Y-13288790D02*
X24534048Y-13288790D01*
X24534048Y-13288790D02*
X24553096Y-13298314D01*
X24553096Y-13298314D02*
X24562619Y-13307838D01*
X24562619Y-13307838D02*
X24572143Y-13326886D01*
X24572143Y-13326886D02*
X24572143Y-13384028D01*
X24572143Y-13384028D02*
X24562619Y-13403076D01*
X24562619Y-13403076D02*
X24553096Y-13412600D01*
X24553096Y-13412600D02*
X24534048Y-13422124D01*
X24534048Y-13422124D02*
X24505476Y-13422124D01*
X24686429Y-13422124D02*
X24667381Y-13412600D01*
X24667381Y-13412600D02*
X24657857Y-13393552D01*
X24657857Y-13393552D02*
X24657857Y-13222124D01*
X24838810Y-13412600D02*
X24819762Y-13422124D01*
X24819762Y-13422124D02*
X24781667Y-13422124D01*
X24781667Y-13422124D02*
X24762619Y-13412600D01*
X24762619Y-13412600D02*
X24753096Y-13393552D01*
X24753096Y-13393552D02*
X24753096Y-13317362D01*
X24753096Y-13317362D02*
X24762619Y-13298314D01*
X24762619Y-13298314D02*
X24781667Y-13288790D01*
X24781667Y-13288790D02*
X24819762Y-13288790D01*
X24819762Y-13288790D02*
X24838810Y-13298314D01*
X24838810Y-13298314D02*
X24848334Y-13317362D01*
X24848334Y-13317362D02*
X24848334Y-13336409D01*
X24848334Y-13336409D02*
X24753096Y-13355457D01*
X24924524Y-13412600D02*
X24943572Y-13422124D01*
X24943572Y-13422124D02*
X24981667Y-13422124D01*
X24981667Y-13422124D02*
X25000715Y-13412600D01*
X25000715Y-13412600D02*
X25010238Y-13393552D01*
X25010238Y-13393552D02*
X25010238Y-13384028D01*
X25010238Y-13384028D02*
X25000715Y-13364981D01*
X25000715Y-13364981D02*
X24981667Y-13355457D01*
X24981667Y-13355457D02*
X24953096Y-13355457D01*
X24953096Y-13355457D02*
X24934048Y-13345933D01*
X24934048Y-13345933D02*
X24924524Y-13326886D01*
X24924524Y-13326886D02*
X24924524Y-13317362D01*
X24924524Y-13317362D02*
X24934048Y-13298314D01*
X24934048Y-13298314D02*
X24953096Y-13288790D01*
X24953096Y-13288790D02*
X24981667Y-13288790D01*
X24981667Y-13288790D02*
X25000715Y-13298314D01*
X25076905Y-13498314D02*
X25086429Y-13488790D01*
X25086429Y-13488790D02*
X25105477Y-13460219D01*
X25105477Y-13460219D02*
X25115000Y-13441171D01*
X25115000Y-13441171D02*
X25124524Y-13412600D01*
X25124524Y-13412600D02*
X25134048Y-13364981D01*
X25134048Y-13364981D02*
X25134048Y-13326886D01*
X25134048Y-13326886D02*
X25124524Y-13279267D01*
X25124524Y-13279267D02*
X25115000Y-13250695D01*
X25115000Y-13250695D02*
X25105477Y-13231648D01*
X25105477Y-13231648D02*
X25086429Y-13203076D01*
X25086429Y-13203076D02*
X25076905Y-13193552D01*
D14*
X20275000Y-13553600D02*
X20275000Y-13633600D01*
X20235000Y-13593600D02*
X20315000Y-13593600D01*
D11*
X20600714Y-13486124D02*
X20619762Y-13486124D01*
X20619762Y-13486124D02*
X20638810Y-13495648D01*
X20638810Y-13495648D02*
X20648333Y-13505171D01*
X20648333Y-13505171D02*
X20657857Y-13524219D01*
X20657857Y-13524219D02*
X20667381Y-13562314D01*
X20667381Y-13562314D02*
X20667381Y-13609933D01*
X20667381Y-13609933D02*
X20657857Y-13648028D01*
X20657857Y-13648028D02*
X20648333Y-13667076D01*
X20648333Y-13667076D02*
X20638810Y-13676600D01*
X20638810Y-13676600D02*
X20619762Y-13686124D01*
X20619762Y-13686124D02*
X20600714Y-13686124D01*
X20600714Y-13686124D02*
X20581667Y-13676600D01*
X20581667Y-13676600D02*
X20572143Y-13667076D01*
X20572143Y-13667076D02*
X20562619Y-13648028D01*
X20562619Y-13648028D02*
X20553095Y-13609933D01*
X20553095Y-13609933D02*
X20553095Y-13562314D01*
X20553095Y-13562314D02*
X20562619Y-13524219D01*
X20562619Y-13524219D02*
X20572143Y-13505171D01*
X20572143Y-13505171D02*
X20581667Y-13495648D01*
X20581667Y-13495648D02*
X20600714Y-13486124D01*
X20753095Y-13667076D02*
X20762619Y-13676600D01*
X20762619Y-13676600D02*
X20753095Y-13686124D01*
X20753095Y-13686124D02*
X20743571Y-13676600D01*
X20743571Y-13676600D02*
X20753095Y-13667076D01*
X20753095Y-13667076D02*
X20753095Y-13686124D01*
X20876905Y-13571838D02*
X20857857Y-13562314D01*
X20857857Y-13562314D02*
X20848333Y-13552790D01*
X20848333Y-13552790D02*
X20838810Y-13533743D01*
X20838810Y-13533743D02*
X20838810Y-13524219D01*
X20838810Y-13524219D02*
X20848333Y-13505171D01*
X20848333Y-13505171D02*
X20857857Y-13495648D01*
X20857857Y-13495648D02*
X20876905Y-13486124D01*
X20876905Y-13486124D02*
X20915000Y-13486124D01*
X20915000Y-13486124D02*
X20934048Y-13495648D01*
X20934048Y-13495648D02*
X20943571Y-13505171D01*
X20943571Y-13505171D02*
X20953095Y-13524219D01*
X20953095Y-13524219D02*
X20953095Y-13533743D01*
X20953095Y-13533743D02*
X20943571Y-13552790D01*
X20943571Y-13552790D02*
X20934048Y-13562314D01*
X20934048Y-13562314D02*
X20915000Y-13571838D01*
X20915000Y-13571838D02*
X20876905Y-13571838D01*
X20876905Y-13571838D02*
X20857857Y-13581362D01*
X20857857Y-13581362D02*
X20848333Y-13590886D01*
X20848333Y-13590886D02*
X20838810Y-13609933D01*
X20838810Y-13609933D02*
X20838810Y-13648028D01*
X20838810Y-13648028D02*
X20848333Y-13667076D01*
X20848333Y-13667076D02*
X20857857Y-13676600D01*
X20857857Y-13676600D02*
X20876905Y-13686124D01*
X20876905Y-13686124D02*
X20915000Y-13686124D01*
X20915000Y-13686124D02*
X20934048Y-13676600D01*
X20934048Y-13676600D02*
X20943571Y-13667076D01*
X20943571Y-13667076D02*
X20953095Y-13648028D01*
X20953095Y-13648028D02*
X20953095Y-13609933D01*
X20953095Y-13609933D02*
X20943571Y-13590886D01*
X20943571Y-13590886D02*
X20934048Y-13581362D01*
X20934048Y-13581362D02*
X20915000Y-13571838D01*
X21076905Y-13486124D02*
X21095952Y-13486124D01*
X21095952Y-13486124D02*
X21115000Y-13495648D01*
X21115000Y-13495648D02*
X21124524Y-13505171D01*
X21124524Y-13505171D02*
X21134048Y-13524219D01*
X21134048Y-13524219D02*
X21143571Y-13562314D01*
X21143571Y-13562314D02*
X21143571Y-13609933D01*
X21143571Y-13609933D02*
X21134048Y-13648028D01*
X21134048Y-13648028D02*
X21124524Y-13667076D01*
X21124524Y-13667076D02*
X21115000Y-13676600D01*
X21115000Y-13676600D02*
X21095952Y-13686124D01*
X21095952Y-13686124D02*
X21076905Y-13686124D01*
X21076905Y-13686124D02*
X21057857Y-13676600D01*
X21057857Y-13676600D02*
X21048333Y-13667076D01*
X21048333Y-13667076D02*
X21038810Y-13648028D01*
X21038810Y-13648028D02*
X21029286Y-13609933D01*
X21029286Y-13609933D02*
X21029286Y-13562314D01*
X21029286Y-13562314D02*
X21038810Y-13524219D01*
X21038810Y-13524219D02*
X21048333Y-13505171D01*
X21048333Y-13505171D02*
X21057857Y-13495648D01*
X21057857Y-13495648D02*
X21076905Y-13486124D01*
X21267381Y-13486124D02*
X21286429Y-13486124D01*
X21286429Y-13486124D02*
X21305476Y-13495648D01*
X21305476Y-13495648D02*
X21315000Y-13505171D01*
X21315000Y-13505171D02*
X21324524Y-13524219D01*
X21324524Y-13524219D02*
X21334048Y-13562314D01*
X21334048Y-13562314D02*
X21334048Y-13609933D01*
X21334048Y-13609933D02*
X21324524Y-13648028D01*
X21324524Y-13648028D02*
X21315000Y-13667076D01*
X21315000Y-13667076D02*
X21305476Y-13676600D01*
X21305476Y-13676600D02*
X21286429Y-13686124D01*
X21286429Y-13686124D02*
X21267381Y-13686124D01*
X21267381Y-13686124D02*
X21248333Y-13676600D01*
X21248333Y-13676600D02*
X21238810Y-13667076D01*
X21238810Y-13667076D02*
X21229286Y-13648028D01*
X21229286Y-13648028D02*
X21219762Y-13609933D01*
X21219762Y-13609933D02*
X21219762Y-13562314D01*
X21219762Y-13562314D02*
X21229286Y-13524219D01*
X21229286Y-13524219D02*
X21238810Y-13505171D01*
X21238810Y-13505171D02*
X21248333Y-13495648D01*
X21248333Y-13495648D02*
X21267381Y-13486124D01*
X21419762Y-13686124D02*
X21419762Y-13552790D01*
X21419762Y-13571838D02*
X21429286Y-13562314D01*
X21429286Y-13562314D02*
X21448333Y-13552790D01*
X21448333Y-13552790D02*
X21476905Y-13552790D01*
X21476905Y-13552790D02*
X21495952Y-13562314D01*
X21495952Y-13562314D02*
X21505476Y-13581362D01*
X21505476Y-13581362D02*
X21505476Y-13686124D01*
X21505476Y-13581362D02*
X21515000Y-13562314D01*
X21515000Y-13562314D02*
X21534048Y-13552790D01*
X21534048Y-13552790D02*
X21562619Y-13552790D01*
X21562619Y-13552790D02*
X21581667Y-13562314D01*
X21581667Y-13562314D02*
X21591191Y-13581362D01*
X21591191Y-13581362D02*
X21591191Y-13686124D01*
X21686429Y-13686124D02*
X21686429Y-13552790D01*
X21686429Y-13571838D02*
X21695952Y-13562314D01*
X21695952Y-13562314D02*
X21715000Y-13552790D01*
X21715000Y-13552790D02*
X21743572Y-13552790D01*
X21743572Y-13552790D02*
X21762619Y-13562314D01*
X21762619Y-13562314D02*
X21772143Y-13581362D01*
X21772143Y-13581362D02*
X21772143Y-13686124D01*
X21772143Y-13581362D02*
X21781667Y-13562314D01*
X21781667Y-13562314D02*
X21800714Y-13552790D01*
X21800714Y-13552790D02*
X21829286Y-13552790D01*
X21829286Y-13552790D02*
X21848333Y-13562314D01*
X21848333Y-13562314D02*
X21857857Y-13581362D01*
X21857857Y-13581362D02*
X21857857Y-13686124D01*
X22248333Y-13476600D02*
X22076905Y-13733743D01*
X22505476Y-13486124D02*
X22524524Y-13486124D01*
X22524524Y-13486124D02*
X22543572Y-13495648D01*
X22543572Y-13495648D02*
X22553095Y-13505171D01*
X22553095Y-13505171D02*
X22562619Y-13524219D01*
X22562619Y-13524219D02*
X22572143Y-13562314D01*
X22572143Y-13562314D02*
X22572143Y-13609933D01*
X22572143Y-13609933D02*
X22562619Y-13648028D01*
X22562619Y-13648028D02*
X22553095Y-13667076D01*
X22553095Y-13667076D02*
X22543572Y-13676600D01*
X22543572Y-13676600D02*
X22524524Y-13686124D01*
X22524524Y-13686124D02*
X22505476Y-13686124D01*
X22505476Y-13686124D02*
X22486429Y-13676600D01*
X22486429Y-13676600D02*
X22476905Y-13667076D01*
X22476905Y-13667076D02*
X22467381Y-13648028D01*
X22467381Y-13648028D02*
X22457857Y-13609933D01*
X22457857Y-13609933D02*
X22457857Y-13562314D01*
X22457857Y-13562314D02*
X22467381Y-13524219D01*
X22467381Y-13524219D02*
X22476905Y-13505171D01*
X22476905Y-13505171D02*
X22486429Y-13495648D01*
X22486429Y-13495648D02*
X22505476Y-13486124D01*
X22657857Y-13667076D02*
X22667381Y-13676600D01*
X22667381Y-13676600D02*
X22657857Y-13686124D01*
X22657857Y-13686124D02*
X22648333Y-13676600D01*
X22648333Y-13676600D02*
X22657857Y-13667076D01*
X22657857Y-13667076D02*
X22657857Y-13686124D01*
X22791191Y-13486124D02*
X22810238Y-13486124D01*
X22810238Y-13486124D02*
X22829286Y-13495648D01*
X22829286Y-13495648D02*
X22838810Y-13505171D01*
X22838810Y-13505171D02*
X22848333Y-13524219D01*
X22848333Y-13524219D02*
X22857857Y-13562314D01*
X22857857Y-13562314D02*
X22857857Y-13609933D01*
X22857857Y-13609933D02*
X22848333Y-13648028D01*
X22848333Y-13648028D02*
X22838810Y-13667076D01*
X22838810Y-13667076D02*
X22829286Y-13676600D01*
X22829286Y-13676600D02*
X22810238Y-13686124D01*
X22810238Y-13686124D02*
X22791191Y-13686124D01*
X22791191Y-13686124D02*
X22772143Y-13676600D01*
X22772143Y-13676600D02*
X22762619Y-13667076D01*
X22762619Y-13667076D02*
X22753095Y-13648028D01*
X22753095Y-13648028D02*
X22743572Y-13609933D01*
X22743572Y-13609933D02*
X22743572Y-13562314D01*
X22743572Y-13562314D02*
X22753095Y-13524219D01*
X22753095Y-13524219D02*
X22762619Y-13505171D01*
X22762619Y-13505171D02*
X22772143Y-13495648D01*
X22772143Y-13495648D02*
X22791191Y-13486124D01*
X22924524Y-13486124D02*
X23048333Y-13486124D01*
X23048333Y-13486124D02*
X22981667Y-13562314D01*
X22981667Y-13562314D02*
X23010238Y-13562314D01*
X23010238Y-13562314D02*
X23029286Y-13571838D01*
X23029286Y-13571838D02*
X23038810Y-13581362D01*
X23038810Y-13581362D02*
X23048333Y-13600409D01*
X23048333Y-13600409D02*
X23048333Y-13648028D01*
X23048333Y-13648028D02*
X23038810Y-13667076D01*
X23038810Y-13667076D02*
X23029286Y-13676600D01*
X23029286Y-13676600D02*
X23010238Y-13686124D01*
X23010238Y-13686124D02*
X22953095Y-13686124D01*
X22953095Y-13686124D02*
X22934048Y-13676600D01*
X22934048Y-13676600D02*
X22924524Y-13667076D01*
X23238810Y-13686124D02*
X23124524Y-13686124D01*
X23181667Y-13686124D02*
X23181667Y-13486124D01*
X23181667Y-13486124D02*
X23162619Y-13514695D01*
X23162619Y-13514695D02*
X23143572Y-13533743D01*
X23143572Y-13533743D02*
X23124524Y-13543267D01*
X23419762Y-13486124D02*
X23324524Y-13486124D01*
X23324524Y-13486124D02*
X23315000Y-13581362D01*
X23315000Y-13581362D02*
X23324524Y-13571838D01*
X23324524Y-13571838D02*
X23343572Y-13562314D01*
X23343572Y-13562314D02*
X23391191Y-13562314D01*
X23391191Y-13562314D02*
X23410238Y-13571838D01*
X23410238Y-13571838D02*
X23419762Y-13581362D01*
X23419762Y-13581362D02*
X23429286Y-13600409D01*
X23429286Y-13600409D02*
X23429286Y-13648028D01*
X23429286Y-13648028D02*
X23419762Y-13667076D01*
X23419762Y-13667076D02*
X23410238Y-13676600D01*
X23410238Y-13676600D02*
X23391191Y-13686124D01*
X23391191Y-13686124D02*
X23343572Y-13686124D01*
X23343572Y-13686124D02*
X23324524Y-13676600D01*
X23324524Y-13676600D02*
X23315000Y-13667076D01*
X23505476Y-13486124D02*
X23505476Y-13524219D01*
X23581667Y-13486124D02*
X23581667Y-13524219D01*
X23876905Y-13762314D02*
X23867381Y-13752790D01*
X23867381Y-13752790D02*
X23848334Y-13724219D01*
X23848334Y-13724219D02*
X23838810Y-13705171D01*
X23838810Y-13705171D02*
X23829286Y-13676600D01*
X23829286Y-13676600D02*
X23819762Y-13628981D01*
X23819762Y-13628981D02*
X23819762Y-13590886D01*
X23819762Y-13590886D02*
X23829286Y-13543267D01*
X23829286Y-13543267D02*
X23838810Y-13514695D01*
X23838810Y-13514695D02*
X23848334Y-13495648D01*
X23848334Y-13495648D02*
X23867381Y-13467076D01*
X23867381Y-13467076D02*
X23876905Y-13457552D01*
X24057857Y-13686124D02*
X23943572Y-13686124D01*
X24000714Y-13686124D02*
X24000714Y-13486124D01*
X24000714Y-13486124D02*
X23981667Y-13514695D01*
X23981667Y-13514695D02*
X23962619Y-13533743D01*
X23962619Y-13533743D02*
X23943572Y-13543267D01*
X24134048Y-13505171D02*
X24143572Y-13495648D01*
X24143572Y-13495648D02*
X24162619Y-13486124D01*
X24162619Y-13486124D02*
X24210238Y-13486124D01*
X24210238Y-13486124D02*
X24229286Y-13495648D01*
X24229286Y-13495648D02*
X24238810Y-13505171D01*
X24238810Y-13505171D02*
X24248334Y-13524219D01*
X24248334Y-13524219D02*
X24248334Y-13543267D01*
X24248334Y-13543267D02*
X24238810Y-13571838D01*
X24238810Y-13571838D02*
X24124524Y-13686124D01*
X24124524Y-13686124D02*
X24248334Y-13686124D01*
X24315000Y-13486124D02*
X24438810Y-13486124D01*
X24438810Y-13486124D02*
X24372143Y-13562314D01*
X24372143Y-13562314D02*
X24400715Y-13562314D01*
X24400715Y-13562314D02*
X24419762Y-13571838D01*
X24419762Y-13571838D02*
X24429286Y-13581362D01*
X24429286Y-13581362D02*
X24438810Y-13600409D01*
X24438810Y-13600409D02*
X24438810Y-13648028D01*
X24438810Y-13648028D02*
X24429286Y-13667076D01*
X24429286Y-13667076D02*
X24419762Y-13676600D01*
X24419762Y-13676600D02*
X24400715Y-13686124D01*
X24400715Y-13686124D02*
X24343572Y-13686124D01*
X24343572Y-13686124D02*
X24324524Y-13676600D01*
X24324524Y-13676600D02*
X24315000Y-13667076D01*
X24676905Y-13686124D02*
X24676905Y-13486124D01*
X24762619Y-13686124D02*
X24762619Y-13581362D01*
X24762619Y-13581362D02*
X24753096Y-13562314D01*
X24753096Y-13562314D02*
X24734048Y-13552790D01*
X24734048Y-13552790D02*
X24705476Y-13552790D01*
X24705476Y-13552790D02*
X24686429Y-13562314D01*
X24686429Y-13562314D02*
X24676905Y-13571838D01*
X24886429Y-13686124D02*
X24867381Y-13676600D01*
X24867381Y-13676600D02*
X24857857Y-13667076D01*
X24857857Y-13667076D02*
X24848334Y-13648028D01*
X24848334Y-13648028D02*
X24848334Y-13590886D01*
X24848334Y-13590886D02*
X24857857Y-13571838D01*
X24857857Y-13571838D02*
X24867381Y-13562314D01*
X24867381Y-13562314D02*
X24886429Y-13552790D01*
X24886429Y-13552790D02*
X24915000Y-13552790D01*
X24915000Y-13552790D02*
X24934048Y-13562314D01*
X24934048Y-13562314D02*
X24943572Y-13571838D01*
X24943572Y-13571838D02*
X24953096Y-13590886D01*
X24953096Y-13590886D02*
X24953096Y-13648028D01*
X24953096Y-13648028D02*
X24943572Y-13667076D01*
X24943572Y-13667076D02*
X24934048Y-13676600D01*
X24934048Y-13676600D02*
X24915000Y-13686124D01*
X24915000Y-13686124D02*
X24886429Y-13686124D01*
X25067381Y-13686124D02*
X25048334Y-13676600D01*
X25048334Y-13676600D02*
X25038810Y-13657552D01*
X25038810Y-13657552D02*
X25038810Y-13486124D01*
X25219762Y-13676600D02*
X25200715Y-13686124D01*
X25200715Y-13686124D02*
X25162619Y-13686124D01*
X25162619Y-13686124D02*
X25143572Y-13676600D01*
X25143572Y-13676600D02*
X25134048Y-13657552D01*
X25134048Y-13657552D02*
X25134048Y-13581362D01*
X25134048Y-13581362D02*
X25143572Y-13562314D01*
X25143572Y-13562314D02*
X25162619Y-13552790D01*
X25162619Y-13552790D02*
X25200715Y-13552790D01*
X25200715Y-13552790D02*
X25219762Y-13562314D01*
X25219762Y-13562314D02*
X25229286Y-13581362D01*
X25229286Y-13581362D02*
X25229286Y-13600409D01*
X25229286Y-13600409D02*
X25134048Y-13619457D01*
X25305477Y-13676600D02*
X25324524Y-13686124D01*
X25324524Y-13686124D02*
X25362619Y-13686124D01*
X25362619Y-13686124D02*
X25381667Y-13676600D01*
X25381667Y-13676600D02*
X25391191Y-13657552D01*
X25391191Y-13657552D02*
X25391191Y-13648028D01*
X25391191Y-13648028D02*
X25381667Y-13628981D01*
X25381667Y-13628981D02*
X25362619Y-13619457D01*
X25362619Y-13619457D02*
X25334048Y-13619457D01*
X25334048Y-13619457D02*
X25315000Y-13609933D01*
X25315000Y-13609933D02*
X25305477Y-13590886D01*
X25305477Y-13590886D02*
X25305477Y-13581362D01*
X25305477Y-13581362D02*
X25315000Y-13562314D01*
X25315000Y-13562314D02*
X25334048Y-13552790D01*
X25334048Y-13552790D02*
X25362619Y-13552790D01*
X25362619Y-13552790D02*
X25381667Y-13562314D01*
X25457858Y-13762314D02*
X25467381Y-13752790D01*
X25467381Y-13752790D02*
X25486429Y-13724219D01*
X25486429Y-13724219D02*
X25495953Y-13705171D01*
X25495953Y-13705171D02*
X25505477Y-13676600D01*
X25505477Y-13676600D02*
X25515000Y-13628981D01*
X25515000Y-13628981D02*
X25515000Y-13590886D01*
X25515000Y-13590886D02*
X25505477Y-13543267D01*
X25505477Y-13543267D02*
X25495953Y-13514695D01*
X25495953Y-13514695D02*
X25486429Y-13495648D01*
X25486429Y-13495648D02*
X25467381Y-13467076D01*
X25467381Y-13467076D02*
X25457858Y-13457552D01*
D10*
X20300356Y-13892956D02*
X20300356Y-13822244D01*
X20229644Y-13822244D01*
X20229644Y-13892956D01*
X20300356Y-13892956D01*
D11*
X20667381Y-13950124D02*
X20553095Y-13950124D01*
X20610238Y-13950124D02*
X20610238Y-13750124D01*
X20610238Y-13750124D02*
X20591190Y-13778695D01*
X20591190Y-13778695D02*
X20572143Y-13797743D01*
X20572143Y-13797743D02*
X20553095Y-13807267D01*
X20753095Y-13931076D02*
X20762619Y-13940600D01*
X20762619Y-13940600D02*
X20753095Y-13950124D01*
X20753095Y-13950124D02*
X20743571Y-13940600D01*
X20743571Y-13940600D02*
X20753095Y-13931076D01*
X20753095Y-13931076D02*
X20753095Y-13950124D01*
X20886429Y-13750124D02*
X20905476Y-13750124D01*
X20905476Y-13750124D02*
X20924524Y-13759648D01*
X20924524Y-13759648D02*
X20934048Y-13769171D01*
X20934048Y-13769171D02*
X20943571Y-13788219D01*
X20943571Y-13788219D02*
X20953095Y-13826314D01*
X20953095Y-13826314D02*
X20953095Y-13873933D01*
X20953095Y-13873933D02*
X20943571Y-13912028D01*
X20943571Y-13912028D02*
X20934048Y-13931076D01*
X20934048Y-13931076D02*
X20924524Y-13940600D01*
X20924524Y-13940600D02*
X20905476Y-13950124D01*
X20905476Y-13950124D02*
X20886429Y-13950124D01*
X20886429Y-13950124D02*
X20867381Y-13940600D01*
X20867381Y-13940600D02*
X20857857Y-13931076D01*
X20857857Y-13931076D02*
X20848333Y-13912028D01*
X20848333Y-13912028D02*
X20838810Y-13873933D01*
X20838810Y-13873933D02*
X20838810Y-13826314D01*
X20838810Y-13826314D02*
X20848333Y-13788219D01*
X20848333Y-13788219D02*
X20857857Y-13769171D01*
X20857857Y-13769171D02*
X20867381Y-13759648D01*
X20867381Y-13759648D02*
X20886429Y-13750124D01*
X21076905Y-13750124D02*
X21095952Y-13750124D01*
X21095952Y-13750124D02*
X21115000Y-13759648D01*
X21115000Y-13759648D02*
X21124524Y-13769171D01*
X21124524Y-13769171D02*
X21134048Y-13788219D01*
X21134048Y-13788219D02*
X21143571Y-13826314D01*
X21143571Y-13826314D02*
X21143571Y-13873933D01*
X21143571Y-13873933D02*
X21134048Y-13912028D01*
X21134048Y-13912028D02*
X21124524Y-13931076D01*
X21124524Y-13931076D02*
X21115000Y-13940600D01*
X21115000Y-13940600D02*
X21095952Y-13950124D01*
X21095952Y-13950124D02*
X21076905Y-13950124D01*
X21076905Y-13950124D02*
X21057857Y-13940600D01*
X21057857Y-13940600D02*
X21048333Y-13931076D01*
X21048333Y-13931076D02*
X21038810Y-13912028D01*
X21038810Y-13912028D02*
X21029286Y-13873933D01*
X21029286Y-13873933D02*
X21029286Y-13826314D01*
X21029286Y-13826314D02*
X21038810Y-13788219D01*
X21038810Y-13788219D02*
X21048333Y-13769171D01*
X21048333Y-13769171D02*
X21057857Y-13759648D01*
X21057857Y-13759648D02*
X21076905Y-13750124D01*
X21267381Y-13750124D02*
X21286429Y-13750124D01*
X21286429Y-13750124D02*
X21305476Y-13759648D01*
X21305476Y-13759648D02*
X21315000Y-13769171D01*
X21315000Y-13769171D02*
X21324524Y-13788219D01*
X21324524Y-13788219D02*
X21334048Y-13826314D01*
X21334048Y-13826314D02*
X21334048Y-13873933D01*
X21334048Y-13873933D02*
X21324524Y-13912028D01*
X21324524Y-13912028D02*
X21315000Y-13931076D01*
X21315000Y-13931076D02*
X21305476Y-13940600D01*
X21305476Y-13940600D02*
X21286429Y-13950124D01*
X21286429Y-13950124D02*
X21267381Y-13950124D01*
X21267381Y-13950124D02*
X21248333Y-13940600D01*
X21248333Y-13940600D02*
X21238810Y-13931076D01*
X21238810Y-13931076D02*
X21229286Y-13912028D01*
X21229286Y-13912028D02*
X21219762Y-13873933D01*
X21219762Y-13873933D02*
X21219762Y-13826314D01*
X21219762Y-13826314D02*
X21229286Y-13788219D01*
X21229286Y-13788219D02*
X21238810Y-13769171D01*
X21238810Y-13769171D02*
X21248333Y-13759648D01*
X21248333Y-13759648D02*
X21267381Y-13750124D01*
X21419762Y-13950124D02*
X21419762Y-13816790D01*
X21419762Y-13835838D02*
X21429286Y-13826314D01*
X21429286Y-13826314D02*
X21448333Y-13816790D01*
X21448333Y-13816790D02*
X21476905Y-13816790D01*
X21476905Y-13816790D02*
X21495952Y-13826314D01*
X21495952Y-13826314D02*
X21505476Y-13845362D01*
X21505476Y-13845362D02*
X21505476Y-13950124D01*
X21505476Y-13845362D02*
X21515000Y-13826314D01*
X21515000Y-13826314D02*
X21534048Y-13816790D01*
X21534048Y-13816790D02*
X21562619Y-13816790D01*
X21562619Y-13816790D02*
X21581667Y-13826314D01*
X21581667Y-13826314D02*
X21591191Y-13845362D01*
X21591191Y-13845362D02*
X21591191Y-13950124D01*
X21686429Y-13950124D02*
X21686429Y-13816790D01*
X21686429Y-13835838D02*
X21695952Y-13826314D01*
X21695952Y-13826314D02*
X21715000Y-13816790D01*
X21715000Y-13816790D02*
X21743572Y-13816790D01*
X21743572Y-13816790D02*
X21762619Y-13826314D01*
X21762619Y-13826314D02*
X21772143Y-13845362D01*
X21772143Y-13845362D02*
X21772143Y-13950124D01*
X21772143Y-13845362D02*
X21781667Y-13826314D01*
X21781667Y-13826314D02*
X21800714Y-13816790D01*
X21800714Y-13816790D02*
X21829286Y-13816790D01*
X21829286Y-13816790D02*
X21848333Y-13826314D01*
X21848333Y-13826314D02*
X21857857Y-13845362D01*
X21857857Y-13845362D02*
X21857857Y-13950124D01*
X22248333Y-13740600D02*
X22076905Y-13997743D01*
X22505476Y-13750124D02*
X22524524Y-13750124D01*
X22524524Y-13750124D02*
X22543572Y-13759648D01*
X22543572Y-13759648D02*
X22553095Y-13769171D01*
X22553095Y-13769171D02*
X22562619Y-13788219D01*
X22562619Y-13788219D02*
X22572143Y-13826314D01*
X22572143Y-13826314D02*
X22572143Y-13873933D01*
X22572143Y-13873933D02*
X22562619Y-13912028D01*
X22562619Y-13912028D02*
X22553095Y-13931076D01*
X22553095Y-13931076D02*
X22543572Y-13940600D01*
X22543572Y-13940600D02*
X22524524Y-13950124D01*
X22524524Y-13950124D02*
X22505476Y-13950124D01*
X22505476Y-13950124D02*
X22486429Y-13940600D01*
X22486429Y-13940600D02*
X22476905Y-13931076D01*
X22476905Y-13931076D02*
X22467381Y-13912028D01*
X22467381Y-13912028D02*
X22457857Y-13873933D01*
X22457857Y-13873933D02*
X22457857Y-13826314D01*
X22457857Y-13826314D02*
X22467381Y-13788219D01*
X22467381Y-13788219D02*
X22476905Y-13769171D01*
X22476905Y-13769171D02*
X22486429Y-13759648D01*
X22486429Y-13759648D02*
X22505476Y-13750124D01*
X22657857Y-13931076D02*
X22667381Y-13940600D01*
X22667381Y-13940600D02*
X22657857Y-13950124D01*
X22657857Y-13950124D02*
X22648333Y-13940600D01*
X22648333Y-13940600D02*
X22657857Y-13931076D01*
X22657857Y-13931076D02*
X22657857Y-13950124D01*
X22791191Y-13750124D02*
X22810238Y-13750124D01*
X22810238Y-13750124D02*
X22829286Y-13759648D01*
X22829286Y-13759648D02*
X22838810Y-13769171D01*
X22838810Y-13769171D02*
X22848333Y-13788219D01*
X22848333Y-13788219D02*
X22857857Y-13826314D01*
X22857857Y-13826314D02*
X22857857Y-13873933D01*
X22857857Y-13873933D02*
X22848333Y-13912028D01*
X22848333Y-13912028D02*
X22838810Y-13931076D01*
X22838810Y-13931076D02*
X22829286Y-13940600D01*
X22829286Y-13940600D02*
X22810238Y-13950124D01*
X22810238Y-13950124D02*
X22791191Y-13950124D01*
X22791191Y-13950124D02*
X22772143Y-13940600D01*
X22772143Y-13940600D02*
X22762619Y-13931076D01*
X22762619Y-13931076D02*
X22753095Y-13912028D01*
X22753095Y-13912028D02*
X22743572Y-13873933D01*
X22743572Y-13873933D02*
X22743572Y-13826314D01*
X22743572Y-13826314D02*
X22753095Y-13788219D01*
X22753095Y-13788219D02*
X22762619Y-13769171D01*
X22762619Y-13769171D02*
X22772143Y-13759648D01*
X22772143Y-13759648D02*
X22791191Y-13750124D01*
X22924524Y-13750124D02*
X23048333Y-13750124D01*
X23048333Y-13750124D02*
X22981667Y-13826314D01*
X22981667Y-13826314D02*
X23010238Y-13826314D01*
X23010238Y-13826314D02*
X23029286Y-13835838D01*
X23029286Y-13835838D02*
X23038810Y-13845362D01*
X23038810Y-13845362D02*
X23048333Y-13864409D01*
X23048333Y-13864409D02*
X23048333Y-13912028D01*
X23048333Y-13912028D02*
X23038810Y-13931076D01*
X23038810Y-13931076D02*
X23029286Y-13940600D01*
X23029286Y-13940600D02*
X23010238Y-13950124D01*
X23010238Y-13950124D02*
X22953095Y-13950124D01*
X22953095Y-13950124D02*
X22934048Y-13940600D01*
X22934048Y-13940600D02*
X22924524Y-13931076D01*
X23143572Y-13950124D02*
X23181667Y-13950124D01*
X23181667Y-13950124D02*
X23200714Y-13940600D01*
X23200714Y-13940600D02*
X23210238Y-13931076D01*
X23210238Y-13931076D02*
X23229286Y-13902505D01*
X23229286Y-13902505D02*
X23238810Y-13864409D01*
X23238810Y-13864409D02*
X23238810Y-13788219D01*
X23238810Y-13788219D02*
X23229286Y-13769171D01*
X23229286Y-13769171D02*
X23219762Y-13759648D01*
X23219762Y-13759648D02*
X23200714Y-13750124D01*
X23200714Y-13750124D02*
X23162619Y-13750124D01*
X23162619Y-13750124D02*
X23143572Y-13759648D01*
X23143572Y-13759648D02*
X23134048Y-13769171D01*
X23134048Y-13769171D02*
X23124524Y-13788219D01*
X23124524Y-13788219D02*
X23124524Y-13835838D01*
X23124524Y-13835838D02*
X23134048Y-13854886D01*
X23134048Y-13854886D02*
X23143572Y-13864409D01*
X23143572Y-13864409D02*
X23162619Y-13873933D01*
X23162619Y-13873933D02*
X23200714Y-13873933D01*
X23200714Y-13873933D02*
X23219762Y-13864409D01*
X23219762Y-13864409D02*
X23229286Y-13854886D01*
X23229286Y-13854886D02*
X23238810Y-13835838D01*
X23410238Y-13816790D02*
X23410238Y-13950124D01*
X23362619Y-13740600D02*
X23315000Y-13883457D01*
X23315000Y-13883457D02*
X23438810Y-13883457D01*
X23505476Y-13750124D02*
X23505476Y-13788219D01*
X23581667Y-13750124D02*
X23581667Y-13788219D01*
X23876905Y-14026314D02*
X23867381Y-14016790D01*
X23867381Y-14016790D02*
X23848334Y-13988219D01*
X23848334Y-13988219D02*
X23838810Y-13969171D01*
X23838810Y-13969171D02*
X23829286Y-13940600D01*
X23829286Y-13940600D02*
X23819762Y-13892981D01*
X23819762Y-13892981D02*
X23819762Y-13854886D01*
X23819762Y-13854886D02*
X23829286Y-13807267D01*
X23829286Y-13807267D02*
X23838810Y-13778695D01*
X23838810Y-13778695D02*
X23848334Y-13759648D01*
X23848334Y-13759648D02*
X23867381Y-13731076D01*
X23867381Y-13731076D02*
X23876905Y-13721552D01*
X23943572Y-13769171D02*
X23953095Y-13759648D01*
X23953095Y-13759648D02*
X23972143Y-13750124D01*
X23972143Y-13750124D02*
X24019762Y-13750124D01*
X24019762Y-13750124D02*
X24038810Y-13759648D01*
X24038810Y-13759648D02*
X24048334Y-13769171D01*
X24048334Y-13769171D02*
X24057857Y-13788219D01*
X24057857Y-13788219D02*
X24057857Y-13807267D01*
X24057857Y-13807267D02*
X24048334Y-13835838D01*
X24048334Y-13835838D02*
X23934048Y-13950124D01*
X23934048Y-13950124D02*
X24057857Y-13950124D01*
X24238810Y-13750124D02*
X24143572Y-13750124D01*
X24143572Y-13750124D02*
X24134048Y-13845362D01*
X24134048Y-13845362D02*
X24143572Y-13835838D01*
X24143572Y-13835838D02*
X24162619Y-13826314D01*
X24162619Y-13826314D02*
X24210238Y-13826314D01*
X24210238Y-13826314D02*
X24229286Y-13835838D01*
X24229286Y-13835838D02*
X24238810Y-13845362D01*
X24238810Y-13845362D02*
X24248334Y-13864409D01*
X24248334Y-13864409D02*
X24248334Y-13912028D01*
X24248334Y-13912028D02*
X24238810Y-13931076D01*
X24238810Y-13931076D02*
X24229286Y-13940600D01*
X24229286Y-13940600D02*
X24210238Y-13950124D01*
X24210238Y-13950124D02*
X24162619Y-13950124D01*
X24162619Y-13950124D02*
X24143572Y-13940600D01*
X24143572Y-13940600D02*
X24134048Y-13931076D01*
X24486429Y-13950124D02*
X24486429Y-13750124D01*
X24572143Y-13950124D02*
X24572143Y-13845362D01*
X24572143Y-13845362D02*
X24562619Y-13826314D01*
X24562619Y-13826314D02*
X24543572Y-13816790D01*
X24543572Y-13816790D02*
X24515000Y-13816790D01*
X24515000Y-13816790D02*
X24495953Y-13826314D01*
X24495953Y-13826314D02*
X24486429Y-13835838D01*
X24695953Y-13950124D02*
X24676905Y-13940600D01*
X24676905Y-13940600D02*
X24667381Y-13931076D01*
X24667381Y-13931076D02*
X24657857Y-13912028D01*
X24657857Y-13912028D02*
X24657857Y-13854886D01*
X24657857Y-13854886D02*
X24667381Y-13835838D01*
X24667381Y-13835838D02*
X24676905Y-13826314D01*
X24676905Y-13826314D02*
X24695953Y-13816790D01*
X24695953Y-13816790D02*
X24724524Y-13816790D01*
X24724524Y-13816790D02*
X24743572Y-13826314D01*
X24743572Y-13826314D02*
X24753096Y-13835838D01*
X24753096Y-13835838D02*
X24762619Y-13854886D01*
X24762619Y-13854886D02*
X24762619Y-13912028D01*
X24762619Y-13912028D02*
X24753096Y-13931076D01*
X24753096Y-13931076D02*
X24743572Y-13940600D01*
X24743572Y-13940600D02*
X24724524Y-13950124D01*
X24724524Y-13950124D02*
X24695953Y-13950124D01*
X24876905Y-13950124D02*
X24857857Y-13940600D01*
X24857857Y-13940600D02*
X24848334Y-13921552D01*
X24848334Y-13921552D02*
X24848334Y-13750124D01*
X25029286Y-13940600D02*
X25010238Y-13950124D01*
X25010238Y-13950124D02*
X24972143Y-13950124D01*
X24972143Y-13950124D02*
X24953096Y-13940600D01*
X24953096Y-13940600D02*
X24943572Y-13921552D01*
X24943572Y-13921552D02*
X24943572Y-13845362D01*
X24943572Y-13845362D02*
X24953096Y-13826314D01*
X24953096Y-13826314D02*
X24972143Y-13816790D01*
X24972143Y-13816790D02*
X25010238Y-13816790D01*
X25010238Y-13816790D02*
X25029286Y-13826314D01*
X25029286Y-13826314D02*
X25038810Y-13845362D01*
X25038810Y-13845362D02*
X25038810Y-13864409D01*
X25038810Y-13864409D02*
X24943572Y-13883457D01*
X25115000Y-13940600D02*
X25134048Y-13950124D01*
X25134048Y-13950124D02*
X25172143Y-13950124D01*
X25172143Y-13950124D02*
X25191191Y-13940600D01*
X25191191Y-13940600D02*
X25200715Y-13921552D01*
X25200715Y-13921552D02*
X25200715Y-13912028D01*
X25200715Y-13912028D02*
X25191191Y-13892981D01*
X25191191Y-13892981D02*
X25172143Y-13883457D01*
X25172143Y-13883457D02*
X25143572Y-13883457D01*
X25143572Y-13883457D02*
X25124524Y-13873933D01*
X25124524Y-13873933D02*
X25115000Y-13854886D01*
X25115000Y-13854886D02*
X25115000Y-13845362D01*
X25115000Y-13845362D02*
X25124524Y-13826314D01*
X25124524Y-13826314D02*
X25143572Y-13816790D01*
X25143572Y-13816790D02*
X25172143Y-13816790D01*
X25172143Y-13816790D02*
X25191191Y-13826314D01*
X25438810Y-13873933D02*
X25591191Y-13873933D01*
X25515000Y-13950124D02*
X25515000Y-13797743D01*
X25924524Y-13750124D02*
X25886429Y-13750124D01*
X25886429Y-13750124D02*
X25867381Y-13759648D01*
X25867381Y-13759648D02*
X25857858Y-13769171D01*
X25857858Y-13769171D02*
X25838810Y-13797743D01*
X25838810Y-13797743D02*
X25829286Y-13835838D01*
X25829286Y-13835838D02*
X25829286Y-13912028D01*
X25829286Y-13912028D02*
X25838810Y-13931076D01*
X25838810Y-13931076D02*
X25848334Y-13940600D01*
X25848334Y-13940600D02*
X25867381Y-13950124D01*
X25867381Y-13950124D02*
X25905477Y-13950124D01*
X25905477Y-13950124D02*
X25924524Y-13940600D01*
X25924524Y-13940600D02*
X25934048Y-13931076D01*
X25934048Y-13931076D02*
X25943572Y-13912028D01*
X25943572Y-13912028D02*
X25943572Y-13864409D01*
X25943572Y-13864409D02*
X25934048Y-13845362D01*
X25934048Y-13845362D02*
X25924524Y-13835838D01*
X25924524Y-13835838D02*
X25905477Y-13826314D01*
X25905477Y-13826314D02*
X25867381Y-13826314D01*
X25867381Y-13826314D02*
X25848334Y-13835838D01*
X25848334Y-13835838D02*
X25838810Y-13845362D01*
X25838810Y-13845362D02*
X25829286Y-13864409D01*
X26172143Y-13940600D02*
X26191191Y-13950124D01*
X26191191Y-13950124D02*
X26229286Y-13950124D01*
X26229286Y-13950124D02*
X26248334Y-13940600D01*
X26248334Y-13940600D02*
X26257858Y-13921552D01*
X26257858Y-13921552D02*
X26257858Y-13912028D01*
X26257858Y-13912028D02*
X26248334Y-13892981D01*
X26248334Y-13892981D02*
X26229286Y-13883457D01*
X26229286Y-13883457D02*
X26200715Y-13883457D01*
X26200715Y-13883457D02*
X26181667Y-13873933D01*
X26181667Y-13873933D02*
X26172143Y-13854886D01*
X26172143Y-13854886D02*
X26172143Y-13845362D01*
X26172143Y-13845362D02*
X26181667Y-13826314D01*
X26181667Y-13826314D02*
X26200715Y-13816790D01*
X26200715Y-13816790D02*
X26229286Y-13816790D01*
X26229286Y-13816790D02*
X26248334Y-13826314D01*
X26372143Y-13950124D02*
X26353096Y-13940600D01*
X26353096Y-13940600D02*
X26343572Y-13921552D01*
X26343572Y-13921552D02*
X26343572Y-13750124D01*
X26476905Y-13950124D02*
X26457858Y-13940600D01*
X26457858Y-13940600D02*
X26448334Y-13931076D01*
X26448334Y-13931076D02*
X26438810Y-13912028D01*
X26438810Y-13912028D02*
X26438810Y-13854886D01*
X26438810Y-13854886D02*
X26448334Y-13835838D01*
X26448334Y-13835838D02*
X26457858Y-13826314D01*
X26457858Y-13826314D02*
X26476905Y-13816790D01*
X26476905Y-13816790D02*
X26505477Y-13816790D01*
X26505477Y-13816790D02*
X26524524Y-13826314D01*
X26524524Y-13826314D02*
X26534048Y-13835838D01*
X26534048Y-13835838D02*
X26543572Y-13854886D01*
X26543572Y-13854886D02*
X26543572Y-13912028D01*
X26543572Y-13912028D02*
X26534048Y-13931076D01*
X26534048Y-13931076D02*
X26524524Y-13940600D01*
X26524524Y-13940600D02*
X26505477Y-13950124D01*
X26505477Y-13950124D02*
X26476905Y-13950124D01*
X26600715Y-13816790D02*
X26676905Y-13816790D01*
X26629286Y-13750124D02*
X26629286Y-13921552D01*
X26629286Y-13921552D02*
X26638810Y-13940600D01*
X26638810Y-13940600D02*
X26657858Y-13950124D01*
X26657858Y-13950124D02*
X26676905Y-13950124D01*
X26734048Y-13940600D02*
X26753096Y-13950124D01*
X26753096Y-13950124D02*
X26791191Y-13950124D01*
X26791191Y-13950124D02*
X26810239Y-13940600D01*
X26810239Y-13940600D02*
X26819762Y-13921552D01*
X26819762Y-13921552D02*
X26819762Y-13912028D01*
X26819762Y-13912028D02*
X26810239Y-13892981D01*
X26810239Y-13892981D02*
X26791191Y-13883457D01*
X26791191Y-13883457D02*
X26762620Y-13883457D01*
X26762620Y-13883457D02*
X26743572Y-13873933D01*
X26743572Y-13873933D02*
X26734048Y-13854886D01*
X26734048Y-13854886D02*
X26734048Y-13845362D01*
X26734048Y-13845362D02*
X26743572Y-13826314D01*
X26743572Y-13826314D02*
X26762620Y-13816790D01*
X26762620Y-13816790D02*
X26791191Y-13816790D01*
X26791191Y-13816790D02*
X26810239Y-13826314D01*
X26886429Y-14026314D02*
X26895953Y-14016790D01*
X26895953Y-14016790D02*
X26915001Y-13988219D01*
X26915001Y-13988219D02*
X26924524Y-13969171D01*
X26924524Y-13969171D02*
X26934048Y-13940600D01*
X26934048Y-13940600D02*
X26943572Y-13892981D01*
X26943572Y-13892981D02*
X26943572Y-13854886D01*
X26943572Y-13854886D02*
X26934048Y-13807267D01*
X26934048Y-13807267D02*
X26924524Y-13778695D01*
X26924524Y-13778695D02*
X26915001Y-13759648D01*
X26915001Y-13759648D02*
X26895953Y-13731076D01*
X26895953Y-13731076D02*
X26886429Y-13721552D01*
D15*
X20260000Y-14176600D02*
X20315000Y-14121600D01*
X20260000Y-14066600D01*
X20205000Y-14121600D01*
X20260000Y-14176600D01*
D11*
X20667381Y-14214124D02*
X20553095Y-14214124D01*
X20610238Y-14214124D02*
X20610238Y-14014124D01*
X20610238Y-14014124D02*
X20591190Y-14042695D01*
X20591190Y-14042695D02*
X20572143Y-14061743D01*
X20572143Y-14061743D02*
X20553095Y-14071267D01*
X20753095Y-14195076D02*
X20762619Y-14204600D01*
X20762619Y-14204600D02*
X20753095Y-14214124D01*
X20753095Y-14214124D02*
X20743571Y-14204600D01*
X20743571Y-14204600D02*
X20753095Y-14195076D01*
X20753095Y-14195076D02*
X20753095Y-14214124D01*
X20953095Y-14214124D02*
X20838810Y-14214124D01*
X20895952Y-14214124D02*
X20895952Y-14014124D01*
X20895952Y-14014124D02*
X20876905Y-14042695D01*
X20876905Y-14042695D02*
X20857857Y-14061743D01*
X20857857Y-14061743D02*
X20838810Y-14071267D01*
X21076905Y-14014124D02*
X21095952Y-14014124D01*
X21095952Y-14014124D02*
X21115000Y-14023648D01*
X21115000Y-14023648D02*
X21124524Y-14033171D01*
X21124524Y-14033171D02*
X21134048Y-14052219D01*
X21134048Y-14052219D02*
X21143571Y-14090314D01*
X21143571Y-14090314D02*
X21143571Y-14137933D01*
X21143571Y-14137933D02*
X21134048Y-14176028D01*
X21134048Y-14176028D02*
X21124524Y-14195076D01*
X21124524Y-14195076D02*
X21115000Y-14204600D01*
X21115000Y-14204600D02*
X21095952Y-14214124D01*
X21095952Y-14214124D02*
X21076905Y-14214124D01*
X21076905Y-14214124D02*
X21057857Y-14204600D01*
X21057857Y-14204600D02*
X21048333Y-14195076D01*
X21048333Y-14195076D02*
X21038810Y-14176028D01*
X21038810Y-14176028D02*
X21029286Y-14137933D01*
X21029286Y-14137933D02*
X21029286Y-14090314D01*
X21029286Y-14090314D02*
X21038810Y-14052219D01*
X21038810Y-14052219D02*
X21048333Y-14033171D01*
X21048333Y-14033171D02*
X21057857Y-14023648D01*
X21057857Y-14023648D02*
X21076905Y-14014124D01*
X21267381Y-14014124D02*
X21286429Y-14014124D01*
X21286429Y-14014124D02*
X21305476Y-14023648D01*
X21305476Y-14023648D02*
X21315000Y-14033171D01*
X21315000Y-14033171D02*
X21324524Y-14052219D01*
X21324524Y-14052219D02*
X21334048Y-14090314D01*
X21334048Y-14090314D02*
X21334048Y-14137933D01*
X21334048Y-14137933D02*
X21324524Y-14176028D01*
X21324524Y-14176028D02*
X21315000Y-14195076D01*
X21315000Y-14195076D02*
X21305476Y-14204600D01*
X21305476Y-14204600D02*
X21286429Y-14214124D01*
X21286429Y-14214124D02*
X21267381Y-14214124D01*
X21267381Y-14214124D02*
X21248333Y-14204600D01*
X21248333Y-14204600D02*
X21238810Y-14195076D01*
X21238810Y-14195076D02*
X21229286Y-14176028D01*
X21229286Y-14176028D02*
X21219762Y-14137933D01*
X21219762Y-14137933D02*
X21219762Y-14090314D01*
X21219762Y-14090314D02*
X21229286Y-14052219D01*
X21229286Y-14052219D02*
X21238810Y-14033171D01*
X21238810Y-14033171D02*
X21248333Y-14023648D01*
X21248333Y-14023648D02*
X21267381Y-14014124D01*
X21419762Y-14214124D02*
X21419762Y-14080790D01*
X21419762Y-14099838D02*
X21429286Y-14090314D01*
X21429286Y-14090314D02*
X21448333Y-14080790D01*
X21448333Y-14080790D02*
X21476905Y-14080790D01*
X21476905Y-14080790D02*
X21495952Y-14090314D01*
X21495952Y-14090314D02*
X21505476Y-14109362D01*
X21505476Y-14109362D02*
X21505476Y-14214124D01*
X21505476Y-14109362D02*
X21515000Y-14090314D01*
X21515000Y-14090314D02*
X21534048Y-14080790D01*
X21534048Y-14080790D02*
X21562619Y-14080790D01*
X21562619Y-14080790D02*
X21581667Y-14090314D01*
X21581667Y-14090314D02*
X21591191Y-14109362D01*
X21591191Y-14109362D02*
X21591191Y-14214124D01*
X21686429Y-14214124D02*
X21686429Y-14080790D01*
X21686429Y-14099838D02*
X21695952Y-14090314D01*
X21695952Y-14090314D02*
X21715000Y-14080790D01*
X21715000Y-14080790D02*
X21743572Y-14080790D01*
X21743572Y-14080790D02*
X21762619Y-14090314D01*
X21762619Y-14090314D02*
X21772143Y-14109362D01*
X21772143Y-14109362D02*
X21772143Y-14214124D01*
X21772143Y-14109362D02*
X21781667Y-14090314D01*
X21781667Y-14090314D02*
X21800714Y-14080790D01*
X21800714Y-14080790D02*
X21829286Y-14080790D01*
X21829286Y-14080790D02*
X21848333Y-14090314D01*
X21848333Y-14090314D02*
X21857857Y-14109362D01*
X21857857Y-14109362D02*
X21857857Y-14214124D01*
X22248333Y-14004600D02*
X22076905Y-14261743D01*
X22505476Y-14014124D02*
X22524524Y-14014124D01*
X22524524Y-14014124D02*
X22543572Y-14023648D01*
X22543572Y-14023648D02*
X22553095Y-14033171D01*
X22553095Y-14033171D02*
X22562619Y-14052219D01*
X22562619Y-14052219D02*
X22572143Y-14090314D01*
X22572143Y-14090314D02*
X22572143Y-14137933D01*
X22572143Y-14137933D02*
X22562619Y-14176028D01*
X22562619Y-14176028D02*
X22553095Y-14195076D01*
X22553095Y-14195076D02*
X22543572Y-14204600D01*
X22543572Y-14204600D02*
X22524524Y-14214124D01*
X22524524Y-14214124D02*
X22505476Y-14214124D01*
X22505476Y-14214124D02*
X22486429Y-14204600D01*
X22486429Y-14204600D02*
X22476905Y-14195076D01*
X22476905Y-14195076D02*
X22467381Y-14176028D01*
X22467381Y-14176028D02*
X22457857Y-14137933D01*
X22457857Y-14137933D02*
X22457857Y-14090314D01*
X22457857Y-14090314D02*
X22467381Y-14052219D01*
X22467381Y-14052219D02*
X22476905Y-14033171D01*
X22476905Y-14033171D02*
X22486429Y-14023648D01*
X22486429Y-14023648D02*
X22505476Y-14014124D01*
X22657857Y-14195076D02*
X22667381Y-14204600D01*
X22667381Y-14204600D02*
X22657857Y-14214124D01*
X22657857Y-14214124D02*
X22648333Y-14204600D01*
X22648333Y-14204600D02*
X22657857Y-14195076D01*
X22657857Y-14195076D02*
X22657857Y-14214124D01*
X22791191Y-14014124D02*
X22810238Y-14014124D01*
X22810238Y-14014124D02*
X22829286Y-14023648D01*
X22829286Y-14023648D02*
X22838810Y-14033171D01*
X22838810Y-14033171D02*
X22848333Y-14052219D01*
X22848333Y-14052219D02*
X22857857Y-14090314D01*
X22857857Y-14090314D02*
X22857857Y-14137933D01*
X22857857Y-14137933D02*
X22848333Y-14176028D01*
X22848333Y-14176028D02*
X22838810Y-14195076D01*
X22838810Y-14195076D02*
X22829286Y-14204600D01*
X22829286Y-14204600D02*
X22810238Y-14214124D01*
X22810238Y-14214124D02*
X22791191Y-14214124D01*
X22791191Y-14214124D02*
X22772143Y-14204600D01*
X22772143Y-14204600D02*
X22762619Y-14195076D01*
X22762619Y-14195076D02*
X22753095Y-14176028D01*
X22753095Y-14176028D02*
X22743572Y-14137933D01*
X22743572Y-14137933D02*
X22743572Y-14090314D01*
X22743572Y-14090314D02*
X22753095Y-14052219D01*
X22753095Y-14052219D02*
X22762619Y-14033171D01*
X22762619Y-14033171D02*
X22772143Y-14023648D01*
X22772143Y-14023648D02*
X22791191Y-14014124D01*
X23029286Y-14080790D02*
X23029286Y-14214124D01*
X22981667Y-14004600D02*
X22934048Y-14147457D01*
X22934048Y-14147457D02*
X23057857Y-14147457D01*
X23115000Y-14014124D02*
X23238810Y-14014124D01*
X23238810Y-14014124D02*
X23172143Y-14090314D01*
X23172143Y-14090314D02*
X23200714Y-14090314D01*
X23200714Y-14090314D02*
X23219762Y-14099838D01*
X23219762Y-14099838D02*
X23229286Y-14109362D01*
X23229286Y-14109362D02*
X23238810Y-14128409D01*
X23238810Y-14128409D02*
X23238810Y-14176028D01*
X23238810Y-14176028D02*
X23229286Y-14195076D01*
X23229286Y-14195076D02*
X23219762Y-14204600D01*
X23219762Y-14204600D02*
X23200714Y-14214124D01*
X23200714Y-14214124D02*
X23143572Y-14214124D01*
X23143572Y-14214124D02*
X23124524Y-14204600D01*
X23124524Y-14204600D02*
X23115000Y-14195076D01*
X23305476Y-14014124D02*
X23429286Y-14014124D01*
X23429286Y-14014124D02*
X23362619Y-14090314D01*
X23362619Y-14090314D02*
X23391191Y-14090314D01*
X23391191Y-14090314D02*
X23410238Y-14099838D01*
X23410238Y-14099838D02*
X23419762Y-14109362D01*
X23419762Y-14109362D02*
X23429286Y-14128409D01*
X23429286Y-14128409D02*
X23429286Y-14176028D01*
X23429286Y-14176028D02*
X23419762Y-14195076D01*
X23419762Y-14195076D02*
X23410238Y-14204600D01*
X23410238Y-14204600D02*
X23391191Y-14214124D01*
X23391191Y-14214124D02*
X23334048Y-14214124D01*
X23334048Y-14214124D02*
X23315000Y-14204600D01*
X23315000Y-14204600D02*
X23305476Y-14195076D01*
X23505476Y-14014124D02*
X23505476Y-14052219D01*
X23581667Y-14014124D02*
X23581667Y-14052219D01*
X23876905Y-14290314D02*
X23867381Y-14280790D01*
X23867381Y-14280790D02*
X23848334Y-14252219D01*
X23848334Y-14252219D02*
X23838810Y-14233171D01*
X23838810Y-14233171D02*
X23829286Y-14204600D01*
X23829286Y-14204600D02*
X23819762Y-14156981D01*
X23819762Y-14156981D02*
X23819762Y-14118886D01*
X23819762Y-14118886D02*
X23829286Y-14071267D01*
X23829286Y-14071267D02*
X23838810Y-14042695D01*
X23838810Y-14042695D02*
X23848334Y-14023648D01*
X23848334Y-14023648D02*
X23867381Y-13995076D01*
X23867381Y-13995076D02*
X23876905Y-13985552D01*
X24038810Y-14080790D02*
X24038810Y-14214124D01*
X23991191Y-14004600D02*
X23943572Y-14147457D01*
X23943572Y-14147457D02*
X24067381Y-14147457D01*
X24295953Y-14214124D02*
X24295953Y-14014124D01*
X24381667Y-14214124D02*
X24381667Y-14109362D01*
X24381667Y-14109362D02*
X24372143Y-14090314D01*
X24372143Y-14090314D02*
X24353096Y-14080790D01*
X24353096Y-14080790D02*
X24324524Y-14080790D01*
X24324524Y-14080790D02*
X24305476Y-14090314D01*
X24305476Y-14090314D02*
X24295953Y-14099838D01*
X24505476Y-14214124D02*
X24486429Y-14204600D01*
X24486429Y-14204600D02*
X24476905Y-14195076D01*
X24476905Y-14195076D02*
X24467381Y-14176028D01*
X24467381Y-14176028D02*
X24467381Y-14118886D01*
X24467381Y-14118886D02*
X24476905Y-14099838D01*
X24476905Y-14099838D02*
X24486429Y-14090314D01*
X24486429Y-14090314D02*
X24505476Y-14080790D01*
X24505476Y-14080790D02*
X24534048Y-14080790D01*
X24534048Y-14080790D02*
X24553096Y-14090314D01*
X24553096Y-14090314D02*
X24562619Y-14099838D01*
X24562619Y-14099838D02*
X24572143Y-14118886D01*
X24572143Y-14118886D02*
X24572143Y-14176028D01*
X24572143Y-14176028D02*
X24562619Y-14195076D01*
X24562619Y-14195076D02*
X24553096Y-14204600D01*
X24553096Y-14204600D02*
X24534048Y-14214124D01*
X24534048Y-14214124D02*
X24505476Y-14214124D01*
X24686429Y-14214124D02*
X24667381Y-14204600D01*
X24667381Y-14204600D02*
X24657857Y-14185552D01*
X24657857Y-14185552D02*
X24657857Y-14014124D01*
X24838810Y-14204600D02*
X24819762Y-14214124D01*
X24819762Y-14214124D02*
X24781667Y-14214124D01*
X24781667Y-14214124D02*
X24762619Y-14204600D01*
X24762619Y-14204600D02*
X24753096Y-14185552D01*
X24753096Y-14185552D02*
X24753096Y-14109362D01*
X24753096Y-14109362D02*
X24762619Y-14090314D01*
X24762619Y-14090314D02*
X24781667Y-14080790D01*
X24781667Y-14080790D02*
X24819762Y-14080790D01*
X24819762Y-14080790D02*
X24838810Y-14090314D01*
X24838810Y-14090314D02*
X24848334Y-14109362D01*
X24848334Y-14109362D02*
X24848334Y-14128409D01*
X24848334Y-14128409D02*
X24753096Y-14147457D01*
X24924524Y-14204600D02*
X24943572Y-14214124D01*
X24943572Y-14214124D02*
X24981667Y-14214124D01*
X24981667Y-14214124D02*
X25000715Y-14204600D01*
X25000715Y-14204600D02*
X25010238Y-14185552D01*
X25010238Y-14185552D02*
X25010238Y-14176028D01*
X25010238Y-14176028D02*
X25000715Y-14156981D01*
X25000715Y-14156981D02*
X24981667Y-14147457D01*
X24981667Y-14147457D02*
X24953096Y-14147457D01*
X24953096Y-14147457D02*
X24934048Y-14137933D01*
X24934048Y-14137933D02*
X24924524Y-14118886D01*
X24924524Y-14118886D02*
X24924524Y-14109362D01*
X24924524Y-14109362D02*
X24934048Y-14090314D01*
X24934048Y-14090314D02*
X24953096Y-14080790D01*
X24953096Y-14080790D02*
X24981667Y-14080790D01*
X24981667Y-14080790D02*
X25000715Y-14090314D01*
X25076905Y-14290314D02*
X25086429Y-14280790D01*
X25086429Y-14280790D02*
X25105477Y-14252219D01*
X25105477Y-14252219D02*
X25115000Y-14233171D01*
X25115000Y-14233171D02*
X25124524Y-14204600D01*
X25124524Y-14204600D02*
X25134048Y-14156981D01*
X25134048Y-14156981D02*
X25134048Y-14118886D01*
X25134048Y-14118886D02*
X25124524Y-14071267D01*
X25124524Y-14071267D02*
X25115000Y-14042695D01*
X25115000Y-14042695D02*
X25105477Y-14023648D01*
X25105477Y-14023648D02*
X25086429Y-13995076D01*
X25086429Y-13995076D02*
X25076905Y-13985552D01*
D16*
X20193000Y-14324600D02*
X20315000Y-14446600D01*
X20315000Y-14324600D02*
X20193000Y-14446600D01*
X20315000Y-14385600D02*
G75*
G03*
X20315000Y-14385600I-61000J0D01*
G01*
D11*
X20667381Y-14478124D02*
X20553095Y-14478124D01*
X20610238Y-14478124D02*
X20610238Y-14278124D01*
X20610238Y-14278124D02*
X20591190Y-14306695D01*
X20591190Y-14306695D02*
X20572143Y-14325743D01*
X20572143Y-14325743D02*
X20553095Y-14335267D01*
X20753095Y-14459076D02*
X20762619Y-14468600D01*
X20762619Y-14468600D02*
X20753095Y-14478124D01*
X20753095Y-14478124D02*
X20743571Y-14468600D01*
X20743571Y-14468600D02*
X20753095Y-14459076D01*
X20753095Y-14459076D02*
X20753095Y-14478124D01*
X20838810Y-14297171D02*
X20848333Y-14287648D01*
X20848333Y-14287648D02*
X20867381Y-14278124D01*
X20867381Y-14278124D02*
X20915000Y-14278124D01*
X20915000Y-14278124D02*
X20934048Y-14287648D01*
X20934048Y-14287648D02*
X20943571Y-14297171D01*
X20943571Y-14297171D02*
X20953095Y-14316219D01*
X20953095Y-14316219D02*
X20953095Y-14335267D01*
X20953095Y-14335267D02*
X20943571Y-14363838D01*
X20943571Y-14363838D02*
X20829286Y-14478124D01*
X20829286Y-14478124D02*
X20953095Y-14478124D01*
X21029286Y-14297171D02*
X21038810Y-14287648D01*
X21038810Y-14287648D02*
X21057857Y-14278124D01*
X21057857Y-14278124D02*
X21105476Y-14278124D01*
X21105476Y-14278124D02*
X21124524Y-14287648D01*
X21124524Y-14287648D02*
X21134048Y-14297171D01*
X21134048Y-14297171D02*
X21143571Y-14316219D01*
X21143571Y-14316219D02*
X21143571Y-14335267D01*
X21143571Y-14335267D02*
X21134048Y-14363838D01*
X21134048Y-14363838D02*
X21019762Y-14478124D01*
X21019762Y-14478124D02*
X21143571Y-14478124D01*
X21267381Y-14278124D02*
X21286429Y-14278124D01*
X21286429Y-14278124D02*
X21305476Y-14287648D01*
X21305476Y-14287648D02*
X21315000Y-14297171D01*
X21315000Y-14297171D02*
X21324524Y-14316219D01*
X21324524Y-14316219D02*
X21334048Y-14354314D01*
X21334048Y-14354314D02*
X21334048Y-14401933D01*
X21334048Y-14401933D02*
X21324524Y-14440028D01*
X21324524Y-14440028D02*
X21315000Y-14459076D01*
X21315000Y-14459076D02*
X21305476Y-14468600D01*
X21305476Y-14468600D02*
X21286429Y-14478124D01*
X21286429Y-14478124D02*
X21267381Y-14478124D01*
X21267381Y-14478124D02*
X21248333Y-14468600D01*
X21248333Y-14468600D02*
X21238810Y-14459076D01*
X21238810Y-14459076D02*
X21229286Y-14440028D01*
X21229286Y-14440028D02*
X21219762Y-14401933D01*
X21219762Y-14401933D02*
X21219762Y-14354314D01*
X21219762Y-14354314D02*
X21229286Y-14316219D01*
X21229286Y-14316219D02*
X21238810Y-14297171D01*
X21238810Y-14297171D02*
X21248333Y-14287648D01*
X21248333Y-14287648D02*
X21267381Y-14278124D01*
X21419762Y-14478124D02*
X21419762Y-14344790D01*
X21419762Y-14363838D02*
X21429286Y-14354314D01*
X21429286Y-14354314D02*
X21448333Y-14344790D01*
X21448333Y-14344790D02*
X21476905Y-14344790D01*
X21476905Y-14344790D02*
X21495952Y-14354314D01*
X21495952Y-14354314D02*
X21505476Y-14373362D01*
X21505476Y-14373362D02*
X21505476Y-14478124D01*
X21505476Y-14373362D02*
X21515000Y-14354314D01*
X21515000Y-14354314D02*
X21534048Y-14344790D01*
X21534048Y-14344790D02*
X21562619Y-14344790D01*
X21562619Y-14344790D02*
X21581667Y-14354314D01*
X21581667Y-14354314D02*
X21591191Y-14373362D01*
X21591191Y-14373362D02*
X21591191Y-14478124D01*
X21686429Y-14478124D02*
X21686429Y-14344790D01*
X21686429Y-14363838D02*
X21695952Y-14354314D01*
X21695952Y-14354314D02*
X21715000Y-14344790D01*
X21715000Y-14344790D02*
X21743572Y-14344790D01*
X21743572Y-14344790D02*
X21762619Y-14354314D01*
X21762619Y-14354314D02*
X21772143Y-14373362D01*
X21772143Y-14373362D02*
X21772143Y-14478124D01*
X21772143Y-14373362D02*
X21781667Y-14354314D01*
X21781667Y-14354314D02*
X21800714Y-14344790D01*
X21800714Y-14344790D02*
X21829286Y-14344790D01*
X21829286Y-14344790D02*
X21848333Y-14354314D01*
X21848333Y-14354314D02*
X21857857Y-14373362D01*
X21857857Y-14373362D02*
X21857857Y-14478124D01*
X22248333Y-14268600D02*
X22076905Y-14525743D01*
X22505476Y-14278124D02*
X22524524Y-14278124D01*
X22524524Y-14278124D02*
X22543572Y-14287648D01*
X22543572Y-14287648D02*
X22553095Y-14297171D01*
X22553095Y-14297171D02*
X22562619Y-14316219D01*
X22562619Y-14316219D02*
X22572143Y-14354314D01*
X22572143Y-14354314D02*
X22572143Y-14401933D01*
X22572143Y-14401933D02*
X22562619Y-14440028D01*
X22562619Y-14440028D02*
X22553095Y-14459076D01*
X22553095Y-14459076D02*
X22543572Y-14468600D01*
X22543572Y-14468600D02*
X22524524Y-14478124D01*
X22524524Y-14478124D02*
X22505476Y-14478124D01*
X22505476Y-14478124D02*
X22486429Y-14468600D01*
X22486429Y-14468600D02*
X22476905Y-14459076D01*
X22476905Y-14459076D02*
X22467381Y-14440028D01*
X22467381Y-14440028D02*
X22457857Y-14401933D01*
X22457857Y-14401933D02*
X22457857Y-14354314D01*
X22457857Y-14354314D02*
X22467381Y-14316219D01*
X22467381Y-14316219D02*
X22476905Y-14297171D01*
X22476905Y-14297171D02*
X22486429Y-14287648D01*
X22486429Y-14287648D02*
X22505476Y-14278124D01*
X22657857Y-14459076D02*
X22667381Y-14468600D01*
X22667381Y-14468600D02*
X22657857Y-14478124D01*
X22657857Y-14478124D02*
X22648333Y-14468600D01*
X22648333Y-14468600D02*
X22657857Y-14459076D01*
X22657857Y-14459076D02*
X22657857Y-14478124D01*
X22791191Y-14278124D02*
X22810238Y-14278124D01*
X22810238Y-14278124D02*
X22829286Y-14287648D01*
X22829286Y-14287648D02*
X22838810Y-14297171D01*
X22838810Y-14297171D02*
X22848333Y-14316219D01*
X22848333Y-14316219D02*
X22857857Y-14354314D01*
X22857857Y-14354314D02*
X22857857Y-14401933D01*
X22857857Y-14401933D02*
X22848333Y-14440028D01*
X22848333Y-14440028D02*
X22838810Y-14459076D01*
X22838810Y-14459076D02*
X22829286Y-14468600D01*
X22829286Y-14468600D02*
X22810238Y-14478124D01*
X22810238Y-14478124D02*
X22791191Y-14478124D01*
X22791191Y-14478124D02*
X22772143Y-14468600D01*
X22772143Y-14468600D02*
X22762619Y-14459076D01*
X22762619Y-14459076D02*
X22753095Y-14440028D01*
X22753095Y-14440028D02*
X22743572Y-14401933D01*
X22743572Y-14401933D02*
X22743572Y-14354314D01*
X22743572Y-14354314D02*
X22753095Y-14316219D01*
X22753095Y-14316219D02*
X22762619Y-14297171D01*
X22762619Y-14297171D02*
X22772143Y-14287648D01*
X22772143Y-14287648D02*
X22791191Y-14278124D01*
X23029286Y-14344790D02*
X23029286Y-14478124D01*
X22981667Y-14268600D02*
X22934048Y-14411457D01*
X22934048Y-14411457D02*
X23057857Y-14411457D01*
X23162619Y-14363838D02*
X23143572Y-14354314D01*
X23143572Y-14354314D02*
X23134048Y-14344790D01*
X23134048Y-14344790D02*
X23124524Y-14325743D01*
X23124524Y-14325743D02*
X23124524Y-14316219D01*
X23124524Y-14316219D02*
X23134048Y-14297171D01*
X23134048Y-14297171D02*
X23143572Y-14287648D01*
X23143572Y-14287648D02*
X23162619Y-14278124D01*
X23162619Y-14278124D02*
X23200714Y-14278124D01*
X23200714Y-14278124D02*
X23219762Y-14287648D01*
X23219762Y-14287648D02*
X23229286Y-14297171D01*
X23229286Y-14297171D02*
X23238810Y-14316219D01*
X23238810Y-14316219D02*
X23238810Y-14325743D01*
X23238810Y-14325743D02*
X23229286Y-14344790D01*
X23229286Y-14344790D02*
X23219762Y-14354314D01*
X23219762Y-14354314D02*
X23200714Y-14363838D01*
X23200714Y-14363838D02*
X23162619Y-14363838D01*
X23162619Y-14363838D02*
X23143572Y-14373362D01*
X23143572Y-14373362D02*
X23134048Y-14382886D01*
X23134048Y-14382886D02*
X23124524Y-14401933D01*
X23124524Y-14401933D02*
X23124524Y-14440028D01*
X23124524Y-14440028D02*
X23134048Y-14459076D01*
X23134048Y-14459076D02*
X23143572Y-14468600D01*
X23143572Y-14468600D02*
X23162619Y-14478124D01*
X23162619Y-14478124D02*
X23200714Y-14478124D01*
X23200714Y-14478124D02*
X23219762Y-14468600D01*
X23219762Y-14468600D02*
X23229286Y-14459076D01*
X23229286Y-14459076D02*
X23238810Y-14440028D01*
X23238810Y-14440028D02*
X23238810Y-14401933D01*
X23238810Y-14401933D02*
X23229286Y-14382886D01*
X23229286Y-14382886D02*
X23219762Y-14373362D01*
X23219762Y-14373362D02*
X23200714Y-14363838D01*
X23362619Y-14278124D02*
X23381667Y-14278124D01*
X23381667Y-14278124D02*
X23400714Y-14287648D01*
X23400714Y-14287648D02*
X23410238Y-14297171D01*
X23410238Y-14297171D02*
X23419762Y-14316219D01*
X23419762Y-14316219D02*
X23429286Y-14354314D01*
X23429286Y-14354314D02*
X23429286Y-14401933D01*
X23429286Y-14401933D02*
X23419762Y-14440028D01*
X23419762Y-14440028D02*
X23410238Y-14459076D01*
X23410238Y-14459076D02*
X23400714Y-14468600D01*
X23400714Y-14468600D02*
X23381667Y-14478124D01*
X23381667Y-14478124D02*
X23362619Y-14478124D01*
X23362619Y-14478124D02*
X23343572Y-14468600D01*
X23343572Y-14468600D02*
X23334048Y-14459076D01*
X23334048Y-14459076D02*
X23324524Y-14440028D01*
X23324524Y-14440028D02*
X23315000Y-14401933D01*
X23315000Y-14401933D02*
X23315000Y-14354314D01*
X23315000Y-14354314D02*
X23324524Y-14316219D01*
X23324524Y-14316219D02*
X23334048Y-14297171D01*
X23334048Y-14297171D02*
X23343572Y-14287648D01*
X23343572Y-14287648D02*
X23362619Y-14278124D01*
X23505476Y-14278124D02*
X23505476Y-14316219D01*
X23581667Y-14278124D02*
X23581667Y-14316219D01*
X23876905Y-14554314D02*
X23867381Y-14544790D01*
X23867381Y-14544790D02*
X23848334Y-14516219D01*
X23848334Y-14516219D02*
X23838810Y-14497171D01*
X23838810Y-14497171D02*
X23829286Y-14468600D01*
X23829286Y-14468600D02*
X23819762Y-14420981D01*
X23819762Y-14420981D02*
X23819762Y-14382886D01*
X23819762Y-14382886D02*
X23829286Y-14335267D01*
X23829286Y-14335267D02*
X23838810Y-14306695D01*
X23838810Y-14306695D02*
X23848334Y-14287648D01*
X23848334Y-14287648D02*
X23867381Y-14259076D01*
X23867381Y-14259076D02*
X23876905Y-14249552D01*
X23981667Y-14363838D02*
X23962619Y-14354314D01*
X23962619Y-14354314D02*
X23953095Y-14344790D01*
X23953095Y-14344790D02*
X23943572Y-14325743D01*
X23943572Y-14325743D02*
X23943572Y-14316219D01*
X23943572Y-14316219D02*
X23953095Y-14297171D01*
X23953095Y-14297171D02*
X23962619Y-14287648D01*
X23962619Y-14287648D02*
X23981667Y-14278124D01*
X23981667Y-14278124D02*
X24019762Y-14278124D01*
X24019762Y-14278124D02*
X24038810Y-14287648D01*
X24038810Y-14287648D02*
X24048334Y-14297171D01*
X24048334Y-14297171D02*
X24057857Y-14316219D01*
X24057857Y-14316219D02*
X24057857Y-14325743D01*
X24057857Y-14325743D02*
X24048334Y-14344790D01*
X24048334Y-14344790D02*
X24038810Y-14354314D01*
X24038810Y-14354314D02*
X24019762Y-14363838D01*
X24019762Y-14363838D02*
X23981667Y-14363838D01*
X23981667Y-14363838D02*
X23962619Y-14373362D01*
X23962619Y-14373362D02*
X23953095Y-14382886D01*
X23953095Y-14382886D02*
X23943572Y-14401933D01*
X23943572Y-14401933D02*
X23943572Y-14440028D01*
X23943572Y-14440028D02*
X23953095Y-14459076D01*
X23953095Y-14459076D02*
X23962619Y-14468600D01*
X23962619Y-14468600D02*
X23981667Y-14478124D01*
X23981667Y-14478124D02*
X24019762Y-14478124D01*
X24019762Y-14478124D02*
X24038810Y-14468600D01*
X24038810Y-14468600D02*
X24048334Y-14459076D01*
X24048334Y-14459076D02*
X24057857Y-14440028D01*
X24057857Y-14440028D02*
X24057857Y-14401933D01*
X24057857Y-14401933D02*
X24048334Y-14382886D01*
X24048334Y-14382886D02*
X24038810Y-14373362D01*
X24038810Y-14373362D02*
X24019762Y-14363838D01*
X24295953Y-14478124D02*
X24295953Y-14278124D01*
X24381667Y-14478124D02*
X24381667Y-14373362D01*
X24381667Y-14373362D02*
X24372143Y-14354314D01*
X24372143Y-14354314D02*
X24353096Y-14344790D01*
X24353096Y-14344790D02*
X24324524Y-14344790D01*
X24324524Y-14344790D02*
X24305476Y-14354314D01*
X24305476Y-14354314D02*
X24295953Y-14363838D01*
X24505476Y-14478124D02*
X24486429Y-14468600D01*
X24486429Y-14468600D02*
X24476905Y-14459076D01*
X24476905Y-14459076D02*
X24467381Y-14440028D01*
X24467381Y-14440028D02*
X24467381Y-14382886D01*
X24467381Y-14382886D02*
X24476905Y-14363838D01*
X24476905Y-14363838D02*
X24486429Y-14354314D01*
X24486429Y-14354314D02*
X24505476Y-14344790D01*
X24505476Y-14344790D02*
X24534048Y-14344790D01*
X24534048Y-14344790D02*
X24553096Y-14354314D01*
X24553096Y-14354314D02*
X24562619Y-14363838D01*
X24562619Y-14363838D02*
X24572143Y-14382886D01*
X24572143Y-14382886D02*
X24572143Y-14440028D01*
X24572143Y-14440028D02*
X24562619Y-14459076D01*
X24562619Y-14459076D02*
X24553096Y-14468600D01*
X24553096Y-14468600D02*
X24534048Y-14478124D01*
X24534048Y-14478124D02*
X24505476Y-14478124D01*
X24686429Y-14478124D02*
X24667381Y-14468600D01*
X24667381Y-14468600D02*
X24657857Y-14449552D01*
X24657857Y-14449552D02*
X24657857Y-14278124D01*
X24838810Y-14468600D02*
X24819762Y-14478124D01*
X24819762Y-14478124D02*
X24781667Y-14478124D01*
X24781667Y-14478124D02*
X24762619Y-14468600D01*
X24762619Y-14468600D02*
X24753096Y-14449552D01*
X24753096Y-14449552D02*
X24753096Y-14373362D01*
X24753096Y-14373362D02*
X24762619Y-14354314D01*
X24762619Y-14354314D02*
X24781667Y-14344790D01*
X24781667Y-14344790D02*
X24819762Y-14344790D01*
X24819762Y-14344790D02*
X24838810Y-14354314D01*
X24838810Y-14354314D02*
X24848334Y-14373362D01*
X24848334Y-14373362D02*
X24848334Y-14392409D01*
X24848334Y-14392409D02*
X24753096Y-14411457D01*
X24924524Y-14468600D02*
X24943572Y-14478124D01*
X24943572Y-14478124D02*
X24981667Y-14478124D01*
X24981667Y-14478124D02*
X25000715Y-14468600D01*
X25000715Y-14468600D02*
X25010238Y-14449552D01*
X25010238Y-14449552D02*
X25010238Y-14440028D01*
X25010238Y-14440028D02*
X25000715Y-14420981D01*
X25000715Y-14420981D02*
X24981667Y-14411457D01*
X24981667Y-14411457D02*
X24953096Y-14411457D01*
X24953096Y-14411457D02*
X24934048Y-14401933D01*
X24934048Y-14401933D02*
X24924524Y-14382886D01*
X24924524Y-14382886D02*
X24924524Y-14373362D01*
X24924524Y-14373362D02*
X24934048Y-14354314D01*
X24934048Y-14354314D02*
X24953096Y-14344790D01*
X24953096Y-14344790D02*
X24981667Y-14344790D01*
X24981667Y-14344790D02*
X25000715Y-14354314D01*
X25076905Y-14554314D02*
X25086429Y-14544790D01*
X25086429Y-14544790D02*
X25105477Y-14516219D01*
X25105477Y-14516219D02*
X25115000Y-14497171D01*
X25115000Y-14497171D02*
X25124524Y-14468600D01*
X25124524Y-14468600D02*
X25134048Y-14420981D01*
X25134048Y-14420981D02*
X25134048Y-14382886D01*
X25134048Y-14382886D02*
X25124524Y-14335267D01*
X25124524Y-14335267D02*
X25115000Y-14306695D01*
X25115000Y-14306695D02*
X25105477Y-14287648D01*
X25105477Y-14287648D02*
X25086429Y-14259076D01*
X25086429Y-14259076D02*
X25076905Y-14249552D01*
D17*
X20185000Y-14584600D02*
X20315000Y-14714600D01*
X20315000Y-14584600D02*
X20185000Y-14714600D01*
X20250000Y-14584600D02*
X20250000Y-14714600D01*
X20185000Y-14649600D02*
X20315000Y-14649600D01*
D11*
X20667381Y-14742124D02*
X20553095Y-14742124D01*
X20610238Y-14742124D02*
X20610238Y-14542124D01*
X20610238Y-14542124D02*
X20591190Y-14570695D01*
X20591190Y-14570695D02*
X20572143Y-14589743D01*
X20572143Y-14589743D02*
X20553095Y-14599267D01*
X20753095Y-14723076D02*
X20762619Y-14732600D01*
X20762619Y-14732600D02*
X20753095Y-14742124D01*
X20753095Y-14742124D02*
X20743571Y-14732600D01*
X20743571Y-14732600D02*
X20753095Y-14723076D01*
X20753095Y-14723076D02*
X20753095Y-14742124D01*
X20829286Y-14542124D02*
X20953095Y-14542124D01*
X20953095Y-14542124D02*
X20886429Y-14618314D01*
X20886429Y-14618314D02*
X20915000Y-14618314D01*
X20915000Y-14618314D02*
X20934048Y-14627838D01*
X20934048Y-14627838D02*
X20943571Y-14637362D01*
X20943571Y-14637362D02*
X20953095Y-14656409D01*
X20953095Y-14656409D02*
X20953095Y-14704028D01*
X20953095Y-14704028D02*
X20943571Y-14723076D01*
X20943571Y-14723076D02*
X20934048Y-14732600D01*
X20934048Y-14732600D02*
X20915000Y-14742124D01*
X20915000Y-14742124D02*
X20857857Y-14742124D01*
X20857857Y-14742124D02*
X20838810Y-14732600D01*
X20838810Y-14732600D02*
X20829286Y-14723076D01*
X21076905Y-14542124D02*
X21095952Y-14542124D01*
X21095952Y-14542124D02*
X21115000Y-14551648D01*
X21115000Y-14551648D02*
X21124524Y-14561171D01*
X21124524Y-14561171D02*
X21134048Y-14580219D01*
X21134048Y-14580219D02*
X21143571Y-14618314D01*
X21143571Y-14618314D02*
X21143571Y-14665933D01*
X21143571Y-14665933D02*
X21134048Y-14704028D01*
X21134048Y-14704028D02*
X21124524Y-14723076D01*
X21124524Y-14723076D02*
X21115000Y-14732600D01*
X21115000Y-14732600D02*
X21095952Y-14742124D01*
X21095952Y-14742124D02*
X21076905Y-14742124D01*
X21076905Y-14742124D02*
X21057857Y-14732600D01*
X21057857Y-14732600D02*
X21048333Y-14723076D01*
X21048333Y-14723076D02*
X21038810Y-14704028D01*
X21038810Y-14704028D02*
X21029286Y-14665933D01*
X21029286Y-14665933D02*
X21029286Y-14618314D01*
X21029286Y-14618314D02*
X21038810Y-14580219D01*
X21038810Y-14580219D02*
X21048333Y-14561171D01*
X21048333Y-14561171D02*
X21057857Y-14551648D01*
X21057857Y-14551648D02*
X21076905Y-14542124D01*
X21267381Y-14542124D02*
X21286429Y-14542124D01*
X21286429Y-14542124D02*
X21305476Y-14551648D01*
X21305476Y-14551648D02*
X21315000Y-14561171D01*
X21315000Y-14561171D02*
X21324524Y-14580219D01*
X21324524Y-14580219D02*
X21334048Y-14618314D01*
X21334048Y-14618314D02*
X21334048Y-14665933D01*
X21334048Y-14665933D02*
X21324524Y-14704028D01*
X21324524Y-14704028D02*
X21315000Y-14723076D01*
X21315000Y-14723076D02*
X21305476Y-14732600D01*
X21305476Y-14732600D02*
X21286429Y-14742124D01*
X21286429Y-14742124D02*
X21267381Y-14742124D01*
X21267381Y-14742124D02*
X21248333Y-14732600D01*
X21248333Y-14732600D02*
X21238810Y-14723076D01*
X21238810Y-14723076D02*
X21229286Y-14704028D01*
X21229286Y-14704028D02*
X21219762Y-14665933D01*
X21219762Y-14665933D02*
X21219762Y-14618314D01*
X21219762Y-14618314D02*
X21229286Y-14580219D01*
X21229286Y-14580219D02*
X21238810Y-14561171D01*
X21238810Y-14561171D02*
X21248333Y-14551648D01*
X21248333Y-14551648D02*
X21267381Y-14542124D01*
X21419762Y-14742124D02*
X21419762Y-14608790D01*
X21419762Y-14627838D02*
X21429286Y-14618314D01*
X21429286Y-14618314D02*
X21448333Y-14608790D01*
X21448333Y-14608790D02*
X21476905Y-14608790D01*
X21476905Y-14608790D02*
X21495952Y-14618314D01*
X21495952Y-14618314D02*
X21505476Y-14637362D01*
X21505476Y-14637362D02*
X21505476Y-14742124D01*
X21505476Y-14637362D02*
X21515000Y-14618314D01*
X21515000Y-14618314D02*
X21534048Y-14608790D01*
X21534048Y-14608790D02*
X21562619Y-14608790D01*
X21562619Y-14608790D02*
X21581667Y-14618314D01*
X21581667Y-14618314D02*
X21591191Y-14637362D01*
X21591191Y-14637362D02*
X21591191Y-14742124D01*
X21686429Y-14742124D02*
X21686429Y-14608790D01*
X21686429Y-14627838D02*
X21695952Y-14618314D01*
X21695952Y-14618314D02*
X21715000Y-14608790D01*
X21715000Y-14608790D02*
X21743572Y-14608790D01*
X21743572Y-14608790D02*
X21762619Y-14618314D01*
X21762619Y-14618314D02*
X21772143Y-14637362D01*
X21772143Y-14637362D02*
X21772143Y-14742124D01*
X21772143Y-14637362D02*
X21781667Y-14618314D01*
X21781667Y-14618314D02*
X21800714Y-14608790D01*
X21800714Y-14608790D02*
X21829286Y-14608790D01*
X21829286Y-14608790D02*
X21848333Y-14618314D01*
X21848333Y-14618314D02*
X21857857Y-14637362D01*
X21857857Y-14637362D02*
X21857857Y-14742124D01*
X22248333Y-14532600D02*
X22076905Y-14789743D01*
X22505476Y-14542124D02*
X22524524Y-14542124D01*
X22524524Y-14542124D02*
X22543572Y-14551648D01*
X22543572Y-14551648D02*
X22553095Y-14561171D01*
X22553095Y-14561171D02*
X22562619Y-14580219D01*
X22562619Y-14580219D02*
X22572143Y-14618314D01*
X22572143Y-14618314D02*
X22572143Y-14665933D01*
X22572143Y-14665933D02*
X22562619Y-14704028D01*
X22562619Y-14704028D02*
X22553095Y-14723076D01*
X22553095Y-14723076D02*
X22543572Y-14732600D01*
X22543572Y-14732600D02*
X22524524Y-14742124D01*
X22524524Y-14742124D02*
X22505476Y-14742124D01*
X22505476Y-14742124D02*
X22486429Y-14732600D01*
X22486429Y-14732600D02*
X22476905Y-14723076D01*
X22476905Y-14723076D02*
X22467381Y-14704028D01*
X22467381Y-14704028D02*
X22457857Y-14665933D01*
X22457857Y-14665933D02*
X22457857Y-14618314D01*
X22457857Y-14618314D02*
X22467381Y-14580219D01*
X22467381Y-14580219D02*
X22476905Y-14561171D01*
X22476905Y-14561171D02*
X22486429Y-14551648D01*
X22486429Y-14551648D02*
X22505476Y-14542124D01*
X22657857Y-14723076D02*
X22667381Y-14732600D01*
X22667381Y-14732600D02*
X22657857Y-14742124D01*
X22657857Y-14742124D02*
X22648333Y-14732600D01*
X22648333Y-14732600D02*
X22657857Y-14723076D01*
X22657857Y-14723076D02*
X22657857Y-14742124D01*
X22791191Y-14542124D02*
X22810238Y-14542124D01*
X22810238Y-14542124D02*
X22829286Y-14551648D01*
X22829286Y-14551648D02*
X22838810Y-14561171D01*
X22838810Y-14561171D02*
X22848333Y-14580219D01*
X22848333Y-14580219D02*
X22857857Y-14618314D01*
X22857857Y-14618314D02*
X22857857Y-14665933D01*
X22857857Y-14665933D02*
X22848333Y-14704028D01*
X22848333Y-14704028D02*
X22838810Y-14723076D01*
X22838810Y-14723076D02*
X22829286Y-14732600D01*
X22829286Y-14732600D02*
X22810238Y-14742124D01*
X22810238Y-14742124D02*
X22791191Y-14742124D01*
X22791191Y-14742124D02*
X22772143Y-14732600D01*
X22772143Y-14732600D02*
X22762619Y-14723076D01*
X22762619Y-14723076D02*
X22753095Y-14704028D01*
X22753095Y-14704028D02*
X22743572Y-14665933D01*
X22743572Y-14665933D02*
X22743572Y-14618314D01*
X22743572Y-14618314D02*
X22753095Y-14580219D01*
X22753095Y-14580219D02*
X22762619Y-14561171D01*
X22762619Y-14561171D02*
X22772143Y-14551648D01*
X22772143Y-14551648D02*
X22791191Y-14542124D01*
X23038810Y-14542124D02*
X22943572Y-14542124D01*
X22943572Y-14542124D02*
X22934048Y-14637362D01*
X22934048Y-14637362D02*
X22943572Y-14627838D01*
X22943572Y-14627838D02*
X22962619Y-14618314D01*
X22962619Y-14618314D02*
X23010238Y-14618314D01*
X23010238Y-14618314D02*
X23029286Y-14627838D01*
X23029286Y-14627838D02*
X23038810Y-14637362D01*
X23038810Y-14637362D02*
X23048333Y-14656409D01*
X23048333Y-14656409D02*
X23048333Y-14704028D01*
X23048333Y-14704028D02*
X23038810Y-14723076D01*
X23038810Y-14723076D02*
X23029286Y-14732600D01*
X23029286Y-14732600D02*
X23010238Y-14742124D01*
X23010238Y-14742124D02*
X22962619Y-14742124D01*
X22962619Y-14742124D02*
X22943572Y-14732600D01*
X22943572Y-14732600D02*
X22934048Y-14723076D01*
X23238810Y-14742124D02*
X23124524Y-14742124D01*
X23181667Y-14742124D02*
X23181667Y-14542124D01*
X23181667Y-14542124D02*
X23162619Y-14570695D01*
X23162619Y-14570695D02*
X23143572Y-14589743D01*
X23143572Y-14589743D02*
X23124524Y-14599267D01*
X23315000Y-14561171D02*
X23324524Y-14551648D01*
X23324524Y-14551648D02*
X23343572Y-14542124D01*
X23343572Y-14542124D02*
X23391191Y-14542124D01*
X23391191Y-14542124D02*
X23410238Y-14551648D01*
X23410238Y-14551648D02*
X23419762Y-14561171D01*
X23419762Y-14561171D02*
X23429286Y-14580219D01*
X23429286Y-14580219D02*
X23429286Y-14599267D01*
X23429286Y-14599267D02*
X23419762Y-14627838D01*
X23419762Y-14627838D02*
X23305476Y-14742124D01*
X23305476Y-14742124D02*
X23429286Y-14742124D01*
X23505476Y-14542124D02*
X23505476Y-14580219D01*
X23581667Y-14542124D02*
X23581667Y-14580219D01*
X23876905Y-14818314D02*
X23867381Y-14808790D01*
X23867381Y-14808790D02*
X23848334Y-14780219D01*
X23848334Y-14780219D02*
X23838810Y-14761171D01*
X23838810Y-14761171D02*
X23829286Y-14732600D01*
X23829286Y-14732600D02*
X23819762Y-14684981D01*
X23819762Y-14684981D02*
X23819762Y-14646886D01*
X23819762Y-14646886D02*
X23829286Y-14599267D01*
X23829286Y-14599267D02*
X23838810Y-14570695D01*
X23838810Y-14570695D02*
X23848334Y-14551648D01*
X23848334Y-14551648D02*
X23867381Y-14523076D01*
X23867381Y-14523076D02*
X23876905Y-14513552D01*
X23991191Y-14542124D02*
X24010238Y-14542124D01*
X24010238Y-14542124D02*
X24029286Y-14551648D01*
X24029286Y-14551648D02*
X24038810Y-14561171D01*
X24038810Y-14561171D02*
X24048334Y-14580219D01*
X24048334Y-14580219D02*
X24057857Y-14618314D01*
X24057857Y-14618314D02*
X24057857Y-14665933D01*
X24057857Y-14665933D02*
X24048334Y-14704028D01*
X24048334Y-14704028D02*
X24038810Y-14723076D01*
X24038810Y-14723076D02*
X24029286Y-14732600D01*
X24029286Y-14732600D02*
X24010238Y-14742124D01*
X24010238Y-14742124D02*
X23991191Y-14742124D01*
X23991191Y-14742124D02*
X23972143Y-14732600D01*
X23972143Y-14732600D02*
X23962619Y-14723076D01*
X23962619Y-14723076D02*
X23953095Y-14704028D01*
X23953095Y-14704028D02*
X23943572Y-14665933D01*
X23943572Y-14665933D02*
X23943572Y-14618314D01*
X23943572Y-14618314D02*
X23953095Y-14580219D01*
X23953095Y-14580219D02*
X23962619Y-14561171D01*
X23962619Y-14561171D02*
X23972143Y-14551648D01*
X23972143Y-14551648D02*
X23991191Y-14542124D01*
X24295953Y-14742124D02*
X24295953Y-14542124D01*
X24381667Y-14742124D02*
X24381667Y-14637362D01*
X24381667Y-14637362D02*
X24372143Y-14618314D01*
X24372143Y-14618314D02*
X24353096Y-14608790D01*
X24353096Y-14608790D02*
X24324524Y-14608790D01*
X24324524Y-14608790D02*
X24305476Y-14618314D01*
X24305476Y-14618314D02*
X24295953Y-14627838D01*
X24505476Y-14742124D02*
X24486429Y-14732600D01*
X24486429Y-14732600D02*
X24476905Y-14723076D01*
X24476905Y-14723076D02*
X24467381Y-14704028D01*
X24467381Y-14704028D02*
X24467381Y-14646886D01*
X24467381Y-14646886D02*
X24476905Y-14627838D01*
X24476905Y-14627838D02*
X24486429Y-14618314D01*
X24486429Y-14618314D02*
X24505476Y-14608790D01*
X24505476Y-14608790D02*
X24534048Y-14608790D01*
X24534048Y-14608790D02*
X24553096Y-14618314D01*
X24553096Y-14618314D02*
X24562619Y-14627838D01*
X24562619Y-14627838D02*
X24572143Y-14646886D01*
X24572143Y-14646886D02*
X24572143Y-14704028D01*
X24572143Y-14704028D02*
X24562619Y-14723076D01*
X24562619Y-14723076D02*
X24553096Y-14732600D01*
X24553096Y-14732600D02*
X24534048Y-14742124D01*
X24534048Y-14742124D02*
X24505476Y-14742124D01*
X24686429Y-14742124D02*
X24667381Y-14732600D01*
X24667381Y-14732600D02*
X24657857Y-14713552D01*
X24657857Y-14713552D02*
X24657857Y-14542124D01*
X24838810Y-14732600D02*
X24819762Y-14742124D01*
X24819762Y-14742124D02*
X24781667Y-14742124D01*
X24781667Y-14742124D02*
X24762619Y-14732600D01*
X24762619Y-14732600D02*
X24753096Y-14713552D01*
X24753096Y-14713552D02*
X24753096Y-14637362D01*
X24753096Y-14637362D02*
X24762619Y-14618314D01*
X24762619Y-14618314D02*
X24781667Y-14608790D01*
X24781667Y-14608790D02*
X24819762Y-14608790D01*
X24819762Y-14608790D02*
X24838810Y-14618314D01*
X24838810Y-14618314D02*
X24848334Y-14637362D01*
X24848334Y-14637362D02*
X24848334Y-14656409D01*
X24848334Y-14656409D02*
X24753096Y-14675457D01*
X24924524Y-14732600D02*
X24943572Y-14742124D01*
X24943572Y-14742124D02*
X24981667Y-14742124D01*
X24981667Y-14742124D02*
X25000715Y-14732600D01*
X25000715Y-14732600D02*
X25010238Y-14713552D01*
X25010238Y-14713552D02*
X25010238Y-14704028D01*
X25010238Y-14704028D02*
X25000715Y-14684981D01*
X25000715Y-14684981D02*
X24981667Y-14675457D01*
X24981667Y-14675457D02*
X24953096Y-14675457D01*
X24953096Y-14675457D02*
X24934048Y-14665933D01*
X24934048Y-14665933D02*
X24924524Y-14646886D01*
X24924524Y-14646886D02*
X24924524Y-14637362D01*
X24924524Y-14637362D02*
X24934048Y-14618314D01*
X24934048Y-14618314D02*
X24953096Y-14608790D01*
X24953096Y-14608790D02*
X24981667Y-14608790D01*
X24981667Y-14608790D02*
X25000715Y-14618314D01*
X25248334Y-14665933D02*
X25400715Y-14665933D01*
X25324524Y-14742124D02*
X25324524Y-14589743D01*
X25753096Y-14742124D02*
X25638810Y-14742124D01*
X25695953Y-14742124D02*
X25695953Y-14542124D01*
X25695953Y-14542124D02*
X25676905Y-14570695D01*
X25676905Y-14570695D02*
X25657858Y-14589743D01*
X25657858Y-14589743D02*
X25638810Y-14599267D01*
X25876905Y-14542124D02*
X25895953Y-14542124D01*
X25895953Y-14542124D02*
X25915000Y-14551648D01*
X25915000Y-14551648D02*
X25924524Y-14561171D01*
X25924524Y-14561171D02*
X25934048Y-14580219D01*
X25934048Y-14580219D02*
X25943572Y-14618314D01*
X25943572Y-14618314D02*
X25943572Y-14665933D01*
X25943572Y-14665933D02*
X25934048Y-14704028D01*
X25934048Y-14704028D02*
X25924524Y-14723076D01*
X25924524Y-14723076D02*
X25915000Y-14732600D01*
X25915000Y-14732600D02*
X25895953Y-14742124D01*
X25895953Y-14742124D02*
X25876905Y-14742124D01*
X25876905Y-14742124D02*
X25857858Y-14732600D01*
X25857858Y-14732600D02*
X25848334Y-14723076D01*
X25848334Y-14723076D02*
X25838810Y-14704028D01*
X25838810Y-14704028D02*
X25829286Y-14665933D01*
X25829286Y-14665933D02*
X25829286Y-14618314D01*
X25829286Y-14618314D02*
X25838810Y-14580219D01*
X25838810Y-14580219D02*
X25848334Y-14561171D01*
X25848334Y-14561171D02*
X25857858Y-14551648D01*
X25857858Y-14551648D02*
X25876905Y-14542124D01*
X26172143Y-14732600D02*
X26191191Y-14742124D01*
X26191191Y-14742124D02*
X26229286Y-14742124D01*
X26229286Y-14742124D02*
X26248334Y-14732600D01*
X26248334Y-14732600D02*
X26257858Y-14713552D01*
X26257858Y-14713552D02*
X26257858Y-14704028D01*
X26257858Y-14704028D02*
X26248334Y-14684981D01*
X26248334Y-14684981D02*
X26229286Y-14675457D01*
X26229286Y-14675457D02*
X26200715Y-14675457D01*
X26200715Y-14675457D02*
X26181667Y-14665933D01*
X26181667Y-14665933D02*
X26172143Y-14646886D01*
X26172143Y-14646886D02*
X26172143Y-14637362D01*
X26172143Y-14637362D02*
X26181667Y-14618314D01*
X26181667Y-14618314D02*
X26200715Y-14608790D01*
X26200715Y-14608790D02*
X26229286Y-14608790D01*
X26229286Y-14608790D02*
X26248334Y-14618314D01*
X26372143Y-14742124D02*
X26353096Y-14732600D01*
X26353096Y-14732600D02*
X26343572Y-14713552D01*
X26343572Y-14713552D02*
X26343572Y-14542124D01*
X26476905Y-14742124D02*
X26457858Y-14732600D01*
X26457858Y-14732600D02*
X26448334Y-14723076D01*
X26448334Y-14723076D02*
X26438810Y-14704028D01*
X26438810Y-14704028D02*
X26438810Y-14646886D01*
X26438810Y-14646886D02*
X26448334Y-14627838D01*
X26448334Y-14627838D02*
X26457858Y-14618314D01*
X26457858Y-14618314D02*
X26476905Y-14608790D01*
X26476905Y-14608790D02*
X26505477Y-14608790D01*
X26505477Y-14608790D02*
X26524524Y-14618314D01*
X26524524Y-14618314D02*
X26534048Y-14627838D01*
X26534048Y-14627838D02*
X26543572Y-14646886D01*
X26543572Y-14646886D02*
X26543572Y-14704028D01*
X26543572Y-14704028D02*
X26534048Y-14723076D01*
X26534048Y-14723076D02*
X26524524Y-14732600D01*
X26524524Y-14732600D02*
X26505477Y-14742124D01*
X26505477Y-14742124D02*
X26476905Y-14742124D01*
X26600715Y-14608790D02*
X26676905Y-14608790D01*
X26629286Y-14542124D02*
X26629286Y-14713552D01*
X26629286Y-14713552D02*
X26638810Y-14732600D01*
X26638810Y-14732600D02*
X26657858Y-14742124D01*
X26657858Y-14742124D02*
X26676905Y-14742124D01*
X26734048Y-14732600D02*
X26753096Y-14742124D01*
X26753096Y-14742124D02*
X26791191Y-14742124D01*
X26791191Y-14742124D02*
X26810239Y-14732600D01*
X26810239Y-14732600D02*
X26819762Y-14713552D01*
X26819762Y-14713552D02*
X26819762Y-14704028D01*
X26819762Y-14704028D02*
X26810239Y-14684981D01*
X26810239Y-14684981D02*
X26791191Y-14675457D01*
X26791191Y-14675457D02*
X26762620Y-14675457D01*
X26762620Y-14675457D02*
X26743572Y-14665933D01*
X26743572Y-14665933D02*
X26734048Y-14646886D01*
X26734048Y-14646886D02*
X26734048Y-14637362D01*
X26734048Y-14637362D02*
X26743572Y-14618314D01*
X26743572Y-14618314D02*
X26762620Y-14608790D01*
X26762620Y-14608790D02*
X26791191Y-14608790D01*
X26791191Y-14608790D02*
X26810239Y-14618314D01*
X26886429Y-14818314D02*
X26895953Y-14808790D01*
X26895953Y-14808790D02*
X26915001Y-14780219D01*
X26915001Y-14780219D02*
X26924524Y-14761171D01*
X26924524Y-14761171D02*
X26934048Y-14732600D01*
X26934048Y-14732600D02*
X26943572Y-14684981D01*
X26943572Y-14684981D02*
X26943572Y-14646886D01*
X26943572Y-14646886D02*
X26934048Y-14599267D01*
X26934048Y-14599267D02*
X26924524Y-14570695D01*
X26924524Y-14570695D02*
X26915001Y-14551648D01*
X26915001Y-14551648D02*
X26895953Y-14523076D01*
X26895953Y-14523076D02*
X26886429Y-14513552D01*
D18*
X20173000Y-14842600D02*
X20315000Y-14984600D01*
X20315000Y-14842600D02*
X20173000Y-14984600D01*
X20294205Y-14963805D02*
X20294205Y-14863395D01*
X20193795Y-14863395D01*
X20193795Y-14963805D01*
X20294205Y-14963805D01*
D11*
X20667381Y-15006124D02*
X20553095Y-15006124D01*
X20610238Y-15006124D02*
X20610238Y-14806124D01*
X20610238Y-14806124D02*
X20591190Y-14834695D01*
X20591190Y-14834695D02*
X20572143Y-14853743D01*
X20572143Y-14853743D02*
X20553095Y-14863267D01*
X20753095Y-14987076D02*
X20762619Y-14996600D01*
X20762619Y-14996600D02*
X20753095Y-15006124D01*
X20753095Y-15006124D02*
X20743571Y-14996600D01*
X20743571Y-14996600D02*
X20753095Y-14987076D01*
X20753095Y-14987076D02*
X20753095Y-15006124D01*
X20934048Y-14872790D02*
X20934048Y-15006124D01*
X20886429Y-14796600D02*
X20838810Y-14939457D01*
X20838810Y-14939457D02*
X20962619Y-14939457D01*
X21029286Y-14825171D02*
X21038810Y-14815648D01*
X21038810Y-14815648D02*
X21057857Y-14806124D01*
X21057857Y-14806124D02*
X21105476Y-14806124D01*
X21105476Y-14806124D02*
X21124524Y-14815648D01*
X21124524Y-14815648D02*
X21134048Y-14825171D01*
X21134048Y-14825171D02*
X21143571Y-14844219D01*
X21143571Y-14844219D02*
X21143571Y-14863267D01*
X21143571Y-14863267D02*
X21134048Y-14891838D01*
X21134048Y-14891838D02*
X21019762Y-15006124D01*
X21019762Y-15006124D02*
X21143571Y-15006124D01*
X21267381Y-14806124D02*
X21286429Y-14806124D01*
X21286429Y-14806124D02*
X21305476Y-14815648D01*
X21305476Y-14815648D02*
X21315000Y-14825171D01*
X21315000Y-14825171D02*
X21324524Y-14844219D01*
X21324524Y-14844219D02*
X21334048Y-14882314D01*
X21334048Y-14882314D02*
X21334048Y-14929933D01*
X21334048Y-14929933D02*
X21324524Y-14968028D01*
X21324524Y-14968028D02*
X21315000Y-14987076D01*
X21315000Y-14987076D02*
X21305476Y-14996600D01*
X21305476Y-14996600D02*
X21286429Y-15006124D01*
X21286429Y-15006124D02*
X21267381Y-15006124D01*
X21267381Y-15006124D02*
X21248333Y-14996600D01*
X21248333Y-14996600D02*
X21238810Y-14987076D01*
X21238810Y-14987076D02*
X21229286Y-14968028D01*
X21229286Y-14968028D02*
X21219762Y-14929933D01*
X21219762Y-14929933D02*
X21219762Y-14882314D01*
X21219762Y-14882314D02*
X21229286Y-14844219D01*
X21229286Y-14844219D02*
X21238810Y-14825171D01*
X21238810Y-14825171D02*
X21248333Y-14815648D01*
X21248333Y-14815648D02*
X21267381Y-14806124D01*
X21419762Y-15006124D02*
X21419762Y-14872790D01*
X21419762Y-14891838D02*
X21429286Y-14882314D01*
X21429286Y-14882314D02*
X21448333Y-14872790D01*
X21448333Y-14872790D02*
X21476905Y-14872790D01*
X21476905Y-14872790D02*
X21495952Y-14882314D01*
X21495952Y-14882314D02*
X21505476Y-14901362D01*
X21505476Y-14901362D02*
X21505476Y-15006124D01*
X21505476Y-14901362D02*
X21515000Y-14882314D01*
X21515000Y-14882314D02*
X21534048Y-14872790D01*
X21534048Y-14872790D02*
X21562619Y-14872790D01*
X21562619Y-14872790D02*
X21581667Y-14882314D01*
X21581667Y-14882314D02*
X21591191Y-14901362D01*
X21591191Y-14901362D02*
X21591191Y-15006124D01*
X21686429Y-15006124D02*
X21686429Y-14872790D01*
X21686429Y-14891838D02*
X21695952Y-14882314D01*
X21695952Y-14882314D02*
X21715000Y-14872790D01*
X21715000Y-14872790D02*
X21743572Y-14872790D01*
X21743572Y-14872790D02*
X21762619Y-14882314D01*
X21762619Y-14882314D02*
X21772143Y-14901362D01*
X21772143Y-14901362D02*
X21772143Y-15006124D01*
X21772143Y-14901362D02*
X21781667Y-14882314D01*
X21781667Y-14882314D02*
X21800714Y-14872790D01*
X21800714Y-14872790D02*
X21829286Y-14872790D01*
X21829286Y-14872790D02*
X21848333Y-14882314D01*
X21848333Y-14882314D02*
X21857857Y-14901362D01*
X21857857Y-14901362D02*
X21857857Y-15006124D01*
X22248333Y-14796600D02*
X22076905Y-15053743D01*
X22505476Y-14806124D02*
X22524524Y-14806124D01*
X22524524Y-14806124D02*
X22543572Y-14815648D01*
X22543572Y-14815648D02*
X22553095Y-14825171D01*
X22553095Y-14825171D02*
X22562619Y-14844219D01*
X22562619Y-14844219D02*
X22572143Y-14882314D01*
X22572143Y-14882314D02*
X22572143Y-14929933D01*
X22572143Y-14929933D02*
X22562619Y-14968028D01*
X22562619Y-14968028D02*
X22553095Y-14987076D01*
X22553095Y-14987076D02*
X22543572Y-14996600D01*
X22543572Y-14996600D02*
X22524524Y-15006124D01*
X22524524Y-15006124D02*
X22505476Y-15006124D01*
X22505476Y-15006124D02*
X22486429Y-14996600D01*
X22486429Y-14996600D02*
X22476905Y-14987076D01*
X22476905Y-14987076D02*
X22467381Y-14968028D01*
X22467381Y-14968028D02*
X22457857Y-14929933D01*
X22457857Y-14929933D02*
X22457857Y-14882314D01*
X22457857Y-14882314D02*
X22467381Y-14844219D01*
X22467381Y-14844219D02*
X22476905Y-14825171D01*
X22476905Y-14825171D02*
X22486429Y-14815648D01*
X22486429Y-14815648D02*
X22505476Y-14806124D01*
X22657857Y-14987076D02*
X22667381Y-14996600D01*
X22667381Y-14996600D02*
X22657857Y-15006124D01*
X22657857Y-15006124D02*
X22648333Y-14996600D01*
X22648333Y-14996600D02*
X22657857Y-14987076D01*
X22657857Y-14987076D02*
X22657857Y-15006124D01*
X22791191Y-14806124D02*
X22810238Y-14806124D01*
X22810238Y-14806124D02*
X22829286Y-14815648D01*
X22829286Y-14815648D02*
X22838810Y-14825171D01*
X22838810Y-14825171D02*
X22848333Y-14844219D01*
X22848333Y-14844219D02*
X22857857Y-14882314D01*
X22857857Y-14882314D02*
X22857857Y-14929933D01*
X22857857Y-14929933D02*
X22848333Y-14968028D01*
X22848333Y-14968028D02*
X22838810Y-14987076D01*
X22838810Y-14987076D02*
X22829286Y-14996600D01*
X22829286Y-14996600D02*
X22810238Y-15006124D01*
X22810238Y-15006124D02*
X22791191Y-15006124D01*
X22791191Y-15006124D02*
X22772143Y-14996600D01*
X22772143Y-14996600D02*
X22762619Y-14987076D01*
X22762619Y-14987076D02*
X22753095Y-14968028D01*
X22753095Y-14968028D02*
X22743572Y-14929933D01*
X22743572Y-14929933D02*
X22743572Y-14882314D01*
X22743572Y-14882314D02*
X22753095Y-14844219D01*
X22753095Y-14844219D02*
X22762619Y-14825171D01*
X22762619Y-14825171D02*
X22772143Y-14815648D01*
X22772143Y-14815648D02*
X22791191Y-14806124D01*
X23038810Y-14806124D02*
X22943572Y-14806124D01*
X22943572Y-14806124D02*
X22934048Y-14901362D01*
X22934048Y-14901362D02*
X22943572Y-14891838D01*
X22943572Y-14891838D02*
X22962619Y-14882314D01*
X22962619Y-14882314D02*
X23010238Y-14882314D01*
X23010238Y-14882314D02*
X23029286Y-14891838D01*
X23029286Y-14891838D02*
X23038810Y-14901362D01*
X23038810Y-14901362D02*
X23048333Y-14920409D01*
X23048333Y-14920409D02*
X23048333Y-14968028D01*
X23048333Y-14968028D02*
X23038810Y-14987076D01*
X23038810Y-14987076D02*
X23029286Y-14996600D01*
X23029286Y-14996600D02*
X23010238Y-15006124D01*
X23010238Y-15006124D02*
X22962619Y-15006124D01*
X22962619Y-15006124D02*
X22943572Y-14996600D01*
X22943572Y-14996600D02*
X22934048Y-14987076D01*
X23229286Y-14806124D02*
X23134048Y-14806124D01*
X23134048Y-14806124D02*
X23124524Y-14901362D01*
X23124524Y-14901362D02*
X23134048Y-14891838D01*
X23134048Y-14891838D02*
X23153095Y-14882314D01*
X23153095Y-14882314D02*
X23200714Y-14882314D01*
X23200714Y-14882314D02*
X23219762Y-14891838D01*
X23219762Y-14891838D02*
X23229286Y-14901362D01*
X23229286Y-14901362D02*
X23238810Y-14920409D01*
X23238810Y-14920409D02*
X23238810Y-14968028D01*
X23238810Y-14968028D02*
X23229286Y-14987076D01*
X23229286Y-14987076D02*
X23219762Y-14996600D01*
X23219762Y-14996600D02*
X23200714Y-15006124D01*
X23200714Y-15006124D02*
X23153095Y-15006124D01*
X23153095Y-15006124D02*
X23134048Y-14996600D01*
X23134048Y-14996600D02*
X23124524Y-14987076D01*
X23334048Y-15006124D02*
X23372143Y-15006124D01*
X23372143Y-15006124D02*
X23391191Y-14996600D01*
X23391191Y-14996600D02*
X23400714Y-14987076D01*
X23400714Y-14987076D02*
X23419762Y-14958505D01*
X23419762Y-14958505D02*
X23429286Y-14920409D01*
X23429286Y-14920409D02*
X23429286Y-14844219D01*
X23429286Y-14844219D02*
X23419762Y-14825171D01*
X23419762Y-14825171D02*
X23410238Y-14815648D01*
X23410238Y-14815648D02*
X23391191Y-14806124D01*
X23391191Y-14806124D02*
X23353095Y-14806124D01*
X23353095Y-14806124D02*
X23334048Y-14815648D01*
X23334048Y-14815648D02*
X23324524Y-14825171D01*
X23324524Y-14825171D02*
X23315000Y-14844219D01*
X23315000Y-14844219D02*
X23315000Y-14891838D01*
X23315000Y-14891838D02*
X23324524Y-14910886D01*
X23324524Y-14910886D02*
X23334048Y-14920409D01*
X23334048Y-14920409D02*
X23353095Y-14929933D01*
X23353095Y-14929933D02*
X23391191Y-14929933D01*
X23391191Y-14929933D02*
X23410238Y-14920409D01*
X23410238Y-14920409D02*
X23419762Y-14910886D01*
X23419762Y-14910886D02*
X23429286Y-14891838D01*
X23505476Y-14806124D02*
X23505476Y-14844219D01*
X23581667Y-14806124D02*
X23581667Y-14844219D01*
X23876905Y-15082314D02*
X23867381Y-15072790D01*
X23867381Y-15072790D02*
X23848334Y-15044219D01*
X23848334Y-15044219D02*
X23838810Y-15025171D01*
X23838810Y-15025171D02*
X23829286Y-14996600D01*
X23829286Y-14996600D02*
X23819762Y-14948981D01*
X23819762Y-14948981D02*
X23819762Y-14910886D01*
X23819762Y-14910886D02*
X23829286Y-14863267D01*
X23829286Y-14863267D02*
X23838810Y-14834695D01*
X23838810Y-14834695D02*
X23848334Y-14815648D01*
X23848334Y-14815648D02*
X23867381Y-14787076D01*
X23867381Y-14787076D02*
X23876905Y-14777552D01*
X23981667Y-14891838D02*
X23962619Y-14882314D01*
X23962619Y-14882314D02*
X23953095Y-14872790D01*
X23953095Y-14872790D02*
X23943572Y-14853743D01*
X23943572Y-14853743D02*
X23943572Y-14844219D01*
X23943572Y-14844219D02*
X23953095Y-14825171D01*
X23953095Y-14825171D02*
X23962619Y-14815648D01*
X23962619Y-14815648D02*
X23981667Y-14806124D01*
X23981667Y-14806124D02*
X24019762Y-14806124D01*
X24019762Y-14806124D02*
X24038810Y-14815648D01*
X24038810Y-14815648D02*
X24048334Y-14825171D01*
X24048334Y-14825171D02*
X24057857Y-14844219D01*
X24057857Y-14844219D02*
X24057857Y-14853743D01*
X24057857Y-14853743D02*
X24048334Y-14872790D01*
X24048334Y-14872790D02*
X24038810Y-14882314D01*
X24038810Y-14882314D02*
X24019762Y-14891838D01*
X24019762Y-14891838D02*
X23981667Y-14891838D01*
X23981667Y-14891838D02*
X23962619Y-14901362D01*
X23962619Y-14901362D02*
X23953095Y-14910886D01*
X23953095Y-14910886D02*
X23943572Y-14929933D01*
X23943572Y-14929933D02*
X23943572Y-14968028D01*
X23943572Y-14968028D02*
X23953095Y-14987076D01*
X23953095Y-14987076D02*
X23962619Y-14996600D01*
X23962619Y-14996600D02*
X23981667Y-15006124D01*
X23981667Y-15006124D02*
X24019762Y-15006124D01*
X24019762Y-15006124D02*
X24038810Y-14996600D01*
X24038810Y-14996600D02*
X24048334Y-14987076D01*
X24048334Y-14987076D02*
X24057857Y-14968028D01*
X24057857Y-14968028D02*
X24057857Y-14929933D01*
X24057857Y-14929933D02*
X24048334Y-14910886D01*
X24048334Y-14910886D02*
X24038810Y-14901362D01*
X24038810Y-14901362D02*
X24019762Y-14891838D01*
X24295953Y-15006124D02*
X24295953Y-14806124D01*
X24381667Y-15006124D02*
X24381667Y-14901362D01*
X24381667Y-14901362D02*
X24372143Y-14882314D01*
X24372143Y-14882314D02*
X24353096Y-14872790D01*
X24353096Y-14872790D02*
X24324524Y-14872790D01*
X24324524Y-14872790D02*
X24305476Y-14882314D01*
X24305476Y-14882314D02*
X24295953Y-14891838D01*
X24505476Y-15006124D02*
X24486429Y-14996600D01*
X24486429Y-14996600D02*
X24476905Y-14987076D01*
X24476905Y-14987076D02*
X24467381Y-14968028D01*
X24467381Y-14968028D02*
X24467381Y-14910886D01*
X24467381Y-14910886D02*
X24476905Y-14891838D01*
X24476905Y-14891838D02*
X24486429Y-14882314D01*
X24486429Y-14882314D02*
X24505476Y-14872790D01*
X24505476Y-14872790D02*
X24534048Y-14872790D01*
X24534048Y-14872790D02*
X24553096Y-14882314D01*
X24553096Y-14882314D02*
X24562619Y-14891838D01*
X24562619Y-14891838D02*
X24572143Y-14910886D01*
X24572143Y-14910886D02*
X24572143Y-14968028D01*
X24572143Y-14968028D02*
X24562619Y-14987076D01*
X24562619Y-14987076D02*
X24553096Y-14996600D01*
X24553096Y-14996600D02*
X24534048Y-15006124D01*
X24534048Y-15006124D02*
X24505476Y-15006124D01*
X24686429Y-15006124D02*
X24667381Y-14996600D01*
X24667381Y-14996600D02*
X24657857Y-14977552D01*
X24657857Y-14977552D02*
X24657857Y-14806124D01*
X24838810Y-14996600D02*
X24819762Y-15006124D01*
X24819762Y-15006124D02*
X24781667Y-15006124D01*
X24781667Y-15006124D02*
X24762619Y-14996600D01*
X24762619Y-14996600D02*
X24753096Y-14977552D01*
X24753096Y-14977552D02*
X24753096Y-14901362D01*
X24753096Y-14901362D02*
X24762619Y-14882314D01*
X24762619Y-14882314D02*
X24781667Y-14872790D01*
X24781667Y-14872790D02*
X24819762Y-14872790D01*
X24819762Y-14872790D02*
X24838810Y-14882314D01*
X24838810Y-14882314D02*
X24848334Y-14901362D01*
X24848334Y-14901362D02*
X24848334Y-14920409D01*
X24848334Y-14920409D02*
X24753096Y-14939457D01*
X24924524Y-14996600D02*
X24943572Y-15006124D01*
X24943572Y-15006124D02*
X24981667Y-15006124D01*
X24981667Y-15006124D02*
X25000715Y-14996600D01*
X25000715Y-14996600D02*
X25010238Y-14977552D01*
X25010238Y-14977552D02*
X25010238Y-14968028D01*
X25010238Y-14968028D02*
X25000715Y-14948981D01*
X25000715Y-14948981D02*
X24981667Y-14939457D01*
X24981667Y-14939457D02*
X24953096Y-14939457D01*
X24953096Y-14939457D02*
X24934048Y-14929933D01*
X24934048Y-14929933D02*
X24924524Y-14910886D01*
X24924524Y-14910886D02*
X24924524Y-14901362D01*
X24924524Y-14901362D02*
X24934048Y-14882314D01*
X24934048Y-14882314D02*
X24953096Y-14872790D01*
X24953096Y-14872790D02*
X24981667Y-14872790D01*
X24981667Y-14872790D02*
X25000715Y-14882314D01*
X25076905Y-15082314D02*
X25086429Y-15072790D01*
X25086429Y-15072790D02*
X25105477Y-15044219D01*
X25105477Y-15044219D02*
X25115000Y-15025171D01*
X25115000Y-15025171D02*
X25124524Y-14996600D01*
X25124524Y-14996600D02*
X25134048Y-14948981D01*
X25134048Y-14948981D02*
X25134048Y-14910886D01*
X25134048Y-14910886D02*
X25124524Y-14863267D01*
X25124524Y-14863267D02*
X25115000Y-14834695D01*
X25115000Y-14834695D02*
X25105477Y-14815648D01*
X25105477Y-14815648D02*
X25086429Y-14787076D01*
X25086429Y-14787076D02*
X25076905Y-14777552D01*
D19*
X20172000Y-15106100D02*
X20315000Y-15249100D01*
X20315000Y-15106100D02*
X20172000Y-15249100D01*
X20243500Y-15249100D02*
X20315000Y-15177600D01*
X20243500Y-15106100D01*
X20172000Y-15177600D01*
X20243500Y-15249100D01*
D11*
X20667381Y-15270124D02*
X20553095Y-15270124D01*
X20610238Y-15270124D02*
X20610238Y-15070124D01*
X20610238Y-15070124D02*
X20591190Y-15098695D01*
X20591190Y-15098695D02*
X20572143Y-15117743D01*
X20572143Y-15117743D02*
X20553095Y-15127267D01*
X20753095Y-15251076D02*
X20762619Y-15260600D01*
X20762619Y-15260600D02*
X20753095Y-15270124D01*
X20753095Y-15270124D02*
X20743571Y-15260600D01*
X20743571Y-15260600D02*
X20753095Y-15251076D01*
X20753095Y-15251076D02*
X20753095Y-15270124D01*
X20934048Y-15136790D02*
X20934048Y-15270124D01*
X20886429Y-15060600D02*
X20838810Y-15203457D01*
X20838810Y-15203457D02*
X20962619Y-15203457D01*
X21019762Y-15070124D02*
X21143571Y-15070124D01*
X21143571Y-15070124D02*
X21076905Y-15146314D01*
X21076905Y-15146314D02*
X21105476Y-15146314D01*
X21105476Y-15146314D02*
X21124524Y-15155838D01*
X21124524Y-15155838D02*
X21134048Y-15165362D01*
X21134048Y-15165362D02*
X21143571Y-15184409D01*
X21143571Y-15184409D02*
X21143571Y-15232028D01*
X21143571Y-15232028D02*
X21134048Y-15251076D01*
X21134048Y-15251076D02*
X21124524Y-15260600D01*
X21124524Y-15260600D02*
X21105476Y-15270124D01*
X21105476Y-15270124D02*
X21048333Y-15270124D01*
X21048333Y-15270124D02*
X21029286Y-15260600D01*
X21029286Y-15260600D02*
X21019762Y-15251076D01*
X21267381Y-15070124D02*
X21286429Y-15070124D01*
X21286429Y-15070124D02*
X21305476Y-15079648D01*
X21305476Y-15079648D02*
X21315000Y-15089171D01*
X21315000Y-15089171D02*
X21324524Y-15108219D01*
X21324524Y-15108219D02*
X21334048Y-15146314D01*
X21334048Y-15146314D02*
X21334048Y-15193933D01*
X21334048Y-15193933D02*
X21324524Y-15232028D01*
X21324524Y-15232028D02*
X21315000Y-15251076D01*
X21315000Y-15251076D02*
X21305476Y-15260600D01*
X21305476Y-15260600D02*
X21286429Y-15270124D01*
X21286429Y-15270124D02*
X21267381Y-15270124D01*
X21267381Y-15270124D02*
X21248333Y-15260600D01*
X21248333Y-15260600D02*
X21238810Y-15251076D01*
X21238810Y-15251076D02*
X21229286Y-15232028D01*
X21229286Y-15232028D02*
X21219762Y-15193933D01*
X21219762Y-15193933D02*
X21219762Y-15146314D01*
X21219762Y-15146314D02*
X21229286Y-15108219D01*
X21229286Y-15108219D02*
X21238810Y-15089171D01*
X21238810Y-15089171D02*
X21248333Y-15079648D01*
X21248333Y-15079648D02*
X21267381Y-15070124D01*
X21419762Y-15270124D02*
X21419762Y-15136790D01*
X21419762Y-15155838D02*
X21429286Y-15146314D01*
X21429286Y-15146314D02*
X21448333Y-15136790D01*
X21448333Y-15136790D02*
X21476905Y-15136790D01*
X21476905Y-15136790D02*
X21495952Y-15146314D01*
X21495952Y-15146314D02*
X21505476Y-15165362D01*
X21505476Y-15165362D02*
X21505476Y-15270124D01*
X21505476Y-15165362D02*
X21515000Y-15146314D01*
X21515000Y-15146314D02*
X21534048Y-15136790D01*
X21534048Y-15136790D02*
X21562619Y-15136790D01*
X21562619Y-15136790D02*
X21581667Y-15146314D01*
X21581667Y-15146314D02*
X21591191Y-15165362D01*
X21591191Y-15165362D02*
X21591191Y-15270124D01*
X21686429Y-15270124D02*
X21686429Y-15136790D01*
X21686429Y-15155838D02*
X21695952Y-15146314D01*
X21695952Y-15146314D02*
X21715000Y-15136790D01*
X21715000Y-15136790D02*
X21743572Y-15136790D01*
X21743572Y-15136790D02*
X21762619Y-15146314D01*
X21762619Y-15146314D02*
X21772143Y-15165362D01*
X21772143Y-15165362D02*
X21772143Y-15270124D01*
X21772143Y-15165362D02*
X21781667Y-15146314D01*
X21781667Y-15146314D02*
X21800714Y-15136790D01*
X21800714Y-15136790D02*
X21829286Y-15136790D01*
X21829286Y-15136790D02*
X21848333Y-15146314D01*
X21848333Y-15146314D02*
X21857857Y-15165362D01*
X21857857Y-15165362D02*
X21857857Y-15270124D01*
X22248333Y-15060600D02*
X22076905Y-15317743D01*
X22505476Y-15070124D02*
X22524524Y-15070124D01*
X22524524Y-15070124D02*
X22543572Y-15079648D01*
X22543572Y-15079648D02*
X22553095Y-15089171D01*
X22553095Y-15089171D02*
X22562619Y-15108219D01*
X22562619Y-15108219D02*
X22572143Y-15146314D01*
X22572143Y-15146314D02*
X22572143Y-15193933D01*
X22572143Y-15193933D02*
X22562619Y-15232028D01*
X22562619Y-15232028D02*
X22553095Y-15251076D01*
X22553095Y-15251076D02*
X22543572Y-15260600D01*
X22543572Y-15260600D02*
X22524524Y-15270124D01*
X22524524Y-15270124D02*
X22505476Y-15270124D01*
X22505476Y-15270124D02*
X22486429Y-15260600D01*
X22486429Y-15260600D02*
X22476905Y-15251076D01*
X22476905Y-15251076D02*
X22467381Y-15232028D01*
X22467381Y-15232028D02*
X22457857Y-15193933D01*
X22457857Y-15193933D02*
X22457857Y-15146314D01*
X22457857Y-15146314D02*
X22467381Y-15108219D01*
X22467381Y-15108219D02*
X22476905Y-15089171D01*
X22476905Y-15089171D02*
X22486429Y-15079648D01*
X22486429Y-15079648D02*
X22505476Y-15070124D01*
X22657857Y-15251076D02*
X22667381Y-15260600D01*
X22667381Y-15260600D02*
X22657857Y-15270124D01*
X22657857Y-15270124D02*
X22648333Y-15260600D01*
X22648333Y-15260600D02*
X22657857Y-15251076D01*
X22657857Y-15251076D02*
X22657857Y-15270124D01*
X22791191Y-15070124D02*
X22810238Y-15070124D01*
X22810238Y-15070124D02*
X22829286Y-15079648D01*
X22829286Y-15079648D02*
X22838810Y-15089171D01*
X22838810Y-15089171D02*
X22848333Y-15108219D01*
X22848333Y-15108219D02*
X22857857Y-15146314D01*
X22857857Y-15146314D02*
X22857857Y-15193933D01*
X22857857Y-15193933D02*
X22848333Y-15232028D01*
X22848333Y-15232028D02*
X22838810Y-15251076D01*
X22838810Y-15251076D02*
X22829286Y-15260600D01*
X22829286Y-15260600D02*
X22810238Y-15270124D01*
X22810238Y-15270124D02*
X22791191Y-15270124D01*
X22791191Y-15270124D02*
X22772143Y-15260600D01*
X22772143Y-15260600D02*
X22762619Y-15251076D01*
X22762619Y-15251076D02*
X22753095Y-15232028D01*
X22753095Y-15232028D02*
X22743572Y-15193933D01*
X22743572Y-15193933D02*
X22743572Y-15146314D01*
X22743572Y-15146314D02*
X22753095Y-15108219D01*
X22753095Y-15108219D02*
X22762619Y-15089171D01*
X22762619Y-15089171D02*
X22772143Y-15079648D01*
X22772143Y-15079648D02*
X22791191Y-15070124D01*
X23038810Y-15070124D02*
X22943572Y-15070124D01*
X22943572Y-15070124D02*
X22934048Y-15165362D01*
X22934048Y-15165362D02*
X22943572Y-15155838D01*
X22943572Y-15155838D02*
X22962619Y-15146314D01*
X22962619Y-15146314D02*
X23010238Y-15146314D01*
X23010238Y-15146314D02*
X23029286Y-15155838D01*
X23029286Y-15155838D02*
X23038810Y-15165362D01*
X23038810Y-15165362D02*
X23048333Y-15184409D01*
X23048333Y-15184409D02*
X23048333Y-15232028D01*
X23048333Y-15232028D02*
X23038810Y-15251076D01*
X23038810Y-15251076D02*
X23029286Y-15260600D01*
X23029286Y-15260600D02*
X23010238Y-15270124D01*
X23010238Y-15270124D02*
X22962619Y-15270124D01*
X22962619Y-15270124D02*
X22943572Y-15260600D01*
X22943572Y-15260600D02*
X22934048Y-15251076D01*
X23219762Y-15070124D02*
X23181667Y-15070124D01*
X23181667Y-15070124D02*
X23162619Y-15079648D01*
X23162619Y-15079648D02*
X23153095Y-15089171D01*
X23153095Y-15089171D02*
X23134048Y-15117743D01*
X23134048Y-15117743D02*
X23124524Y-15155838D01*
X23124524Y-15155838D02*
X23124524Y-15232028D01*
X23124524Y-15232028D02*
X23134048Y-15251076D01*
X23134048Y-15251076D02*
X23143572Y-15260600D01*
X23143572Y-15260600D02*
X23162619Y-15270124D01*
X23162619Y-15270124D02*
X23200714Y-15270124D01*
X23200714Y-15270124D02*
X23219762Y-15260600D01*
X23219762Y-15260600D02*
X23229286Y-15251076D01*
X23229286Y-15251076D02*
X23238810Y-15232028D01*
X23238810Y-15232028D02*
X23238810Y-15184409D01*
X23238810Y-15184409D02*
X23229286Y-15165362D01*
X23229286Y-15165362D02*
X23219762Y-15155838D01*
X23219762Y-15155838D02*
X23200714Y-15146314D01*
X23200714Y-15146314D02*
X23162619Y-15146314D01*
X23162619Y-15146314D02*
X23143572Y-15155838D01*
X23143572Y-15155838D02*
X23134048Y-15165362D01*
X23134048Y-15165362D02*
X23124524Y-15184409D01*
X23305476Y-15070124D02*
X23429286Y-15070124D01*
X23429286Y-15070124D02*
X23362619Y-15146314D01*
X23362619Y-15146314D02*
X23391191Y-15146314D01*
X23391191Y-15146314D02*
X23410238Y-15155838D01*
X23410238Y-15155838D02*
X23419762Y-15165362D01*
X23419762Y-15165362D02*
X23429286Y-15184409D01*
X23429286Y-15184409D02*
X23429286Y-15232028D01*
X23429286Y-15232028D02*
X23419762Y-15251076D01*
X23419762Y-15251076D02*
X23410238Y-15260600D01*
X23410238Y-15260600D02*
X23391191Y-15270124D01*
X23391191Y-15270124D02*
X23334048Y-15270124D01*
X23334048Y-15270124D02*
X23315000Y-15260600D01*
X23315000Y-15260600D02*
X23305476Y-15251076D01*
X23505476Y-15070124D02*
X23505476Y-15108219D01*
X23581667Y-15070124D02*
X23581667Y-15108219D01*
X23876905Y-15346314D02*
X23867381Y-15336790D01*
X23867381Y-15336790D02*
X23848334Y-15308219D01*
X23848334Y-15308219D02*
X23838810Y-15289171D01*
X23838810Y-15289171D02*
X23829286Y-15260600D01*
X23829286Y-15260600D02*
X23819762Y-15212981D01*
X23819762Y-15212981D02*
X23819762Y-15174886D01*
X23819762Y-15174886D02*
X23829286Y-15127267D01*
X23829286Y-15127267D02*
X23838810Y-15098695D01*
X23838810Y-15098695D02*
X23848334Y-15079648D01*
X23848334Y-15079648D02*
X23867381Y-15051076D01*
X23867381Y-15051076D02*
X23876905Y-15041552D01*
X23981667Y-15155838D02*
X23962619Y-15146314D01*
X23962619Y-15146314D02*
X23953095Y-15136790D01*
X23953095Y-15136790D02*
X23943572Y-15117743D01*
X23943572Y-15117743D02*
X23943572Y-15108219D01*
X23943572Y-15108219D02*
X23953095Y-15089171D01*
X23953095Y-15089171D02*
X23962619Y-15079648D01*
X23962619Y-15079648D02*
X23981667Y-15070124D01*
X23981667Y-15070124D02*
X24019762Y-15070124D01*
X24019762Y-15070124D02*
X24038810Y-15079648D01*
X24038810Y-15079648D02*
X24048334Y-15089171D01*
X24048334Y-15089171D02*
X24057857Y-15108219D01*
X24057857Y-15108219D02*
X24057857Y-15117743D01*
X24057857Y-15117743D02*
X24048334Y-15136790D01*
X24048334Y-15136790D02*
X24038810Y-15146314D01*
X24038810Y-15146314D02*
X24019762Y-15155838D01*
X24019762Y-15155838D02*
X23981667Y-15155838D01*
X23981667Y-15155838D02*
X23962619Y-15165362D01*
X23962619Y-15165362D02*
X23953095Y-15174886D01*
X23953095Y-15174886D02*
X23943572Y-15193933D01*
X23943572Y-15193933D02*
X23943572Y-15232028D01*
X23943572Y-15232028D02*
X23953095Y-15251076D01*
X23953095Y-15251076D02*
X23962619Y-15260600D01*
X23962619Y-15260600D02*
X23981667Y-15270124D01*
X23981667Y-15270124D02*
X24019762Y-15270124D01*
X24019762Y-15270124D02*
X24038810Y-15260600D01*
X24038810Y-15260600D02*
X24048334Y-15251076D01*
X24048334Y-15251076D02*
X24057857Y-15232028D01*
X24057857Y-15232028D02*
X24057857Y-15193933D01*
X24057857Y-15193933D02*
X24048334Y-15174886D01*
X24048334Y-15174886D02*
X24038810Y-15165362D01*
X24038810Y-15165362D02*
X24019762Y-15155838D01*
X24295953Y-15270124D02*
X24295953Y-15070124D01*
X24381667Y-15270124D02*
X24381667Y-15165362D01*
X24381667Y-15165362D02*
X24372143Y-15146314D01*
X24372143Y-15146314D02*
X24353096Y-15136790D01*
X24353096Y-15136790D02*
X24324524Y-15136790D01*
X24324524Y-15136790D02*
X24305476Y-15146314D01*
X24305476Y-15146314D02*
X24295953Y-15155838D01*
X24505476Y-15270124D02*
X24486429Y-15260600D01*
X24486429Y-15260600D02*
X24476905Y-15251076D01*
X24476905Y-15251076D02*
X24467381Y-15232028D01*
X24467381Y-15232028D02*
X24467381Y-15174886D01*
X24467381Y-15174886D02*
X24476905Y-15155838D01*
X24476905Y-15155838D02*
X24486429Y-15146314D01*
X24486429Y-15146314D02*
X24505476Y-15136790D01*
X24505476Y-15136790D02*
X24534048Y-15136790D01*
X24534048Y-15136790D02*
X24553096Y-15146314D01*
X24553096Y-15146314D02*
X24562619Y-15155838D01*
X24562619Y-15155838D02*
X24572143Y-15174886D01*
X24572143Y-15174886D02*
X24572143Y-15232028D01*
X24572143Y-15232028D02*
X24562619Y-15251076D01*
X24562619Y-15251076D02*
X24553096Y-15260600D01*
X24553096Y-15260600D02*
X24534048Y-15270124D01*
X24534048Y-15270124D02*
X24505476Y-15270124D01*
X24686429Y-15270124D02*
X24667381Y-15260600D01*
X24667381Y-15260600D02*
X24657857Y-15241552D01*
X24657857Y-15241552D02*
X24657857Y-15070124D01*
X24838810Y-15260600D02*
X24819762Y-15270124D01*
X24819762Y-15270124D02*
X24781667Y-15270124D01*
X24781667Y-15270124D02*
X24762619Y-15260600D01*
X24762619Y-15260600D02*
X24753096Y-15241552D01*
X24753096Y-15241552D02*
X24753096Y-15165362D01*
X24753096Y-15165362D02*
X24762619Y-15146314D01*
X24762619Y-15146314D02*
X24781667Y-15136790D01*
X24781667Y-15136790D02*
X24819762Y-15136790D01*
X24819762Y-15136790D02*
X24838810Y-15146314D01*
X24838810Y-15146314D02*
X24848334Y-15165362D01*
X24848334Y-15165362D02*
X24848334Y-15184409D01*
X24848334Y-15184409D02*
X24753096Y-15203457D01*
X24924524Y-15260600D02*
X24943572Y-15270124D01*
X24943572Y-15270124D02*
X24981667Y-15270124D01*
X24981667Y-15270124D02*
X25000715Y-15260600D01*
X25000715Y-15260600D02*
X25010238Y-15241552D01*
X25010238Y-15241552D02*
X25010238Y-15232028D01*
X25010238Y-15232028D02*
X25000715Y-15212981D01*
X25000715Y-15212981D02*
X24981667Y-15203457D01*
X24981667Y-15203457D02*
X24953096Y-15203457D01*
X24953096Y-15203457D02*
X24934048Y-15193933D01*
X24934048Y-15193933D02*
X24924524Y-15174886D01*
X24924524Y-15174886D02*
X24924524Y-15165362D01*
X24924524Y-15165362D02*
X24934048Y-15146314D01*
X24934048Y-15146314D02*
X24953096Y-15136790D01*
X24953096Y-15136790D02*
X24981667Y-15136790D01*
X24981667Y-15136790D02*
X25000715Y-15146314D01*
X25076905Y-15346314D02*
X25086429Y-15336790D01*
X25086429Y-15336790D02*
X25105477Y-15308219D01*
X25105477Y-15308219D02*
X25115000Y-15289171D01*
X25115000Y-15289171D02*
X25124524Y-15260600D01*
X25124524Y-15260600D02*
X25134048Y-15212981D01*
X25134048Y-15212981D02*
X25134048Y-15174886D01*
X25134048Y-15174886D02*
X25124524Y-15127267D01*
X25124524Y-15127267D02*
X25115000Y-15098695D01*
X25115000Y-15098695D02*
X25105477Y-15079648D01*
X25105477Y-15079648D02*
X25086429Y-15051076D01*
X25086429Y-15051076D02*
X25076905Y-15041552D01*
M02*
